<svg xmlns="http://www.w3.org/2000/svg" enable-background="new 0 0 256 256" viewBox="0 0 256 256" id="boost"><polygon fill="#fcc24c" points="83.898 4 193.405 4 138.652 82.372 230.98 82.372 59.206 252 88.193 142.493 14.115 142.493"></polygon><path fill="#dea42e" d="M138.652,82.372L193.405,4h-10l-49.026,70.175C131.965,77.63,134.437,82.372,138.652,82.372L138.652,82.372z
			"></path><polygon fill="#dea42e" points="230.98 82.372 220.98 82.372 64.883 246.394"></polygon><polygon fill="#fce06a" points="83.898 4 14.115 142.493 24.115 142.493 93.898 4"></polygon><path fill="#fce06a" d="M90.826,142.493h-2.633L59.206,252l0.525-0.518L95.741,149.44C96.938,146.049,94.422,142.493,90.826,142.493
			z"></path><path fill="#690589" d="M59.205,254c-0.344,0-0.689-0.088-1.002-0.27c-0.78-0.452-1.161-1.371-0.931-2.242l28.322-106.995H14.115
			c-0.694,0-1.339-0.36-1.703-0.951c-0.364-0.591-0.396-1.329-0.083-1.949L82.112,3.1c0.34-0.675,1.031-1.1,1.786-1.1h109.506
			c0.746,0,1.429,0.415,1.773,1.076c0.345,0.661,0.293,1.458-0.134,2.07l-52.556,75.227h88.492c0.811,0,1.542,0.49,1.85,1.24
			c0.308,0.75,0.132,1.613-0.445,2.183L60.611,253.423C60.227,253.803,59.718,254,59.205,254z M17.362,140.493h70.831
			c0.621,0,1.206,0.288,1.585,0.78c0.378,0.492,0.507,1.131,0.349,1.731L63.014,245.428L226.109,84.372h-87.458
			c-0.746,0-1.429-0.415-1.773-1.076c-0.345-0.661-0.293-1.458,0.134-2.07L189.568,6H85.13L17.362,140.493z"></path><polygon fill="#fcc24c" points="160.041 114 220.976 114 190.509 157.61 241.885 157.61 146.301 252 162.431 191.065 121.21 191.065"></polygon><polygon fill="#fce06a" points="160.041 114 121.21 191.065 131.21 191.065 170.041 114"></polygon><path fill="#fce06a" d="M164.874,191.065h-2.444L146.301,252l0.425-0.419l22.751-53.561
			C170.877,194.722,168.457,191.065,164.874,191.065z"></path><polygon fill="#dea42e" points="241.885 157.61 231.885 157.61 148.602 249.728"></polygon><path fill="#dea42e" d="M190.509,157.61L220.976,114h-10l-24.974,35.747c-2.315,3.314,0.056,7.864,4.099,7.864H190.509z"></path><path fill="#690589" d="M146.3 254c-.344 0-.689-.088-1.002-.27-.78-.452-1.161-1.371-.931-2.242l15.465-58.423H121.21c-.694 0-1.339-.36-1.703-.951-.364-.591-.396-1.329-.083-1.949l38.831-77.065c.34-.675 1.031-1.1 1.786-1.1h60.935c.746 0 1.429.415 1.773 1.076.345.661.293 1.458-.134 2.07l-28.27 40.465h47.54c.811 0 1.542.49 1.85 1.24.308.75.132 1.613-.445 2.183l-95.584 94.39C147.322 253.803 146.813 254 146.3 254zM124.457 189.065h37.974c.621 0 1.206.288 1.585.78.378.492.507 1.131.349 1.731l-14.255 53.852 86.904-85.818h-46.505c-.746 0-1.429-.415-1.773-1.076-.345-.661-.293-1.458.134-2.07L217.139 116h-55.866L124.457 189.065zM53.604 86.118c-.303 0-.61-.069-.898-.214-.986-.497-1.383-1.7-.886-2.686l6.047-12c.497-.986 1.702-1.383 2.686-.886.986.497 1.383 1.7.886 2.686l-6.047 12C55.04 85.715 54.335 86.118 53.604 86.118z"></path></svg>