<svg width="100" height="100" viewBox="0 0 100 100" fill="none" xmlns="http://www.w3.org/2000/svg">
<path d="M50 100C77.6142 100 100 77.6143 100 50C100 22.3858 77.6142 0 50 0C22.3858 0 0 22.3858 0 50C0 77.6143 22.3858 100 50 100Z" fill="url(#paint0_radial)"/>
<path d="M50 97.4998C76.2335 97.4998 97.5 76.2333 97.5 49.9998C97.5 23.7663 76.2335 2.49982 50 2.49982C23.7665 2.49982 2.5 23.7663 2.5 49.9998C2.5 76.2333 23.7665 97.4998 50 97.4998Z" fill="url(#paint1_radial)"/>
<path d="M50 84.9998C69.33 84.9998 85 69.3298 85 49.9998C85 30.6699 69.33 14.9998 50 14.9998C30.67 14.9998 15 30.6699 15 49.9998C15 69.3298 30.67 84.9998 50 84.9998Z" fill="url(#paint2_radial)"/>
<path d="M50 82.9998C68.2254 82.9998 83 68.2252 83 49.9998C83 31.7744 68.2254 16.9998 50 16.9998C31.7746 16.9998 17 31.7744 17 49.9998C17 68.2252 31.7746 82.9998 50 82.9998Z" fill="url(#paint3_radial)"/>
<path d="M50 82.9998C68.2254 82.9998 83 68.2252 83 49.9998C83 31.7744 68.2254 16.9998 50 16.9998C31.7746 16.9998 17 31.7744 17 49.9998C17 68.2252 31.7746 82.9998 50 82.9998Z" fill="url(#paint4_radial)"/>
<path d="M50 82.9998C68.2254 82.9998 83 68.2252 83 49.9998C83 31.7744 68.2254 16.9998 50 16.9998C31.7746 16.9998 17 31.7744 17 49.9998C17 68.2252 31.7746 82.9998 50 82.9998Z" fill="url(#paint5_radial)"/>
<path fill-rule="evenodd" clip-rule="evenodd" d="M76.9949 49.4907C76.8917 44.0164 75.1267 38.7028 71.9338 34.2547C71.906 34.2162 71.8702 34.1842 71.8287 34.161C71.7873 34.1377 71.7413 34.1237 71.694 34.12C71.6466 34.1163 71.599 34.123 71.5545 34.1395C71.51 34.156 71.4696 34.1821 71.4361 34.2158L68.0157 37.636C67.9602 37.6922 67.9268 37.7666 67.9218 37.8454L67.9218 37.8555L67.9218 37.8652L67.9218 37.8751L67.9218 37.885L67.9218 37.895L67.9218 37.9049L67.9218 37.9147V37.9247L67.9218 37.9344L67.9218 37.9444L67.9218 37.9542L67.9218 37.9642L67.9218 37.9741L67.9218 37.984L67.9218 37.9939L67.9218 38.0038V38.0138L67.9218 38.0235L67.9218 38.0336L67.9218 38.0433L67.9218 38.0533L67.9218 38.0632L67.9218 38.0731L67.9218 38.083L67.9218 38.0929V38.1029L67.9218 38.1127L67.9218 38.1227L67.9218 38.1324L67.9218 38.1424L67.9218 38.1523L67.9218 38.1622L67.9218 38.1721L67.9218 38.182V38.192L67.9218 38.2018L67.9218 38.2118L67.9218 38.2215L67.9218 38.2315L67.9218 38.2414L67.9218 38.2512L67.9218 38.2612L67.9218 38.2711V38.281L67.9218 38.2908L67.9218 38.3008L67.9218 38.3105L67.9218 38.3205L67.9218 38.3304L67.9218 38.3403L67.9218 38.3502L67.9218 38.3601L67.9218 38.37L67.9218 38.3799V38.3899L67.9218 38.3996L67.9218 38.4096L67.9218 38.4195L67.9218 38.4294L67.9218 38.4393L67.9218 38.4492L67.9218 38.4591L67.9218 38.469V38.479L67.9218 38.4888L67.9218 38.4988L67.9218 38.5085L67.9218 38.5185L67.9218 38.5284L67.9218 38.5383L67.9218 38.5482L67.9218 38.5581V38.5681L67.9218 38.5779L67.9218 38.5879L67.9218 38.5976L67.9218 38.6076L67.9218 38.6175L67.9218 38.6274L67.9218 38.6373L67.9218 38.6472V38.6572L67.9218 38.6669L67.9218 38.6769L67.9218 38.6866L67.9218 38.6966L67.9218 38.7065L67.9218 38.7164L67.9218 38.7263L67.9218 38.7362V38.7462L67.9218 38.756L67.9218 38.766L67.9218 38.7757L67.9218 38.7857L67.9218 38.7956L67.9218 38.8055L67.9218 38.8154L67.9218 38.8253V38.8353C67.913 38.913 67.9317 38.9914 67.9747 39.0567C70.284 42.5514 71.5276 46.642 71.5541 50.8307C71.5314 51.4227 71.4901 52.0155 71.4183 52.6076C71.0616 57.156 69.2698 61.4736 66.3014 64.9381C63.3329 68.4026 59.3411 70.835 54.9012 71.8849C50.4614 72.9347 45.8028 72.5478 41.5971 70.7796C37.3914 69.0115 33.8557 65.9536 31.4997 62.0467C29.1437 58.1399 28.089 53.5857 28.4878 49.0409C28.8866 44.496 30.7181 40.1952 33.7184 36.7583C36.7188 33.3214 40.733 30.926 45.1824 29.9172C49.6317 28.9085 54.2865 29.3385 58.4757 31.1455L55.1187 34.4938C55.0754 34.5367 55.0211 34.5669 54.9619 34.5813C54.9026 34.5956 54.8405 34.5935 54.7823 34.5752C52.3578 33.8193 49.7896 33.6437 47.2847 34.0626C44.7799 34.4815 42.4085 35.4831 40.3618 36.9867C38.3151 38.4903 36.6504 40.4539 35.5019 42.719C34.3534 44.9841 33.7532 47.4873 33.7498 50.027L33.7499 50.0321L33.7498 50.0368L33.7499 50.042L33.7498 50.0467L33.7499 50.0519L33.7498 50.0566L33.7499 50.0617L33.7498 50.0665L33.7499 50.0716L33.7498 50.0765L33.7499 50.0816L33.7498 50.0863L33.7499 50.0914L33.7498 50.0963L33.7499 50.1014L33.7498 50.1061L33.7499 50.1112L33.7498 50.1161L33.7499 50.1212L33.7498 50.126L33.7499 50.1311L33.7498 50.1358L33.7499 50.141L33.7498 50.1457L33.7499 50.1509L33.7498 50.1556L33.7499 50.1607L33.7498 50.1656L33.7499 50.1708L33.7498 50.1754L33.7499 50.1805L33.7498 50.1854L33.7499 50.1905L33.7498 50.1952L33.7499 50.2003L33.7498 50.2052L33.7499 50.2103L33.7498 50.2151L33.7499 50.2202L33.7498 50.225L33.7499 50.2301L33.7498 50.2348L33.7499 50.24L33.7498 50.2447L33.7499 50.2499L33.7498 50.2547L33.7499 50.2599L33.7498 50.2645L33.7499 50.2696L33.7498 50.2745L33.7499 50.2796L33.7498 50.2843L33.7499 50.2894L33.7498 50.2943L33.7499 50.2994L33.7498 50.3042L33.7499 50.3093L33.7498 50.3141L33.7499 50.3192L33.7498 50.324L33.7499 50.3291L33.7498 50.3338L33.7499 50.339L33.7498 50.3439L33.7499 50.349L33.7498 50.3536L33.7499 50.3587L33.7498 50.3636L33.7499 50.3688L33.7498 50.3734L33.7499 50.3785L33.7498 50.3834L33.7499 50.3885L33.7498 50.3933L33.7499 50.3984L33.7498 50.4032L33.7499 50.4083L33.7498 50.4131L33.7499 50.4182L33.7498 50.423L33.7499 50.4281L33.7498 50.433L33.7499 50.4381L33.7498 50.4427L33.7499 50.4479L33.7498 50.4527L33.7499 50.4579L33.7498 50.4625L33.7499 50.4676L33.7498 50.4725L33.7499 50.4776L33.7498 50.4824L33.7499 50.4875L33.7498 50.4923L33.7499 50.4974L33.7498 50.5022L33.7499 50.5073L33.7498 50.5121L33.7499 50.5172L33.7498 50.5221L33.7499 50.5272L33.7498 50.5318L33.7499 50.537L33.7498 50.5419L33.7499 50.547L33.7498 50.5516L33.7499 50.5567L33.7498 50.5616L33.7499 50.5668L33.7498 50.5715L33.7499 50.5766L33.7498 50.5814L33.7499 50.5865L33.7498 50.5913L33.7499 50.5964L33.7498 50.6012L33.7499 50.6063L33.7498 50.6111L33.7499 50.6162L33.7498 50.621L33.7499 50.6261L33.7498 50.631L33.7499 50.6361L33.7498 50.6407L33.7499 50.6459L33.7498 50.6507L33.7499 50.6559L33.7498 50.6606L33.7499 50.6658L33.7498 50.6705L33.7499 50.6756L33.7498 50.6804L33.7499 50.6855L33.7498 50.6903L33.7499 50.6954L33.7498 50.7002L33.7499 50.7053L33.7498 50.7101L33.7499 50.7152L33.7498 50.7201L33.7499 50.7252L33.7498 50.7298L33.7499 50.735L33.7498 50.7398L33.7499 50.745L33.7498 50.7496L33.7499 50.7547L33.7498 50.7596L33.7499 50.7648L33.7498 50.7695L33.7499 50.7746L33.7498 50.7794L33.7499 50.7845L33.7498 50.7893L33.7499 50.7944L33.7498 50.7992L33.7499 50.8043L33.7498 50.8092L33.7499 50.8143L33.7498 50.819L33.7499 50.8241L33.7498 50.829L33.7499 50.8341L33.7498 50.8387L33.7499 50.8439L33.7498 50.8487L33.7499 50.8539L33.7498 50.8586L33.7499 50.8638L33.7498 50.8685L33.7499 50.8736L33.7498 50.8784L33.7499 50.8835L33.7498 50.8883L33.7499 50.8934L33.7498 50.8983L33.7499 50.9034L33.7498 50.9081L33.7499 50.9132L33.7498 50.9181L33.7499 50.9232L33.7498 50.9278L33.7499 50.933L33.7498 50.9378L33.7499 50.943L33.7498 50.9477L33.7499 50.9529L33.7498 50.9576L33.7499 50.9627L33.7498 50.9675L33.7499 50.9726L33.7498 50.9774L33.7499 50.9825L33.7498 50.9874L33.7499 50.9925L33.7498 50.9972L33.7499 51.0023L33.7498 51.0072L33.7499 51.0123L33.7498 51.0169L33.7499 51.0221L33.7498 51.027C33.7454 55.3229 35.4466 59.4449 38.4797 62.4872C41.5128 65.5294 45.6297 67.2431 49.9256 67.2517C54.2215 67.2603 58.3452 65.563 61.3904 62.5328C64.4356 59.5027 66.1533 55.3876 66.1661 51.0917L66.1659 51.0865L66.1661 51.0818L66.1659 51.0765L66.1661 51.0719L66.1659 51.0668L66.1661 51.062L66.1659 51.0567L66.1661 51.0521L66.1659 51.0469L66.1661 51.0421L66.1659 51.037L66.1661 51.0323L66.1659 51.0271L66.1661 51.0223L66.1659 51.0172L66.1661 51.0126L66.1659 51.0073L66.1661 51.0025L66.1659 50.9974L66.1661 50.9927L66.1659 50.9874L66.1661 50.9828L66.1659 50.9776L66.1661 50.9729L66.1659 50.9676L66.1661 50.963L66.1659 50.9577L66.1661 50.953L66.1659 50.9479L66.1661 50.9432L66.1659 50.938L66.1661 50.9332L66.1659 50.9281L66.1661 50.9234L66.1659 50.9182L66.1661 50.9134L66.1659 50.9083L66.1661 50.9035L66.1659 50.8983L66.1661 50.8937L66.1659 50.8885L66.1661 50.8838L66.1659 50.8785L66.1661 50.8739L66.1659 50.8686L66.1661 50.8639L66.1659 50.8587L66.1661 50.8541L66.1659 50.8489L66.1661 50.8441L66.1659 50.839L66.1661 50.8343L66.1659 50.8291L66.1661 50.8243L66.1659 50.8192L66.1661 50.8144L66.1659 50.8092L66.1661 50.8045L66.1659 50.7994L66.1661 50.7947L66.1659 50.7894L66.1661 50.7848L66.1659 50.7795L66.1661 50.7748L66.1659 50.7696L66.1661 50.765L66.1659 50.7597L66.1661 50.755L66.1659 50.7499L66.1661 50.7452L66.1659 50.74L66.1661 50.7352L66.1659 50.7301L66.1661 50.7253L66.1659 50.7201L66.1661 50.7154L66.1659 50.7103L66.1661 50.7055L66.1659 50.7003L66.1661 50.6957L66.1659 50.6905L66.1661 50.6858L66.1659 50.6805L66.1661 50.6759L66.1659 50.6706L66.1661 50.6659L66.1659 50.6607L66.1661 50.6561L66.1659 50.6509L66.1661 50.6461L66.1659 50.641L66.1661 50.6362L66.1659 50.631L66.1661 50.6263L66.1659 50.6212L66.1661 50.6164L66.1659 50.6112L66.1661 50.6065L66.1659 50.6014L66.1661 50.5967L66.1659 50.5914L66.1661 50.5868L66.1659 50.5815L66.1661 50.5768L66.1659 50.5716L66.1661 50.567L66.1659 50.5617L66.1661 50.557L66.1659 50.5519L66.1661 50.5472L66.1659 50.542L66.1661 50.5372L66.1659 50.5321L66.1661 50.5273L66.1659 50.5221L66.1661 50.5174L66.1659 50.5123L66.1661 50.5075L66.1659 50.5023L66.1661 50.4977L66.1659 50.4924L66.1661 50.4877L66.1659 50.4825L66.1661 50.4779L66.1659 50.4726L66.1661 50.4679L66.1659 50.4627L66.1661 50.4581L66.1659 50.4529L66.1661 50.4481L66.1659 50.443L66.1661 50.4382L66.1659 50.433L66.1661 50.4283L66.1659 50.4232L66.1661 50.4184L66.1659 50.4132L66.1661 50.4086L66.1659 50.4033L66.1661 50.3985L66.1659 50.3934L66.1661 50.3888L66.1659 50.3835L66.1661 50.3788L66.1659 50.3736L66.1661 50.369L66.1659 50.3638L66.1661 50.359L66.1659 50.3539L66.1661 50.3491L66.1659 50.3439L66.1661 50.3392L66.1659 50.3341L66.1661 50.3293L66.1659 50.3241L66.1661 50.3194L66.1659 50.3142L66.1661 50.3094L66.1659 50.3043L66.1661 50.2997L66.1659 50.2944L66.1661 50.2897L66.1659 50.2845L66.1661 50.2799L66.1659 50.2746L66.1661 50.2699L66.1659 50.2648L66.1661 50.26L66.1659 50.2547L66.1661 50.2501L66.1659 50.245L66.1661 50.2402L66.1659 50.235L66.1661 50.2303L66.1659 50.2251L66.1661 50.2203L66.1659 50.2152L66.1661 50.2106L66.1659 50.2053L66.1661 50.2005L66.1659 50.1954L66.1661 50.1908L66.1659 50.1855L66.1661 50.1808L66.1659 50.1756L66.1661 50.1709L66.1659 50.1656L66.1661 50.161L66.1659 50.1559L66.1661 50.1511L66.1659 50.1459L66.1661 50.1412L66.1659 50.136L66.1661 50.1312L66.1659 50.1261L66.1661 50.1214L66.1659 50.1162L66.1661 50.1114L66.1659 50.1063L66.1661 50.1017L66.1659 50.0964L66.1661 50.0917C66.1662 49.2924 66.1051 48.4943 65.9835 47.7043C65.9714 47.6274 65.9321 47.5574 65.8727 47.5069C65.8134 47.4565 65.738 47.4289 65.6601 47.4293H53.1101C53.0224 47.4293 52.9383 47.4642 52.8763 47.5262L48.1262 52.2762C48.0762 52.3259 48.0439 52.3907 48.0344 52.4606V52.6881L48.0343 52.6981V53.4505C48.0256 53.4983 48.0275 53.5473 48.0399 53.5942C48.0522 53.6411 48.0748 53.6847 48.1058 53.7219C48.1369 53.7591 48.1758 53.7891 48.2197 53.8097C48.2637 53.8302 48.3116 53.8408 48.36 53.8408H60.0042C60.0339 53.8434 60.0632 53.8503 60.0909 53.8612C59.2551 56.1573 57.666 58.1026 55.5829 59.3799C53.4998 60.6571 51.0454 61.1911 48.6199 60.8946C46.1944 60.5982 43.9408 59.4889 42.2266 57.7475C40.5124 56.0062 39.4387 53.7355 39.1804 51.3056C39.153 51.0492 39.1613 50.7927 39.1523 50.536C39.3047 47.7894 40.4994 45.2046 42.4925 43.3087C44.4856 41.4128 47.127 40.3488 49.8778 40.3338H49.9536C52.0506 40.3153 54.1047 40.9277 55.8492 42.0914C55.914 42.1352 55.992 42.1553 56.0698 42.1481C56.1477 42.1408 56.2206 42.1067 56.2762 42.0517L67.442 30.8551C67.4744 30.8224 67.4994 30.7834 67.5156 30.7403C67.5318 30.6973 67.5387 30.6512 67.5358 30.6053L67.5359 30.5953V30.526L67.5358 30.5162L67.5359 30.5062V30.4369L67.5358 30.4271L67.5359 30.4172V30.3479L67.5358 30.3381L67.5359 30.3281V30.2588L67.5358 30.249L67.5359 30.239V30.1697L67.5358 30.1599L67.5359 30.1499L67.5358 30.1401L67.5359 30.1301V30.0906L67.5359 30.0805L67.5359 30.0708L67.5359 30.0608L67.5359 30.051L67.5359 30.041V29.9914L67.5359 29.9817L67.5359 29.9717L67.5359 29.9619L67.5359 29.9519V29.8826L67.5359 29.8728L67.5359 29.8628V29.7934L67.5359 29.7837L67.5359 29.7737V29.7043L67.5359 29.6946L67.5359 29.6846V29.6153C67.5355 29.5693 67.5252 29.5239 67.5057 29.4822C67.4862 29.4405 67.4579 29.4035 67.4228 29.3736C63.5108 26.0692 58.7397 23.9452 53.6663 23.2499C48.5929 22.5545 43.4264 23.3163 38.7695 25.4463C34.1127 27.5762 30.1575 30.9866 27.3657 35.2794C24.5738 39.5722 23.0603 44.5705 23.0018 49.691L23.0018 49.6985L23.0018 49.701L23.0019 49.7082L23.0018 49.711L23.0018 49.7181L23.0018 49.7208L23.0019 49.7281L23.0018 49.7308L23.0018 49.738L23.0018 49.7406L23.0019 49.7479L23.0018 49.7506L23.0018 49.7578L23.0018 49.7605L23.0018 49.7677L23.0018 49.7704L23.0018 49.7777L23.0018 49.7801L23.0018 49.7876L23.0018 49.79L23.0019 49.7975L23.0018 49.8002L23.0018 49.8072L23.0018 49.8099L23.0019 49.8172L23.0018 49.8199L23.0018 49.8271L23.0018 49.8296L23.0019 49.837L23.0018 49.8396L23.0018 49.847L23.0018 49.8496L23.0018 49.8568L23.0018 49.8595L23.0018 49.8667L23.0018 49.8694L23.0018 49.8767L23.0018 49.8791L23.0019 49.8866L23.0018 49.8891L23.0018 49.8963L23.0018 49.899L23.0019 49.9062L23.0018 49.909L23.0018 49.9162L23.0018 49.9187L23.0019 49.9261L23.0018 49.9287L23.0018 49.9361L23.0018 49.9387L23.0018 49.946L23.0018 49.9486L23.0018 49.9558L23.0018 49.9585L23.0018 49.9658L23.0018 49.9682L23.0019 49.9757L23.0018 49.9783L23.0018 49.9856L23.0018 49.9881L23.0019 49.9953L23.0018 49.9981L23.0018 50.0052L23.0018 50.0078L23.0019 50.0152L23.0018 50.0178L23.0018 50.0252L23.0018 50.0277L23.0018 50.0351L23.0018 50.0377L23.0018 50.0449L23.0018 50.0476L23.0018 50.0548L23.0018 50.0575L23.0019 50.0648L23.0018 50.0675L23.0018 50.0747L23.0018 50.0773L23.0019 50.0846L23.0018 50.0873L23.0018 50.0943L23.0018 50.097L23.0019 50.1044L23.0018 50.107L23.0018 50.1144L23.0018 50.1168L23.0018 50.1242L23.0018 50.1267L23.0018 50.1341L23.0018 50.1367L23.0018 50.1439L23.0018 50.1466L23.0018 50.1539L23.0018 50.1564L23.0018 50.1638L23.0018 50.1662L23.0019 50.1737L23.0018 50.1763L23.0018 50.1835L23.0018 50.1861L23.0019 50.1933L23.0018 50.1961L23.0018 50.2034L23.0018 50.206L23.0018 50.2134L23.0018 50.2158L23.0018 50.2232L23.0018 50.2258L23.0018 50.233L23.0018 50.2357L23.0018 50.2429L23.0018 50.2456L23.0018 50.2529L23.0018 50.2554L23.0019 50.2628L23.0018 50.2654L23.0018 50.2727L23.0018 50.2752L23.0019 50.2825L23.0018 50.2853L23.0018 50.2925L23.0018 50.2949L23.0019 50.3023L23.0018 50.3049L23.0018 50.3124L23.0018 50.3148L23.0018 50.3222L23.0018 50.3248L23.0018 50.332L23.0018 50.3347L23.0018 50.3419L23.0018 50.3445L23.0019 50.3519L23.0018 50.3545L23.0018 50.3618L23.0018 50.3644L23.0019 50.3716L23.0018 50.3744L23.0018 50.3815L23.0018 50.3841L23.0019 50.3915L23.0018 50.3941L23.0018 50.4015L23.0018 50.4039L23.0018 50.4114L23.0018 50.4139L23.0018 50.4212L23.0018 50.4238L23.0018 50.431L23.0018 50.4337L23.0019 50.441L23.0018 50.4437L23.0018 50.4509L23.0018 50.4534L23.0019 50.4608L23.0018 50.4634L23.0018 50.4706L23.0018 50.4732L23.0019 50.4806L23.0018 50.4833L23.0018 50.4906L23.0018 50.493L23.0018 50.5005L23.0018 50.5029L23.0018 50.5104L23.0018 50.5129L23.0018 50.5201L23.0018 50.5228L23.0019 50.53L23.0018 50.5328L23.0018 50.54L23.0018 50.5425L23.0019 50.5499L23.0018 50.5525L23.0018 50.5597L23.0018 50.5624L23.0019 50.5696L23.0018 50.5724L23.0018 50.5796L23.0018 50.5823L23.0018 50.5896L23.0018 50.592L23.0018 50.5995L23.0018 50.602L23.0018 50.6094L23.0018 50.6119L23.0019 50.6191L23.0018 50.6219L23.0018 50.6291L23.0018 50.6316L23.0019 50.639L23.0018 50.6416L23.0018 50.6489L23.0018 50.6515L23.0019 50.6587L23.0018 50.6615L23.0018 50.6687L23.0018 50.6714L23.0018 50.6786L23.0018 50.6811L23.0018 50.6886L23.0018 50.691C22.9608 54.2713 23.6323 57.8241 24.9774 61.1424C26.3224 64.4608 28.314 67.4785 30.8362 70.0199C33.3585 72.5613 36.361 74.5755 39.6691 75.9455C42.9772 77.3155 46.5248 78.0139 50.1053 78C53.6858 77.986 57.2278 77.26 60.5251 75.8642C63.8225 74.4685 66.8092 72.4308 69.3116 69.8699C71.814 67.3089 73.7819 64.2757 75.101 60.947C76.4201 57.6183 77.0639 54.0605 76.995 50.4806V49.4905L76.9949 49.4907Z" fill="#E18400"/>
<path fill-rule="evenodd" clip-rule="evenodd" d="M30.6052 31.2158C25.8364 36.1199 23.1187 42.6589 23.0067 49.4985V49.5058L23.0066 49.5084V49.5156L23.0065 49.5183V49.5255L23.0064 49.528V49.5352L23.0063 49.5379V49.5451L23.0062 49.5477V49.5549L23.0061 49.5576V49.5649L23.006 49.5673V49.5746L23.006 49.5772V49.5844L23.0059 49.587V49.5943L23.0059 49.5969V49.6041L23.0057 49.6068V49.614L23.0057 49.6165V49.6237L23.0056 49.6264V49.6336L23.0055 49.6361V49.6434L23.0054 49.6461V49.6533L23.0053 49.6558V49.6632L23.0053 49.6657V49.6729L23.0052 49.6755V49.6828L23.0051 49.6854V49.6926L23.005 49.6953V49.7025L23.0049 49.7049V49.7122L23.0048 49.7149V49.7221L23.0047 49.7246V49.7319L23.0046 49.7346V49.7418L23.0046 49.7443V49.7517L23.0045 49.7542V49.7614L23.0045 49.764V49.7713L23.0044 49.7739V49.7811L23.0043 49.7838V49.791L23.0042 49.7934V49.8007L23.0041 49.8034V49.8106L23.004 49.8131V49.8204L23.0039 49.8231V49.8303L23.0038 49.8328V49.8402L23.0038 49.8427V49.8499L23.0037 49.8525V49.8598L23.0037 49.8624V49.8696L23.0035 49.8723V49.8795L23.0035 49.882V49.8892L23.0034 49.8919V49.8991L23.0033 49.9016L23.0034 49.9089L23.0032 49.9116V49.9188L23.0032 49.9213V49.9287L23.0031 49.9312V49.9384L23.0031 49.941V49.9483L23.003 49.9509V49.9581L23.0029 49.9606V49.968L23.0029 49.9705L23.0029 49.9777L23.0029 49.9804V49.9876L23.0028 49.9902V49.9974L23.0027 50.0001V50.0074L23.0026 50.01V50.0172L23.0026 50.0197V50.027L23.0025 50.0295V50.0368L23.0024 50.0394V50.0466L23.0024 50.0491V50.0565L23.0023 50.059L23.0024 50.0662L23.0023 50.0689V50.0761L23.0022 50.0787L23.0023 50.0859L23.0021 50.0886V50.0958L23.0021 50.0983L23.0021 50.1055L23.0021 50.1082V50.1155L23.002 50.1181V50.1253L23.002 50.1279V50.1352L23.0019 50.1378V50.145L23.0018 50.1475L23.0019 50.1549L23.0018 50.1575V50.1646L23.0017 50.1672L23.0018 50.1745L23.0017 50.1771V50.1843L23.0016 50.1868L23.0017 50.1942L23.0016 50.1967V50.204V50.2066V50.2139V50.2164V50.2237L23.0015 50.2263V50.2335V50.236L23.0016 50.2434L23.0015 50.246V50.2531V50.2557L23.0016 50.263L23.0015 50.2657V50.2728V50.2753L23.0015 50.2827L23.0015 50.2853V50.2927L23.0014 50.2952V50.3026V50.3051V50.3124V50.315V50.3223L23.0013 50.3249L23.0014 50.3322L23.0013 50.3349V50.3421V50.3447L23.0013 50.352L23.0013 50.3547V50.3619V50.3644L23.0013 50.3718L23.0012 50.3745V50.3818V50.3843V50.3917V50.3942V50.4016V50.4041V50.4114V50.414L23.0013 50.4213L23.0012 50.424V50.4312V50.4338L23.0013 50.4411L23.0012 50.4438V50.451V50.4536L23.0013 50.461L23.0012 50.4637V50.471V50.4736V50.4809V50.4835V50.4908V50.4934C22.9523 55.6397 24.3752 60.6928 27.1024 65.0574C29.8295 69.422 33.7474 72.9162 38.3943 75.1284C43.0412 77.3405 48.2235 78.1786 53.3308 77.5436C58.438 76.9087 63.2574 74.8273 67.2212 71.5446C70.2232 69.0587 72.6481 65.949 74.3276 62.4317C76.007 58.9144 76.9007 55.0735 76.9466 51.1761L76.9469 51.1662L76.9472 51.1563L76.9475 51.1463L76.9478 51.1364L76.9481 51.1265L76.9484 51.1166L76.9487 51.1066L76.949 51.0967L76.9493 51.0869L76.9496 51.0768L76.9499 51.0668L76.9502 51.0569L76.9505 51.0471L76.9507 51.0371L76.951 51.0272L76.9514 51.0173L76.9517 51.0074L76.9519 50.9974L76.9522 50.9875L76.9525 50.9775L76.9528 50.9675L76.9531 50.9576L76.9534 50.9477L76.9537 50.9377L76.9539 50.9278L76.9542 50.9179L76.9545 50.9079L76.9548 50.898L76.9551 50.888L76.9553 50.878L76.9556 50.8681L76.9559 50.8582L76.9562 50.8483L76.9564 50.8383L76.9567 50.8284L76.957 50.8185L76.9573 50.8085L76.9575 50.7985L76.9578 50.7886L76.9581 50.7788L76.9583 50.7687L76.9586 50.7589L76.9589 50.749L76.9591 50.739L76.9594 50.7291L76.9597 50.7192L76.9599 50.709L76.9601 50.6992L76.9604 50.6893L76.9607 50.6793L76.9609 50.6694L76.9612 50.6595L76.9615 50.6496L76.9617 50.6396L76.962 50.6297L76.9622 50.6197L76.9625 50.6097L76.9627 50.5998L76.963 50.5899L76.9632 50.5799L76.9634 50.57L76.9637 50.5601L76.964 50.5501L76.9642 50.5402L76.9645 50.5302L76.9647 50.5203L76.965 50.5103L76.9652 50.5004L76.9655 50.4905L76.9657 50.4805L76.9659 50.4706L76.9661 50.4608L76.9664 50.4509L76.9666 50.4409L76.9669 50.431L76.9671 50.421L76.9673 50.4111L76.9675 50.4011L76.9678 50.3912L76.968 50.3813L76.9683 50.3713L76.9684 50.3614L76.9687 50.3515L76.9689 50.3415L76.9692 50.3315L76.9694 50.3216L76.9696 50.3116L76.9698 50.3017L76.97 50.2918L76.9703 50.2818L76.9705 50.2719L76.9707 50.262L76.9709 50.252L76.9711 50.2421L76.9714 50.2321L76.9716 50.2222L76.9718 50.2123L76.972 50.2023L76.9722 50.1924L76.9724 50.1826C77.0288 44.4727 75.2638 38.8935 71.9337 34.2549C71.9059 34.2164 71.87 34.1845 71.8286 34.1612C71.7872 34.1379 71.7412 34.124 71.6938 34.1203C71.6465 34.1166 71.5989 34.1232 71.5544 34.1397C71.5098 34.1562 71.4694 34.1823 71.436 34.216L68.0156 37.6362C67.9818 37.67 67.9568 37.7117 67.9427 37.7574C67.9286 37.8031 67.9259 37.8515 67.9349 37.8985L67.9363 37.9081L67.9376 37.9175L67.9391 37.9272L67.9404 37.9367L67.9418 37.9462L67.9432 37.9558L67.9446 37.9653L67.946 37.9749L67.9473 37.9843L67.9488 37.994L67.9501 38.0034L67.9515 38.0129L67.9529 38.0224L67.9543 38.0319L67.9556 38.0414L67.957 38.051L67.9584 38.0606L67.9597 38.07L67.9612 38.0797L67.9625 38.0891L67.9639 38.0987L67.9652 38.1082L67.9666 38.1177L67.968 38.1273L67.9694 38.1368L67.9708 38.1464L67.972 38.1558L67.9734 38.1655L67.9747 38.1749L67.9762 38.1845L67.9775 38.194L67.9789 38.2037L67.9802 38.2132L67.9816 38.2227L67.983 38.2324L67.9843 38.2418L67.9857 38.2514L67.9869 38.2608L67.9883 38.2705L67.9897 38.28L67.9911 38.2895L67.9924 38.299L67.9938 38.3085L67.9951 38.3183L67.9964 38.3277L67.9978 38.3373L67.9991 38.3467L68.0005 38.3564L68.0018 38.3659L68.0032 38.3754L68.0045 38.385L68.0059 38.3946L68.0071 38.4041L68.0085 38.4136L68.0099 38.4233L68.0111 38.4327L68.0125 38.4423L68.0138 38.452L68.0152 38.4615L68.0165 38.471L68.0178 38.4805L68.0191 38.4901L68.0205 38.4996L68.0218 38.5093L68.0231 38.5187L68.0245 38.5284L68.0258 38.5378L68.0271 38.5474L68.0284 38.5571L68.0297 38.5666L68.031 38.5761L68.0323 38.5856L68.0337 38.5954L68.035 38.6048L68.0363 38.6144L68.0376 38.6238L68.0389 38.6336L68.0402 38.6431L68.0416 38.6527L68.0428 38.6622L68.0442 38.6718L68.0455 38.6815L68.0468 38.6909L68.0481 38.7005L68.0494 38.71L68.0507 38.7197L68.0519 38.7292L68.0533 38.7388L68.0546 38.7484L68.0559 38.7579L68.0572 38.7676L68.0585 38.777L68.0598 38.7867L68.061 38.7962L68.0624 38.8059L68.0636 38.8154L68.0649 38.825L68.0662 38.8345L68.0676 38.8441L68.0688 38.8538C68.0729 38.9308 68.0968 39.0053 68.1382 39.0703C70.464 42.7074 71.6423 46.96 71.52 51.2755C71.485 51.868 71.4299 52.4597 71.346 53.0494C70.8435 57.5546 68.9317 61.7862 65.8831 65.1412C62.8346 68.4962 58.8049 70.8034 54.3682 71.7338C49.9316 72.6643 45.3144 72.1705 41.1748 70.3231C37.0352 68.4756 33.5844 65.3687 31.3141 61.445C29.0438 57.5213 28.0699 52.9811 28.5313 48.4715C28.9926 43.9619 30.8656 39.713 33.8834 36.3303C36.9011 32.9476 40.9096 30.6036 45.3375 29.6326C49.7655 28.6617 54.3869 29.1131 58.5433 30.9227C58.5956 30.946 58.2745 31.3465 58.234 31.3869L55.1186 34.4942C55.0752 34.5371 55.021 34.5674 54.9617 34.5817C54.9025 34.5961 54.8404 34.5941 54.7822 34.5757C52.3577 33.8198 49.7895 33.6442 47.2846 34.0631C44.7798 34.4819 42.4084 35.4836 40.3617 36.9872C38.315 38.4909 36.6503 40.4543 35.5018 42.7194C34.3533 44.9845 33.7531 47.4879 33.7496 50.0275L33.7498 50.0327L33.7496 50.0374L33.7498 50.0425L33.7496 50.0473L33.7498 50.0524L33.7496 50.0571L33.7498 50.0622L33.7496 50.067L33.7498 50.0721L33.7496 50.077L33.7498 50.0821L33.7496 50.0867L33.7498 50.0919L33.7496 50.0967L33.7498 50.1019L33.7496 50.1065L33.7498 50.1116L33.7496 50.1165L33.7498 50.1216L33.7496 50.1264L33.7498 50.1315L33.7497 50.1363L33.7498 50.1414L33.7497 50.1462L33.7498 50.1513L33.7497 50.1561L33.7499 50.1612L33.7497 50.1661L33.7499 50.1712L33.7498 50.1758L33.7499 50.181L33.7498 50.1859L33.7499 50.191L33.7498 50.1956L33.7499 50.2007L33.7498 50.2056L33.7499 50.2108L33.7498 50.2155L33.7499 50.2206L33.7499 50.2254L33.75 50.2305L33.7499 50.2353L33.75 50.2404L33.7499 50.2452L33.7501 50.2502L33.7499 50.2551L33.7501 50.2602L33.7499 50.2648L33.7501 50.27L33.75 50.2748L33.7502 50.28L33.7501 50.2846L33.7502 50.2897L33.7501 50.2946L33.7502 50.2997L33.7501 50.3045L33.7502 50.3096L33.7501 50.3144L33.7503 50.3195L33.7502 50.3243L33.7504 50.3294L33.7502 50.3342L33.7504 50.3393L33.7503 50.3442L33.7504 50.3493L33.7503 50.3539L33.7505 50.3591L33.7504 50.364L33.7506 50.3691L33.7504 50.3737L33.7506 50.3788L33.7505 50.3837L33.7506 50.3889L33.7506 50.3936L33.7507 50.3986L33.7506 50.4034L33.7507 50.4085L33.7506 50.4133L33.7508 50.4184L33.7507 50.4232L33.7509 50.4283L33.7507 50.4332L33.7509 50.4383L33.7508 50.4429L33.751 50.4481L33.7509 50.4529L33.751 50.4581L33.7509 50.4627L33.7511 50.4678L33.751 50.4727L33.7512 50.4778L33.751 50.4826L33.7512 50.4877L33.7511 50.4925L33.7513 50.4976L33.7512 50.5024L33.7513 50.5075L33.7513 50.5123L33.7514 50.5173L33.7513 50.5222L33.7515 50.5273L33.7514 50.5319L33.7516 50.5371L33.7515 50.5419L33.7516 50.5471L33.7515 50.5517L33.7517 50.5568L33.7516 50.5617L33.7518 50.5668L33.7517 50.5716L33.7519 50.5767L33.7518 50.5815L33.752 50.5866L33.7519 50.5914L33.7521 50.5965L33.752 50.6013L33.7521 50.6064L33.752 50.6111L33.7522 50.6162L33.7521 50.6209L33.7523 50.626L33.7522 50.6309L33.7524 50.6361L33.7523 50.6407L33.7525 50.6458L33.7524 50.6507L33.7526 50.6558L33.7525 50.6606L33.7527 50.6657L33.7526 50.6705L33.7527 50.6756L33.7527 50.6804L33.7529 50.6855L33.7527 50.6903L33.7529 50.6954L33.7529 50.7001L33.7531 50.7053L33.7529 50.7099L33.7532 50.715L33.7531 50.7199L33.7532 50.725L33.7532 50.7297L33.7534 50.7348L33.7533 50.7397L33.7535 50.7448L33.7534 50.7495L33.7535 50.7546L33.7535 50.7595L33.7537 50.7646L33.7536 50.7694L33.7538 50.7745L33.7537 50.7792L33.7539 50.7844L33.7538 50.7891L33.754 50.7941L33.7539 50.7989L33.7541 50.804L33.754 50.8089L33.7542 50.814L33.7542 50.8187L33.7543 50.8238L33.7543 50.8287L33.7545 50.8338L33.7544 50.8384L33.7546 50.8436L33.7545 50.8485L33.7547 50.8536L33.7546 50.8583L33.7548 50.8635L33.7548 50.8682L33.7549 50.8732L33.7549 50.878L33.7551 50.8831L33.755 50.8879L33.7552 50.893L33.7551 50.8979L33.7553 50.903L33.7552 50.9077L33.7555 50.9128L33.7554 50.9177L33.7556 50.9228L33.7555 50.9274L33.7557 50.9326L33.7557 50.9374L33.7559 50.9426L33.7558 50.9472L33.756 50.9523L33.7559 50.9571L33.7562 50.9622L33.756 50.967L33.7563 50.9721L33.7562 50.9769L33.7564 50.982L33.7563 50.9869L33.7565 50.992L33.7565 50.9966L33.7567 51.0018L33.7567 51.0067L33.7568 51.0118L33.7568 51.0163L33.757 51.0214L33.757 51.0263C33.8167 55.3005 35.5628 59.3781 38.615 62.3708C41.6672 65.3635 45.7782 67.0291 50.0527 67.0048C54.3273 66.9805 58.4191 65.2683 61.4371 62.241C64.455 59.2138 66.1548 55.1168 66.166 50.8422L66.1658 50.8371L66.166 50.8323L66.1658 50.8271L66.166 50.8225L66.1658 50.8173L66.166 50.8126L66.1658 50.8073L66.1659 50.8027L66.1658 50.7974L66.1659 50.7927L66.1658 50.7875L66.1659 50.7829L66.1658 50.7777L66.1659 50.773L66.1658 50.7679L66.1659 50.7632L66.1657 50.758L66.1659 50.7532L66.1657 50.7481L66.1658 50.7434L66.1657 50.7381L66.1658 50.7335L66.1657 50.7283L66.1658 50.7236L66.1656 50.7183L66.1658 50.7137L66.1656 50.7084L66.1658 50.7037L66.1656 50.6987L66.1658 50.694L66.1656 50.6888L66.1657 50.684L66.1656 50.6789L66.1657 50.6743L66.1656 50.669L66.1656 50.6642L66.1655 50.6591L66.1656 50.6544L66.1655 50.6491L66.1656 50.6445L66.1655 50.6393L66.1656 50.6346L66.1655 50.6293L66.1656 50.6247L66.1654 50.6194L66.1655 50.6148L66.1653 50.6097L66.1655 50.605L66.1653 50.5998L66.1655 50.595L66.1653 50.5899L66.1654 50.5853L66.1653 50.58L66.1653 50.5753L66.1652 50.5701L66.1653 50.5654L66.1652 50.5601L66.1653 50.5555L66.1651 50.5504L66.1652 50.5456L66.1651 50.5403L66.1652 50.5358L66.165 50.5306L66.1652 50.5258L66.165 50.5207L66.1651 50.5161L66.1649 50.5108L66.165 50.506L66.1649 50.5009L66.165 50.4963L66.1649 50.491L66.1649 50.4863L66.1648 50.4811L66.1649 50.4764L66.1647 50.4711L66.1648 50.4665L66.1647 50.4615L66.1647 50.4567L66.1646 50.4515L66.1647 50.4468L66.1646 50.4417L66.1646 50.437L66.1645 50.4317L66.1646 50.4271L66.1644 50.4218L66.1645 50.4171L66.1644 50.4119L66.1644 50.4073L66.1642 50.402L66.1644 50.3973L66.1642 50.3922L66.1643 50.3875L66.1641 50.3823L66.1642 50.3776L66.1641 50.3725L66.1642 50.3677L66.164 50.3625L66.1641 50.3579L66.1639 50.3527L66.164 50.348L66.1638 50.3427L66.1639 50.3381L66.1638 50.3328L66.1639 50.3281L66.1637 50.3229L66.1638 50.3183L66.1636 50.3132L66.1637 50.3084L66.1635 50.3033L66.1636 50.2986L66.1635 50.2934L66.1635 50.2886L66.1633 50.2835L66.1635 50.2788L66.1633 50.2735L66.1633 50.2689L66.1631 50.2637L66.1633 50.259L66.1631 50.2537L66.1631 50.2491L66.163 50.244L66.1631 50.2392L66.1629 50.2341L66.163 50.2294L66.1628 50.2242L66.1629 50.2194L66.1627 50.2143L66.1628 50.2097L66.1626 50.2044L66.1627 50.1996L66.1625 50.1945L66.1626 50.1898L66.1624 50.1845L66.1625 50.1799L66.1623 50.1749L66.1624 50.1701L66.1622 50.1649L66.1623 50.1602L66.1621 50.155L66.1622 50.1502L66.162 50.1451L66.162 50.1404L66.1619 50.1352L66.1619 50.1304L66.1617 50.1253L66.1619 50.1207L66.1616 50.1155L66.1617 50.1108L66.1615 50.1057L66.1616 50.1009L66.1614 50.0956L66.1615 50.091L66.1613 50.0859L66.1614 50.0811L66.1612 50.0759L66.1613 50.0712L66.1611 50.066L66.1611 50.0612L66.1609 50.0561L66.161 50.0515L66.1608 50.0463L66.1609 50.0416L66.1607 50.0364L66.1608 50.0318L66.1606 50.0266L66.1606 50.0218L66.1604 50.0167L66.1605 50.0119L66.1603 50.0067L66.1604 50.002L66.1602 49.9969L66.1603 49.9921L66.16 49.987L66.1601 49.9824L66.1599 49.9771L66.16 49.9724L66.1598 49.9672L66.1599 49.9626L66.1596 49.9573L66.1597 49.9526L66.1595 49.9475L66.1595 49.9428L66.1594 49.9376L66.1594 49.9328L66.1592 49.9278L66.1593 49.923L66.1591 49.9178L66.1591 49.9132L66.1589 49.908L66.159 49.9033L66.1588 49.898L66.1589 49.8934L66.1586 49.8881L66.1587 49.8834L66.1585 49.8782L66.1586 49.8736L66.1583 49.8685L66.1584 49.8637L66.1582 49.8586L66.1583 49.8539L66.158 49.8487L66.1581 49.8439C66.1498 49.1277 66.0914 48.413 65.9834 47.7049C65.9713 47.628 65.9319 47.558 65.8726 47.5075C65.8133 47.4571 65.7379 47.4295 65.66 47.4299H53.11C53.0223 47.4299 52.9382 47.4648 52.8762 47.5268L48.1261 52.2768C48.1065 52.2941 48.0906 52.3152 48.0794 52.3388C48.0682 52.3624 48.0619 52.3881 48.061 52.4142C48.06 52.4404 48.0644 52.4664 48.0738 52.4908C48.0832 52.5152 48.0974 52.5374 48.1157 52.5561V52.5634V52.571V52.5784V52.5858V52.5933V52.6007V52.6081V52.6154V52.623V52.6303V52.6378V52.6452V52.6527V52.6601V52.6674V52.675V52.6823V52.6898V52.6971V52.7047V52.7121V52.7194V52.7267V52.7343V52.7418V52.7491V52.7567V52.764V52.7714V52.7789V52.7863V52.7938V52.8011V52.8087V52.816V52.8234V52.8308V52.8383V52.8458V52.8531V52.8607V52.868V52.8754V52.8828V52.8903V52.8976V52.9051V52.9124V52.92V52.9274V52.9348V52.9423V52.9496V52.9571V52.9644V52.972V52.9793V52.9868V52.9942V53.0017V53.0091V53.0164V53.024V53.0313V53.0388V53.0461V53.0537V53.0611V53.0684V53.076V53.0833V53.0908V53.0981V53.1057V53.113V53.1204V53.1279V53.1353V53.1428V53.1501V53.1577V53.165V53.1724V53.1798V53.1873V53.1948V53.2021V53.2097V53.217V53.2244V53.2318V53.2393V53.2466V53.2541V53.2615V53.269V53.2764V53.2838V53.2913V53.2986C48.0925 53.4406 48.3339 53.5914 48.5002 53.5914H60.0035C60.0375 53.5909 60.0705 53.6025 60.0967 53.6241C60.123 53.6457 60.1406 53.6759 60.1467 53.7093C59.3407 56.031 57.7678 58.0088 55.6872 59.3168C53.6066 60.6249 51.1425 61.1852 48.7008 60.9053C46.2592 60.6255 43.9856 59.5222 42.2549 57.7773C40.5243 56.0324 39.4396 53.7501 39.1798 51.3062C39.1524 51.0496 39.154 50.7928 39.1451 50.536C39.1903 49.1158 39.5151 47.7185 40.1011 46.424C40.2406 46.1179 40.3939 45.8192 40.5609 45.5279C41.3962 44.0711 42.5593 42.829 43.958 41.8998C44.2397 41.7128 44.5294 41.5393 44.8268 41.3796C46.3047 40.5859 47.947 40.1472 49.6237 40.0978C49.63 40.0972 49.6931 40.0966 49.6994 40.096C50.014 40.0867 50.3281 40.0913 50.6415 40.1101C50.6605 40.1116 50.6983 40.1133 50.7172 40.1149C52.4627 40.2272 54.152 40.776 55.6301 41.7111C55.6919 41.7521 55.7633 41.7762 55.8372 41.7809C55.9112 41.7857 55.9851 41.771 56.0516 41.7383C56.0912 41.7619 56.41 41.5061 56.4485 41.5318C56.482 41.5542 56.7566 41.32 56.785 41.2914L67.2687 30.7788C67.3328 30.7141 67.375 30.631 67.3893 30.5411L67.3895 30.5335L67.3895 30.5259L67.3896 30.5185L67.3897 30.5111L67.3898 30.5035L67.3898 30.496L67.3899 30.4885L67.39 30.4809V30.4736L67.3901 30.4659L67.3902 30.4584L67.3903 30.451L67.3904 30.4434L67.3904 30.436L67.3906 30.4284L67.3906 30.421L67.3907 30.4133V30.4059L67.3909 30.3983L67.3909 30.3908L67.3911 30.3832L67.3912 30.3758L67.3912 30.3682L67.3914 30.3607L67.3915 30.3532L67.3916 30.3455L67.3917 30.3382L67.3918 30.3305L67.3919 30.3229L67.392 30.3155L67.3922 30.3079L67.3923 30.3004L67.3924 30.2928L67.3925 30.2853L67.3926 30.2777L67.3928 30.2702L67.3929 30.2625L67.3931 30.2549L67.3932 30.2475L67.3934 30.2399L67.3935 30.2324L67.3937 30.2248L67.3938 30.2172L67.394 30.2095L67.3941 30.202L67.3943 30.1944L67.3944 30.1868L67.3947 30.1791L67.3948 30.1716L67.395 30.164L67.3952 30.1563L67.3954 30.1487L67.3956 30.1411L67.3958 30.1335L67.3961 30.1258L67.3962 30.1182L67.3965 30.1105L67.3967 30.1028L67.397 30.0953L67.3972 30.0876L67.3975 30.0799L67.3977 30.0722L67.3979 30.0645L67.3983 30.0568L67.3984 30.0491L67.3988 30.0414L67.3991 30.0336L67.3994 30.0259L67.3997 30.0183L67.4 30.0104L67.4004 30.0028L67.4007 29.9949L67.4011 29.9871L67.4014 29.9794L67.4019 29.9715L67.4023 29.9637L67.4026 29.9559L67.4031 29.9479L67.4036 29.9401L67.4041 29.9322L67.4045 29.9243L67.405 29.9163L67.4055 29.9085L67.4061 29.9003L67.4067 29.8924L67.4073 29.8843L67.408 29.8763L67.4086 29.8682L67.4094 29.8602L67.4101 29.852L67.4109 29.8437L67.4116 29.8355L67.4125 29.8271L67.4135 29.8188L67.4144 29.8105L67.4155 29.8019L67.4166 29.7935L67.4177 29.7849L67.4189 29.7763L67.4203 29.7674C67.4191 29.7344 67.5042 29.6099 67.4908 29.5795C67.5001 29.5423 67.4986 29.5032 67.4865 29.4667C67.4743 29.4303 67.452 29.3981 67.4221 29.374C62.1943 24.958 55.4847 22.6919 48.65 23.0339C41.8153 23.3758 35.3655 26.3003 30.6046 31.216L30.6052 31.2158Z" fill="#E99C00"/>
<path fill-rule="evenodd" clip-rule="evenodd" d="M30.6051 31.2158C25.8867 36.0747 23.1749 42.5349 23.0116 49.3059L23.0115 49.3131L23.0114 49.3156L23.0113 49.3228L23.0112 49.3254L23.0111 49.3325L23.011 49.335L23.0109 49.3422L23.0108 49.3449L23.0107 49.352L23.0106 49.3546L23.0105 49.3618L23.0104 49.3644L23.0104 49.3716L23.0102 49.3742L23.0102 49.3814L23.0101 49.3839L23.01 49.3912L23.0099 49.3936L23.0098 49.4008L23.0097 49.4034L23.0096 49.4106L23.0096 49.4133L23.0094 49.4204L23.0094 49.4229L23.0093 49.4301L23.0092 49.4328L23.0091 49.4399L23.009 49.4424L23.009 49.4497L23.0088 49.4522L23.0088 49.4595L23.0087 49.462L23.0086 49.4693L23.0085 49.4717L23.0085 49.4789L23.0083 49.4815L23.0083 49.4887L23.0082 49.4913V49.4985L23.0081 49.5012L23.008 49.5082L23.008 49.5108L23.0079 49.518L23.0078 49.5207L23.0077 49.5278L23.0076 49.5302V49.5375L23.0076 49.5401L23.0074 49.5474L23.0074 49.5499L23.0073 49.5571L23.0072 49.5596L23.0072 49.5668L23.0071 49.5694L23.007 49.5766L23.0069 49.5792V49.5864L23.0068 49.5891L23.0068 49.5961L23.0067 49.5987V49.6059L23.0066 49.6086L23.0065 49.6157L23.0065 49.6181V49.6254L23.0063 49.628L23.0063 49.6353L23.0062 49.6378L23.0061 49.645L23.0061 49.6475L23.006 49.6547L23.006 49.6573L23.0059 49.6645L23.0058 49.6671V49.6743L23.0057 49.6769L23.0057 49.684L23.0056 49.6866V49.6938L23.0055 49.6965L23.0055 49.7036L23.0054 49.7061V49.7133L23.0053 49.716L23.0052 49.7232L23.0052 49.7257L23.0051 49.733L23.005 49.7354V49.7427L23.005 49.7452L23.0049 49.7524L23.0049 49.7549V49.7622L23.0048 49.7647L23.0047 49.7719L23.0047 49.7745V49.7817L23.0046 49.7844V49.7914L23.0046 49.794V49.8012L23.0045 49.8039V49.8111L23.0044 49.8137L23.0044 49.8209V49.8234V49.8306V49.8332V49.8404V49.843V49.8502L23.0043 49.8526V49.8599V49.8624V49.8697L23.0042 49.8723V49.8795L23.0041 49.8819V49.8891L23.0041 49.8918V49.8989L23.004 49.9014V49.9086L23.004 49.9113V49.9185V49.9211V49.9283V49.9309V49.9381V49.9406V49.9478V49.9504V49.9576L23.0038 49.9603V49.9674V49.9699V49.9771L23.0038 49.9798V49.9869L23.0037 49.9894V49.9966L23.0036 49.9993V50.0065V50.0091V50.0163V50.0189V50.0261V50.0286V50.0358V50.0383V50.0456L23.0036 50.0483V50.0554V50.0578V50.0651L23.0035 50.0677V50.0749V50.0773V50.0847L23.0034 50.0872V50.0945V50.0972V50.1046V50.1071V50.1144V50.117V50.1243V50.1269V50.1342L23.0033 50.1369V50.1441V50.1467V50.154L23.0033 50.1567V50.1639V50.1664V50.1738L23.0032 50.1765V50.1838V50.1863V50.1937V50.1962V50.2036V50.2061V50.2134V50.216V50.2235L23.0032 50.2261V50.2333V50.2359V50.2432L23.003 50.2459V50.2531V50.2557V50.263L23.003 50.2657V50.273V50.2756V50.2829V50.2855V50.2928V50.2954C22.964 55.4374 24.3942 60.4836 27.1253 64.8405C29.8565 69.1974 33.775 72.6838 38.42 74.8896C43.065 77.0954 48.2434 77.9288 53.3459 77.2919C58.4485 76.6551 63.2631 74.5745 67.2234 71.2946C70.1018 68.911 72.4497 65.9516 74.1163 62.6066C75.7829 59.2616 76.7313 55.6049 76.9006 51.8715L76.9012 51.8615L76.9018 51.8515L76.9024 51.8416L76.903 51.8316L76.9036 51.8216L76.9042 51.8116L76.9048 51.8016L76.9054 51.7916L76.906 51.7816L76.9066 51.7716L76.9072 51.7615L76.9078 51.7515L76.9084 51.7415L76.909 51.7315L76.9095 51.7215L76.9101 51.7115L76.9107 51.7015L76.9113 51.6915L76.9118 51.6815L76.9124 51.6715L76.913 51.6614L76.9136 51.6514L76.9141 51.6414L76.9147 51.6314L76.9153 51.6214L76.9158 51.6114L76.9164 51.6014L76.917 51.5914L76.9175 51.5814L76.9181 51.5714L76.9186 51.5613L76.9192 51.5513L76.9197 51.5413L76.9203 51.5313L76.9208 51.5213L76.9214 51.5113L76.9219 51.5013L76.9225 51.4912L76.923 51.4813L76.9235 51.4713L76.9241 51.4612L76.9246 51.4512L76.9251 51.4412L76.9256 51.4312L76.9262 51.4212L76.9267 51.4112L76.9272 51.4011L76.9277 51.3912L76.9283 51.3812L76.9288 51.3712L76.9293 51.3612L76.9298 51.3511L76.9303 51.3411L76.9308 51.3311L76.9313 51.3211L76.9319 51.3111L76.9324 51.3011L76.9328 51.2911L76.9333 51.2811L76.9338 51.2711L76.9344 51.2611L76.9349 51.251L76.9353 51.241L76.9358 51.231L76.9363 51.221L76.9368 51.211L76.9373 51.201L76.9378 51.191L76.9383 51.181L76.9388 51.171L76.9392 51.161L76.9397 51.1509L76.9402 51.1409L76.9407 51.1309L76.9411 51.1209L76.9416 51.1109L76.9421 51.1009L76.9425 51.0909L76.943 51.0809L76.9434 51.0709L76.9439 51.0609L76.9443 51.0508L76.9448 51.0408L76.9452 51.0308L76.9457 51.0208L76.9462 51.0108L76.9466 51.0008L76.9471 50.9908L76.9475 50.9808L76.9479 50.9708L76.9483 50.9608L76.9488 50.9508L76.9493 50.9407L76.9497 50.9307L76.9501 50.9207L76.9505 50.9107L76.951 50.9007L76.9514 50.8907L76.9518 50.8807L76.9523 50.8707C77.1686 44.928 75.404 39.082 71.9359 34.2515C71.9081 34.213 71.8723 34.181 71.8309 34.1578C71.7894 34.1345 71.7434 34.1206 71.6961 34.1169C71.6487 34.1132 71.6012 34.1198 71.5566 34.1363C71.5121 34.1528 71.4717 34.1788 71.4382 34.2125L68.0178 37.6328C67.9773 37.6732 67.9493 37.7244 67.9374 37.7803C67.9254 37.8363 67.9299 37.8946 67.9503 37.9481L67.9532 37.9573L67.9559 37.9663L67.9587 37.9755L67.9614 37.9847L67.9642 37.9938L67.967 38.003L67.9698 38.0122L67.9726 38.0213L67.9753 38.0303L67.9781 38.0396L67.9808 38.0487L67.9836 38.0579L67.9863 38.067L67.9891 38.0761L67.9918 38.0853L67.9946 38.0944L67.9974 38.1037L68 38.1127L68.0029 38.122L68.0055 38.131L68.0083 38.1403L68.011 38.1495L68.0138 38.1586L68.0165 38.1678L68.0193 38.1769L68.022 38.1862L68.0246 38.1953L68.0275 38.2045L68.0301 38.2136L68.0329 38.2228L68.0356 38.232L68.0383 38.2412L68.041 38.2503L68.0437 38.2595L68.0465 38.2687L68.0491 38.2778L68.0519 38.2871L68.0545 38.2962L68.0573 38.3055L68.0599 38.3146L68.0627 38.3238L68.0654 38.333L68.068 38.3422L68.0708 38.3515L68.0734 38.3605L68.0762 38.3698L68.0788 38.3789L68.0815 38.3883L68.0842 38.3974L68.0868 38.4066L68.0895 38.4157L68.0922 38.425L68.0948 38.4341L68.0975 38.4433L68.1003 38.4527L68.1028 38.4617L68.1056 38.471L68.1082 38.4803L68.1109 38.4894L68.1135 38.4986L68.1162 38.5079L68.1188 38.517L68.1215 38.5263L68.1242 38.5356L68.1268 38.5446L68.1294 38.554L68.1321 38.5631L68.1348 38.5725L68.1373 38.5816L68.14 38.5908L68.1426 38.6L68.1453 38.6092L68.1479 38.6186L68.1505 38.6276L68.1532 38.637L68.1557 38.6461L68.1584 38.6555L68.161 38.6646L68.1637 38.6739L68.1662 38.6831L68.1689 38.6923L68.1716 38.7016L68.1741 38.7108L68.1767 38.7202L68.1793 38.7292L68.1819 38.7386L68.1845 38.7477L68.1872 38.757L68.1897 38.7663L68.1924 38.7755L68.195 38.7849L68.1975 38.7939L68.2001 38.8033L68.2027 38.8124L68.2053 38.8217L68.2079 38.831L68.2104 38.8403L68.213 38.8496L68.2156 38.8587L68.2182 38.8681C68.2348 38.9429 68.2638 39.0144 68.3042 39.0795C70.647 42.861 71.7594 47.2759 71.4883 51.716C71.441 52.309 71.3721 52.8999 71.2761 53.487C70.6341 57.9502 68.6077 62.0993 65.4825 65.3497C62.3573 68.6001 58.2908 70.7877 53.8563 71.6044C49.4218 72.4211 44.8428 71.8256 40.7646 69.9019C36.6865 67.9782 33.3149 64.8232 31.1249 60.8817C28.935 56.9401 28.0371 52.4106 28.5579 47.9317C29.0787 43.4528 30.992 39.2502 34.0279 35.9163C37.0639 32.5824 41.0695 30.2853 45.4803 29.3487C49.891 28.4121 54.4845 28.8833 58.6133 30.6957C58.7179 30.7423 58.5197 31.1006 58.4387 31.1815L55.1208 34.4907C55.0775 34.5336 55.0233 34.5638 54.964 34.5782C54.9048 34.5925 54.8426 34.5904 54.7845 34.5721C52.3599 33.8162 49.7917 33.6406 47.2868 34.0595C44.782 34.4784 42.4106 35.48 40.3639 36.9836C38.3173 38.4872 36.6525 40.4508 35.504 42.7159C34.3555 44.981 33.7553 47.4842 33.7519 50.0239L33.752 50.029L33.7519 50.0338L33.752 50.0389L33.7519 50.0436L33.752 50.0488L33.7519 50.0535L33.752 50.0587L33.7519 50.0634L33.752 50.0684L33.7519 50.0733L33.752 50.0784L33.7519 50.0831L33.752 50.0882L33.7519 50.0931L33.752 50.0982L33.7519 50.1028L33.7521 50.108L33.7519 50.1129L33.7521 50.118L33.752 50.1227L33.7521 50.1279L33.752 50.1326L33.7521 50.1378L33.752 50.1425L33.7521 50.1476L33.7521 50.1524L33.7522 50.1575L33.7521 50.1624L33.7522 50.1674L33.7521 50.1721L33.7522 50.1772L33.7522 50.1821L33.7523 50.1872L33.7522 50.1918L33.7523 50.197L33.7522 50.2018L33.7524 50.207L33.7523 50.2117L33.7524 50.2169L33.7524 50.2216L33.7525 50.2268L33.7524 50.2315L33.7525 50.2366L33.7525 50.2414L33.7526 50.2465L33.7525 50.2514L33.7527 50.2564L33.7526 50.2611L33.7527 50.2662L33.7527 50.2711L33.7528 50.2762L33.7527 50.2808L33.7529 50.286L33.7528 50.2908L33.7529 50.296V50.3007L33.753 50.3059V50.3106L33.7532 50.3157L33.7532 50.3205L33.7533 50.3256V50.3303L33.7534 50.3354V50.3403L33.7535 50.3454V50.35L33.7537 50.3552V50.3601L33.7538 50.3652L33.7538 50.3698L33.754 50.3749V50.3798L33.7541 50.385V50.3897L33.7542 50.3948V50.3995L33.7544 50.4046V50.4094L33.7545 50.4145V50.4193L33.7547 50.4244V50.4293L33.7548 50.4344V50.439L33.755 50.4442V50.449L33.7551 50.4542V50.4587L33.7553 50.4638V50.4687L33.7554 50.4738V50.4786L33.7556 50.4837V50.4885L33.7558 50.4936V50.4984L33.7559 50.5035V50.5082L33.7561 50.5134V50.5183L33.7563 50.5233V50.5279L33.7564 50.533V50.5379L33.7566 50.543V50.5477L33.7568 50.5528V50.5577L33.7569 50.5628V50.5676L33.7571 50.5726V50.5773L33.7573 50.5825V50.5872L33.7575 50.5924V50.5971L33.7576 50.6022V50.607L33.7578 50.6121V50.6169L33.758 50.622V50.6268L33.7582 50.6319V50.6365L33.7583 50.6417V50.6466L33.7585 50.6517V50.6564L33.7587 50.6616V50.6663L33.759 50.6713V50.6761L33.7591 50.6812V50.686L33.7593 50.6911V50.6959L33.7595 50.701V50.7058L33.7597 50.7109V50.7156L33.7599 50.7208V50.7254L33.7601 50.7305V50.7354L33.7603 50.7405V50.7452L33.7605 50.7503V50.7552L33.7607 50.7602V50.765L33.7609 50.7701V50.7748L33.7611 50.78V50.7847L33.7613 50.7899V50.7946L33.7615 50.7996V50.8045L33.7618 50.8096V50.8143L33.7619 50.8194V50.8243L33.7622 50.8294V50.8341L33.7624 50.8391V50.8439L33.7626 50.8491V50.8538L33.7629 50.859V50.8637L33.763 50.8688V50.8735L33.7633 50.8786V50.8834L33.7635 50.8885V50.8934L33.7637 50.8985V50.9031L33.764 50.9083V50.913L33.7641 50.9182V50.9228L33.7644 50.9279V50.9328L33.7646 50.9379V50.9427L33.7649 50.9477V50.9525L33.7651 50.9576V50.9623L33.7653 50.9675L33.7654 50.9722L33.7656 50.9774V50.9821L33.7659 50.9872V50.9919L33.7661 50.997V51.0019L33.7663 51.007V51.0115L33.7666 51.0167L33.7666 51.0216C33.8912 55.2727 35.6821 59.3044 38.7529 62.2469C41.8236 65.1893 45.928 66.8065 50.1806 66.7497C54.4331 66.6929 58.4929 64.9665 61.4839 61.9431C64.4749 58.9196 66.1574 54.8415 66.1684 50.5886L66.1683 50.5834L66.1684 50.5787L66.1683 50.5734L66.1683 50.5689L66.1683 50.5638L66.1683 50.559L66.1683 50.5538L66.1683 50.5491L66.1683 50.5439L66.1683 50.5391L66.1682 50.534L66.1683 50.5294L66.1682 50.5242L66.1683 50.5195L66.1682 50.5143L66.1683 50.5097L66.1681 50.5045L66.1683 50.4997L66.1681 50.4946L66.1682 50.4898L66.1681 50.4847L66.1681 50.48L66.1681 50.4749L66.1681 50.4702L66.168 50.4649L66.1681 50.4603L66.168 50.455L66.1681 50.4503L66.168 50.4451L66.168 50.4406L66.1679 50.4354L66.168 50.4306L66.1678 50.4255L66.1679 50.4208L66.1678 50.4156L66.1678 50.4108L66.1677 50.4057L66.1678 50.4011L66.1676 50.3958L66.1677 50.3912L66.1676 50.3861L66.1676 50.3813L66.1675 50.376L66.1676 50.3714L66.1675 50.3662L66.1675 50.3615L66.1674 50.3564V50.3518L66.1673 50.3465L66.1673 50.3417L66.1672 50.3366V50.332L66.1671 50.3267V50.3221L66.1669 50.317V50.3122L66.1668 50.307V50.3023L66.1667 50.2972V50.2924L66.1665 50.2873V50.2827L66.1664 50.2774V50.2726L66.1662 50.2675V50.2629L66.1661 50.2576V50.2529L66.1659 50.2479V50.2432L66.1658 50.238V50.2332L66.1656 50.2281V50.2233L66.1655 50.2181V50.2134L66.1654 50.2084V50.2037L66.1652 50.1984V50.1938L66.165 50.1887V50.1839L66.1649 50.1787V50.1741L66.1647 50.1689V50.1641L66.1646 50.159V50.1544L66.1644 50.1491V50.1444L66.1642 50.1392V50.1346L66.164 50.1293V50.1247L66.1639 50.1196V50.1148L66.1637 50.1096V50.1049L66.1636 50.0999V50.0952L66.1634 50.0899V50.0853L66.1632 50.08V50.0753L66.1631 50.0701V50.0656L66.1629 50.0604V50.0556L66.1627 50.0505V50.0458L66.1625 50.0406V50.0358L66.1623 50.0308V50.0261L66.1622 50.0208V50.0162L66.162 50.0111V50.0063L66.1618 50.001V49.9964L66.1616 49.9913V49.9865L66.1614 49.9814V49.9768L66.1612 49.9715V49.9667L66.161 49.9617V49.9571L66.1608 49.9518V49.9471L66.1606 49.942V49.9372L66.1604 49.932V49.9274L66.1602 49.9223V49.9175L66.16 49.9123V49.9077L66.1598 49.9024V49.8976L66.1597 49.8926V49.888L66.1594 49.8828V49.878L66.1592 49.8729V49.8682L66.159 49.8631V49.8583L66.1588 49.8532V49.8485L66.1586 49.8432V49.8386L66.1584 49.8334V49.8288L66.1581 49.8236V49.8189L66.1579 49.8137V49.8089L66.1577 49.8038V49.7993L66.1575 49.794V49.7893L66.1573 49.7841V49.7795L66.157 49.7742V49.7695L66.1568 49.7645V49.7597L66.1566 49.7545V49.7498L66.1564 49.7447V49.7399L66.1561 49.7348V49.7302L66.1559 49.7249V49.7202L66.1557 49.715V49.7104L66.1554 49.7053V49.7005L66.1552 49.6954V49.6907L66.155 49.6855V49.6807L66.1547 49.6757V49.671L66.1545 49.6657V49.6611L66.1542 49.656V49.6512L66.154 49.6461V49.6414L66.1537 49.6362L66.1537 49.6314L66.1534 49.6263V49.6216L66.1532 49.6165V49.6118L66.1529 49.6066L66.1529 49.602L66.1526 49.5967V49.592C66.1366 48.9588 66.0808 48.3274 65.9857 47.7012C65.9736 47.6243 65.9343 47.5543 65.8749 47.5039C65.8156 47.4534 65.7402 47.4258 65.6623 47.4262H53.11C53.0223 47.4262 52.9382 47.4611 52.8761 47.5231L48.1261 52.2731C48.0973 52.2986 48.0756 52.331 48.0631 52.3674C48.0506 52.4037 48.0478 52.4428 48.055 52.4805C48.0621 52.5183 48.079 52.5535 48.1039 52.5828C48.1288 52.6121 48.1609 52.6344 48.1971 52.6475V52.6524V52.6574V52.6624V52.6674V52.6724V52.6773V52.6822V52.6872V52.6922V52.697V52.702V52.707V52.712V52.717V52.7219V52.7269V52.7318V52.7368V52.7416V52.7466V52.7517V52.7565V52.7614V52.7664V52.7714V52.7763V52.7813V52.7862V52.7912V52.7961V52.8011V52.8061V52.811V52.816V52.8209V52.8259V52.8308V52.8358V52.8408V52.8456V52.8507V52.8555V52.8605V52.8654V52.8704V52.8753V52.8803V52.8852V52.8902V52.8952V52.9001V52.9051V52.91V52.915V52.9199V52.9249V52.9298V52.9348V52.9398V52.9446V52.9497V52.9545V52.9595V52.9644V52.9694V52.9743V52.9793V52.9843V52.9893V52.9943V52.9992V53.0042V53.0091V53.0141V53.0189V53.0239V53.0289V53.0338V53.0388V53.0436V53.0487V53.0535V53.0585V53.0634V53.0684V53.0734V53.0784V53.0834V53.0883V53.0933V53.0982V53.1032V53.1081V53.1131V53.118V53.123V53.128V53.1329V53.1379V53.1428C48.1816 53.2374 48.5295 53.3378 48.6404 53.3378H60.0028C60.0305 53.3372 60.0581 53.3425 60.0837 53.3533C60.1092 53.3642 60.1322 53.3803 60.151 53.4007C60.1699 53.4211 60.1842 53.4452 60.1931 53.4715C60.202 53.4978 60.2052 53.5257 60.2024 53.5533C59.4265 55.9003 57.87 57.9107 55.7921 59.2497C53.7142 60.5887 51.2403 61.1755 48.7824 60.9124C46.3245 60.6493 44.0309 59.5522 42.2836 57.8037C40.5362 56.0552 39.4405 53.7608 39.1789 51.3027C39.1515 51.0459 39.1466 50.789 39.1377 50.5319C39.1513 49.1118 39.4448 47.7083 40.0014 46.4017C40.1334 46.0932 40.2796 45.7914 40.4398 45.4962C41.2405 44.0209 42.3739 42.7523 43.75 41.7911C44.0267 41.5979 44.3118 41.418 44.6055 41.2513C46.0639 40.4234 47.6949 39.9464 49.3695 39.8579C49.382 39.8566 49.4325 39.8554 49.4451 39.8542C49.7586 39.8383 50.0722 39.8363 50.386 39.8481C50.3986 39.8491 50.4491 39.8501 50.4617 39.8513C52.2089 39.9208 53.9108 40.4282 55.4109 41.3268C55.5353 41.4032 55.6816 41.4363 55.8268 41.421C55.9061 41.468 56.1707 41.3304 56.2477 41.3818C56.3147 41.4265 56.5576 41.2654 56.6145 41.2083L67.0953 30.6984C67.159 30.6339 67.2092 30.5572 67.2427 30.4728L67.2428 30.4676L67.243 30.4626L67.2431 30.4575L67.2433 30.4523L67.2434 30.4473L67.2436 30.4422L67.2438 30.4371L67.2439 30.432L67.244 30.4269L67.2442 30.4217L67.2444 30.4166L67.2446 30.4114L67.2447 30.4064L67.2449 30.4013L67.2451 30.3962L67.2452 30.3911L67.2455 30.3858L67.2456 30.3808L67.2458 30.3756L67.246 30.3704L67.2462 30.3653L67.2464 30.3602L67.2466 30.3549L67.2468 30.3498L67.2471 30.3447L67.2472 30.3394L67.2475 30.3343L67.2477 30.3292L67.248 30.3239L67.2482 30.3188L67.2484 30.3135L67.2486 30.3084L67.2489 30.3032L67.2492 30.298L67.2494 30.2927L67.2497 30.2875L67.25 30.2823L67.2502 30.277L67.2505 30.2718L67.2508 30.2665L67.2511 30.2614L67.2514 30.2562L67.2518 30.2509L67.2521 30.2456L67.2524 30.2403L67.2527 30.2349L67.253 30.2298L67.2534 30.2244L67.2538 30.2191L67.2541 30.2138L67.2545 30.2084L67.2549 30.2032L67.2553 30.1977L67.2557 30.1924L67.2561 30.187L67.2565 30.1817L67.257 30.1762L67.2575 30.1708L67.2579 30.1655L67.2584 30.16L67.2589 30.1546L67.2594 30.1491L67.2599 30.1436L67.2605 30.1381L67.261 30.1326L67.2616 30.127L67.2623 30.1215L67.2629 30.116L67.2635 30.1104L67.2641 30.1048L67.2648 30.0992L67.2655 30.0936L67.2662 30.0878L67.267 30.0822L67.2677 30.0764L67.2685 30.0706L67.2694 30.0649L67.2702 30.059L67.2712 30.0532L67.2721 30.0473L67.2731 30.0413L67.2741 30.0353L67.2751 30.0294L67.2763 30.0233L67.2775 30.0172L67.2787 30.0111L67.28 30.0048L67.2813 29.9985L67.2827 29.9921L67.2842 29.9858L67.2858 29.9791L67.2873 29.9726L67.2891 29.9659L67.2909 29.9591L67.2929 29.9522L67.2948 29.9453L67.297 29.9381L67.2994 29.9309L67.3018 29.9234L67.3045 29.9157C67.3037 29.8937 67.4824 29.6884 67.4735 29.6682C67.5021 29.6206 67.5126 29.5643 67.503 29.5096C67.4934 29.4549 67.4644 29.4056 67.4213 29.3706C62.1935 24.9546 55.4839 22.6885 48.6492 23.0305C41.8145 23.3724 35.3646 26.2969 30.6037 31.2126L30.6051 31.2158Z" fill="#F0B400"/>
<path fill-rule="evenodd" clip-rule="evenodd" d="M30.6051 31.2159C25.9405 36.0321 23.2354 42.4119 23.0165 49.1131L23.0163 49.1203L23.0162 49.1229L23.016 49.1299L23.016 49.1326L23.0158 49.1396L23.0157 49.1422L23.0155 49.1492L23.0154 49.1519L23.0152 49.1589L23.0151 49.1614L23.0149 49.1686L23.0148 49.1712L23.0146 49.1784L23.0146 49.181L23.0144 49.1881L23.0143 49.1906L23.0141 49.1978L23.014 49.2003L23.0138 49.2075L23.0138 49.2099L23.0136 49.2171L23.0135 49.2198L23.0133 49.2268L23.0132 49.2293L23.0131 49.2364L23.013 49.2391L23.0128 49.246L23.0127 49.2486L23.0126 49.2558L23.0125 49.2584L23.0123 49.2656L23.0122 49.268L23.0121 49.2752L23.012 49.2778L23.0118 49.2849L23.0118 49.2874L23.0116 49.2946L23.0115 49.2971L23.0113 49.3043L23.0113 49.307L23.0111 49.3139L23.011 49.3165L23.0109 49.3237L23.0108 49.3262L23.0107 49.3333L23.0105 49.3359L23.0104 49.343L23.0104 49.3456L23.0102 49.3528L23.0101 49.3553L23.0099 49.3625L23.0099 49.3649L23.0097 49.3721L23.0097 49.3747L23.0095 49.3819L23.0094 49.3843L23.0093 49.3915L23.0093 49.3941L23.0091 49.4012L23.009 49.4038L23.0089 49.411L23.0088 49.4135L23.0086 49.4206L23.0086 49.423L23.0085 49.4302L23.0084 49.4328L23.0083 49.44L23.0082 49.4426L23.008 49.4498L23.008 49.4522L23.0079 49.4594L23.0078 49.462L23.0077 49.4691L23.0076 49.4716L23.0075 49.4788L23.0074 49.4814L23.0073 49.4885L23.0072 49.491L23.0071 49.4981L23.007 49.5008L23.0069 49.5078L23.0069 49.5103L23.0068 49.5175L23.0067 49.5201L23.0066 49.5273L23.0065 49.5299L23.0064 49.5369L23.0063 49.5395L23.0062 49.5467L23.0061 49.5491L23.006 49.5563L23.006 49.5589L23.0058 49.5661L23.0058 49.5685L23.0057 49.5758L23.0057 49.5783L23.0055 49.5854L23.0055 49.5881L23.0054 49.5952L23.0053 49.5976L23.0052 49.6048L23.0052 49.6075L23.005 49.6146L23.005 49.6171L23.0049 49.6243V49.6268L23.0048 49.634V49.6365L23.0047 49.6437L23.0046 49.6462L23.0046 49.6534L23.0045 49.656L23.0044 49.663V49.6656L23.0043 49.6728L23.0043 49.6754L23.0042 49.6824V49.685L23.0041 49.6922L23.004 49.6948L23.0039 49.7018V49.7044L23.0039 49.7116L23.0038 49.7142L23.0038 49.7214V49.7239L23.0036 49.731V49.7336L23.0036 49.7408V49.7432L23.0035 49.7504V49.753L23.0035 49.7602L23.0034 49.7628L23.0033 49.7698V49.7724V49.7795L23.0033 49.7822L23.0032 49.7893V49.7918V49.7989L23.0032 49.8016L23.0031 49.8088V49.8112L23.003 49.8184V49.821L23.003 49.8282V49.8306L23.0029 49.8378V49.8404V49.8476L23.0028 49.8502V49.8572V49.8598V49.867L23.0028 49.8696V49.8767V49.8792V49.8863L23.0027 49.889V49.8963V49.8989V49.9062V49.9088V49.9161V49.9186V49.9261V49.9287V49.936V49.9387V49.9459V49.9484V49.9558V49.9584V49.9656V49.9682V49.9755V49.9782V49.9855V49.9881V49.9954V49.998V50.0054V50.008V50.0153V50.0179V50.0252V50.0279V50.0351V50.0377V50.045V50.0477V50.0549V50.0574V50.0648V50.0674V50.0748V50.0773V50.0847V50.0872V50.0947V50.0972C22.9352 57.0812 25.5795 63.819 30.3792 68.8928C35.1789 73.9665 41.7597 76.9805 48.7366 77.3005C55.7136 77.6205 62.5426 75.2215 67.7865 70.6083C73.0305 65.9952 76.2805 59.5277 76.8525 52.5668L76.8534 52.5568L76.8543 52.5468L76.8552 52.5368L76.8561 52.5268L76.857 52.5168L76.8579 52.5068L76.8588 52.4968L76.8597 52.4868L76.8606 52.4769L76.8615 52.4669L76.8623 52.4567L76.8633 52.4467L76.8641 52.4367L76.865 52.4267L76.8659 52.4167L76.8667 52.4067L76.8677 52.3967L76.8685 52.3867L76.8694 52.3767L76.8702 52.3665L76.8711 52.3566L76.8719 52.3466L76.8728 52.3366L76.8736 52.3266L76.8745 52.3166L76.8753 52.3066L76.8762 52.2966L76.877 52.2866L76.8778 52.2764L76.8787 52.2664L76.8795 52.2564L76.8804 52.2464L76.8811 52.2364L76.882 52.2264L76.8828 52.2165L76.8836 52.2065L76.8844 52.1965L76.8852 52.1863L76.8861 52.1763L76.8869 52.1663L76.8877 52.1563L76.8885 52.1463L76.8893 52.1363L76.8901 52.1263L76.8909 52.1163L76.8916 52.1063L76.8924 52.0961L76.8932 52.0861L76.894 52.0762L76.8948 52.0662L76.8955 52.0562L76.8963 52.0462L76.8971 52.0362L76.8979 52.0262L76.8986 52.0162L76.8994 52.006L76.9001 51.996L76.9009 51.986L76.9016 51.976L76.9024 51.966L76.9031 51.956L76.9039 51.9461L76.9046 51.9361L76.9053 51.9261L76.906 51.916L76.9068 51.906L76.9075 51.8959L76.9082 51.8859L76.909 51.8759L76.9097 51.8659L76.9104 51.8559L76.9111 51.8459L76.9118 51.8359L76.9125 51.8259L76.9132 51.816L76.914 51.8059L76.9147 51.7958L76.9153 51.7858L76.9161 51.7758L76.9167 51.7658L76.9174 51.7558L76.9181 51.7458L76.9188 51.7358L76.9195 51.7258L76.9201 51.7156L76.9208 51.7056L76.9215 51.6956L76.9222 51.6856L76.9228 51.6756L76.9235 51.6657L76.9242 51.6557L76.9248 51.6457L76.9255 51.6357L76.9261 51.6256L76.9267 51.6155L76.9274 51.6055L76.9281 51.5955L76.9287 51.5855L76.9293 51.5755L76.93 51.5655C77.3066 45.3925 75.5427 39.2785 71.936 34.2547C71.9081 34.2162 71.8723 34.1842 71.8309 34.161C71.7894 34.1377 71.7435 34.1238 71.6961 34.1201C71.6488 34.1164 71.6012 34.1229 71.5567 34.1395C71.5122 34.156 71.4717 34.1821 71.4383 34.2158L68.0178 37.6361C67.9704 37.6835 67.9396 37.7448 67.9298 37.8111C67.92 37.8774 67.9319 37.9452 67.9636 38.0042L67.9678 38.0131L67.9719 38.0218L67.9761 38.0306L67.9803 38.0394L67.9845 38.0482L67.9886 38.057L67.9928 38.0656L67.9969 38.0745L68.001 38.0832L68.0052 38.0921L68.0093 38.1008L68.0135 38.1096L68.0176 38.1184L68.0217 38.1271L68.0259 38.1359L68.0299 38.1447L68.0342 38.1536L68.0382 38.1623L68.0423 38.1712L68.0464 38.1799L68.0505 38.1888L68.0546 38.1976L68.0588 38.2064L68.0628 38.2152L68.0669 38.2239L68.0711 38.2329L68.0751 38.2415L68.0792 38.2504L68.0832 38.2592L68.0874 38.2681L68.0914 38.2769L68.0955 38.2857L68.0995 38.2945L68.1036 38.3033L68.1078 38.3122L68.1117 38.321L68.1159 38.3299L68.1199 38.3386L68.124 38.3475L68.128 38.3564L68.1321 38.3652L68.136 38.374L68.1401 38.3829L68.1442 38.3918L68.1482 38.4005L68.1523 38.4095L68.1563 38.4182L68.1604 38.4271L68.1643 38.436L68.1684 38.4448L68.1723 38.4537L68.1764 38.4625L68.1803 38.4713L68.1844 38.4802L68.1884 38.4891L68.1924 38.4979L68.1964 38.5069L68.2004 38.5157L68.2044 38.5246L68.2084 38.5334L68.2124 38.5423L68.2164 38.5511L68.2204 38.56L68.2244 38.569L68.2283 38.5777L68.2323 38.5867L68.2362 38.5955L68.2402 38.6046L68.2441 38.6133L68.2481 38.6223L68.2521 38.6312L68.2561 38.64L68.2601 38.649L68.264 38.6578L68.2679 38.6668L68.2718 38.6755L68.2758 38.6845L68.2797 38.6934L68.2837 38.7023L68.2876 38.7111L68.2915 38.72L68.2955 38.7291L68.2994 38.7379L68.3033 38.7469L68.3072 38.7557L68.3112 38.7646L68.315 38.7735L68.319 38.7824L68.3229 38.7913L68.3268 38.8002L68.3307 38.8093L68.3345 38.8181L68.3385 38.8271L68.3423 38.8359L68.3462 38.8448L68.3501 38.8537L68.354 38.8626L68.3578 38.8716L68.3617 38.8806L68.3656 38.8895C68.3941 38.9609 68.4284 39.0301 68.4681 39.096C70.8281 43.0234 71.8743 47.6011 71.4545 52.1638C71.3948 52.7573 71.3113 53.3465 71.2041 53.9316C70.4284 58.3537 68.2922 62.4236 65.0934 65.5739C61.8946 68.7242 57.7926 70.798 53.3591 71.5061C48.9257 72.2141 44.3818 71.5212 40.3608 69.524C36.3399 67.5267 33.0423 64.3247 30.9278 60.3642C28.8133 56.4037 27.9872 51.882 28.5647 47.4296C29.1423 42.9773 31.0945 38.8162 34.1495 35.5262C37.2045 32.2362 41.2099 29.9813 45.6073 29.076C50.0048 28.1707 54.575 28.66 58.6811 30.4758C58.8381 30.5457 58.7629 30.8616 58.6413 30.983L55.1211 34.4941C55.0777 34.537 55.0235 34.5672 54.9642 34.5816C54.9049 34.596 54.8429 34.594 54.7847 34.5756C52.3602 33.8197 49.7919 33.6441 47.2871 34.0629C44.7822 34.4818 42.4109 35.4835 40.3642 36.9871C38.3175 38.4907 36.6528 40.4542 35.5043 42.7193C34.3557 44.9844 33.7555 47.4877 33.7521 50.0273V50.0324V50.0372V50.0423V50.0471V50.0522V50.057V50.0621V50.0668V50.072V50.0768V50.082V50.0866V50.0917V50.0965V50.1016V50.1063L33.7521 50.1114V50.1163L33.7522 50.1214V50.1262L33.7522 50.1313V50.1361L33.7523 50.1412V50.1459L33.7524 50.1511V50.1558L33.7525 50.161V50.1657L33.7525 50.1708V50.1755L33.7526 50.1806V50.1855L33.7527 50.1906V50.1953L33.7528 50.2004V50.2053L33.7528 50.2104V50.2152L33.7529 50.2203V50.2249L33.753 50.23V50.2348L33.7531 50.2399V50.2447L33.7532 50.2498V50.2547L33.7533 50.2598V50.2645L33.7534 50.2696V50.2745L33.7535 50.2795V50.2841L33.7536 50.2893V50.2941L33.7537 50.2993V50.304L33.7538 50.3091V50.3139L33.7539 50.319V50.3237L33.754 50.3288V50.3336L33.7541 50.3387V50.3436L33.7543 50.3487V50.3533L33.7544 50.3585V50.3633L33.7545 50.3685V50.373L33.7546 50.3781V50.383L33.7547 50.3881V50.3929L33.7549 50.398V50.4028L33.755 50.4079V50.4127L33.7552 50.4177V50.4224L33.7553 50.4276V50.4324L33.7554 50.4376V50.4422L33.7555 50.4473V50.4522L33.7557 50.4572V50.4619L33.7558 50.467V50.4719L33.756 50.477V50.4818L33.7561 50.4869V50.4916L33.7563 50.4966V50.5014L33.7565 50.5065L33.7565 50.5113L33.7566 50.5164L33.7567 50.5213L33.7569 50.5264L33.7569 50.5311L33.7571 50.5361L33.7572 50.541L33.7573 50.5461L33.7574 50.5507L33.7575 50.5559L33.7576 50.5607L33.7578 50.5659L33.7579 50.5705L33.758 50.5756L33.7581 50.5804L33.7583 50.5855L33.7583 50.5903L33.7585 50.5954L33.7586 50.6002L33.7588 50.6052L33.7588 50.6099L33.759 50.6151L33.7591 50.6198L33.7593 50.6249L33.7594 50.6298L33.7596 50.6348L33.7596 50.6395L33.7598 50.6446L33.7599 50.6495L33.7601 50.6546L33.7602 50.6594L33.7604 50.6645L33.7605 50.6691L33.7607 50.6743L33.7607 50.679L33.7609 50.6841L33.761 50.6889L33.7612 50.694L33.7613 50.6987L33.7615 50.7038L33.7616 50.7086L33.7618 50.7137L33.7619 50.7186L33.7621 50.7237L33.7622 50.7282L33.7624 50.7333L33.7626 50.7382L33.7627 50.7434L33.7629 50.748L33.763 50.753L33.7632 50.7579L33.7634 50.763L33.7635 50.7678L33.7637 50.7729L33.7638 50.7777L33.764 50.7827L33.7641 50.7874L33.7644 50.7925L33.7645 50.7973L33.7647 50.8024L33.7649 50.8072L33.7651 50.8123L33.7652 50.817L33.7654 50.8221L33.7655 50.827L33.7658 50.8321L33.7659 50.8366L33.7662 50.8417L33.7663 50.8466L33.7665 50.8518L33.7666 50.8565L33.7669 50.8615L33.767 50.8663L33.7673 50.8714L33.7674 50.8762L33.7676 50.8813L33.7677 50.8859L33.768 50.8911L33.7682 50.8959L33.7684 50.9011L33.7685 50.9057L33.7688 50.9107L33.7689 50.9156L33.7691 50.9207L33.7693 50.9254L33.7696 50.9304L33.7697 50.9352L33.7699 50.9404L33.7701 50.9451L33.7704 50.9503L33.7705 50.9549L33.7708 50.96L33.7709 50.9648L33.7712 50.9699L33.7713 50.9747L33.7716 50.9797L33.7718 50.9846L33.7721 50.9897L33.7722 50.9943L33.7725 50.9993L33.7726 51.0042L33.7729 51.0093L33.7731 51.014L33.7734 51.0191L33.7735 51.0239C33.9626 55.2512 35.7976 59.237 38.8865 62.1292C41.9753 65.0215 46.073 66.5908 50.3037 66.5018C54.5343 66.4127 58.5623 64.6724 61.5268 61.6528C64.4912 58.6331 66.157 54.5737 66.1679 50.3421V50.337V50.3322V50.327V50.3223V50.3173V50.3126L66.1679 50.3073V50.3027L66.1678 50.2974V50.2928L66.1678 50.2877V50.283L66.1677 50.2778V50.273L66.1676 50.2679V50.2634L66.1676 50.2581V50.2534L66.1675 50.2482V50.2435L66.1674 50.2382V50.2337L66.1673 50.2286V50.2238L66.1673 50.2186V50.2139L66.1672 50.2088V50.204L66.1671 50.1989V50.1943L66.167 50.189V50.1844L66.1669 50.1793V50.1746L66.1669 50.1694V50.1646L66.1667 50.1595V50.1549L66.1667 50.1496V50.145L66.1665 50.1398V50.1351L66.1665 50.1299V50.1253L66.1664 50.1201V50.1153L66.1662 50.1102V50.1055L66.1661 50.1004V50.0956L66.1661 50.0905V50.0859L66.1659 50.0806V50.076L66.1658 50.0709V50.0661L66.1657 50.0609V50.0562L66.1656 50.0512V50.0465L66.1654 50.0412V50.0366L66.1653 50.0313V50.0267L66.1652 50.0216V50.0169L66.1651 50.0117V50.0069L66.165 50.0019V49.9973L66.1648 49.992V49.9872L66.1647 49.9821V49.9775L66.1645 49.9722V49.9676L66.1644 49.9625V49.9577L66.1643 49.9526V49.9479L66.1641 49.9428V49.9381L66.164 49.9328V49.9282L66.1638 49.923V49.9183L66.1637 49.9132V49.9085L66.1635 49.9033V49.8986L66.1633 49.8935V49.8887L66.1631 49.8835L66.1631 49.879L66.1629 49.8738L66.1629 49.8691L66.1627 49.8638L66.1626 49.8592L66.1625 49.8542L66.1624 49.8494L66.1623 49.8442L66.1622 49.8395L66.162 49.8343L66.162 49.8297L66.1618 49.8245L66.1617 49.8199L66.1615 49.8146L66.1615 49.8099L66.1613 49.8049L66.1612 49.8002L66.1611 49.795L66.1609 49.7902L66.1607 49.7851L66.1607 49.7805L66.1605 49.7752L66.1604 49.7706L66.1603 49.7654L66.1601 49.7608L66.16 49.7556L66.1599 49.7509L66.1597 49.7457L66.1596 49.7409L66.1594 49.7359L66.1593 49.7313L66.1591 49.726L66.159 49.7213L66.1589 49.7163L66.1587 49.7116L66.1586 49.7064L66.1584 49.7016L66.1582 49.6965L66.1581 49.6918L66.1579 49.6866L66.1578 49.682L66.1576 49.6768L66.1575 49.6721L66.1573 49.6669L66.1572 49.6623L66.157 49.657L66.1569 49.6523L66.1567 49.6473L66.1565 49.6426L66.1564 49.6374L66.1562 49.6326L66.156 49.6276L66.1559 49.623L66.1557 49.6177L66.1556 49.613L66.1553 49.6079L66.1552 49.6032L66.1549 49.598L66.1549 49.5933L66.1546 49.5882L66.1545 49.5836L66.1543 49.5783L66.1542 49.5737L66.1539 49.5684L66.1538 49.5637L66.1535 49.5587L66.1534 49.554L66.1532 49.5488L66.1531 49.544L66.1528 49.539L66.1527 49.5344L66.1524 49.5291L66.1523 49.5244L66.152 49.5194L66.1519 49.5146L66.1517 49.5093L66.1515 49.5047L66.1513 49.4997L66.1511 49.4949L66.1509 49.4897L66.1507 49.4851L66.1505 49.4799L66.1503 49.4752L66.1501 49.47L66.1499 49.4654L66.1496 49.4603L66.1495 49.4555L66.1492 49.4504L66.1491 49.4457L66.1488 49.4406L66.1487 49.4359L66.1484 49.4307L66.1482 49.426L66.1479 49.4208L66.1478 49.4162L66.1476 49.4111L66.1474 49.4063L66.1471 49.4012L66.147 49.3966L66.1466 49.3913L66.1465 49.3865L66.1462 49.3815L66.146 49.3769L66.1457 49.3716L66.1455 49.3669L66.1453 49.3619L66.1451 49.3572L66.1448 49.352L66.1446 49.3472C66.1215 48.7972 66.0685 48.2489 65.9856 47.7047C65.9735 47.6277 65.9342 47.5577 65.8749 47.5073C65.8155 47.4568 65.7401 47.4294 65.6622 47.4298H53.11C53.0223 47.4298 52.9382 47.4645 52.8762 47.5266L48.1261 52.2767C48.0884 52.3121 48.0615 52.3575 48.0487 52.4077C48.0358 52.4578 48.0375 52.5105 48.0534 52.5598C48.0694 52.609 48.0991 52.6526 48.139 52.6856C48.1788 52.7186 48.2272 52.7396 48.2785 52.7462V52.7486V52.751V52.7536V52.756V52.7585V52.7609V52.7635V52.7659V52.7684V52.7708V52.7734V52.7758V52.7783V52.7808V52.7833V52.7857V52.7882V52.7907V52.7932V52.7956V52.7982V52.8006V52.803V52.8055V52.8081V52.8105V52.8129V52.8154V52.8179V52.8204V52.8228V52.8254V52.8278V52.8303V52.8327V52.8353V52.8377V52.8402V52.8427V52.8452V52.8476V52.85V52.8526V52.855V52.8575V52.8599V52.8625V52.8649V52.8674V52.8699V52.8724V52.8748V52.8773V52.8798V52.8823V52.8847V52.8872V52.8897V52.8922V52.8946V52.8972V52.8996V52.902V52.9045V52.907V52.9095V52.9119V52.9145V52.9169V52.9194V52.9218V52.9244V52.9268V52.9293V52.9317V52.9343V52.9367V52.9392V52.9417V52.9442V52.9466V52.949V52.9516V52.954V52.9565V52.9591V52.9615V52.9639V52.9664V52.9689V52.9714V52.9738V52.9763V52.9788V52.9813V52.9837V52.9863V52.9887V52.9912V52.9936C48.2708 53.0409 48.7251 53.0913 48.7805 53.0913H60.0022C60.0411 53.0906 60.0796 53.0987 60.1149 53.1151C60.1502 53.1314 60.1814 53.1555 60.206 53.1856C60.2307 53.2157 60.2481 53.251 60.2572 53.2889C60.2662 53.3267 60.2666 53.3662 60.2582 53.4042C59.5127 55.7763 57.9729 57.8192 55.8979 59.1892C53.8229 60.5591 51.3394 61.1726 48.8652 60.9263C46.3909 60.6801 44.077 59.5891 42.3127 57.837C40.5485 56.0849 39.4416 53.7786 39.1783 51.3061C39.1509 51.0491 39.1393 50.7918 39.1304 50.5346C39.1125 49.1145 39.3747 47.7048 39.9018 46.3861C40.0264 46.0752 40.1654 45.7703 40.3188 45.4711C41.0851 43.9773 42.1887 42.6824 43.5422 41.6892C43.8137 41.49 44.0944 41.3036 44.3843 41.1298C45.8232 40.2679 47.4429 39.7525 49.1153 39.6246C49.1342 39.6227 49.1719 39.6208 49.1908 39.6191C49.5031 39.5966 49.8164 39.5878 50.1305 39.5927C50.1368 39.5932 50.1999 39.5939 50.2062 39.5944C51.9553 39.6214 53.6696 40.0872 55.1918 40.9493C55.3205 41.0215 55.4585 41.0758 55.602 41.1104C55.721 41.181 55.9316 41.1613 56.0471 41.2383C56.1477 41.3054 56.3586 41.2175 56.444 41.1319L66.922 30.6248C66.9866 30.5593 67.0449 30.4877 67.0961 30.4112L67.0964 30.4085L67.0965 30.4058L67.0968 30.4031L67.097 30.4005L67.0972 30.3978L67.0975 30.3951L67.0977 30.3924L67.0979 30.3896L67.0981 30.3869L67.0984 30.3842L67.0987 30.3814L67.0989 30.3787L67.0992 30.376L67.0994 30.3732L67.0997 30.3706L67.1 30.3677L67.1003 30.3649L67.1005 30.3622L67.1008 30.3594L67.1011 30.3568L67.1014 30.3539L67.1017 30.3511L67.102 30.3485L67.1023 30.3456L67.1026 30.3428L67.1029 30.34L67.1033 30.3372L67.1036 30.3344L67.104 30.3315L67.1044 30.3287L67.1047 30.3259L67.1051 30.3231L67.1054 30.3201L67.1058 30.3173L67.1062 30.3144L67.1066 30.3116L67.107 30.3087L67.1075 30.3059L67.1079 30.3029L67.1083 30.3L67.1087 30.2971L67.1092 30.2941L67.1097 30.2912L67.1101 30.2882L67.1106 30.2853L67.1111 30.2823L67.1116 30.2794L67.1122 30.2763L67.1127 30.2734L67.1133 30.2703L67.1138 30.2674L67.1144 30.2643L67.115 30.2612L67.1156 30.2582L67.1163 30.2551L67.1169 30.252L67.1176 30.2487L67.1183 30.2457L67.1189 30.2425L67.1197 30.2393L67.1204 30.236L67.1212 30.2327L67.1219 30.2296L67.1228 30.2263L67.1236 30.223L67.1245 30.2195L67.1254 30.2163L67.1263 30.2128L67.1272 30.2094L67.1282 30.206L67.1293 30.2025L67.1303 30.1989L67.1314 30.1954L67.1325 30.1918L67.1337 30.1881L67.1349 30.1844L67.1362 30.1806L67.1375 30.1768L67.1388 30.173L67.1402 30.1691L67.1417 30.1651L67.1433 30.1611L67.1448 30.157L67.1465 30.1529L67.1483 30.1486L67.1501 30.1444L67.152 30.14L67.154 30.1354L67.1561 30.1309L67.1584 30.1262L67.1607 30.1213L67.1631 30.1165L67.1658 30.1113L67.1685 30.1061L67.1714 30.1008L67.1745 30.0952L67.1777 30.0894L67.1812 30.0834L67.1849 30.0773L67.1889 30.0707C67.1886 30.0597 67.4609 29.7736 67.4564 29.7635C67.4797 29.7356 67.4972 29.7033 67.508 29.6686C67.5188 29.6339 67.5227 29.5974 67.5194 29.5612C67.5161 29.525 67.5057 29.4899 67.4888 29.4577C67.4718 29.4255 67.4487 29.3971 67.4208 29.3738C62.193 24.9579 55.4834 22.6918 48.6487 23.0338C41.814 23.3757 35.3641 26.3003 30.6032 31.216L30.6051 31.2159Z" fill="#F8CC00"/>
<path fill-rule="evenodd" clip-rule="evenodd" d="M71.9338 34.2548C71.906 34.2163 71.8702 34.1843 71.8287 34.161C71.7873 34.1377 71.7413 34.1238 71.694 34.1201C71.6466 34.1164 71.599 34.123 71.5545 34.1395C71.51 34.156 71.4696 34.182 71.4361 34.2157L68.0157 37.636C67.9614 37.6907 67.9276 37.7625 67.9201 37.8392C67.9126 37.916 67.9319 37.993 67.9747 38.0571C70.851 42.3953 72.0658 47.6257 71.3957 52.7875C70.7256 57.9493 68.2158 62.696 64.3271 66.156C60.4384 69.616 55.432 71.557 50.2272 71.6223C45.0225 71.6876 39.9689 69.873 35.9946 66.5117C32.0203 63.1504 29.3921 58.4682 28.5927 53.3248C27.7932 48.1815 28.8763 42.9223 31.6428 38.5133C34.4094 34.1043 38.6738 30.8414 43.6528 29.3238C48.6318 27.8063 53.9911 28.136 58.7465 30.2524C58.7948 30.2741 58.837 30.3073 58.8696 30.349C58.9021 30.3907 58.924 30.4396 58.9334 30.4917C58.9427 30.5438 58.9392 30.5974 58.9232 30.6478C58.9072 30.6982 58.8791 30.744 58.8414 30.7811L55.1187 34.4941C55.0754 34.5371 55.0212 34.5673 54.9619 34.5817C54.9026 34.596 54.8405 34.5939 54.7824 34.5756C51.5243 33.5597 48.0287 33.5982 44.7938 34.6855C41.5588 35.7729 38.7497 37.8536 36.7666 40.6311C34.7836 43.4086 33.7278 46.7412 33.7499 50.1539C33.7719 53.5666 34.8706 56.8853 36.8893 59.637C38.9081 62.3886 41.7439 64.4328 44.9926 65.4783C48.2413 66.5237 51.7371 66.5171 54.9818 65.4592C58.2265 64.4014 61.0546 62.3464 63.0628 59.587C65.0711 56.8277 66.1571 53.5048 66.1661 50.092C66.1662 49.2928 66.1051 48.4947 65.9835 47.7047C65.9714 47.6278 65.9321 47.5578 65.8727 47.5073C65.8134 47.4569 65.738 47.4293 65.6601 47.4297H53.1101C53.0223 47.4297 52.9383 47.4646 52.8762 47.5266L48.1261 52.2767C48.0799 52.323 48.0483 52.3819 48.0356 52.446C48.0228 52.5102 48.0294 52.5767 48.0544 52.6371C48.0795 52.6975 48.1219 52.7492 48.1763 52.7855C48.2307 52.8219 48.2946 52.8412 48.36 52.8412H60.0042C60.0543 52.8406 60.1039 52.8518 60.149 52.8738C60.1941 52.8958 60.2333 52.928 60.2637 52.9679C60.294 53.0078 60.3147 53.0542 60.3239 53.1035C60.3331 53.1528 60.3306 53.2035 60.3167 53.2517C59.7438 55.1728 58.6488 56.897 57.1535 58.2323C55.6582 59.5676 53.8216 60.4614 51.8481 60.8141C49.8747 61.1668 47.8421 60.9646 45.9769 60.23C44.1116 59.4954 42.4871 58.2573 41.2842 56.6536C40.0813 55.0499 39.3474 53.1436 39.1643 51.1473C38.9812 49.151 39.356 47.1431 40.2471 45.3473C41.1381 43.5515 42.5103 42.0385 44.2108 40.9768C45.9112 39.9151 47.8731 39.3464 49.8778 39.3342H49.9536C52.0505 39.3157 54.1046 39.928 55.8491 41.0918C55.9139 41.1356 55.9919 41.1557 56.0698 41.1484C56.1476 41.1412 56.2206 41.1072 56.2762 41.0522L67.4419 29.8555C67.474 29.8235 67.4991 29.7852 67.5156 29.743C67.5322 29.7009 67.5398 29.6556 67.538 29.6103C67.5362 29.5651 67.525 29.5207 67.5052 29.48C67.4854 29.4392 67.4573 29.4031 67.4227 29.3738C62.1727 24.9395 55.4293 22.6741 48.5669 23.0394C41.7045 23.4047 35.2397 26.3732 30.4901 31.3398C25.7405 36.3065 23.0637 42.8974 23.0051 49.7693C22.9466 56.6411 25.5108 63.2767 30.1751 68.3235C34.8394 73.3703 41.2527 76.4484 48.1079 76.9305C54.963 77.4127 61.744 75.2626 67.0689 70.9183C72.3937 66.5741 75.8614 60.3628 76.7654 53.5504C77.6693 46.738 75.9414 39.8373 71.9338 34.2548V34.2548Z" fill="#FFE400"/>
<defs>
<radialGradient id="paint0_radial" cx="0" cy="0" r="1" gradientUnits="userSpaceOnUse" gradientTransform="translate(49.544 5.39595) scale(94.4433)">
<stop stop-color="#FDFB45"/>
<stop offset="0.41557" stop-color="#BB6000"/>
<stop offset="0.73404" stop-color="#FDFB45"/>
<stop offset="0.99968" stop-color="#BB6000"/>
</radialGradient>
<radialGradient id="paint1_radial" cx="0" cy="0" r="1" gradientUnits="userSpaceOnUse" gradientTransform="translate(49.5668 7.62597) scale(89.7211)">
<stop stop-color="#FDFB45"/>
<stop offset="1" stop-color="#FF9600"/>
</radialGradient>
<radialGradient id="paint2_radial" cx="0" cy="0" r="1" gradientUnits="userSpaceOnUse" gradientTransform="translate(49.6808 18.777) scale(66.1103)">
<stop stop-color="#E18400"/>
<stop offset="0.17705" stop-color="#E18601"/>
<stop offset="0.24083" stop-color="#E38D05"/>
<stop offset="0.28629" stop-color="#E6980C"/>
<stop offset="0.32306" stop-color="#EAA916"/>
<stop offset="0.35452" stop-color="#EFBF22"/>
<stop offset="0.38188" stop-color="#F5DA32"/>
<stop offset="0.40654" stop-color="#FDF944"/>
<stop offset="0.40767" stop-color="#FDFB45"/>
<stop offset="0.49512" stop-color="#FDF943"/>
<stop offset="0.53105" stop-color="#FDF23D"/>
<stop offset="0.55752" stop-color="#FEE633"/>
<stop offset="0.57936" stop-color="#FED425"/>
<stop offset="0.59812" stop-color="#FEBE12"/>
<stop offset="0.61159" stop-color="#FFA800"/>
<stop offset="0.93384" stop-color="#FFE300"/>
<stop offset="1" stop-color="#FFA800"/>
</radialGradient>
<radialGradient id="paint3_radial" cx="0" cy="0" r="1" gradientUnits="userSpaceOnUse" gradientTransform="translate(49.699 20.5611) scale(62.3326)">
<stop stop-color="#FFE300"/>
<stop offset="1" stop-color="#FFA800"/>
</radialGradient>
<radialGradient id="paint4_radial" cx="0" cy="0" r="1" gradientUnits="userSpaceOnUse" gradientTransform="translate(49.699 20.5611) scale(62.3326)">
<stop stop-color="#FFE300"/>
<stop offset="1" stop-color="#FFA800"/>
</radialGradient>
<radialGradient id="paint5_radial" cx="0" cy="0" r="1" gradientUnits="userSpaceOnUse" gradientTransform="translate(49.699 20.5611) scale(62.3326)">
<stop stop-color="#FFE300"/>
<stop offset="0.09577" stop-color="#FFD900"/>
<stop offset="0.47359" stop-color="#FFB900"/>
<stop offset="0.78853" stop-color="#FFA400"/>
<stop offset="1" stop-color="#FF9D00"/>
</radialGradient>
</defs>
</svg>
