<svg width="100" height="100" viewBox="0 0 100 100" fill="none" xmlns="http://www.w3.org/2000/svg">
<path d="M50 100C22.3858 100 0 77.6143 0 50C0 22.3858 22.3858 0 50 0C77.6142 0 100 22.3858 100 50C100 77.6143 77.6142 100 50 100Z" fill="url(#paint0_radial)"/>
<path d="M50 97.4998C23.7665 97.4998 2.5 76.2333 2.5 49.9998C2.5 23.7663 23.7665 2.49982 50 2.49982C76.2335 2.49982 97.5 23.7663 97.5 49.9998C97.5 76.2333 76.2335 97.4998 50 97.4998Z" fill="url(#paint1_radial)"/>
<path d="M50 84.9998C30.67 84.9998 15 69.3298 15 49.9998C15 30.6699 30.67 14.9998 50 14.9998C69.33 14.9998 85 30.6699 85 49.9998C85 69.3298 69.33 84.9998 50 84.9998Z" fill="url(#paint2_radial)"/>
<path d="M50 82.9998C31.7746 82.9998 17 68.2252 17 49.9998C17 31.7744 31.7746 16.9998 50 16.9998C68.2254 16.9998 83 31.7744 83 49.9998C83 68.2252 68.2254 82.9998 50 82.9998Z" fill="url(#paint3_radial)"/>
<path d="M50 82.9998C31.7746 82.9998 17 68.2252 17 49.9998C17 31.7744 31.7746 16.9998 50 16.9998C68.2254 16.9998 83 31.7744 83 49.9998C83 68.2252 68.2254 82.9998 50 82.9998Z" fill="url(#paint4_radial)"/>
<path d="M50 82.9998C31.7746 82.9998 17 68.2252 17 49.9998C17 31.7744 31.7746 16.9998 50 16.9998C68.2254 16.9998 83 31.7744 83 49.9998C83 68.2252 68.2254 82.9998 50 82.9998Z" fill="url(#paint5_radial)"/>
<path fill-rule="evenodd" clip-rule="evenodd" d="M23.0051 49.4907C23.1083 44.0164 24.8733 38.7028 28.0662 34.2547C28.094 34.2162 28.1298 34.1842 28.1713 34.161C28.2127 34.1377 28.2587 34.1237 28.306 34.12C28.3534 34.1163 28.401 34.123 28.4455 34.1395C28.49 34.156 28.5304 34.1821 28.5639 34.2158L31.9843 37.636C32.0398 37.6922 32.0732 37.7666 32.0782 37.8454L32.0782 37.8555L32.0782 37.8652L32.0782 37.8751L32.0782 37.885L32.0782 37.895L32.0782 37.9049L32.0782 37.9147V37.9247L32.0782 37.9344L32.0782 37.9444L32.0782 37.9542L32.0782 37.9642L32.0782 37.9741L32.0782 37.984L32.0782 37.9939L32.0782 38.0038V38.0138L32.0782 38.0235L32.0782 38.0336L32.0782 38.0433L32.0782 38.0533L32.0782 38.0632L32.0782 38.0731L32.0782 38.083L32.0782 38.0929V38.1029L32.0782 38.1127L32.0782 38.1227L32.0782 38.1324L32.0782 38.1424L32.0782 38.1523L32.0782 38.1622L32.0782 38.1721L32.0782 38.182V38.192L32.0782 38.2018L32.0782 38.2118L32.0782 38.2215L32.0782 38.2315L32.0782 38.2414L32.0782 38.2512L32.0782 38.2612L32.0782 38.2711V38.281L32.0782 38.2908L32.0782 38.3008L32.0782 38.3105L32.0782 38.3205L32.0782 38.3304L32.0782 38.3403L32.0782 38.3502L32.0782 38.3601L32.0782 38.37L32.0782 38.3799V38.3899L32.0782 38.3996L32.0782 38.4096L32.0782 38.4195L32.0782 38.4294L32.0782 38.4393L32.0782 38.4492L32.0782 38.4591L32.0782 38.469V38.479L32.0782 38.4888L32.0782 38.4988L32.0782 38.5085L32.0782 38.5185L32.0782 38.5284L32.0782 38.5383L32.0782 38.5482L32.0782 38.5581V38.5681L32.0782 38.5779L32.0782 38.5879L32.0782 38.5976L32.0782 38.6076L32.0782 38.6175L32.0782 38.6274L32.0782 38.6373L32.0782 38.6472V38.6572L32.0782 38.6669L32.0782 38.6769L32.0782 38.6866L32.0782 38.6966L32.0782 38.7065L32.0782 38.7164L32.0782 38.7263L32.0782 38.7362V38.7462L32.0782 38.756L32.0782 38.766L32.0782 38.7757L32.0782 38.7857L32.0782 38.7956L32.0782 38.8055L32.0782 38.8154L32.0782 38.8253V38.8353C32.087 38.913 32.0683 38.9914 32.0253 39.0567C29.716 42.5514 28.4724 46.642 28.4459 50.8307C28.4686 51.4227 28.5099 52.0155 28.5817 52.6076C28.9384 57.156 30.7302 61.4736 33.6986 64.9381C36.6671 68.4026 40.6589 70.835 45.0988 71.8849C49.5386 72.9347 54.1972 72.5478 58.4029 70.7796C62.6086 69.0115 66.1443 65.9536 68.5003 62.0467C70.8563 58.1399 71.911 53.5857 71.5122 49.0409C71.1134 44.496 69.2819 40.1952 66.2816 36.7583C63.2812 33.3214 59.267 30.926 54.8176 29.9172C50.3683 28.9085 45.7135 29.3385 41.5243 31.1455L44.8813 34.4938C44.9246 34.5367 44.9789 34.5669 45.0381 34.5813C45.0974 34.5956 45.1595 34.5935 45.2177 34.5752C47.6422 33.8193 50.2104 33.6437 52.7153 34.0626C55.2201 34.4815 57.5915 35.4831 59.6382 36.9867C61.6849 38.4903 63.3496 40.4539 64.4981 42.719C65.6466 44.9841 66.2468 47.4873 66.2502 50.027L66.2501 50.0321L66.2502 50.0368L66.2501 50.042L66.2502 50.0467L66.2501 50.0519L66.2502 50.0566L66.2501 50.0617L66.2502 50.0665L66.2501 50.0716L66.2502 50.0765L66.2501 50.0816L66.2502 50.0863L66.2501 50.0914L66.2502 50.0963L66.2501 50.1014L66.2502 50.1061L66.2501 50.1112L66.2502 50.1161L66.2501 50.1212L66.2502 50.126L66.2501 50.1311L66.2502 50.1358L66.2501 50.141L66.2502 50.1457L66.2501 50.1509L66.2502 50.1556L66.2501 50.1607L66.2502 50.1656L66.2501 50.1708L66.2502 50.1754L66.2501 50.1805L66.2502 50.1854L66.2501 50.1905L66.2502 50.1952L66.2501 50.2003L66.2502 50.2052L66.2501 50.2103L66.2502 50.2151L66.2501 50.2202L66.2502 50.225L66.2501 50.2301L66.2502 50.2348L66.2501 50.24L66.2502 50.2447L66.2501 50.2499L66.2502 50.2547L66.2501 50.2599L66.2502 50.2645L66.2501 50.2696L66.2502 50.2745L66.2501 50.2796L66.2502 50.2843L66.2501 50.2894L66.2502 50.2943L66.2501 50.2994L66.2502 50.3042L66.2501 50.3093L66.2502 50.3141L66.2501 50.3192L66.2502 50.324L66.2501 50.3291L66.2502 50.3338L66.2501 50.339L66.2502 50.3439L66.2501 50.349L66.2502 50.3536L66.2501 50.3587L66.2502 50.3636L66.2501 50.3688L66.2502 50.3734L66.2501 50.3785L66.2502 50.3834L66.2501 50.3885L66.2502 50.3933L66.2501 50.3984L66.2502 50.4032L66.2501 50.4083L66.2502 50.4131L66.2501 50.4182L66.2502 50.423L66.2501 50.4281L66.2502 50.433L66.2501 50.4381L66.2502 50.4427L66.2501 50.4479L66.2502 50.4527L66.2501 50.4579L66.2502 50.4625L66.2501 50.4676L66.2502 50.4725L66.2501 50.4776L66.2502 50.4824L66.2501 50.4875L66.2502 50.4923L66.2501 50.4974L66.2502 50.5022L66.2501 50.5073L66.2502 50.5121L66.2501 50.5172L66.2502 50.5221L66.2501 50.5272L66.2502 50.5318L66.2501 50.537L66.2502 50.5419L66.2501 50.547L66.2502 50.5516L66.2501 50.5567L66.2502 50.5616L66.2501 50.5668L66.2502 50.5715L66.2501 50.5766L66.2502 50.5814L66.2501 50.5865L66.2502 50.5913L66.2501 50.5964L66.2502 50.6012L66.2501 50.6063L66.2502 50.6111L66.2501 50.6162L66.2502 50.621L66.2501 50.6261L66.2502 50.631L66.2501 50.6361L66.2502 50.6407L66.2501 50.6459L66.2502 50.6507L66.2501 50.6559L66.2502 50.6606L66.2501 50.6658L66.2502 50.6705L66.2501 50.6756L66.2502 50.6804L66.2501 50.6855L66.2502 50.6903L66.2501 50.6954L66.2502 50.7002L66.2501 50.7053L66.2502 50.7101L66.2501 50.7152L66.2502 50.7201L66.2501 50.7252L66.2502 50.7298L66.2501 50.735L66.2502 50.7398L66.2501 50.745L66.2502 50.7496L66.2501 50.7547L66.2502 50.7596L66.2501 50.7648L66.2502 50.7695L66.2501 50.7746L66.2502 50.7794L66.2501 50.7845L66.2502 50.7893L66.2501 50.7944L66.2502 50.7992L66.2501 50.8043L66.2502 50.8092L66.2501 50.8143L66.2502 50.819L66.2501 50.8241L66.2502 50.829L66.2501 50.8341L66.2502 50.8387L66.2501 50.8439L66.2502 50.8487L66.2501 50.8539L66.2502 50.8586L66.2501 50.8638L66.2502 50.8685L66.2501 50.8736L66.2502 50.8784L66.2501 50.8835L66.2502 50.8883L66.2501 50.8934L66.2502 50.8983L66.2501 50.9034L66.2502 50.9081L66.2501 50.9132L66.2502 50.9181L66.2501 50.9232L66.2502 50.9278L66.2501 50.933L66.2502 50.9378L66.2501 50.943L66.2502 50.9477L66.2501 50.9529L66.2502 50.9576L66.2501 50.9627L66.2502 50.9675L66.2501 50.9726L66.2502 50.9774L66.2501 50.9825L66.2502 50.9874L66.2501 50.9925L66.2502 50.9972L66.2501 51.0023L66.2502 51.0072L66.2501 51.0123L66.2502 51.0169L66.2501 51.0221L66.2502 51.027C66.2546 55.3229 64.5534 59.4449 61.5203 62.4872C58.4872 65.5294 54.3703 67.2431 50.0744 67.2517C45.7785 67.2603 41.6548 65.563 38.6096 62.5328C35.5644 59.5027 33.8467 55.3876 33.8339 51.0917L33.8341 51.0865L33.8339 51.0818L33.8341 51.0765L33.8339 51.0719L33.8341 51.0668L33.8339 51.062L33.8341 51.0567L33.8339 51.0521L33.8341 51.0469L33.8339 51.0421L33.8341 51.037L33.8339 51.0323L33.8341 51.0271L33.8339 51.0223L33.8341 51.0172L33.8339 51.0126L33.8341 51.0073L33.8339 51.0025L33.8341 50.9974L33.8339 50.9927L33.8341 50.9874L33.8339 50.9828L33.8341 50.9776L33.8339 50.9729L33.8341 50.9676L33.8339 50.963L33.8341 50.9577L33.8339 50.953L33.8341 50.9479L33.8339 50.9432L33.8341 50.938L33.8339 50.9332L33.8341 50.9281L33.8339 50.9234L33.8341 50.9182L33.8339 50.9134L33.8341 50.9083L33.8339 50.9035L33.8341 50.8983L33.8339 50.8937L33.8341 50.8885L33.8339 50.8838L33.8341 50.8785L33.8339 50.8739L33.8341 50.8686L33.8339 50.8639L33.8341 50.8587L33.8339 50.8541L33.8341 50.8489L33.8339 50.8441L33.8341 50.839L33.8339 50.8343L33.8341 50.8291L33.8339 50.8243L33.8341 50.8192L33.8339 50.8144L33.8341 50.8092L33.8339 50.8045L33.8341 50.7994L33.8339 50.7947L33.8341 50.7894L33.8339 50.7848L33.8341 50.7795L33.8339 50.7748L33.8341 50.7696L33.8339 50.765L33.8341 50.7597L33.8339 50.755L33.8341 50.7499L33.8339 50.7452L33.8341 50.74L33.8339 50.7352L33.8341 50.7301L33.8339 50.7253L33.8341 50.7201L33.8339 50.7154L33.8341 50.7103L33.8339 50.7055L33.8341 50.7003L33.8339 50.6957L33.8341 50.6905L33.8339 50.6858L33.8341 50.6805L33.8339 50.6759L33.8341 50.6706L33.8339 50.6659L33.8341 50.6607L33.8339 50.6561L33.8341 50.6509L33.8339 50.6461L33.8341 50.641L33.8339 50.6362L33.8341 50.631L33.8339 50.6263L33.8341 50.6212L33.8339 50.6164L33.8341 50.6112L33.8339 50.6065L33.8341 50.6014L33.8339 50.5967L33.8341 50.5914L33.8339 50.5868L33.8341 50.5815L33.8339 50.5768L33.8341 50.5716L33.8339 50.567L33.8341 50.5617L33.8339 50.557L33.8341 50.5519L33.8339 50.5472L33.8341 50.542L33.8339 50.5372L33.8341 50.5321L33.8339 50.5273L33.8341 50.5221L33.8339 50.5174L33.8341 50.5123L33.8339 50.5075L33.8341 50.5023L33.8339 50.4977L33.8341 50.4924L33.8339 50.4877L33.8341 50.4825L33.8339 50.4779L33.8341 50.4726L33.8339 50.4679L33.8341 50.4627L33.8339 50.4581L33.8341 50.4529L33.8339 50.4481L33.8341 50.443L33.8339 50.4382L33.8341 50.433L33.8339 50.4283L33.8341 50.4232L33.8339 50.4184L33.8341 50.4132L33.8339 50.4086L33.8341 50.4033L33.8339 50.3985L33.8341 50.3934L33.8339 50.3888L33.8341 50.3835L33.8339 50.3788L33.8341 50.3736L33.8339 50.369L33.8341 50.3638L33.8339 50.359L33.8341 50.3539L33.8339 50.3491L33.8341 50.3439L33.8339 50.3392L33.8341 50.3341L33.8339 50.3293L33.8341 50.3241L33.8339 50.3194L33.8341 50.3142L33.8339 50.3094L33.8341 50.3043L33.8339 50.2997L33.8341 50.2944L33.8339 50.2897L33.8341 50.2845L33.8339 50.2799L33.8341 50.2746L33.8339 50.2699L33.8341 50.2648L33.8339 50.26L33.8341 50.2547L33.8339 50.2501L33.8341 50.245L33.8339 50.2402L33.8341 50.235L33.8339 50.2303L33.8341 50.2251L33.8339 50.2203L33.8341 50.2152L33.8339 50.2106L33.8341 50.2053L33.8339 50.2005L33.8341 50.1954L33.8339 50.1908L33.8341 50.1855L33.8339 50.1808L33.8341 50.1756L33.8339 50.1709L33.8341 50.1656L33.8339 50.161L33.8341 50.1559L33.8339 50.1511L33.8341 50.1459L33.8339 50.1412L33.8341 50.136L33.8339 50.1312L33.8341 50.1261L33.8339 50.1214L33.8341 50.1162L33.8339 50.1114L33.8341 50.1063L33.8339 50.1017L33.8341 50.0964L33.8339 50.0917C33.8338 49.2924 33.8949 48.4943 34.0165 47.7043C34.0286 47.6274 34.0679 47.5574 34.1273 47.5069C34.1866 47.4565 34.262 47.4289 34.3399 47.4293H46.8899C46.9776 47.4293 47.0617 47.4642 47.1237 47.5262L51.8738 52.2762C51.9238 52.3259 51.9561 52.3907 51.9656 52.4606V52.6881L51.9657 52.6981V53.4505C51.9744 53.4983 51.9725 53.5473 51.9601 53.5942C51.9478 53.6411 51.9252 53.6847 51.8942 53.7219C51.8631 53.7591 51.8242 53.7891 51.7803 53.8097C51.7363 53.8302 51.6884 53.8408 51.64 53.8408H39.9958C39.9661 53.8434 39.9368 53.8503 39.9091 53.8612C40.7449 56.1573 42.334 58.1026 44.4171 59.3799C46.5002 60.6571 48.9546 61.1911 51.3801 60.8946C53.8056 60.5982 56.0592 59.4889 57.7734 57.7475C59.4876 56.0062 60.5613 53.7355 60.8196 51.3056C60.847 51.0492 60.8387 50.7927 60.8477 50.536C60.6953 47.7894 59.5006 45.2046 57.5075 43.3087C55.5144 41.4128 52.873 40.3488 50.1222 40.3338H50.0464C47.9494 40.3153 45.8953 40.9277 44.1508 42.0914C44.086 42.1352 44.008 42.1553 43.9302 42.1481C43.8523 42.1408 43.7794 42.1067 43.7238 42.0517L32.558 30.8551C32.5256 30.8224 32.5006 30.7834 32.4844 30.7403C32.4682 30.6973 32.4613 30.6512 32.4642 30.6053L32.4641 30.5953V30.526L32.4642 30.5162L32.4641 30.5062V30.4369L32.4642 30.4271L32.4641 30.4172V30.3479L32.4642 30.3381L32.4641 30.3281V30.2588L32.4642 30.249L32.4641 30.239V30.1697L32.4642 30.1599L32.4641 30.1499L32.4642 30.1401L32.4641 30.1301V30.0906L32.4641 30.0805L32.4641 30.0708L32.4641 30.0608L32.4641 30.051L32.4641 30.041V29.9914L32.4641 29.9817L32.4641 29.9717L32.4641 29.9619L32.4641 29.9519V29.8826L32.4641 29.8728L32.4641 29.8628V29.7934L32.4641 29.7837L32.4641 29.7737V29.7043L32.4641 29.6946L32.4641 29.6846V29.6153C32.4645 29.5693 32.4748 29.5239 32.4943 29.4822C32.5138 29.4405 32.5421 29.4035 32.5772 29.3736C36.4892 26.0692 41.2603 23.9452 46.3337 23.2499C51.4071 22.5545 56.5736 23.3163 61.2305 25.4463C65.8873 27.5762 69.8425 30.9866 72.6343 35.2794C75.4262 39.5722 76.9397 44.5705 76.9982 49.691L76.9982 49.6985L76.9982 49.701L76.9981 49.7082L76.9982 49.711L76.9982 49.7181L76.9982 49.7208L76.9981 49.7281L76.9982 49.7308L76.9982 49.738L76.9982 49.7406L76.9981 49.7479L76.9982 49.7506L76.9982 49.7578L76.9982 49.7605L76.9982 49.7677L76.9982 49.7704L76.9982 49.7777L76.9982 49.7801L76.9982 49.7876L76.9982 49.79L76.9981 49.7975L76.9982 49.8002L76.9982 49.8072L76.9982 49.8099L76.9981 49.8172L76.9982 49.8199L76.9982 49.8271L76.9982 49.8296L76.9981 49.837L76.9982 49.8396L76.9982 49.847L76.9982 49.8496L76.9982 49.8568L76.9982 49.8595L76.9982 49.8667L76.9982 49.8694L76.9982 49.8767L76.9982 49.8791L76.9981 49.8866L76.9982 49.8891L76.9982 49.8963L76.9982 49.899L76.9981 49.9062L76.9982 49.909L76.9982 49.9162L76.9982 49.9187L76.9981 49.9261L76.9982 49.9287L76.9982 49.9361L76.9982 49.9387L76.9982 49.946L76.9982 49.9486L76.9982 49.9558L76.9982 49.9585L76.9982 49.9658L76.9982 49.9682L76.9981 49.9757L76.9982 49.9783L76.9982 49.9856L76.9982 49.9881L76.9981 49.9953L76.9982 49.9981L76.9982 50.0052L76.9982 50.0078L76.9981 50.0152L76.9982 50.0178L76.9982 50.0252L76.9982 50.0277L76.9982 50.0351L76.9982 50.0377L76.9982 50.0449L76.9982 50.0476L76.9982 50.0548L76.9982 50.0575L76.9981 50.0648L76.9982 50.0675L76.9982 50.0747L76.9982 50.0773L76.9981 50.0846L76.9982 50.0873L76.9982 50.0943L76.9982 50.097L76.9981 50.1044L76.9982 50.107L76.9982 50.1144L76.9982 50.1168L76.9982 50.1242L76.9982 50.1267L76.9982 50.1341L76.9982 50.1367L76.9982 50.1439L76.9982 50.1466L76.9982 50.1539L76.9982 50.1564L76.9982 50.1638L76.9982 50.1662L76.9981 50.1737L76.9982 50.1763L76.9982 50.1835L76.9982 50.1861L76.9981 50.1933L76.9982 50.1961L76.9982 50.2034L76.9982 50.206L76.9982 50.2134L76.9982 50.2158L76.9982 50.2232L76.9982 50.2258L76.9982 50.233L76.9982 50.2357L76.9982 50.2429L76.9982 50.2456L76.9982 50.2529L76.9982 50.2554L76.9981 50.2628L76.9982 50.2654L76.9982 50.2727L76.9982 50.2752L76.9981 50.2825L76.9982 50.2853L76.9982 50.2925L76.9982 50.2949L76.9981 50.3023L76.9982 50.3049L76.9982 50.3124L76.9982 50.3148L76.9982 50.3222L76.9982 50.3248L76.9982 50.332L76.9982 50.3347L76.9982 50.3419L76.9982 50.3445L76.9981 50.3519L76.9982 50.3545L76.9982 50.3618L76.9982 50.3644L76.9981 50.3716L76.9982 50.3744L76.9982 50.3815L76.9982 50.3841L76.9981 50.3915L76.9982 50.3941L76.9982 50.4015L76.9982 50.4039L76.9982 50.4114L76.9982 50.4139L76.9982 50.4212L76.9982 50.4238L76.9982 50.431L76.9982 50.4337L76.9981 50.441L76.9982 50.4437L76.9982 50.4509L76.9982 50.4534L76.9981 50.4608L76.9982 50.4634L76.9982 50.4706L76.9982 50.4732L76.9981 50.4806L76.9982 50.4833L76.9982 50.4906L76.9982 50.493L76.9982 50.5005L76.9982 50.5029L76.9982 50.5104L76.9982 50.5129L76.9982 50.5201L76.9982 50.5228L76.9981 50.53L76.9982 50.5328L76.9982 50.54L76.9982 50.5425L76.9981 50.5499L76.9982 50.5525L76.9982 50.5597L76.9982 50.5624L76.9981 50.5696L76.9982 50.5724L76.9982 50.5796L76.9982 50.5823L76.9982 50.5896L76.9982 50.592L76.9982 50.5995L76.9982 50.602L76.9982 50.6094L76.9982 50.6119L76.9981 50.6191L76.9982 50.6219L76.9982 50.6291L76.9982 50.6316L76.9981 50.639L76.9982 50.6416L76.9982 50.6489L76.9982 50.6515L76.9981 50.6587L76.9982 50.6615L76.9982 50.6687L76.9982 50.6714L76.9982 50.6786L76.9982 50.6811L76.9982 50.6886L76.9982 50.691C77.0392 54.2713 76.3677 57.8241 75.0226 61.1424C73.6776 64.4608 71.686 67.4785 69.1638 70.0199C66.6415 72.5613 63.639 74.5755 60.3309 75.9455C57.0228 77.3155 53.4752 78.0139 49.8947 78C46.3142 77.986 42.7722 77.26 39.4749 75.8642C36.1775 74.4685 33.1908 72.4308 30.6884 69.8699C28.186 67.3089 26.2181 64.2757 24.899 60.947C23.5799 57.6183 22.9361 54.0605 23.005 50.4806V49.4905L23.0051 49.4907Z" fill="#E18400"/>
<path fill-rule="evenodd" clip-rule="evenodd" d="M69.3948 31.2158C74.1636 36.1199 76.8813 42.6589 76.9933 49.4985V49.5058L76.9934 49.5084V49.5156L76.9935 49.5183V49.5255L76.9936 49.528V49.5352L76.9937 49.5379V49.5451L76.9938 49.5477V49.5549L76.9939 49.5576V49.5649L76.994 49.5673V49.5746L76.994 49.5772V49.5844L76.9941 49.587V49.5943L76.9941 49.5969V49.6041L76.9943 49.6068V49.614L76.9943 49.6165V49.6237L76.9944 49.6264V49.6336L76.9945 49.6361V49.6434L76.9946 49.6461V49.6533L76.9947 49.6558V49.6632L76.9947 49.6657V49.6729L76.9948 49.6755V49.6828L76.9949 49.6854V49.6926L76.995 49.6953V49.7025L76.9951 49.7049V49.7122L76.9952 49.7149V49.7221L76.9953 49.7246V49.7319L76.9954 49.7346V49.7418L76.9954 49.7443V49.7517L76.9955 49.7542V49.7614L76.9955 49.764V49.7713L76.9956 49.7739V49.7811L76.9957 49.7838V49.791L76.9958 49.7934V49.8007L76.9959 49.8034V49.8106L76.996 49.8131V49.8204L76.9961 49.8231V49.8303L76.9962 49.8328V49.8402L76.9962 49.8427V49.8499L76.9963 49.8525V49.8598L76.9963 49.8624V49.8696L76.9965 49.8723V49.8795L76.9965 49.882V49.8892L76.9966 49.8919V49.8991L76.9967 49.9016L76.9966 49.9089L76.9968 49.9116V49.9188L76.9968 49.9213V49.9287L76.9969 49.9312V49.9384L76.9969 49.941V49.9483L76.997 49.9509V49.9581L76.9971 49.9606V49.968L76.9971 49.9705L76.9971 49.9777L76.9971 49.9804V49.9876L76.9972 49.9902V49.9974L76.9973 50.0001V50.0074L76.9974 50.01V50.0172L76.9974 50.0197V50.027L76.9975 50.0295V50.0368L76.9976 50.0394V50.0466L76.9976 50.0491V50.0565L76.9977 50.059L76.9976 50.0662L76.9977 50.0689V50.0761L76.9978 50.0787L76.9977 50.0859L76.9979 50.0886V50.0958L76.9979 50.0983L76.9979 50.1055L76.9979 50.1082V50.1155L76.998 50.1181V50.1253L76.998 50.1279V50.1352L76.9981 50.1378V50.145L76.9982 50.1475L76.9981 50.1549L76.9982 50.1575V50.1646L76.9983 50.1672L76.9982 50.1745L76.9983 50.1771V50.1843L76.9984 50.1868L76.9983 50.1942L76.9984 50.1967V50.204V50.2066V50.2139V50.2164V50.2237L76.9985 50.2263V50.2335V50.236L76.9984 50.2434L76.9985 50.246V50.2531V50.2557L76.9984 50.263L76.9985 50.2657V50.2728V50.2753L76.9985 50.2827L76.9985 50.2853V50.2927L76.9986 50.2952V50.3026V50.3051V50.3124V50.315V50.3223L76.9987 50.3249L76.9986 50.3322L76.9987 50.3349V50.3421V50.3447L76.9987 50.352L76.9987 50.3547V50.3619V50.3644L76.9987 50.3718L76.9988 50.3745V50.3818V50.3843V50.3917V50.3942V50.4016V50.4041V50.4114V50.414L76.9987 50.4213L76.9988 50.424V50.4312V50.4338L76.9987 50.4411L76.9988 50.4438V50.451V50.4536L76.9987 50.461L76.9988 50.4637V50.471V50.4736V50.4809V50.4835V50.4908V50.4934C77.0477 55.6397 75.6248 60.6928 72.8976 65.0574C70.1705 69.422 66.2526 72.9162 61.6057 75.1284C56.9588 77.3405 51.7765 78.1786 46.6692 77.5436C41.562 76.9087 36.7426 74.8273 32.7788 71.5446C29.7768 69.0587 27.3519 65.949 25.6724 62.4317C23.993 58.9144 23.0993 55.0735 23.0534 51.1761L23.0531 51.1662L23.0528 51.1563L23.0525 51.1463L23.0522 51.1364L23.0519 51.1265L23.0516 51.1166L23.0513 51.1066L23.051 51.0967L23.0507 51.0869L23.0504 51.0768L23.0501 51.0668L23.0498 51.0569L23.0495 51.0471L23.0493 51.0371L23.049 51.0272L23.0486 51.0173L23.0483 51.0074L23.0481 50.9974L23.0478 50.9875L23.0475 50.9775L23.0472 50.9675L23.0469 50.9576L23.0466 50.9477L23.0463 50.9377L23.0461 50.9278L23.0458 50.9179L23.0455 50.9079L23.0452 50.898L23.0449 50.888L23.0447 50.878L23.0444 50.8681L23.0441 50.8582L23.0438 50.8483L23.0436 50.8383L23.0433 50.8284L23.043 50.8185L23.0427 50.8085L23.0425 50.7985L23.0422 50.7886L23.0419 50.7788L23.0417 50.7687L23.0414 50.7589L23.0411 50.749L23.0409 50.739L23.0406 50.7291L23.0403 50.7192L23.0401 50.709L23.0399 50.6992L23.0396 50.6893L23.0393 50.6793L23.0391 50.6694L23.0388 50.6595L23.0385 50.6496L23.0383 50.6396L23.038 50.6297L23.0378 50.6197L23.0375 50.6097L23.0373 50.5998L23.037 50.5899L23.0368 50.5799L23.0366 50.57L23.0363 50.5601L23.036 50.5501L23.0358 50.5402L23.0355 50.5302L23.0353 50.5203L23.035 50.5103L23.0348 50.5004L23.0345 50.4905L23.0343 50.4805L23.0341 50.4706L23.0339 50.4608L23.0336 50.4509L23.0334 50.4409L23.0331 50.431L23.0329 50.421L23.0327 50.4111L23.0325 50.4011L23.0322 50.3912L23.032 50.3813L23.0317 50.3713L23.0316 50.3614L23.0313 50.3515L23.0311 50.3415L23.0308 50.3315L23.0306 50.3216L23.0304 50.3116L23.0302 50.3017L23.03 50.2918L23.0297 50.2818L23.0295 50.2719L23.0293 50.262L23.0291 50.252L23.0289 50.2421L23.0286 50.2321L23.0284 50.2222L23.0282 50.2123L23.028 50.2023L23.0278 50.1924L23.0276 50.1826C22.9712 44.4727 24.7362 38.8935 28.0663 34.2549C28.0941 34.2164 28.13 34.1845 28.1714 34.1612C28.2128 34.1379 28.2588 34.124 28.3062 34.1203C28.3535 34.1166 28.4011 34.1232 28.4456 34.1397C28.4902 34.1562 28.5306 34.1823 28.564 34.216L31.9844 37.6362C32.0182 37.67 32.0432 37.7117 32.0573 37.7574C32.0714 37.8031 32.0741 37.8515 32.0651 37.8985L32.0637 37.9081L32.0624 37.9175L32.0609 37.9272L32.0596 37.9367L32.0582 37.9462L32.0568 37.9558L32.0554 37.9653L32.054 37.9749L32.0527 37.9843L32.0512 37.994L32.0499 38.0034L32.0485 38.0129L32.0471 38.0224L32.0457 38.0319L32.0444 38.0414L32.043 38.051L32.0416 38.0606L32.0403 38.07L32.0388 38.0797L32.0375 38.0891L32.0361 38.0987L32.0348 38.1082L32.0334 38.1177L32.032 38.1273L32.0306 38.1368L32.0292 38.1464L32.028 38.1558L32.0266 38.1655L32.0253 38.1749L32.0238 38.1845L32.0225 38.194L32.0211 38.2037L32.0198 38.2132L32.0184 38.2227L32.017 38.2324L32.0157 38.2418L32.0143 38.2514L32.0131 38.2608L32.0117 38.2705L32.0103 38.28L32.0089 38.2895L32.0076 38.299L32.0062 38.3085L32.0049 38.3183L32.0036 38.3277L32.0022 38.3373L32.0009 38.3467L31.9995 38.3564L31.9982 38.3659L31.9968 38.3754L31.9955 38.385L31.9941 38.3946L31.9929 38.4041L31.9915 38.4136L31.9901 38.4233L31.9889 38.4327L31.9875 38.4423L31.9862 38.452L31.9848 38.4615L31.9835 38.471L31.9822 38.4805L31.9809 38.4901L31.9795 38.4996L31.9782 38.5093L31.9769 38.5187L31.9755 38.5284L31.9742 38.5378L31.9729 38.5474L31.9716 38.5571L31.9703 38.5666L31.969 38.5761L31.9677 38.5856L31.9663 38.5954L31.965 38.6048L31.9637 38.6144L31.9624 38.6238L31.9611 38.6336L31.9598 38.6431L31.9584 38.6527L31.9572 38.6622L31.9558 38.6718L31.9545 38.6815L31.9532 38.6909L31.9519 38.7005L31.9506 38.71L31.9493 38.7197L31.9481 38.7292L31.9467 38.7388L31.9454 38.7484L31.9441 38.7579L31.9428 38.7676L31.9415 38.777L31.9402 38.7867L31.939 38.7962L31.9376 38.8059L31.9364 38.8154L31.9351 38.825L31.9338 38.8345L31.9324 38.8441L31.9312 38.8538C31.9271 38.9308 31.9032 39.0053 31.8618 39.0703C29.536 42.7074 28.3577 46.96 28.48 51.2755C28.515 51.868 28.5701 52.4597 28.654 53.0494C29.1565 57.5546 31.0683 61.7862 34.1169 65.1412C37.1654 68.4962 41.1951 70.8034 45.6318 71.7338C50.0684 72.6643 54.6856 72.1705 58.8252 70.3231C62.9648 68.4756 66.4156 65.3687 68.6859 61.445C70.9562 57.5213 71.9301 52.9811 71.4687 48.4715C71.0074 43.9619 69.1344 39.713 66.1166 36.3303C63.0989 32.9476 59.0904 30.6036 54.6625 29.6326C50.2345 28.6617 45.6131 29.1131 41.4567 30.9227C41.4044 30.946 41.7255 31.3465 41.766 31.3869L44.8814 34.4942C44.9248 34.5371 44.979 34.5674 45.0383 34.5817C45.0975 34.5961 45.1596 34.5941 45.2178 34.5757C47.6423 33.8198 50.2105 33.6442 52.7154 34.0631C55.2202 34.4819 57.5916 35.4836 59.6383 36.9872C61.685 38.4909 63.3497 40.4543 64.4982 42.7194C65.6467 44.9845 66.2469 47.4879 66.2504 50.0275L66.2502 50.0327L66.2504 50.0374L66.2502 50.0425L66.2504 50.0473L66.2502 50.0524L66.2504 50.0571L66.2502 50.0622L66.2504 50.067L66.2502 50.0721L66.2504 50.077L66.2502 50.0821L66.2504 50.0867L66.2502 50.0919L66.2504 50.0967L66.2502 50.1019L66.2504 50.1065L66.2502 50.1116L66.2504 50.1165L66.2502 50.1216L66.2504 50.1264L66.2502 50.1315L66.2503 50.1363L66.2502 50.1414L66.2503 50.1462L66.2502 50.1513L66.2503 50.1561L66.2501 50.1612L66.2503 50.1661L66.2501 50.1712L66.2502 50.1758L66.2501 50.181L66.2502 50.1859L66.2501 50.191L66.2502 50.1956L66.2501 50.2007L66.2502 50.2056L66.2501 50.2108L66.2502 50.2155L66.2501 50.2206L66.2501 50.2254L66.25 50.2305L66.2501 50.2353L66.25 50.2404L66.2501 50.2452L66.2499 50.2502L66.2501 50.2551L66.2499 50.2602L66.2501 50.2648L66.2499 50.27L66.25 50.2748L66.2498 50.28L66.2499 50.2846L66.2498 50.2897L66.2499 50.2946L66.2498 50.2997L66.2499 50.3045L66.2498 50.3096L66.2499 50.3144L66.2497 50.3195L66.2498 50.3243L66.2496 50.3294L66.2498 50.3342L66.2496 50.3393L66.2497 50.3442L66.2496 50.3493L66.2497 50.3539L66.2495 50.3591L66.2496 50.364L66.2494 50.3691L66.2496 50.3737L66.2494 50.3788L66.2495 50.3837L66.2494 50.3889L66.2494 50.3936L66.2493 50.3986L66.2494 50.4034L66.2493 50.4085L66.2494 50.4133L66.2492 50.4184L66.2493 50.4232L66.2491 50.4283L66.2493 50.4332L66.2491 50.4383L66.2492 50.4429L66.249 50.4481L66.2491 50.4529L66.249 50.4581L66.2491 50.4627L66.2489 50.4678L66.249 50.4727L66.2488 50.4778L66.249 50.4826L66.2488 50.4877L66.2489 50.4925L66.2487 50.4976L66.2488 50.5024L66.2487 50.5075L66.2487 50.5123L66.2486 50.5173L66.2487 50.5222L66.2485 50.5273L66.2486 50.5319L66.2484 50.5371L66.2485 50.5419L66.2484 50.5471L66.2485 50.5517L66.2483 50.5568L66.2484 50.5617L66.2482 50.5668L66.2483 50.5716L66.2481 50.5767L66.2482 50.5815L66.248 50.5866L66.2481 50.5914L66.2479 50.5965L66.248 50.6013L66.2479 50.6064L66.248 50.6111L66.2478 50.6162L66.2479 50.6209L66.2477 50.626L66.2478 50.6309L66.2476 50.6361L66.2477 50.6407L66.2475 50.6458L66.2476 50.6507L66.2474 50.6558L66.2475 50.6606L66.2473 50.6657L66.2474 50.6705L66.2473 50.6756L66.2473 50.6804L66.2471 50.6855L66.2473 50.6903L66.2471 50.6954L66.2471 50.7001L66.2469 50.7053L66.2471 50.7099L66.2468 50.715L66.2469 50.7199L66.2468 50.725L66.2468 50.7297L66.2466 50.7348L66.2467 50.7397L66.2465 50.7448L66.2466 50.7495L66.2465 50.7546L66.2465 50.7595L66.2463 50.7646L66.2464 50.7694L66.2462 50.7745L66.2463 50.7792L66.2461 50.7844L66.2462 50.7891L66.246 50.7941L66.2461 50.7989L66.2459 50.804L66.246 50.8089L66.2458 50.814L66.2458 50.8187L66.2457 50.8238L66.2457 50.8287L66.2455 50.8338L66.2456 50.8384L66.2454 50.8436L66.2455 50.8485L66.2453 50.8536L66.2454 50.8583L66.2452 50.8635L66.2452 50.8682L66.2451 50.8732L66.2451 50.878L66.2449 50.8831L66.245 50.8879L66.2448 50.893L66.2449 50.8979L66.2447 50.903L66.2448 50.9077L66.2445 50.9128L66.2446 50.9177L66.2444 50.9228L66.2445 50.9274L66.2443 50.9326L66.2443 50.9374L66.2441 50.9426L66.2442 50.9472L66.244 50.9523L66.2441 50.9571L66.2438 50.9622L66.244 50.967L66.2437 50.9721L66.2438 50.9769L66.2436 50.982L66.2437 50.9869L66.2435 50.992L66.2435 50.9966L66.2433 51.0018L66.2433 51.0067L66.2432 51.0118L66.2432 51.0163L66.243 51.0214L66.243 51.0263C66.1833 55.3005 64.4372 59.3781 61.385 62.3708C58.3328 65.3635 54.2218 67.0291 49.9473 67.0048C45.6727 66.9805 41.5809 65.2683 38.5629 62.241C35.545 59.2138 33.8452 55.1168 33.834 50.8422L33.8342 50.8371L33.834 50.8323L33.8342 50.8271L33.834 50.8225L33.8342 50.8173L33.834 50.8126L33.8342 50.8073L33.8341 50.8027L33.8342 50.7974L33.8341 50.7927L33.8342 50.7875L33.8341 50.7829L33.8342 50.7777L33.8341 50.773L33.8342 50.7679L33.8341 50.7632L33.8343 50.758L33.8341 50.7532L33.8343 50.7481L33.8342 50.7434L33.8343 50.7381L33.8342 50.7335L33.8343 50.7283L33.8342 50.7236L33.8344 50.7183L33.8342 50.7137L33.8344 50.7084L33.8342 50.7037L33.8344 50.6987L33.8342 50.694L33.8344 50.6888L33.8343 50.684L33.8344 50.6789L33.8343 50.6743L33.8344 50.669L33.8344 50.6642L33.8345 50.6591L33.8344 50.6544L33.8345 50.6491L33.8344 50.6445L33.8345 50.6393L33.8344 50.6346L33.8345 50.6293L33.8344 50.6247L33.8346 50.6194L33.8345 50.6148L33.8347 50.6097L33.8345 50.605L33.8347 50.5998L33.8345 50.595L33.8347 50.5899L33.8346 50.5853L33.8347 50.58L33.8347 50.5753L33.8348 50.5701L33.8347 50.5654L33.8348 50.5601L33.8347 50.5555L33.8349 50.5504L33.8348 50.5456L33.8349 50.5403L33.8348 50.5358L33.835 50.5306L33.8348 50.5258L33.835 50.5207L33.8349 50.5161L33.8351 50.5108L33.835 50.506L33.8351 50.5009L33.835 50.4963L33.8351 50.491L33.8351 50.4863L33.8352 50.4811L33.8351 50.4764L33.8353 50.4711L33.8352 50.4665L33.8353 50.4615L33.8353 50.4567L33.8354 50.4515L33.8353 50.4468L33.8354 50.4417L33.8354 50.437L33.8355 50.4317L33.8354 50.4271L33.8356 50.4218L33.8355 50.4171L33.8356 50.4119L33.8356 50.4073L33.8358 50.402L33.8356 50.3973L33.8358 50.3922L33.8357 50.3875L33.8359 50.3823L33.8358 50.3776L33.8359 50.3725L33.8358 50.3677L33.836 50.3625L33.8359 50.3579L33.8361 50.3527L33.836 50.348L33.8362 50.3427L33.8361 50.3381L33.8362 50.3328L33.8361 50.3281L33.8363 50.3229L33.8362 50.3183L33.8364 50.3132L33.8363 50.3084L33.8365 50.3033L33.8364 50.2986L33.8365 50.2934L33.8365 50.2886L33.8367 50.2835L33.8365 50.2788L33.8367 50.2735L33.8367 50.2689L33.8369 50.2637L33.8367 50.259L33.8369 50.2537L33.8369 50.2491L33.837 50.244L33.8369 50.2392L33.8371 50.2341L33.837 50.2294L33.8372 50.2242L33.8371 50.2194L33.8373 50.2143L33.8372 50.2097L33.8374 50.2044L33.8373 50.1996L33.8375 50.1945L33.8374 50.1898L33.8376 50.1845L33.8375 50.1799L33.8377 50.1749L33.8376 50.1701L33.8378 50.1649L33.8377 50.1602L33.8379 50.155L33.8378 50.1502L33.838 50.1451L33.838 50.1404L33.8381 50.1352L33.8381 50.1304L33.8383 50.1253L33.8381 50.1207L33.8384 50.1155L33.8383 50.1108L33.8385 50.1057L33.8384 50.1009L33.8386 50.0956L33.8385 50.091L33.8387 50.0859L33.8386 50.0811L33.8388 50.0759L33.8387 50.0712L33.8389 50.066L33.8389 50.0612L33.8391 50.0561L33.839 50.0515L33.8392 50.0463L33.8391 50.0416L33.8393 50.0364L33.8392 50.0318L33.8394 50.0266L33.8394 50.0218L33.8396 50.0167L33.8395 50.0119L33.8397 50.0067L33.8396 50.002L33.8398 49.9969L33.8397 49.9921L33.84 49.987L33.8399 49.9824L33.8401 49.9771L33.84 49.9724L33.8402 49.9672L33.8401 49.9626L33.8404 49.9573L33.8403 49.9526L33.8405 49.9475L33.8405 49.9428L33.8406 49.9376L33.8406 49.9328L33.8408 49.9278L33.8407 49.923L33.8409 49.9178L33.8409 49.9132L33.8411 49.908L33.841 49.9033L33.8412 49.898L33.8411 49.8934L33.8414 49.8881L33.8413 49.8834L33.8415 49.8782L33.8414 49.8736L33.8417 49.8685L33.8416 49.8637L33.8418 49.8586L33.8417 49.8539L33.842 49.8487L33.8419 49.8439C33.8502 49.1277 33.9086 48.413 34.0166 47.7049C34.0287 47.628 34.0681 47.558 34.1274 47.5075C34.1867 47.4571 34.2621 47.4295 34.34 47.4299H46.89C46.9777 47.4299 47.0618 47.4648 47.1238 47.5268L51.8739 52.2768C51.8935 52.2941 51.9094 52.3152 51.9206 52.3388C51.9318 52.3624 51.9381 52.3881 51.939 52.4142C51.94 52.4404 51.9356 52.4664 51.9262 52.4908C51.9168 52.5152 51.9026 52.5374 51.8843 52.5561V52.5634V52.571V52.5784V52.5858V52.5933V52.6007V52.6081V52.6154V52.623V52.6303V52.6378V52.6452V52.6527V52.6601V52.6674V52.675V52.6823V52.6898V52.6971V52.7047V52.7121V52.7194V52.7267V52.7343V52.7418V52.7491V52.7567V52.764V52.7714V52.7789V52.7863V52.7938V52.8011V52.8087V52.816V52.8234V52.8308V52.8383V52.8458V52.8531V52.8607V52.868V52.8754V52.8828V52.8903V52.8976V52.9051V52.9124V52.92V52.9274V52.9348V52.9423V52.9496V52.9571V52.9644V52.972V52.9793V52.9868V52.9942V53.0017V53.0091V53.0164V53.024V53.0313V53.0388V53.0461V53.0537V53.0611V53.0684V53.076V53.0833V53.0908V53.0981V53.1057V53.113V53.1204V53.1279V53.1353V53.1428V53.1501V53.1577V53.165V53.1724V53.1798V53.1873V53.1948V53.2021V53.2097V53.217V53.2244V53.2318V53.2393V53.2466V53.2541V53.2615V53.269V53.2764V53.2838V53.2913V53.2986C51.9075 53.4406 51.6661 53.5914 51.4998 53.5914H39.9965C39.9625 53.5909 39.9295 53.6025 39.9033 53.6241C39.877 53.6457 39.8594 53.6759 39.8533 53.7093C40.6593 56.031 42.2322 58.0088 44.3128 59.3168C46.3934 60.6249 48.8575 61.1852 51.2992 60.9053C53.7408 60.6255 56.0144 59.5222 57.7451 57.7773C59.4757 56.0324 60.5604 53.7501 60.8202 51.3062C60.8476 51.0496 60.846 50.7928 60.8549 50.536C60.8097 49.1158 60.4849 47.7185 59.8989 46.424C59.7594 46.1179 59.6061 45.8192 59.4391 45.5279C58.6038 44.0711 57.4407 42.829 56.042 41.8998C55.7603 41.7128 55.4706 41.5393 55.1732 41.3796C53.6953 40.5859 52.053 40.1472 50.3763 40.0978C50.37 40.0972 50.3069 40.0966 50.3006 40.096C49.986 40.0867 49.6719 40.0913 49.3585 40.1101C49.3395 40.1116 49.3017 40.1133 49.2828 40.1149C47.5373 40.2272 45.848 40.776 44.3699 41.7111C44.3081 41.7521 44.2367 41.7762 44.1628 41.7809C44.0888 41.7857 44.0149 41.771 43.9484 41.7383C43.9088 41.7619 43.59 41.5061 43.5515 41.5318C43.518 41.5542 43.2434 41.32 43.215 41.2914L32.7313 30.7788C32.6672 30.7141 32.625 30.631 32.6107 30.5411L32.6105 30.5335L32.6105 30.5259L32.6104 30.5185L32.6103 30.5111L32.6102 30.5035L32.6102 30.496L32.6101 30.4885L32.61 30.4809V30.4736L32.6099 30.4659L32.6098 30.4584L32.6097 30.451L32.6096 30.4434L32.6096 30.436L32.6094 30.4284L32.6094 30.421L32.6093 30.4133V30.4059L32.6091 30.3983L32.6091 30.3908L32.6089 30.3832L32.6088 30.3758L32.6088 30.3682L32.6086 30.3607L32.6085 30.3532L32.6084 30.3455L32.6083 30.3382L32.6082 30.3305L32.6081 30.3229L32.608 30.3155L32.6078 30.3079L32.6077 30.3004L32.6076 30.2928L32.6075 30.2853L32.6074 30.2777L32.6072 30.2702L32.6071 30.2625L32.6069 30.2549L32.6068 30.2475L32.6066 30.2399L32.6065 30.2324L32.6063 30.2248L32.6062 30.2172L32.606 30.2095L32.6059 30.202L32.6057 30.1944L32.6056 30.1868L32.6053 30.1791L32.6052 30.1716L32.605 30.164L32.6048 30.1563L32.6046 30.1487L32.6044 30.1411L32.6042 30.1335L32.6039 30.1258L32.6038 30.1182L32.6035 30.1105L32.6033 30.1028L32.603 30.0953L32.6028 30.0876L32.6025 30.0799L32.6023 30.0722L32.6021 30.0645L32.6017 30.0568L32.6016 30.0491L32.6012 30.0414L32.6009 30.0336L32.6006 30.0259L32.6003 30.0183L32.6 30.0104L32.5996 30.0028L32.5993 29.9949L32.5989 29.9871L32.5986 29.9794L32.5981 29.9715L32.5977 29.9637L32.5974 29.9559L32.5969 29.9479L32.5964 29.9401L32.5959 29.9322L32.5955 29.9243L32.595 29.9163L32.5945 29.9085L32.5939 29.9003L32.5933 29.8924L32.5927 29.8843L32.592 29.8763L32.5914 29.8682L32.5906 29.8602L32.5899 29.852L32.5891 29.8437L32.5884 29.8355L32.5875 29.8271L32.5865 29.8188L32.5856 29.8105L32.5845 29.8019L32.5834 29.7935L32.5823 29.7849L32.5811 29.7763L32.5797 29.7674C32.5809 29.7344 32.4958 29.6099 32.5092 29.5795C32.4999 29.5423 32.5014 29.5032 32.5135 29.4667C32.5257 29.4303 32.548 29.3981 32.5779 29.374C37.8057 24.958 44.5153 22.6919 51.35 23.0339C58.1847 23.3758 64.6345 26.3003 69.3954 31.216L69.3948 31.2158Z" fill="#E99C00"/>
<path fill-rule="evenodd" clip-rule="evenodd" d="M69.3949 31.2158C74.1133 36.0747 76.8251 42.5349 76.9884 49.3059L76.9885 49.3131L76.9886 49.3156L76.9887 49.3228L76.9888 49.3254L76.9889 49.3325L76.989 49.335L76.9891 49.3422L76.9892 49.3449L76.9893 49.352L76.9894 49.3546L76.9895 49.3618L76.9896 49.3644L76.9896 49.3716L76.9898 49.3742L76.9898 49.3814L76.9899 49.3839L76.99 49.3912L76.9901 49.3936L76.9902 49.4008L76.9903 49.4034L76.9904 49.4106L76.9904 49.4133L76.9906 49.4204L76.9906 49.4229L76.9907 49.4301L76.9908 49.4328L76.9909 49.4399L76.991 49.4424L76.991 49.4497L76.9912 49.4522L76.9912 49.4595L76.9913 49.462L76.9914 49.4693L76.9915 49.4717L76.9915 49.4789L76.9917 49.4815L76.9917 49.4887L76.9918 49.4913V49.4985L76.9919 49.5012L76.992 49.5082L76.992 49.5108L76.9921 49.518L76.9922 49.5207L76.9923 49.5278L76.9924 49.5302V49.5375L76.9924 49.5401L76.9926 49.5474L76.9926 49.5499L76.9927 49.5571L76.9928 49.5596L76.9928 49.5668L76.9929 49.5694L76.993 49.5766L76.9931 49.5792V49.5864L76.9932 49.5891L76.9932 49.5961L76.9933 49.5987V49.6059L76.9934 49.6086L76.9935 49.6157L76.9935 49.6181V49.6254L76.9937 49.628L76.9937 49.6353L76.9938 49.6378L76.9939 49.645L76.9939 49.6475L76.994 49.6547L76.994 49.6573L76.9941 49.6645L76.9942 49.6671V49.6743L76.9943 49.6769L76.9943 49.684L76.9944 49.6866V49.6938L76.9945 49.6965L76.9945 49.7036L76.9946 49.7061V49.7133L76.9947 49.716L76.9948 49.7232L76.9948 49.7257L76.9949 49.733L76.995 49.7354V49.7427L76.995 49.7452L76.9951 49.7524L76.9951 49.7549V49.7622L76.9952 49.7647L76.9953 49.7719L76.9953 49.7745V49.7817L76.9954 49.7844V49.7914L76.9954 49.794V49.8012L76.9955 49.8039V49.8111L76.9956 49.8137L76.9956 49.8209V49.8234V49.8306V49.8332V49.8404V49.843V49.8502L76.9957 49.8526V49.8599V49.8624V49.8697L76.9958 49.8723V49.8795L76.9959 49.8819V49.8891L76.9959 49.8918V49.8989L76.996 49.9014V49.9086L76.996 49.9113V49.9185V49.9211V49.9283V49.9309V49.9381V49.9406V49.9478V49.9504V49.9576L76.9962 49.9603V49.9674V49.9699V49.9771L76.9962 49.9798V49.9869L76.9963 49.9894V49.9966L76.9964 49.9993V50.0065V50.0091V50.0163V50.0189V50.0261V50.0286V50.0358V50.0383V50.0456L76.9964 50.0483V50.0554V50.0578V50.0651L76.9965 50.0677V50.0749V50.0773V50.0847L76.9966 50.0872V50.0945V50.0972V50.1046V50.1071V50.1144V50.117V50.1243V50.1269V50.1342L76.9967 50.1369V50.1441V50.1467V50.154L76.9967 50.1567V50.1639V50.1664V50.1738L76.9968 50.1765V50.1838V50.1863V50.1937V50.1962V50.2036V50.2061V50.2134V50.216V50.2235L76.9968 50.2261V50.2333V50.2359V50.2432L76.997 50.2459V50.2531V50.2557V50.263L76.997 50.2657V50.273V50.2756V50.2829V50.2855V50.2928V50.2954C77.036 55.4374 75.6058 60.4836 72.8747 64.8405C70.1435 69.1974 66.225 72.6838 61.58 74.8896C56.935 77.0954 51.7566 77.9288 46.6541 77.2919C41.5515 76.6551 36.7369 74.5745 32.7766 71.2946C29.8982 68.911 27.5503 65.9516 25.8837 62.6066C24.2171 59.2616 23.2687 55.6049 23.0994 51.8715L23.0988 51.8615L23.0982 51.8515L23.0976 51.8416L23.097 51.8316L23.0964 51.8216L23.0958 51.8116L23.0952 51.8016L23.0946 51.7916L23.094 51.7816L23.0934 51.7716L23.0928 51.7615L23.0922 51.7515L23.0916 51.7415L23.091 51.7315L23.0905 51.7215L23.0899 51.7115L23.0893 51.7015L23.0887 51.6915L23.0882 51.6815L23.0876 51.6715L23.087 51.6614L23.0864 51.6514L23.0859 51.6414L23.0853 51.6314L23.0847 51.6214L23.0842 51.6114L23.0836 51.6014L23.083 51.5914L23.0825 51.5814L23.0819 51.5714L23.0814 51.5613L23.0808 51.5513L23.0803 51.5413L23.0797 51.5313L23.0792 51.5213L23.0786 51.5113L23.0781 51.5013L23.0775 51.4912L23.077 51.4813L23.0765 51.4713L23.0759 51.4612L23.0754 51.4512L23.0749 51.4412L23.0744 51.4312L23.0738 51.4212L23.0733 51.4112L23.0728 51.4011L23.0723 51.3912L23.0717 51.3812L23.0712 51.3712L23.0707 51.3612L23.0702 51.3511L23.0697 51.3411L23.0692 51.3311L23.0687 51.3211L23.0681 51.3111L23.0676 51.3011L23.0672 51.2911L23.0667 51.2811L23.0662 51.2711L23.0656 51.2611L23.0651 51.251L23.0647 51.241L23.0642 51.231L23.0637 51.221L23.0632 51.211L23.0627 51.201L23.0622 51.191L23.0617 51.181L23.0612 51.171L23.0608 51.161L23.0603 51.1509L23.0598 51.1409L23.0593 51.1309L23.0589 51.1209L23.0584 51.1109L23.0579 51.1009L23.0575 51.0909L23.057 51.0809L23.0566 51.0709L23.0561 51.0609L23.0557 51.0508L23.0552 51.0408L23.0548 51.0308L23.0543 51.0208L23.0538 51.0108L23.0534 51.0008L23.0529 50.9908L23.0525 50.9808L23.0521 50.9708L23.0517 50.9608L23.0512 50.9508L23.0507 50.9407L23.0503 50.9307L23.0499 50.9207L23.0495 50.9107L23.049 50.9007L23.0486 50.8907L23.0482 50.8807L23.0477 50.8707C22.8314 44.928 24.596 39.082 28.0641 34.2515C28.0919 34.213 28.1277 34.181 28.1691 34.1578C28.2106 34.1345 28.2566 34.1206 28.3039 34.1169C28.3513 34.1132 28.3988 34.1198 28.4434 34.1363C28.4879 34.1528 28.5283 34.1788 28.5618 34.2125L31.9822 37.6328C32.0227 37.6732 32.0507 37.7244 32.0626 37.7803C32.0746 37.8363 32.0701 37.8946 32.0497 37.9481L32.0468 37.9573L32.0441 37.9663L32.0413 37.9755L32.0386 37.9847L32.0358 37.9938L32.033 38.003L32.0302 38.0122L32.0274 38.0213L32.0247 38.0303L32.0219 38.0396L32.0192 38.0487L32.0164 38.0579L32.0137 38.067L32.0109 38.0761L32.0082 38.0853L32.0054 38.0944L32.0026 38.1037L32 38.1127L31.9971 38.122L31.9945 38.131L31.9917 38.1403L31.989 38.1495L31.9862 38.1586L31.9835 38.1678L31.9807 38.1769L31.978 38.1862L31.9754 38.1953L31.9725 38.2045L31.9699 38.2136L31.9671 38.2228L31.9644 38.232L31.9617 38.2412L31.959 38.2503L31.9563 38.2595L31.9535 38.2687L31.9509 38.2778L31.9481 38.2871L31.9455 38.2962L31.9427 38.3055L31.9401 38.3146L31.9373 38.3238L31.9346 38.333L31.932 38.3422L31.9292 38.3515L31.9266 38.3605L31.9238 38.3698L31.9212 38.3789L31.9185 38.3883L31.9158 38.3974L31.9132 38.4066L31.9105 38.4157L31.9078 38.425L31.9052 38.4341L31.9025 38.4433L31.8997 38.4527L31.8972 38.4617L31.8944 38.471L31.8918 38.4803L31.8891 38.4894L31.8865 38.4986L31.8838 38.5079L31.8812 38.517L31.8785 38.5263L31.8758 38.5356L31.8732 38.5446L31.8706 38.554L31.8679 38.5631L31.8652 38.5725L31.8627 38.5816L31.86 38.5908L31.8574 38.6L31.8547 38.6092L31.8521 38.6186L31.8495 38.6276L31.8468 38.637L31.8443 38.6461L31.8416 38.6555L31.839 38.6646L31.8363 38.6739L31.8338 38.6831L31.8311 38.6923L31.8284 38.7016L31.8259 38.7108L31.8233 38.7202L31.8207 38.7292L31.8181 38.7386L31.8155 38.7477L31.8128 38.757L31.8103 38.7663L31.8076 38.7755L31.805 38.7849L31.8025 38.7939L31.7999 38.8033L31.7973 38.8124L31.7947 38.8217L31.7921 38.831L31.7896 38.8403L31.787 38.8496L31.7844 38.8587L31.7818 38.8681C31.7652 38.9429 31.7362 39.0144 31.6958 39.0795C29.353 42.861 28.2406 47.2759 28.5117 51.716C28.559 52.309 28.6279 52.8999 28.7239 53.487C29.3659 57.9502 31.3923 62.0993 34.5175 65.3497C37.6427 68.6001 41.7092 70.7877 46.1437 71.6044C50.5782 72.4211 55.1572 71.8256 59.2354 69.9019C63.3135 67.9782 66.6851 64.8232 68.8751 60.8817C71.065 56.9401 71.9629 52.4106 71.4421 47.9317C70.9213 43.4528 69.008 39.2502 65.9721 35.9163C62.9361 32.5824 58.9305 30.2853 54.5197 29.3487C50.109 28.4121 45.5155 28.8833 41.3867 30.6957C41.2821 30.7423 41.4803 31.1006 41.5613 31.1815L44.8792 34.4907C44.9225 34.5336 44.9767 34.5638 45.036 34.5782C45.0952 34.5925 45.1574 34.5904 45.2155 34.5721C47.6401 33.8162 50.2083 33.6406 52.7132 34.0595C55.218 34.4784 57.5894 35.48 59.6361 36.9836C61.6827 38.4872 63.3475 40.4508 64.496 42.7159C65.6445 44.981 66.2447 47.4842 66.2481 50.0239L66.248 50.029L66.2481 50.0338L66.248 50.0389L66.2481 50.0436L66.248 50.0488L66.2481 50.0535L66.248 50.0587L66.2481 50.0634L66.248 50.0684L66.2481 50.0733L66.248 50.0784L66.2481 50.0831L66.248 50.0882L66.2481 50.0931L66.248 50.0982L66.2481 50.1028L66.2479 50.108L66.2481 50.1129L66.2479 50.118L66.248 50.1227L66.2479 50.1279L66.248 50.1326L66.2479 50.1378L66.248 50.1425L66.2479 50.1476L66.2479 50.1524L66.2478 50.1575L66.2479 50.1624L66.2478 50.1674L66.2479 50.1721L66.2478 50.1772L66.2478 50.1821L66.2477 50.1872L66.2478 50.1918L66.2477 50.197L66.2478 50.2018L66.2476 50.207L66.2477 50.2117L66.2476 50.2169L66.2476 50.2216L66.2475 50.2268L66.2476 50.2315L66.2475 50.2366L66.2475 50.2414L66.2474 50.2465L66.2475 50.2514L66.2473 50.2564L66.2474 50.2611L66.2473 50.2662L66.2473 50.2711L66.2472 50.2762L66.2473 50.2808L66.2471 50.286L66.2472 50.2908L66.2471 50.296V50.3007L66.247 50.3059V50.3106L66.2468 50.3157L66.2468 50.3205L66.2467 50.3256V50.3303L66.2466 50.3354V50.3403L66.2465 50.3454V50.35L66.2463 50.3552V50.3601L66.2462 50.3652L66.2462 50.3698L66.246 50.3749V50.3798L66.2459 50.385V50.3897L66.2458 50.3948V50.3995L66.2456 50.4046V50.4094L66.2455 50.4145V50.4193L66.2453 50.4244V50.4293L66.2452 50.4344V50.439L66.245 50.4442V50.449L66.2449 50.4542V50.4587L66.2447 50.4638V50.4687L66.2446 50.4738V50.4786L66.2444 50.4837V50.4885L66.2442 50.4936V50.4984L66.2441 50.5035V50.5082L66.2439 50.5134V50.5183L66.2437 50.5233V50.5279L66.2436 50.533V50.5379L66.2434 50.543V50.5477L66.2432 50.5528V50.5577L66.2431 50.5628V50.5676L66.2429 50.5726V50.5773L66.2427 50.5825V50.5872L66.2425 50.5924V50.5971L66.2424 50.6022V50.607L66.2422 50.6121V50.6169L66.242 50.622V50.6268L66.2418 50.6319V50.6365L66.2417 50.6417V50.6466L66.2415 50.6517V50.6564L66.2413 50.6616V50.6663L66.241 50.6713V50.6761L66.2409 50.6812V50.686L66.2407 50.6911V50.6959L66.2405 50.701V50.7058L66.2403 50.7109V50.7156L66.2401 50.7208V50.7254L66.2399 50.7305V50.7354L66.2397 50.7405V50.7452L66.2395 50.7503V50.7552L66.2393 50.7602V50.765L66.2391 50.7701V50.7748L66.2389 50.78V50.7847L66.2387 50.7899V50.7946L66.2385 50.7996V50.8045L66.2382 50.8096V50.8143L66.2381 50.8194V50.8243L66.2378 50.8294V50.8341L66.2376 50.8391V50.8439L66.2374 50.8491V50.8538L66.2371 50.859V50.8637L66.237 50.8688V50.8735L66.2367 50.8786V50.8834L66.2365 50.8885V50.8934L66.2363 50.8985V50.9031L66.236 50.9083V50.913L66.2359 50.9182V50.9228L66.2356 50.9279V50.9328L66.2354 50.9379V50.9427L66.2351 50.9477V50.9525L66.2349 50.9576V50.9623L66.2347 50.9675L66.2346 50.9722L66.2344 50.9774V50.9821L66.2341 50.9872V50.9919L66.2339 50.997V51.0019L66.2337 51.007V51.0115L66.2334 51.0167L66.2334 51.0216C66.1088 55.2727 64.3179 59.3044 61.2471 62.2469C58.1764 65.1893 54.072 66.8065 49.8194 66.7497C45.5669 66.6929 41.5071 64.9665 38.5161 61.9431C35.5251 58.9196 33.8426 54.8415 33.8316 50.5886L33.8317 50.5834L33.8316 50.5787L33.8317 50.5734L33.8317 50.5689L33.8317 50.5638L33.8317 50.559L33.8317 50.5538L33.8317 50.5491L33.8317 50.5439L33.8317 50.5391L33.8318 50.534L33.8317 50.5294L33.8318 50.5242L33.8317 50.5195L33.8318 50.5143L33.8317 50.5097L33.8319 50.5045L33.8317 50.4997L33.8319 50.4946L33.8318 50.4898L33.8319 50.4847L33.8319 50.48L33.8319 50.4749L33.8319 50.4702L33.832 50.4649L33.8319 50.4603L33.832 50.455L33.8319 50.4503L33.832 50.4451L33.832 50.4406L33.8321 50.4354L33.832 50.4306L33.8322 50.4255L33.8321 50.4208L33.8322 50.4156L33.8322 50.4108L33.8323 50.4057L33.8322 50.4011L33.8324 50.3958L33.8323 50.3912L33.8324 50.3861L33.8324 50.3813L33.8325 50.376L33.8324 50.3714L33.8325 50.3662L33.8325 50.3615L33.8326 50.3564V50.3518L33.8327 50.3465L33.8327 50.3417L33.8328 50.3366V50.332L33.8329 50.3267V50.3221L33.8331 50.317V50.3122L33.8332 50.307V50.3023L33.8333 50.2972V50.2924L33.8335 50.2873V50.2827L33.8336 50.2774V50.2726L33.8338 50.2675V50.2629L33.8339 50.2576V50.2529L33.8341 50.2479V50.2432L33.8342 50.238V50.2332L33.8344 50.2281V50.2233L33.8345 50.2181V50.2134L33.8346 50.2084V50.2037L33.8348 50.1984V50.1938L33.835 50.1887V50.1839L33.8351 50.1787V50.1741L33.8353 50.1689V50.1641L33.8354 50.159V50.1544L33.8356 50.1491V50.1444L33.8358 50.1392V50.1346L33.836 50.1293V50.1247L33.8361 50.1196V50.1148L33.8363 50.1096V50.1049L33.8364 50.0999V50.0952L33.8366 50.0899V50.0853L33.8368 50.08V50.0753L33.8369 50.0701V50.0656L33.8371 50.0604V50.0556L33.8373 50.0505V50.0458L33.8375 50.0406V50.0358L33.8377 50.0308V50.0261L33.8378 50.0208V50.0162L33.838 50.0111V50.0063L33.8382 50.001V49.9964L33.8384 49.9913V49.9865L33.8386 49.9814V49.9768L33.8388 49.9715V49.9667L33.839 49.9617V49.9571L33.8392 49.9518V49.9471L33.8394 49.942V49.9372L33.8396 49.932V49.9274L33.8398 49.9223V49.9175L33.84 49.9123V49.9077L33.8402 49.9024V49.8976L33.8403 49.8926V49.888L33.8406 49.8828V49.878L33.8408 49.8729V49.8682L33.841 49.8631V49.8583L33.8412 49.8532V49.8485L33.8414 49.8432V49.8386L33.8416 49.8334V49.8288L33.8419 49.8236V49.8189L33.8421 49.8137V49.8089L33.8423 49.8038V49.7993L33.8425 49.794V49.7893L33.8427 49.7841V49.7795L33.843 49.7742V49.7695L33.8432 49.7645V49.7597L33.8434 49.7545V49.7498L33.8436 49.7447V49.7399L33.8439 49.7348V49.7302L33.8441 49.7249V49.7202L33.8443 49.715V49.7104L33.8446 49.7053V49.7005L33.8448 49.6954V49.6907L33.845 49.6855V49.6807L33.8453 49.6757V49.671L33.8455 49.6657V49.6611L33.8458 49.656V49.6512L33.846 49.6461V49.6414L33.8463 49.6362L33.8463 49.6314L33.8466 49.6263V49.6216L33.8468 49.6165V49.6118L33.8471 49.6066L33.8471 49.602L33.8474 49.5967V49.592C33.8634 48.9588 33.9192 48.3274 34.0143 47.7012C34.0264 47.6243 34.0657 47.5543 34.1251 47.5039C34.1844 47.4534 34.2598 47.4258 34.3377 47.4262H46.89C46.9777 47.4262 47.0618 47.4611 47.1239 47.5231L51.8739 52.2731C51.9027 52.2986 51.9244 52.331 51.9369 52.3674C51.9494 52.4037 51.9522 52.4428 51.945 52.4805C51.9379 52.5183 51.921 52.5535 51.8961 52.5828C51.8712 52.6121 51.8391 52.6344 51.8029 52.6475V52.6524V52.6574V52.6624V52.6674V52.6724V52.6773V52.6822V52.6872V52.6922V52.697V52.702V52.707V52.712V52.717V52.7219V52.7269V52.7318V52.7368V52.7416V52.7466V52.7517V52.7565V52.7614V52.7664V52.7714V52.7763V52.7813V52.7862V52.7912V52.7961V52.8011V52.8061V52.811V52.816V52.8209V52.8259V52.8308V52.8358V52.8408V52.8456V52.8507V52.8555V52.8605V52.8654V52.8704V52.8753V52.8803V52.8852V52.8902V52.8952V52.9001V52.9051V52.91V52.915V52.9199V52.9249V52.9298V52.9348V52.9398V52.9446V52.9497V52.9545V52.9595V52.9644V52.9694V52.9743V52.9793V52.9843V52.9893V52.9943V52.9992V53.0042V53.0091V53.0141V53.0189V53.0239V53.0289V53.0338V53.0388V53.0436V53.0487V53.0535V53.0585V53.0634V53.0684V53.0734V53.0784V53.0834V53.0883V53.0933V53.0982V53.1032V53.1081V53.1131V53.118V53.123V53.128V53.1329V53.1379V53.1428C51.8184 53.2374 51.4705 53.3378 51.3596 53.3378H39.9972C39.9695 53.3372 39.9419 53.3425 39.9163 53.3533C39.8908 53.3642 39.8678 53.3803 39.849 53.4007C39.8301 53.4211 39.8158 53.4452 39.8069 53.4715C39.798 53.4978 39.7948 53.5257 39.7976 53.5533C40.5735 55.9003 42.13 57.9107 44.2079 59.2497C46.2858 60.5887 48.7597 61.1755 51.2176 60.9124C53.6755 60.6493 55.9691 59.5522 57.7164 57.8037C59.4638 56.0552 60.5595 53.7608 60.8211 51.3027C60.8485 51.0459 60.8534 50.789 60.8623 50.5319C60.8487 49.1118 60.5552 47.7083 59.9986 46.4017C59.8666 46.0932 59.7204 45.7914 59.5602 45.4962C58.7595 44.0209 57.6261 42.7523 56.25 41.7911C55.9733 41.5979 55.6882 41.418 55.3945 41.2513C53.9361 40.4234 52.3051 39.9464 50.6305 39.8579C50.618 39.8566 50.5675 39.8554 50.5549 39.8542C50.2414 39.8383 49.9278 39.8363 49.614 39.8481C49.6014 39.8491 49.5509 39.8501 49.5383 39.8513C47.7911 39.9208 46.0892 40.4282 44.5891 41.3268C44.4647 41.4032 44.3184 41.4363 44.1732 41.421C44.0939 41.468 43.8293 41.3304 43.7523 41.3818C43.6853 41.4265 43.4424 41.2654 43.3855 41.2083L32.9047 30.6984C32.841 30.6339 32.7908 30.5572 32.7573 30.4728L32.7572 30.4676L32.757 30.4626L32.7569 30.4575L32.7567 30.4523L32.7566 30.4473L32.7564 30.4422L32.7562 30.4371L32.7561 30.432L32.756 30.4269L32.7558 30.4217L32.7556 30.4166L32.7554 30.4114L32.7553 30.4064L32.7551 30.4013L32.7549 30.3962L32.7548 30.3911L32.7545 30.3858L32.7544 30.3808L32.7542 30.3756L32.754 30.3704L32.7538 30.3653L32.7536 30.3602L32.7534 30.3549L32.7532 30.3498L32.7529 30.3447L32.7528 30.3394L32.7525 30.3343L32.7523 30.3292L32.752 30.3239L32.7518 30.3188L32.7516 30.3135L32.7514 30.3084L32.7511 30.3032L32.7508 30.298L32.7506 30.2927L32.7503 30.2875L32.75 30.2823L32.7498 30.277L32.7495 30.2718L32.7492 30.2665L32.7489 30.2614L32.7486 30.2562L32.7482 30.2509L32.7479 30.2456L32.7476 30.2403L32.7473 30.2349L32.747 30.2298L32.7466 30.2244L32.7462 30.2191L32.7459 30.2138L32.7455 30.2084L32.7451 30.2032L32.7447 30.1977L32.7443 30.1924L32.7439 30.187L32.7435 30.1817L32.743 30.1762L32.7425 30.1708L32.7421 30.1655L32.7416 30.16L32.7411 30.1546L32.7406 30.1491L32.7401 30.1436L32.7395 30.1381L32.739 30.1326L32.7384 30.127L32.7377 30.1215L32.7371 30.116L32.7365 30.1104L32.7359 30.1048L32.7352 30.0992L32.7345 30.0936L32.7338 30.0878L32.733 30.0822L32.7323 30.0764L32.7315 30.0706L32.7306 30.0649L32.7298 30.059L32.7288 30.0532L32.7279 30.0473L32.7269 30.0413L32.7259 30.0353L32.7249 30.0294L32.7237 30.0233L32.7225 30.0172L32.7213 30.0111L32.72 30.0048L32.7187 29.9985L32.7173 29.9921L32.7158 29.9858L32.7142 29.9791L32.7127 29.9726L32.7109 29.9659L32.7091 29.9591L32.7071 29.9522L32.7052 29.9453L32.703 29.9381L32.7006 29.9309L32.6982 29.9234L32.6955 29.9157C32.6963 29.8937 32.5176 29.6884 32.5265 29.6682C32.4979 29.6206 32.4874 29.5643 32.497 29.5096C32.5066 29.4549 32.5356 29.4056 32.5787 29.3706C37.8065 24.9546 44.5161 22.6885 51.3508 23.0305C58.1855 23.3724 64.6354 26.2969 69.3963 31.2126L69.3949 31.2158Z" fill="#F0B400"/>
<path fill-rule="evenodd" clip-rule="evenodd" d="M69.3949 31.2159C74.0595 36.0321 76.7646 42.4119 76.9835 49.1131L76.9837 49.1203L76.9838 49.1229L76.984 49.1299L76.984 49.1326L76.9842 49.1396L76.9843 49.1422L76.9845 49.1492L76.9846 49.1519L76.9848 49.1589L76.9849 49.1614L76.9851 49.1686L76.9852 49.1712L76.9854 49.1784L76.9854 49.181L76.9856 49.1881L76.9857 49.1906L76.9859 49.1978L76.986 49.2003L76.9862 49.2075L76.9862 49.2099L76.9864 49.2171L76.9865 49.2198L76.9867 49.2268L76.9868 49.2293L76.9869 49.2364L76.987 49.2391L76.9872 49.246L76.9873 49.2486L76.9874 49.2558L76.9875 49.2584L76.9877 49.2656L76.9878 49.268L76.9879 49.2752L76.988 49.2778L76.9882 49.2849L76.9882 49.2874L76.9884 49.2946L76.9885 49.2971L76.9887 49.3043L76.9887 49.307L76.9889 49.3139L76.989 49.3165L76.9891 49.3237L76.9892 49.3262L76.9893 49.3333L76.9895 49.3359L76.9896 49.343L76.9896 49.3456L76.9898 49.3528L76.9899 49.3553L76.9901 49.3625L76.9901 49.3649L76.9903 49.3721L76.9903 49.3747L76.9905 49.3819L76.9906 49.3843L76.9907 49.3915L76.9907 49.3941L76.9909 49.4012L76.991 49.4038L76.9911 49.411L76.9912 49.4135L76.9914 49.4206L76.9914 49.423L76.9915 49.4302L76.9916 49.4328L76.9917 49.44L76.9918 49.4426L76.992 49.4498L76.992 49.4522L76.9921 49.4594L76.9922 49.462L76.9923 49.4691L76.9924 49.4716L76.9925 49.4788L76.9926 49.4814L76.9927 49.4885L76.9928 49.491L76.9929 49.4981L76.993 49.5008L76.9931 49.5078L76.9931 49.5103L76.9932 49.5175L76.9933 49.5201L76.9934 49.5273L76.9935 49.5299L76.9936 49.5369L76.9937 49.5395L76.9938 49.5467L76.9939 49.5491L76.994 49.5563L76.994 49.5589L76.9942 49.5661L76.9942 49.5685L76.9943 49.5758L76.9943 49.5783L76.9945 49.5854L76.9945 49.5881L76.9946 49.5952L76.9947 49.5976L76.9948 49.6048L76.9948 49.6075L76.995 49.6146L76.995 49.6171L76.9951 49.6243V49.6268L76.9952 49.634V49.6365L76.9953 49.6437L76.9954 49.6462L76.9954 49.6534L76.9955 49.656L76.9956 49.663V49.6656L76.9957 49.6728L76.9957 49.6754L76.9958 49.6824V49.685L76.9959 49.6922L76.996 49.6948L76.9961 49.7018V49.7044L76.9961 49.7116L76.9962 49.7142L76.9962 49.7214V49.7239L76.9964 49.731V49.7336L76.9964 49.7408V49.7432L76.9965 49.7504V49.753L76.9965 49.7602L76.9966 49.7628L76.9967 49.7698V49.7724V49.7795L76.9967 49.7822L76.9968 49.7893V49.7918V49.7989L76.9968 49.8016L76.9969 49.8088V49.8112L76.997 49.8184V49.821L76.997 49.8282V49.8306L76.9971 49.8378V49.8404V49.8476L76.9972 49.8502V49.8572V49.8598V49.867L76.9972 49.8696V49.8767V49.8792V49.8863L76.9973 49.889V49.8963V49.8989V49.9062V49.9088V49.9161V49.9186V49.9261V49.9287V49.936V49.9387V49.9459V49.9484V49.9558V49.9584V49.9656V49.9682V49.9755V49.9782V49.9855V49.9881V49.9954V49.998V50.0054V50.008V50.0153V50.0179V50.0252V50.0279V50.0351V50.0377V50.045V50.0477V50.0549V50.0574V50.0648V50.0674V50.0748V50.0773V50.0847V50.0872V50.0947V50.0972C77.0648 57.0812 74.4205 63.819 69.6208 68.8928C64.8211 73.9665 58.2403 76.9805 51.2634 77.3005C44.2864 77.6205 37.4574 75.2215 32.2135 70.6083C26.9695 65.9952 23.7195 59.5277 23.1475 52.5668L23.1466 52.5568L23.1457 52.5468L23.1448 52.5368L23.1439 52.5268L23.143 52.5168L23.1421 52.5068L23.1412 52.4968L23.1403 52.4868L23.1394 52.4769L23.1385 52.4669L23.1377 52.4567L23.1367 52.4467L23.1359 52.4367L23.135 52.4267L23.1341 52.4167L23.1333 52.4067L23.1323 52.3967L23.1315 52.3867L23.1306 52.3767L23.1298 52.3665L23.1289 52.3566L23.1281 52.3466L23.1272 52.3366L23.1264 52.3266L23.1255 52.3166L23.1247 52.3066L23.1238 52.2966L23.123 52.2866L23.1222 52.2764L23.1213 52.2664L23.1205 52.2564L23.1196 52.2464L23.1189 52.2364L23.118 52.2264L23.1172 52.2165L23.1164 52.2065L23.1156 52.1965L23.1148 52.1863L23.1139 52.1763L23.1131 52.1663L23.1123 52.1563L23.1115 52.1463L23.1107 52.1363L23.1099 52.1263L23.1091 52.1163L23.1084 52.1063L23.1076 52.0961L23.1068 52.0861L23.106 52.0762L23.1052 52.0662L23.1045 52.0562L23.1037 52.0462L23.1029 52.0362L23.1021 52.0262L23.1014 52.0162L23.1006 52.006L23.0999 51.996L23.0991 51.986L23.0984 51.976L23.0976 51.966L23.0969 51.956L23.0961 51.9461L23.0954 51.9361L23.0947 51.9261L23.094 51.916L23.0932 51.906L23.0925 51.8959L23.0918 51.8859L23.091 51.8759L23.0903 51.8659L23.0896 51.8559L23.0889 51.8459L23.0882 51.8359L23.0875 51.8259L23.0868 51.816L23.086 51.8059L23.0853 51.7958L23.0847 51.7858L23.0839 51.7758L23.0833 51.7658L23.0826 51.7558L23.0819 51.7458L23.0812 51.7358L23.0805 51.7258L23.0799 51.7156L23.0792 51.7056L23.0785 51.6956L23.0778 51.6856L23.0772 51.6756L23.0765 51.6657L23.0758 51.6557L23.0752 51.6457L23.0745 51.6357L23.0739 51.6256L23.0733 51.6155L23.0726 51.6055L23.0719 51.5955L23.0713 51.5855L23.0707 51.5755L23.07 51.5655C22.6934 45.3925 24.4573 39.2785 28.064 34.2547C28.0919 34.2162 28.1277 34.1842 28.1691 34.161C28.2106 34.1377 28.2565 34.1238 28.3039 34.1201C28.3512 34.1164 28.3988 34.1229 28.4433 34.1395C28.4878 34.156 28.5283 34.1821 28.5617 34.2158L31.9822 37.6361C32.0296 37.6835 32.0604 37.7448 32.0702 37.8111C32.08 37.8774 32.0681 37.9452 32.0364 38.0042L32.0322 38.0131L32.0281 38.0218L32.0239 38.0306L32.0197 38.0394L32.0155 38.0482L32.0114 38.057L32.0072 38.0656L32.0031 38.0745L31.999 38.0832L31.9948 38.0921L31.9907 38.1008L31.9865 38.1096L31.9824 38.1184L31.9783 38.1271L31.9741 38.1359L31.9701 38.1447L31.9658 38.1536L31.9618 38.1623L31.9577 38.1712L31.9536 38.1799L31.9495 38.1888L31.9454 38.1976L31.9412 38.2064L31.9372 38.2152L31.9331 38.2239L31.9289 38.2329L31.9249 38.2415L31.9208 38.2504L31.9168 38.2592L31.9126 38.2681L31.9086 38.2769L31.9045 38.2857L31.9005 38.2945L31.8964 38.3033L31.8922 38.3122L31.8883 38.321L31.8841 38.3299L31.8801 38.3386L31.876 38.3475L31.872 38.3564L31.8679 38.3652L31.864 38.374L31.8599 38.3829L31.8558 38.3918L31.8518 38.4005L31.8477 38.4095L31.8437 38.4182L31.8396 38.4271L31.8357 38.436L31.8316 38.4448L31.8277 38.4537L31.8236 38.4625L31.8197 38.4713L31.8156 38.4802L31.8116 38.4891L31.8076 38.4979L31.8036 38.5069L31.7996 38.5157L31.7956 38.5246L31.7916 38.5334L31.7876 38.5423L31.7836 38.5511L31.7796 38.56L31.7756 38.569L31.7717 38.5777L31.7677 38.5867L31.7638 38.5955L31.7598 38.6046L31.7559 38.6133L31.7519 38.6223L31.7479 38.6312L31.7439 38.64L31.7399 38.649L31.736 38.6578L31.7321 38.6668L31.7282 38.6755L31.7242 38.6845L31.7203 38.6934L31.7163 38.7023L31.7124 38.7111L31.7085 38.72L31.7045 38.7291L31.7006 38.7379L31.6967 38.7469L31.6928 38.7557L31.6888 38.7646L31.685 38.7735L31.681 38.7824L31.6771 38.7913L31.6732 38.8002L31.6693 38.8093L31.6655 38.8181L31.6615 38.8271L31.6577 38.8359L31.6538 38.8448L31.6499 38.8537L31.646 38.8626L31.6422 38.8716L31.6383 38.8806L31.6344 38.8895C31.6059 38.9609 31.5716 39.0301 31.5319 39.096C29.1719 43.0234 28.1257 47.6011 28.5455 52.1638C28.6052 52.7573 28.6887 53.3465 28.7959 53.9316C29.5716 58.3537 31.7078 62.4236 34.9066 65.5739C38.1054 68.7242 42.2074 70.798 46.6409 71.5061C51.0743 72.2141 55.6182 71.5212 59.6392 69.524C63.6601 67.5267 66.9577 64.3247 69.0722 60.3642C71.1867 56.4037 72.0128 51.882 71.4353 47.4296C70.8577 42.9773 68.9055 38.8162 65.8505 35.5262C62.7955 32.2362 58.7901 29.9813 54.3927 29.076C49.9952 28.1707 45.425 28.66 41.3189 30.4758C41.1619 30.5457 41.2371 30.8616 41.3587 30.983L44.8789 34.4941C44.9223 34.537 44.9765 34.5672 45.0358 34.5816C45.0951 34.596 45.1571 34.594 45.2153 34.5756C47.6398 33.8197 50.2081 33.6441 52.7129 34.0629C55.2178 34.4818 57.5891 35.4835 59.6358 36.9871C61.6825 38.4907 63.3472 40.4542 64.4957 42.7193C65.6443 44.9844 66.2445 47.4877 66.2479 50.0273V50.0324V50.0372V50.0423V50.0471V50.0522V50.057V50.0621V50.0668V50.072V50.0768V50.082V50.0866V50.0917V50.0965V50.1016V50.1063L66.2479 50.1114V50.1163L66.2478 50.1214V50.1262L66.2478 50.1313V50.1361L66.2477 50.1412V50.1459L66.2476 50.1511V50.1558L66.2475 50.161V50.1657L66.2475 50.1708V50.1755L66.2474 50.1806V50.1855L66.2473 50.1906V50.1953L66.2472 50.2004V50.2053L66.2472 50.2104V50.2152L66.2471 50.2203V50.2249L66.247 50.23V50.2348L66.2469 50.2399V50.2447L66.2468 50.2498V50.2547L66.2467 50.2598V50.2645L66.2466 50.2696V50.2745L66.2465 50.2795V50.2841L66.2464 50.2893V50.2941L66.2463 50.2993V50.304L66.2462 50.3091V50.3139L66.2461 50.319V50.3237L66.246 50.3288V50.3336L66.2459 50.3387V50.3436L66.2457 50.3487V50.3533L66.2456 50.3585V50.3633L66.2455 50.3685V50.373L66.2454 50.3781V50.383L66.2453 50.3881V50.3929L66.2451 50.398V50.4028L66.245 50.4079V50.4127L66.2448 50.4177V50.4224L66.2447 50.4276V50.4324L66.2446 50.4376V50.4422L66.2445 50.4473V50.4522L66.2443 50.4572V50.4619L66.2442 50.467V50.4719L66.244 50.477V50.4818L66.2439 50.4869V50.4916L66.2437 50.4966V50.5014L66.2435 50.5065L66.2435 50.5113L66.2434 50.5164L66.2433 50.5213L66.2431 50.5264L66.2431 50.5311L66.2429 50.5361L66.2428 50.541L66.2427 50.5461L66.2426 50.5507L66.2425 50.5559L66.2424 50.5607L66.2422 50.5659L66.2421 50.5705L66.242 50.5756L66.2419 50.5804L66.2417 50.5855L66.2417 50.5903L66.2415 50.5954L66.2414 50.6002L66.2412 50.6052L66.2412 50.6099L66.241 50.6151L66.2409 50.6198L66.2407 50.6249L66.2406 50.6298L66.2404 50.6348L66.2404 50.6395L66.2402 50.6446L66.2401 50.6495L66.2399 50.6546L66.2398 50.6594L66.2396 50.6645L66.2395 50.6691L66.2393 50.6743L66.2393 50.679L66.2391 50.6841L66.239 50.6889L66.2388 50.694L66.2387 50.6987L66.2385 50.7038L66.2384 50.7086L66.2382 50.7137L66.2381 50.7186L66.2379 50.7237L66.2378 50.7282L66.2376 50.7333L66.2374 50.7382L66.2373 50.7434L66.2371 50.748L66.237 50.753L66.2368 50.7579L66.2366 50.763L66.2365 50.7678L66.2363 50.7729L66.2362 50.7777L66.236 50.7827L66.2359 50.7874L66.2356 50.7925L66.2355 50.7973L66.2353 50.8024L66.2351 50.8072L66.2349 50.8123L66.2348 50.817L66.2346 50.8221L66.2345 50.827L66.2342 50.8321L66.2341 50.8366L66.2338 50.8417L66.2337 50.8466L66.2335 50.8518L66.2334 50.8565L66.2331 50.8615L66.233 50.8663L66.2327 50.8714L66.2326 50.8762L66.2324 50.8813L66.2323 50.8859L66.232 50.8911L66.2318 50.8959L66.2316 50.9011L66.2315 50.9057L66.2312 50.9107L66.2311 50.9156L66.2309 50.9207L66.2307 50.9254L66.2304 50.9304L66.2303 50.9352L66.2301 50.9404L66.2299 50.9451L66.2296 50.9503L66.2295 50.9549L66.2292 50.96L66.2291 50.9648L66.2288 50.9699L66.2287 50.9747L66.2284 50.9797L66.2282 50.9846L66.2279 50.9897L66.2278 50.9943L66.2275 50.9993L66.2274 51.0042L66.2271 51.0093L66.2269 51.014L66.2266 51.0191L66.2265 51.0239C66.0374 55.2512 64.2024 59.237 61.1135 62.1292C58.0247 65.0215 53.927 66.5908 49.6963 66.5018C45.4657 66.4127 41.4377 64.6724 38.4732 61.6528C35.5088 58.6331 33.843 54.5737 33.8321 50.3421V50.337V50.3322V50.327V50.3223V50.3173V50.3126L33.8321 50.3073V50.3027L33.8322 50.2974V50.2928L33.8322 50.2877V50.283L33.8323 50.2778V50.273L33.8324 50.2679V50.2634L33.8324 50.2581V50.2534L33.8325 50.2482V50.2435L33.8326 50.2382V50.2337L33.8327 50.2286V50.2238L33.8327 50.2186V50.2139L33.8328 50.2088V50.204L33.8329 50.1989V50.1943L33.833 50.189V50.1844L33.8331 50.1793V50.1746L33.8331 50.1694V50.1646L33.8333 50.1595V50.1549L33.8333 50.1496V50.145L33.8335 50.1398V50.1351L33.8335 50.1299V50.1253L33.8336 50.1201V50.1153L33.8338 50.1102V50.1055L33.8339 50.1004V50.0956L33.8339 50.0905V50.0859L33.8341 50.0806V50.076L33.8342 50.0709V50.0661L33.8343 50.0609V50.0562L33.8344 50.0512V50.0465L33.8346 50.0412V50.0366L33.8347 50.0313V50.0267L33.8348 50.0216V50.0169L33.8349 50.0117V50.0069L33.835 50.0019V49.9973L33.8352 49.992V49.9872L33.8353 49.9821V49.9775L33.8355 49.9722V49.9676L33.8356 49.9625V49.9577L33.8357 49.9526V49.9479L33.8359 49.9428V49.9381L33.836 49.9328V49.9282L33.8362 49.923V49.9183L33.8363 49.9132V49.9085L33.8365 49.9033V49.8986L33.8367 49.8935V49.8887L33.8369 49.8835L33.8369 49.879L33.8371 49.8738L33.8371 49.8691L33.8373 49.8638L33.8374 49.8592L33.8375 49.8542L33.8376 49.8494L33.8377 49.8442L33.8378 49.8395L33.838 49.8343L33.838 49.8297L33.8382 49.8245L33.8383 49.8199L33.8385 49.8146L33.8385 49.8099L33.8387 49.8049L33.8388 49.8002L33.8389 49.795L33.8391 49.7902L33.8393 49.7851L33.8393 49.7805L33.8395 49.7752L33.8396 49.7706L33.8397 49.7654L33.8399 49.7608L33.84 49.7556L33.8401 49.7509L33.8403 49.7457L33.8404 49.7409L33.8406 49.7359L33.8407 49.7313L33.8409 49.726L33.841 49.7213L33.8411 49.7163L33.8413 49.7116L33.8414 49.7064L33.8416 49.7016L33.8418 49.6965L33.8419 49.6918L33.8421 49.6866L33.8422 49.682L33.8424 49.6768L33.8425 49.6721L33.8427 49.6669L33.8428 49.6623L33.843 49.657L33.8431 49.6523L33.8433 49.6473L33.8435 49.6426L33.8436 49.6374L33.8438 49.6326L33.844 49.6276L33.8441 49.623L33.8443 49.6177L33.8444 49.613L33.8447 49.6079L33.8448 49.6032L33.8451 49.598L33.8451 49.5933L33.8454 49.5882L33.8455 49.5836L33.8457 49.5783L33.8458 49.5737L33.8461 49.5684L33.8462 49.5637L33.8465 49.5587L33.8466 49.554L33.8468 49.5488L33.8469 49.544L33.8472 49.539L33.8473 49.5344L33.8476 49.5291L33.8477 49.5244L33.848 49.5194L33.8481 49.5146L33.8483 49.5093L33.8485 49.5047L33.8487 49.4997L33.8489 49.4949L33.8491 49.4897L33.8493 49.4851L33.8495 49.4799L33.8497 49.4752L33.8499 49.47L33.8501 49.4654L33.8504 49.4603L33.8505 49.4555L33.8508 49.4504L33.8509 49.4457L33.8512 49.4406L33.8513 49.4359L33.8516 49.4307L33.8518 49.426L33.8521 49.4208L33.8522 49.4162L33.8524 49.4111L33.8526 49.4063L33.8529 49.4012L33.853 49.3966L33.8534 49.3913L33.8535 49.3865L33.8538 49.3815L33.854 49.3769L33.8543 49.3716L33.8545 49.3669L33.8547 49.3619L33.8549 49.3572L33.8552 49.352L33.8554 49.3472C33.8785 48.7972 33.9315 48.2489 34.0144 47.7047C34.0265 47.6277 34.0658 47.5577 34.1251 47.5073C34.1845 47.4568 34.2599 47.4294 34.3378 47.4298H46.89C46.9777 47.4298 47.0618 47.4645 47.1238 47.5266L51.8739 52.2767C51.9116 52.3121 51.9385 52.3575 51.9513 52.4077C51.9642 52.4578 51.9625 52.5105 51.9466 52.5598C51.9306 52.609 51.9009 52.6526 51.861 52.6856C51.8212 52.7186 51.7728 52.7396 51.7215 52.7462V52.7486V52.751V52.7536V52.756V52.7585V52.7609V52.7635V52.7659V52.7684V52.7708V52.7734V52.7758V52.7783V52.7808V52.7833V52.7857V52.7882V52.7907V52.7932V52.7956V52.7982V52.8006V52.803V52.8055V52.8081V52.8105V52.8129V52.8154V52.8179V52.8204V52.8228V52.8254V52.8278V52.8303V52.8327V52.8353V52.8377V52.8402V52.8427V52.8452V52.8476V52.85V52.8526V52.855V52.8575V52.8599V52.8625V52.8649V52.8674V52.8699V52.8724V52.8748V52.8773V52.8798V52.8823V52.8847V52.8872V52.8897V52.8922V52.8946V52.8972V52.8996V52.902V52.9045V52.907V52.9095V52.9119V52.9145V52.9169V52.9194V52.9218V52.9244V52.9268V52.9293V52.9317V52.9343V52.9367V52.9392V52.9417V52.9442V52.9466V52.949V52.9516V52.954V52.9565V52.9591V52.9615V52.9639V52.9664V52.9689V52.9714V52.9738V52.9763V52.9788V52.9813V52.9837V52.9863V52.9887V52.9912V52.9936C51.7292 53.0409 51.2749 53.0913 51.2195 53.0913H39.9978C39.9589 53.0906 39.9204 53.0987 39.8851 53.1151C39.8498 53.1314 39.8186 53.1555 39.794 53.1856C39.7693 53.2157 39.7519 53.251 39.7428 53.2889C39.7338 53.3267 39.7334 53.3662 39.7418 53.4042C40.4873 55.7763 42.0271 57.8192 44.1021 59.1892C46.1771 60.5591 48.6606 61.1726 51.1348 60.9263C53.6091 60.6801 55.923 59.5891 57.6873 57.837C59.4515 56.0849 60.5584 53.7786 60.8217 51.3061C60.8491 51.0491 60.8607 50.7918 60.8696 50.5346C60.8875 49.1145 60.6253 47.7048 60.0982 46.3861C59.9736 46.0752 59.8346 45.7703 59.6812 45.4711C58.9149 43.9773 57.8113 42.6824 56.4578 41.6892C56.1863 41.49 55.9056 41.3036 55.6157 41.1298C54.1768 40.2679 52.5571 39.7525 50.8847 39.6246C50.8658 39.6227 50.8281 39.6208 50.8092 39.6191C50.4969 39.5966 50.1836 39.5878 49.8695 39.5927C49.8632 39.5932 49.8001 39.5939 49.7938 39.5944C48.0447 39.6214 46.3304 40.0872 44.8082 40.9493C44.6795 41.0215 44.5415 41.0758 44.398 41.1104C44.279 41.181 44.0684 41.1613 43.9529 41.2383C43.8523 41.3054 43.6414 41.2175 43.556 41.1319L33.078 30.6248C33.0134 30.5593 32.9551 30.4877 32.9039 30.4112L32.9036 30.4085L32.9035 30.4058L32.9032 30.4031L32.903 30.4005L32.9028 30.3978L32.9025 30.3951L32.9023 30.3924L32.9021 30.3896L32.9019 30.3869L32.9016 30.3842L32.9013 30.3814L32.9011 30.3787L32.9008 30.376L32.9006 30.3732L32.9003 30.3706L32.9 30.3677L32.8997 30.3649L32.8995 30.3622L32.8992 30.3594L32.8989 30.3568L32.8986 30.3539L32.8983 30.3511L32.898 30.3485L32.8977 30.3456L32.8974 30.3428L32.8971 30.34L32.8967 30.3372L32.8964 30.3344L32.896 30.3315L32.8956 30.3287L32.8953 30.3259L32.8949 30.3231L32.8946 30.3201L32.8942 30.3173L32.8938 30.3144L32.8934 30.3116L32.893 30.3087L32.8925 30.3059L32.8921 30.3029L32.8917 30.3L32.8913 30.2971L32.8908 30.2941L32.8903 30.2912L32.8899 30.2882L32.8894 30.2853L32.8889 30.2823L32.8884 30.2794L32.8878 30.2763L32.8873 30.2734L32.8867 30.2703L32.8862 30.2674L32.8856 30.2643L32.885 30.2612L32.8844 30.2582L32.8837 30.2551L32.8831 30.252L32.8824 30.2487L32.8817 30.2457L32.8811 30.2425L32.8803 30.2393L32.8796 30.236L32.8788 30.2327L32.8781 30.2296L32.8772 30.2263L32.8764 30.223L32.8755 30.2195L32.8746 30.2163L32.8737 30.2128L32.8728 30.2094L32.8718 30.206L32.8707 30.2025L32.8697 30.1989L32.8686 30.1954L32.8675 30.1918L32.8663 30.1881L32.8651 30.1844L32.8638 30.1806L32.8625 30.1768L32.8612 30.173L32.8598 30.1691L32.8583 30.1651L32.8567 30.1611L32.8552 30.157L32.8535 30.1529L32.8517 30.1486L32.8499 30.1444L32.848 30.14L32.846 30.1354L32.8439 30.1309L32.8416 30.1262L32.8393 30.1213L32.8369 30.1165L32.8342 30.1113L32.8315 30.1061L32.8286 30.1008L32.8255 30.0952L32.8223 30.0894L32.8188 30.0834L32.8151 30.0773L32.8111 30.0707C32.8114 30.0597 32.5391 29.7736 32.5436 29.7635C32.5203 29.7356 32.5028 29.7033 32.492 29.6686C32.4812 29.6339 32.4773 29.5974 32.4806 29.5612C32.4839 29.525 32.4943 29.4899 32.5112 29.4577C32.5282 29.4255 32.5513 29.3971 32.5792 29.3738C37.807 24.9579 44.5166 22.6918 51.3513 23.0338C58.186 23.3757 64.6359 26.3003 69.3968 31.216L69.3949 31.2159Z" fill="#F8CC00"/>
<path fill-rule="evenodd" clip-rule="evenodd" d="M28.0662 34.2548C28.094 34.2163 28.1298 34.1843 28.1713 34.161C28.2127 34.1377 28.2587 34.1238 28.306 34.1201C28.3534 34.1164 28.401 34.123 28.4455 34.1395C28.49 34.156 28.5304 34.182 28.5639 34.2157L31.9843 37.636C32.0386 37.6907 32.0724 37.7625 32.0799 37.8392C32.0874 37.916 32.0681 37.993 32.0253 38.0571C29.149 42.3953 27.9342 47.6257 28.6043 52.7875C29.2744 57.9493 31.7842 62.696 35.6729 66.156C39.5616 69.616 44.568 71.557 49.7728 71.6223C54.9775 71.6876 60.0311 69.873 64.0054 66.5117C67.9797 63.1504 70.6079 58.4682 71.4073 53.3248C72.2068 48.1815 71.1237 42.9223 68.3572 38.5133C65.5906 34.1043 61.3262 30.8414 56.3472 29.3238C51.3682 27.8063 46.0089 28.136 41.2535 30.2524C41.2052 30.2741 41.163 30.3073 41.1304 30.349C41.0979 30.3907 41.076 30.4396 41.0666 30.4917C41.0573 30.5438 41.0608 30.5974 41.0768 30.6478C41.0928 30.6982 41.1209 30.744 41.1586 30.7811L44.8813 34.4941C44.9246 34.5371 44.9788 34.5673 45.0381 34.5817C45.0974 34.596 45.1595 34.5939 45.2176 34.5756C48.4757 33.5597 51.9713 33.5982 55.2062 34.6855C58.4412 35.7729 61.2503 37.8536 63.2334 40.6311C65.2164 43.4086 66.2722 46.7412 66.2501 50.1539C66.2281 53.5666 65.1294 56.8853 63.1107 59.637C61.0919 62.3886 58.2561 64.4328 55.0074 65.4783C51.7587 66.5237 48.2629 66.5171 45.0182 65.4592C41.7735 64.4014 38.9454 62.3464 36.9372 59.587C34.9289 56.8277 33.8429 53.5048 33.8339 50.092C33.8338 49.2928 33.8949 48.4947 34.0165 47.7047C34.0286 47.6278 34.0679 47.5578 34.1273 47.5073C34.1866 47.4569 34.262 47.4293 34.3399 47.4297H46.8899C46.9777 47.4297 47.0617 47.4646 47.1238 47.5266L51.8739 52.2767C51.9201 52.323 51.9517 52.3819 51.9644 52.446C51.9772 52.5102 51.9706 52.5767 51.9456 52.6371C51.9205 52.6975 51.8781 52.7492 51.8237 52.7855C51.7693 52.8219 51.7054 52.8412 51.64 52.8412H39.9958C39.9457 52.8406 39.8961 52.8518 39.851 52.8738C39.8059 52.8958 39.7667 52.928 39.7363 52.9679C39.706 53.0078 39.6853 53.0542 39.6761 53.1035C39.6669 53.1528 39.6694 53.2035 39.6833 53.2517C40.2562 55.1728 41.3512 56.897 42.8465 58.2323C44.3418 59.5676 46.1784 60.4614 48.1519 60.8141C50.1253 61.1668 52.1579 60.9646 54.0231 60.23C55.8884 59.4954 57.5129 58.2573 58.7158 56.6536C59.9187 55.0499 60.6526 53.1436 60.8357 51.1473C61.0188 49.151 60.644 47.1431 59.7529 45.3473C58.8619 43.5515 57.4897 42.0385 55.7892 40.9768C54.0888 39.9151 52.1269 39.3464 50.1222 39.3342H50.0464C47.9495 39.3157 45.8954 39.928 44.1509 41.0918C44.0861 41.1356 44.0081 41.1557 43.9302 41.1484C43.8524 41.1412 43.7794 41.1072 43.7238 41.0522L32.5581 29.8555C32.526 29.8235 32.5009 29.7852 32.4844 29.743C32.4678 29.7009 32.4602 29.6556 32.462 29.6103C32.4638 29.5651 32.475 29.5207 32.4948 29.48C32.5146 29.4392 32.5427 29.4031 32.5773 29.3738C37.8273 24.9395 44.5707 22.6741 51.4331 23.0394C58.2955 23.4047 64.7603 26.3732 69.5099 31.3398C74.2595 36.3065 76.9363 42.8974 76.9949 49.7693C77.0534 56.6411 74.4892 63.2767 69.8249 68.3235C65.1606 73.3703 58.7473 76.4484 51.8921 76.9305C45.037 77.4127 38.256 75.2626 32.9311 70.9183C27.6063 66.5741 24.1386 60.3628 23.2346 53.5504C22.3307 46.738 24.0586 39.8373 28.0662 34.2548V34.2548Z" fill="#FFE400"/>
<defs>
<radialGradient id="paint0_radial" cx="0" cy="0" r="1" gradientUnits="userSpaceOnUse" gradientTransform="translate(50.456 5.39595) rotate(180) scale(94.4433)">
<stop stop-color="#FDFB45"/>
<stop offset="0.41557" stop-color="#BB6000"/>
<stop offset="0.73404" stop-color="#FDFB45"/>
<stop offset="0.99968" stop-color="#BB6000"/>
</radialGradient>
<radialGradient id="paint1_radial" cx="0" cy="0" r="1" gradientUnits="userSpaceOnUse" gradientTransform="translate(50.4332 7.62597) rotate(180) scale(89.7211)">
<stop stop-color="#FDFB45"/>
<stop offset="1" stop-color="#FF9600"/>
</radialGradient>
<radialGradient id="paint2_radial" cx="0" cy="0" r="1" gradientUnits="userSpaceOnUse" gradientTransform="translate(50.3192 18.777) rotate(180) scale(66.1103)">
<stop stop-color="#E18400"/>
<stop offset="0.17705" stop-color="#E18601"/>
<stop offset="0.24083" stop-color="#E38D05"/>
<stop offset="0.28629" stop-color="#E6980C"/>
<stop offset="0.32306" stop-color="#EAA916"/>
<stop offset="0.35452" stop-color="#EFBF22"/>
<stop offset="0.38188" stop-color="#F5DA32"/>
<stop offset="0.40654" stop-color="#FDF944"/>
<stop offset="0.40767" stop-color="#FDFB45"/>
<stop offset="0.49512" stop-color="#FDF943"/>
<stop offset="0.53105" stop-color="#FDF23D"/>
<stop offset="0.55752" stop-color="#FEE633"/>
<stop offset="0.57936" stop-color="#FED425"/>
<stop offset="0.59812" stop-color="#FEBE12"/>
<stop offset="0.61159" stop-color="#FFA800"/>
<stop offset="0.93384" stop-color="#FFE300"/>
<stop offset="1" stop-color="#FFA800"/>
</radialGradient>
<radialGradient id="paint3_radial" cx="0" cy="0" r="1" gradientUnits="userSpaceOnUse" gradientTransform="translate(50.301 20.5611) rotate(180) scale(62.3326)">
<stop stop-color="#FFE300"/>
<stop offset="1" stop-color="#FFA800"/>
</radialGradient>
<radialGradient id="paint4_radial" cx="0" cy="0" r="1" gradientUnits="userSpaceOnUse" gradientTransform="translate(50.301 20.5611) rotate(180) scale(62.3326)">
<stop stop-color="#FFE300"/>
<stop offset="1" stop-color="#FFA800"/>
</radialGradient>
<radialGradient id="paint5_radial" cx="0" cy="0" r="1" gradientUnits="userSpaceOnUse" gradientTransform="translate(50.301 20.5611) rotate(180) scale(62.3326)">
<stop stop-color="#FFE300"/>
<stop offset="0.09577" stop-color="#FFD900"/>
<stop offset="0.47359" stop-color="#FFB900"/>
<stop offset="0.78853" stop-color="#FFA400"/>
<stop offset="1" stop-color="#FF9D00"/>
</radialGradient>
</defs>
</svg>
