<svg xmlns="http://www.w3.org/2000/svg" xmlns:xlink="http://www.w3.org/1999/xlink" data-name="Layer 1" viewBox="0 0 128 128" id="discount-coupon"><defs><linearGradient id="c" x1="46.322" x2="81.677" y1="46.322" y2="81.677" gradientUnits="userSpaceOnUse"><stop offset="0" stop-color="#fd908d"></stop><stop offset=".063" stop-color="#fb8785"></stop><stop offset=".302" stop-color="#f46a6a"></stop><stop offset=".54" stop-color="#f05656"></stop><stop offset=".774" stop-color="#ed494b"></stop><stop offset="1" stop-color="#ec4547"></stop></linearGradient><linearGradient id="a" x1="80.66" x2="94.981" y1="33.018" y2="47.34" gradientUnits="userSpaceOnUse"><stop offset="0" stop-color="#fff"></stop><stop offset="1" stop-color="#d7d7d7"></stop></linearGradient><linearGradient id="d" x1="72.978" x2="82.261" y1="33.632" y2="42.914" xlink:href="#a"></linearGradient><linearGradient id="e" x1="93.38" x2="102.663" y1="37.444" y2="46.727" xlink:href="#a"></linearGradient><linearGradient id="f" x1="36.528" x2="43.598" y1="71.75" y2="78.821" gradientUnits="userSpaceOnUse"><stop offset="0" stop-color="#fcea73"></stop><stop offset=".249" stop-color="#fce670"></stop><stop offset=".508" stop-color="#fcd967"></stop><stop offset=".769" stop-color="#fbc558"></stop><stop offset="1" stop-color="#fbac46"></stop></linearGradient><linearGradient id="b" x1="51.389" x2="54.217" y1="81.013" y2="83.842" gradientUnits="userSpaceOnUse"><stop offset="0" stop-color="#fcea73"></stop><stop offset=".369" stop-color="#fccd5e"></stop><stop offset=".76" stop-color="#fbb54c"></stop><stop offset="1" stop-color="#fbac46"></stop></linearGradient><linearGradient id="g" x1="53.392" x2="56.22" y1="90.088" y2="92.916" xlink:href="#b"></linearGradient><linearGradient id="h" x1="69.387" x2="69.387" y1="43.615" y2="48.843" xlink:href="#a"></linearGradient><linearGradient id="i" x1="81.533" x2="81.533" y1="55.896" y2="60.855" xlink:href="#a"></linearGradient><linearGradient id="j" x1="75.528" x2="75.528" y1="49.756" y2="54.984" xlink:href="#a"></linearGradient><linearGradient id="k" x1="63.765" x2="63.765" y1="37.741" y2="43.461" xlink:href="#a"></linearGradient><linearGradient id="l" x1="87.392" x2="87.392" y1="61.381" y2="67.101" xlink:href="#a"></linearGradient></defs><path fill="url(#c)" d="M44.908 116.376a4.966 4.966 0 0 1-3.536-1.464L13.088 86.627a5 5 0 0 1 0-7.071L51.449 41.2a1 1 0 0 1 1.142-.2 8.655 8.655 0 0 0 11.57-11.568 1 1 0 0 1 .193-1.143l15.2-15.2a5 5 0 0 1 7.071 0l28.284 28.284a5 5 0 0 1 0 7.071l-15.2 15.2a1.006 1.006 0 0 1-1.143.193 8.719 8.719 0 0 0-3.782-.869A8.652 8.652 0 0 0 87 75.408a1 1 0 0 1-.193 1.143l-38.36 38.361a4.967 4.967 0 0 1-3.539 1.464Z"></path><path fill="url(#a)" d="M87.588 30.41a2 2 0 1 0-3.895.912l4.36 18.626a2 2 0 1 0 3.895-.912Z"></path><path fill="url(#d)" d="M77.277 32.372a4.685 4.685 0 0 0-5.562 5.612 7.551 7.551 0 0 0 2.178 4.049 7.227 7.227 0 0 0 4.981 2.224 4.707 4.707 0 0 0 3.407-1.362c2.089-2.108 1.678-5.79-.936-8.38a7.548 7.548 0 0 0-4.068-2.143Zm2.164 7.706c-.362.367-1.636.2-2.731-.886a3.587 3.587 0 0 1-1.048-1.864 1.032 1.032 0 0 1 .137-.859.8.8 0 0 1 .562-.169 1.9 1.9 0 0 1 .3.024 3.582 3.582 0 0 1 1.873 1.031c1.091 1.084 1.266 2.357.906 2.723Z"></path><path fill="url(#e)" d="M101.748 38.326a7.548 7.548 0 0 0-4.068-2.142 4.685 4.685 0 0 0-5.562 5.616 7.549 7.549 0 0 0 2.182 4.045 7.226 7.226 0 0 0 4.981 2.223 4.707 4.707 0 0 0 3.407-1.362c2.085-2.106 1.674-5.789-.94-8.38Zm-1.9 5.564c-.362.367-1.636.2-2.731-.886a3.588 3.588 0 0 1-1.048-1.865.746.746 0 0 1 .995-1 3.592 3.592 0 0 1 1.874 1.031c1.089 1.082 1.267 2.355.905 2.72Z"></path><path fill="url(#f)" d="M33.235 88.771a.993.993 0 0 1-.707-.292l-5.657-5.657a1 1 0 0 1 0-1.414l19.313-19.314a1 1 0 0 1 1.414 0l5.657 5.657a1 1 0 0 1 0 1.414L33.942 88.478a.993.993 0 0 1-.707.293Z"></path><path fill="url(#b)" d="M66.672 68.558a2 2 0 0 0-2.828 0L38.933 93.469a2 2 0 1 0 2.828 2.831l24.911-24.914a2 2 0 0 0 0-2.828Z"></path><path fill="url(#g)" d="m62.312 81.168-17.84 17.84a2 2 0 1 0 2.828 2.828L65.14 84a2 2 0 0 0-2.828-2.828Z"></path><path fill="url(#h)" d="M67.359 44.2a2 2 0 0 0 0 2.828l1.228 1.228a2 2 0 1 0 2.828-2.828L70.187 44.2a2 2 0 0 0-2.828 0Z"></path><path fill="url(#i)" d="m79.64 59.311.958.958a2 2 0 0 0 2.828-2.828l-.958-.958a2 2 0 0 0-2.828 2.828Z"></path><path fill="url(#j)" d="M73.5 50.342a2 2 0 0 0 0 2.828l1.227 1.23a2 2 0 0 0 2.828-2.828l-1.228-1.228a2 2 0 0 0-2.827-.002Z"></path><path fill="url(#k)" d="m60.913 40.583 2.287 2.292a2 2 0 0 0 2.829-2.828l-2.306-2.306a8.569 8.569 0 0 1-1.229 1.6 8.677 8.677 0 0 1-1.581 1.242Z"></path><path fill="url(#l)" d="m90.246 64.259-2.293-2.292a2 2 0 0 0-2.828 2.833l2.306 2.3a8.567 8.567 0 0 1 1.229-1.6 8.683 8.683 0 0 1 1.586-1.241Z"></path></svg>