<svg xmlns="http://www.w3.org/2000/svg" width="64" height="64" id="discount"><g transform="translate(-1968 -1760.362)"><circle cx="2000" cy="1792.362" r="32" fill="#e6e6dc"></circle><path fill="#d0cfbf" d="m1974.482 1811.62.018.02a32 32 0 0 0 1.547 1.85V1813.52l.112.112a32 32 0 0 0 .057.058 32 32 0 0 0 1.25 1.297 32 32 0 0 0 1.289 1.262 32 32 0 0 0 .01.01 32 32 0 0 0 .02.018 32 32 0 0 0 .086.078 32 32 0 0 0 .103.091l.098.098a32 32 0 0 0 .315.293 32 32 0 0 0 .016.012l-.205-.205a32 32 0 0 0 .36.318l.054-.016a32 32 0 0 0 .719.577 32 32 0 0 0 .275.22l.084.084a32 32 0 0 0 1.244.946 32 32 0 0 0 2.727 1.672 32 32 0 0 0 2.88 1.392 32 32 0 0 0 3.005 1.096 32 32 0 0 0 3.1.79 32 32 0 0 0 3.161.48 32 32 0 0 0 3.193.159 32 32 0 0 0 2.264-.08 32 32 0 0 0 3.176-.385 32 32 0 0 0 3.12-.701 32 32 0 0 0 3.036-1.008 32 32 0 0 0 1.33-.596 32 32 0 0 0 2.555-1.263 32 32 0 0 0 1.177-.678 32 32 0 0 0 .342-.201v.006a32 32 0 0 0 .29-.166 32 32 0 0 0 2.6-1.861 32 32 0 0 0 2.405-2.112 32 32 0 0 0 2.18-2.34 32 32 0 0 0 1.935-2.547 32 32 0 0 0 1.672-2.726 32 32 0 0 0 1.393-2.88 32 32 0 0 0 1.095-3.005 32 32 0 0 0 .791-3.1 32 32 0 0 0 .479-3.162 32 32 0 0 0 .16-3.195 32 32 0 0 0-.08-2.264 32 32 0 0 0-.154-1.275l-2.766-2.766v-.006l-10.877 2.916-1.597-1.595a1.704 1.704 0 0 0-.342-.278l-9.094-9.093a7.7 7.7 0 0 0-7.22-2.116 7.805 7.805 0 0 0-1.727-.197v.006c-4.27 0-7.707 3.417-7.707 7.662v3.486h-7.721a1.744 1.744 0 0 0-.67.135 1.715 1.715 0 0 0-1.01 1.235v.002a1.693 1.693 0 0 0-.035.343V1804.302l-4.953 1.328v5.566l-1.567.42a32 32 0 0 0 0 .004z"></path><path fill="#ff9300" d="m2029 1798.33-15.322 4.108v-12.274l15.322-4.107-4.556 8.659z"></path><path fill="#ff7c00" d="m2013.214 1801.437 9.39 4.108v-12.274l-9.39-4.108z"></path><path fill="#ff9300" d="m1984.322 1808.981-9.842 2.639a32 32 0 0 0 9.842 8.62v-11.259z"></path><path fill="#ff7c00" d="M1976.047 1805.634v7.886a32 32 0 0 0 9.388 7.3v-11.079l-9.388-4.107z"></path><path fill="#1a1a1a" style="text-indent:0;text-align:start;line-height:normal;text-transform:none;block-progression:tb;marker:none;-inkscape-font-specification:Sans" d="M1998.156 1774.938c-4.67 0-8.469 3.756-8.469 8.406v9.5a.75.75 0 1 0 1.5 0v-9.5c0-3.84 3.1-6.906 6.97-6.906 3.869 0 6.937 3.065 6.937 6.906v9.5a.75.75 0 1 0 1.5 0v-9.5c0-4.65-3.768-8.406-8.438-8.406z" color="#000" font-family="Sans" font-weight="400" overflow="visible"></path><path fill="#e42c34" d="M1987.857 1786.843c-.95 0-1.715.766-1.715 1.716v32.602a32 32 0 0 0 13.858 3.201 32 32 0 0 0 17-4.906v-30.896c0-.95-.765-1.717-1.715-1.717h-27.428z"></path><path fill="#e42c34" d="M1986.238 1786.843c-1.002 0-1.809.766-1.809 1.716v31.745a32 32 0 0 0 15.57 4.058 32 32 0 0 0 17-4.906v-30.896c0-.95-.805-1.717-1.808-1.717h-28.953z"></path><path fill="#e6e6e6" d="M1995.572 1792.846a1.715 1.715 0 1 1-3.43.001 1.715 1.715 0 0 1 3.43 0zm15.428 0a1.715 1.715 0 1 1-3.43.001 1.715 1.715 0 0 1 3.43 0z"></path><path fill="#1a1a1a" style="text-indent:0;text-align:start;line-height:normal;text-transform:none;block-progression:tb;marker:none;-inkscape-font-specification:Sans" d="M2001.563 1774.938c-4.67 0-8.438 3.787-8.438 8.437v9.469a.75.75 0 1 0 1.5 0v-9.469a6.908 6.908 0 0 1 6.938-6.938c3.87 0 6.968 3.098 6.968 6.938v9.469a.75.75 0 1 0 1.5 0v-9.469c0-4.65-3.798-8.438-8.469-8.438z" color="#000" font-family="Sans" font-weight="400" overflow="visible"></path><path fill="#bb2c34" d="M1982.715 1786.843c-.95 0-1.715.766-1.715 1.716v29.504a32 32 0 0 0 5.142 3.098v-32.602c0-.95.765-1.716 1.715-1.716h-5.142z"></path><path fill="#9a2c34" d="M1982.714 1786.843a1.71 1.71 0 0 0-1.714 1.716v.017a2.571 2.115 0 0 0 1.286 1.819 2.571 2.115 0 0 0 2.571 0 2.571 2.115 0 0 0 1.286-1.82 2.571 2.115 0 0 0 0-.016c0-.95.764-1.716 1.714-1.716h-5.143z"></path><path fill="#333" fill-opacity=".423" d="m2017 1796.62-35.992 9.627v11.824a32 32 0 0 0 .236.178l35.756-9.625v-12.004z"></path><path fill="#ffb400" d="m2022.593 1793.153-46.546 12.479v7.888a32 32 0 0 0 3.507 3.446l43.04-11.537v-12.276z"></path><path fill="#fff" style="line-height:125%;-inkscape-font-specification:Bebas Neue Bold" d="m1988.325 1811.94 1.608-.43c.507-.137.887-.378 1.138-.717.251-.34.377-.77.377-1.289v-3.271c0-.52-.126-.882-.377-1.087-.251-.205-.63-.24-1.138-.106l-1.608.43zm1.59-5.97c.162-.045.289-.035.38.038.09.073.135.223.136.45v3.365c0 .228-.047.403-.137.524a.653.653 0 0 1-.38.243l-.573.153v-4.62zm2.181 4.96 1.016-.273v-6.47l-1.016.273zm1.62-5.352c.025.593.197 1.019.516 1.277.318.258.637.487.956.688.319.2.49.51.515.931 0 .229-.05.404-.142.526a.671.671 0 0 1-.385.244c-.163.044-.291.034-.384-.038-.093-.072-.14-.222-.142-.45v-.462l-.96.258v.397c0 .52.128.887.382 1.099.255.212.632.253 1.132.122.5-.134.877-.38 1.132-.729.254-.348.382-.783.383-1.304-.024-.593-.196-1.018-.515-1.277a9.886 9.886 0 0 0-.956-.688c-.319-.2-.49-.51-.515-.931 0-.23.045-.405.133-.528a.636.636 0 0 1 .375-.246c.163-.044.288-.03.375.045.088.076.132.228.133.457v.268l.96-.258v-.203c0-.52-.126-.887-.377-1.1-.251-.213-.624-.255-1.119-.126-.495.133-.868.378-1.119.725-.25.348-.377.782-.377 1.303zm5.562 1.014v.924c0 .228-.049.404-.142.526a.672.672 0 0 1-.384.244c-.164.044-.292.034-.385-.038-.093-.072-.14-.222-.142-.45v-3.493c0-.229.05-.406.142-.53a.67.67 0 0 1 .385-.249c.163-.044.291-.032.384.043.093.074.14.226.142.454v.693l.96-.257v-.629c0-.52-.128-.886-.382-1.099-.255-.211-.632-.252-1.132-.121-.5.134-.877.38-1.132.728-.254.349-.382.784-.383 1.304v3.364c0 .52.129.887.383 1.099.255.212.632.253 1.132.122.5-.134.877-.38 1.132-.729.254-.348.382-.783.383-1.304v-.86zm2.52-3.245c0-.228.048-.406.141-.53a.67.67 0 0 1 .385-.249c.163-.043.291-.031.384.044.093.073.14.225.142.453v3.494c0 .229-.049.406-.142.53a.67.67 0 0 1-.384.249c-.164.044-.292.032-.385-.042-.093-.074-.14-.226-.142-.455zm-1.017 3.701c0 .52.135.885.397 1.095.263.21.645.25 1.146.118.5-.134.882-.381 1.145-.732.263-.35.396-.787.398-1.308v-3.364c0-.52-.135-.885-.398-1.095-.263-.21-.644-.249-1.145-.118-.5.134-.883.382-1.145.732-.263.351-.396.787-.398 1.308zm3.7-5.908v4.926c0 .52.128.887.383 1.099.255.212.632.252 1.132.121.5-.134.876-.38 1.131-.728.255-.349.383-.784.383-1.304v-4.926l-.96.257v4.99c0 .23-.05.405-.142.526a.671.671 0 0 1-.385.244c-.163.044-.291.034-.384-.038-.093-.072-.14-.221-.142-.449v-4.99zm5.897 4.888 1.044-.28v-6.469l-.905.243v3.872l-1.044-3.592-1.275.342v6.469l.915-.246v-4.685zm1.485-5.943 1.062-.285v5.545l1.016-.272v-5.545l1.063-.285v-.924l-3.141.842z" font-family="Bebas Neue Bold" font-size="9.24" font-weight="700" letter-spacing="0" word-spacing="0"></path><path fill="#333" d="m1979.848 1817.188-.239-.238-.055.015a32 32 0 0 0 .293.223z"></path></g></svg>