<svg xmlns="http://www.w3.org/2000/svg" viewBox="0 0 512 512" id="nft-token"><linearGradient id="a" x1="256.197" x2="256.197" y1="492.534" y2="17.296" gradientUnits="userSpaceOnUse"><stop offset="0" stop-color="#28f4f9"></stop><stop offset="1" stop-color="#23a3f9"></stop></linearGradient><path fill="url(#a)" d="M232.492 486.182 67.763 391.078a47.41 47.41 0 0 1-23.705-41.059V159.811a47.41 47.41 0 0 1 23.705-41.059l164.729-95.105a47.41 47.41 0 0 1 47.41 0l164.729 95.104a47.411 47.411 0 0 1 23.706 41.059v190.208a47.41 47.41 0 0 1-23.705 41.059l-164.729 95.105a47.412 47.412 0 0 1-47.411 0z"></path><path fill="#fff" d="M115.174 336.332V173.498l141.023-81.421 141.023 81.421v162.834l-141.023 81.421z"></path><linearGradient id="b" x1="256" x2="256" y1="501.289" y2="10.711" gradientUnits="userSpaceOnUse"><stop offset="0" stop-color="#0e4da3"></stop><stop offset=".838" stop-color="#c341ae"></stop></linearGradient><path fill="url(#b)" d="M475.837 254.007v3.986a7.665 7.665 0 0 1-15.33 0v-3.986a7.665 7.665 0 0 1 15.33 0zM63.758 398.772l164.707 95.114a54.79 54.79 0 0 0 27.539 7.403 54.763 54.763 0 0 0 27.513-7.392l164.703-95.114c17.037-9.761 27.618-28.022 27.618-47.66v-58.102a7.665 7.665 0 0 0-15.33 0v58.102c0 14.155-7.628 27.322-19.93 34.37L275.834 480.63c-12.231 7.111-27.431 7.115-39.684-.011L71.401 385.481c-12.28-7.036-19.908-20.203-19.908-34.358V160.876c0-14.155 7.628-27.322 19.93-34.37L236.167 31.37c12.231-7.111 27.43-7.115 39.684.011l164.748 95.137c12.28 7.036 19.908 20.203 19.908 34.358v58.102a7.665 7.665 0 0 0 15.33 0v-58.102c0-19.638-10.581-37.899-27.595-47.649L283.535 18.113c-16.988-9.87-38.086-9.866-55.052-.011L63.781 113.216c-17.037 9.761-27.618 28.022-27.618 47.66v190.247c0 19.638 10.581 37.899 27.595 47.649zm337.097-230.83a7.665 7.665 0 0 1 3.833 6.64v162.835c0 2.74-1.46 5.27-3.833 6.64l-141.023 81.419c-1.186.685-2.508 1.026-3.833 1.026s-2.646-.341-3.833-1.026l-141.022-81.419a7.665 7.665 0 0 1-3.833-6.64V174.582c0-2.74 1.46-5.27 3.833-6.64l141.022-81.419a7.661 7.661 0 0 1 7.665 0l141.024 81.419zm-11.498 11.064L256 102.014l-133.357 76.992v153.987L256 409.985l133.357-76.992V179.006zm-180.92 31.469a7.665 7.665 0 0 0-7.665 7.665v50.014l-35.485-54.214a7.686 7.686 0 0 0-8.605-3.148 7.666 7.666 0 0 0-5.476 7.347v75.719a7.665 7.665 0 0 0 15.33 0v-50.014l35.485 54.214c4.155 6.33 14.08 3.436 14.08-4.199V218.14a7.664 7.664 0 0 0-7.664-7.665zm90.866 15.33h19.245v68.054a7.665 7.665 0 0 0 15.33 0v-68.054h19.249a7.665 7.665 0 0 0 0-15.33h-53.824a7.665 7.665 0 0 0 0 15.33zm-68.125-7.665v75.719a7.665 7.665 0 0 0 15.33 0v-30.193h30.241a7.665 7.665 0 0 0 0-15.33h-30.241v-22.531h30.241a7.665 7.665 0 0 0 0-15.33h-37.906a7.665 7.665 0 0 0-7.665 7.665z"></path></svg>