  <svg version="1.1"  xmlns="http://www.w3.org/2000/svg" xmlns:xlink="http://www.w3.org/1999/xlink" x="0px" y="0px"
       viewBox="0 0 268 268" enable-background="new 0 0 268 268" xml:space="preserve">
<rect x="-11.349" y="-5.845" fill-rule="evenodd" clip-rule="evenodd" />
    <g>
	<g>
		<defs>
			<polygon id="SVGID_39_" points="182.066,233.331 83.369,233.331 35.367,46.669 225.965,46.669 			"/>
		</defs>
    <clipPath id="SVGID_2_">
			<use xlink:href="#SVGID_39_"  overflow="visible"/>
		</clipPath>
    <path clip-path="url(#SVGID_2_)" fill="#FFFFFF" d="M228.593,469.928l-24.295-59.137v-38.044L180.981,359v-37.083l20.959-21.336
			l0.599-6.834l-2.397-0.921l-4.316-5.591l4.235-6.235v-7.354h-5.034l-7.514-17.743h1.6v-6.87h-1.6l-9.909-40.121h-23.977
			l0.641-27.333h1.119l2.716,7.513c0,0,2.898-2.512,3.677-3.518c0.702-0.904,2.237-3.995,2.237-3.995v-63.934l-15.823-39.962v78.8
			l-5.274-6.713V65.535l-8.472-15.346v45.397l-3.782,3.836l-3.782-3.836V50.189l-8.472,15.346v84.235l-5.273,6.713v-78.8
			l-15.824,39.962v63.934c0,0,1.536,3.091,2.238,3.995c0.778,1.006,3.677,3.518,3.677,3.518l2.717-7.513h1.119l0.64,27.333H83.729
			l-9.909,40.121h-1.599v6.87h1.599l-7.513,17.743h-5.035V281l4.234,6.235l-4.314,5.591l-2.397,0.921l0.599,6.834l20.958,21.336V359
			l-23.315,13.747v38.044L32.74,469.928L2.051,505.85h128.615h128.617L228.593,469.928z M133.998,112.63l3.635-4.8v32.412
			l-3.635-4.797V112.63z M123.7,107.83l3.634,4.8v22.815l-3.634,4.797V107.83z M127.391,404.139l-4.476,4.314v-13.49l4.476-4.315
			V404.139z M127.391,381.656l-4.476,4.318v-8.654l4.476-4.314V381.656z M127.391,365.992l-4.476,4.317v-8.652l4.476-4.313V365.992z
			 M127.391,350.488l-4.476,4.318v-8.654l4.476-4.313V350.488z M138.418,408.453l-4.477-4.314v-13.491l4.477,4.315V408.453z
			 M138.418,385.975l-4.477-4.318v-8.65l4.477,4.314V385.975z M138.418,370.31l-4.477-4.317v-8.648l4.477,4.313V370.31z
			 M138.418,354.807l-4.477-4.318v-8.649l4.477,4.313V354.807z"/>
	</g>
      <path fill="#FFFFFF" d="M134,21.335C71.776,21.335,21.335,71.776,21.335,134S71.776,246.665,134,246.665
		S246.665,196.224,246.665,134S196.224,21.335,134,21.335z M134,232.537c-54.42,0-98.536-44.116-98.536-98.537
		S79.58,35.464,134,35.464S232.536,79.579,232.536,134S188.42,232.537,134,232.537z"/>
</g>
</svg>



