  <svg version="1.1"  xmlns="http://www.w3.org/2000/svg" xmlns:xlink="http://www.w3.org/1999/xlink" x="0px" y="0px"
       viewBox="0 0 652 652" style="enable-background:new 0 0 652 652;" xml:space="preserve">
<style type="text/css">
	.st0{fill:#0667D0;}
  .st1{fill:#AAB4C0;}
  .st2{fill:#2E3742;}
</style>
    <path id="Shape" class="st0" d="M57.1,340.4c1.1,2.5,2.6,4.8,4.4,6.8c-3.9,2.1-7.9,3.1-12.4,3.1c-13.2,0-22.7-8.8-22.7-22.9
	c0-14.2,10-23,22.7-23c4.5,0,8.1,1,11.7,2.9c-1.7,2.1-3.1,4.5-4.1,7.1c-2.2-0.9-4.4-1.3-6.7-1.3c-7.8,0-13.9,5.1-13.9,14.3
	c0,8.7,5.9,14.3,14.2,14.3C52.8,341.7,55,341.3,57.1,340.4z M83.6,304.5c13,0,22.3,9.3,22.3,23c0,13.6-9.4,22.9-22.3,22.9
	c-12.9,0-22.2-9.3-22.2-22.9C61.4,313.8,70.8,304.5,83.6,304.5L83.6,304.5z M83.6,312.9c-7.2,0-12.5,5.6-12.5,14.6
	c0,8.8,5.3,14.5,12.5,14.5c7.4,0,12.6-5.6,12.6-14.5C96.2,318.5,91.1,312.9,83.6,312.9z M112.1,349.3v-43.9h9.7v43.9H112.1z
	 M110.9,292c0-3.4,2.8-6,6-6c3.2,0,6,2.7,6,6c0,3.5-2.8,6.2-6,6.2C113.7,298.2,110.9,295.4,110.9,292L110.9,292z M130.2,308.2
	c6-2.4,13.5-3.8,19.8-3.8c11,0,18.1,4.3,18.1,16.6v28.2h-9.6V322c0-6.3-3.9-8.6-9.3-8.6c-3.4,0-6.8,0.5-9.4,1.3v34.7h-9.7V308.2z
	 M176.2,282h9.7v24.7c2-1.1,6-2.2,9.9-2.2c12.5,0,21.9,8.1,21.9,22.2c0,14.2-9.3,23.7-25.3,23.7c-6.2,0-11.7-1.3-16.1-2.9V282z
	 M185.8,341c1.9,0.6,4.3,0.9,6.7,0.9c8.9,0,15.2-5,15.2-15.1c0-8.5-6-13.6-13.3-13.6c-3.8,0-6.7,1-8.7,2.1V341L185.8,341z
	 M245.4,319.9c0-4.8-3.5-6.9-8.3-6.9c-5,0-8.9,1.5-12.5,3.6V308c3.8-2.2,8.7-3.6,14-3.6c9.5,0,16.2,4,16.2,15v29
	c-4.1,1.1-9.9,1.8-14.8,1.8c-11.2,0-19.4-3.5-19.4-13.4c0-8.9,7.5-13.3,20-13.3h4.8V319.9L245.4,319.9z M245.4,330.1h-4.1
	c-6.7,0-11.1,2-11.1,6.4c0,4.6,4.1,6.3,10,6.3c1.5,0,3.5-0.2,5.3-0.5L245.4,330.1L245.4,330.1z M261.9,337.4c4,3.1,8.8,5,13.2,5
	c4.3,0,7.1-1.5,7.1-5c0-3.6-2.5-4.9-8.1-6.3c-9-2.1-12.8-5.7-12.8-13.4c0-8.9,6.6-13.3,15.4-13.3c4.9,0,8.8,1.1,12.4,3.4v9
	c-3.8-2.8-7.5-4.5-12.1-4.5c-4.2,0-6.4,2.1-6.4,5c0,2.9,1.9,4.4,6.8,5.7c9.9,2.2,14.1,5.9,14.1,13.9c0,9.2-6.9,13.4-16.3,13.4
	c-5.1,0-10.1-1.4-13.4-3.6V337.4z M304.8,329.6v0.2c0.6,7.8,7.2,12.1,14,12.1c6,0,10.2-1.4,14.5-4.3v8.6c-3.9,2.8-9.7,4.1-15.2,4.1
	c-13.5,0-22.6-8.7-22.6-22.6c0-14,9-23.3,20.9-23.3c12.6,0,18.5,8.2,18.5,20.2v5L304.8,329.6L304.8,329.6z M325.8,323.3
	c-0.2-6.8-3.5-10.6-9.8-10.6c-5.6,0-9.7,4-10.9,10.6H325.8z"/>
    <path id="Rectangle-path" class="st1" d="M369.3,279.9h0.9c0.9,0,1.6,0.7,1.6,1.6v90c0,0.9-0.7,1.6-1.6,1.6h-0.9
	c-0.9,0-1.6-0.7-1.6-1.6v-90C367.7,280.6,368.5,279.9,369.3,279.9z"/>
    <path id="a" fill="white" d="M425,349.4h-5.4L403,305.1h4.9l14.6,39.7l14.6-39.7h4.7L425,349.4z M468.1,333.4h-24v0.1
	c0,8,5.6,12.7,11.8,12.7c4.5,0,7.6-1.2,10.8-3.7v4.5c-2.8,2.2-6.9,3.1-10.8,3.1c-9.2,0-16.2-6.4-16.2-17c0-9.8,6.5-17,15.1-17
	c8,0,13.3,4.9,13.3,14.2L468.1,333.4L468.1,333.4z M444.4,329.6h19.4c-0.3-6.8-3.9-9.5-9.2-9.5C449.7,320.1,445.7,323.5,444.4,329.6
	z M473,349.4v-30.8c4.2-1.6,9-2.5,13.3-2.5c8,0,12.9,3.2,12.9,11.3v21.9h-4.4v-21c0-6.6-4.6-8.1-8.9-8.1c-3.3,0-6.3,0.6-8.6,1.2
	v27.9H473z M501.9,320.7v-3.8h4.9V309h4.4v7.9h8.9v3.8h-8.9v19.8c0,4.2,1.6,5.8,4.6,5.8c2,0,3.7-0.7,5.9-1.8v4
	c-1.9,1-4.1,1.6-6.8,1.6c-4.6,0-8-2.5-8-9.2v-20.3H501.9z M550.5,316.9V349c-3.9,0.7-7.8,1.1-11.1,1.1c-9.2,0-14.4-3.2-14.4-11.3
	v-21.9h4.4v21.7c0,6.1,4.7,7.7,9.8,7.7c2.2,0,4.7-0.1,7-0.4v-28.9H550.5z M562.3,322.3v27.1h-4.4v-29.5c3.3-2.2,7.4-3.5,11.8-3.5
	c1.7,0,3.5,0.2,5.3,0.7v4.4c-1.9-0.7-4.1-0.8-5.6-0.8C566.3,320.6,563.9,321.3,562.3,322.3z M603.3,333.4h-24v0.1
	c0,8,5.6,12.7,11.8,12.7c4.5,0,7.6-1.2,10.8-3.7v4.5c-2.8,2.2-6.9,3.1-10.8,3.1c-9.2,0-16.2-6.4-16.2-17c0-9.8,6.5-17,15.1-17
	c8,0,13.3,4.9,13.3,14.2V333.4z M579.6,329.6h19.4c-0.3-6.8-3.9-9.5-9.2-9.5C584.8,320.1,580.8,323.5,579.6,329.6z M606.6,347.5
	v-5.1c2.7,2.5,5.5,3.9,8.9,3.9c4,0,6.5-1.6,6.5-5.2c0-3.9-2.8-4.9-7.8-6.6c-5.6-1.9-8-4.3-8-9.5c0-5.7,4.2-8.8,10-8.8
	c3.1,0,6.2,0.7,8.7,2.5v4.8c-2.5-2.1-5-3.5-8.7-3.5c-3.5,0-5.7,1.9-5.7,5c0,3,1.7,4.5,6.6,6.1c5.5,1.7,9.2,3.9,9.2,9.8
	c0,6.4-4.9,9.3-10.8,9.3C612,350.1,608.6,349.1,606.6,347.5z"/>
</svg>


