  <svg viewBox="0 0 952 802" fill="none" xmlns="http://www.w3.org/2000/svg">
    <path d="M625.023 261.225C643.892 258.062 662.562 255.238 679.771 246.385C689.349 241.455 698.682 235.423 706.693 228.151C706.797 228.057 706.896 227.964 707 227.87C707 227.87 700.466 231.159 692.298 234.451C685.281 237.279 677.061 237.975 669.622 238.847C653.734 240.711 636.832 242.182 622.859 232.806C623.774 233.422 634.782 225.934 635.651 225.436C652.153 215.954 668.519 205.713 676.775 187.572C676.775 187.572 666.974 194.153 657.168 198.264C647.367 202.375 627.759 207.311 627.759 207.311C627.759 207.311 642.466 190.042 646.56 181.816C650.654 173.592 658.812 152.208 657.178 155.495C655.545 158.782 651.461 160.428 644.927 167.009C638.393 173.589 619.602 181.812 620.419 180.167C625.372 170.187 631.968 160.692 635.11 149.917C636.947 143.635 638.185 135.56 640.026 130C639.21 132.467 632.681 138.225 626.141 147.27C619.602 156.315 608.168 165.364 608.168 165.364V154.673C608.168 154.673 607.351 144.803 599.998 141.514C592.645 138.225 583.661 149.739 583.661 149.739C583.661 149.739 594.281 150.561 595.098 154.673C595.914 158.784 586.111 167.831 586.111 167.831L589.378 175.227C589.378 175.227 589.378 223.75 552.618 237.731C515.857 251.712 516.674 258.292 513.405 263.226C508.182 271.116 515.181 282.304 511.173 290.28C510.596 291.431 509.876 292.539 508.845 293.315C505.531 295.827 501.19 295.086 497.873 292.856C496.05 291.164 494.829 288.703 493.599 285.927C488.375 274.131 478.535 252.645 478.535 252.645C478.535 252.645 491.62 246.565 497.659 245.552C503.699 244.538 503.699 254.671 503.699 254.671L506.724 247.577C509.748 240.483 506.724 236.43 505.717 233.391C504.71 230.352 497.664 226.298 474.514 216.165C466.996 212.874 458.468 210.816 450.289 212.502C447.165 213.154 442.582 214.507 440.566 217.087C445.402 217.07 449.957 215.843 454.925 216.465C460.026 217.102 464.958 218.724 469.449 221.242H451.333C438.248 221.242 429.19 238.469 429.19 238.469L437.254 231.37C444.047 225.386 452.956 227.324 460.406 227.318C456.132 227.318 451.162 234.359 449.289 237.623C444.717 245.565 445.033 254.546 447.194 263.198C447.383 263.332 447.316 263.004 447.316 262.782C447.316 258.729 452.349 254.675 452.349 254.675L450.335 265.821C448.321 276.967 450.335 290.141 450.335 287.1C450.335 284.059 457.381 277.981 457.381 277.981V285.075C457.381 285.925 457.184 287.093 456.843 288.473C456.768 288.778 456.673 289.112 456.562 289.467C453.569 293.94 446.839 296.863 442.168 293.322C441.143 292.547 440.417 291.438 439.84 290.287C435.832 282.31 442.831 271.123 437.608 263.233C434.341 258.297 435.158 251.719 398.395 237.737C361.633 223.757 361.628 175.234 361.628 175.234L364.895 167.838C364.895 167.838 355.092 158.79 355.909 154.679C356.725 150.568 367.345 149.746 367.345 149.746C367.345 149.746 358.359 138.231 351.008 141.52C343.657 144.81 342.839 154.679 342.839 154.679V165.371C342.839 165.371 331.41 156.322 324.874 147.27C318.338 138.218 311.804 132.467 310.987 130C312.828 135.56 314.071 143.635 315.903 149.917C319.044 160.692 325.639 170.187 330.596 180.167C331.412 181.812 312.623 173.587 306.089 167.009C299.555 160.431 295.468 158.784 293.835 155.495C292.201 152.206 300.372 173.589 304.455 181.816C308.539 190.044 323.254 207.311 323.254 207.311C323.254 207.311 303.634 202.373 293.831 198.262C284.028 194.15 274.225 187.57 274.225 187.57C282.483 205.71 298.857 215.952 315.35 225.434C316.214 225.932 327.234 233.417 328.139 232.804C314.168 242.18 297.264 240.711 281.374 238.845C273.939 237.975 265.717 237.274 258.702 234.449C250.536 231.153 244 227.868 244 227.868C244.101 227.964 244.203 228.057 244.307 228.149C252.319 235.421 261.651 241.455 271.23 246.38C288.438 255.24 307.108 258.062 325.976 261.225C326.624 261.333 337.554 263.887 337.942 263.233C331.322 274.344 278.237 291.055 263.098 291.651C275.488 293.256 287.833 294.971 300.302 295.895C314.652 296.959 330.408 298.264 344.485 294.485C368.992 287.905 360.008 290.374 360.008 290.374C358.769 290.713 355.578 297.929 354.779 299.076C350.654 305.014 345.818 310.506 340.042 314.849C326.711 324.871 312.621 334.289 297.107 340.537C296.61 340.738 296.204 340.909 295.979 341.368C298.317 342.932 303.079 342.064 305.735 341.945C328.986 340.894 347.819 331.997 367.579 320.578C370.388 318.949 374.016 317.39 376.347 315.042L378.798 312.576C374.936 319.865 372.099 327.89 369.96 335.838C365.895 350.883 366.568 366.143 367.138 381.588C367.277 385.305 367.281 389.04 367.328 392.762C367.341 393.789 367.521 394.801 367.519 395.832C370.477 391.719 372.378 386.012 374.649 381.384C377.026 376.563 379.422 371.76 381.915 367C385.539 360.08 389.067 352.164 394.316 346.293C401.662 338.068 406.569 332.312 406.569 332.312C406.569 332.312 407.386 380.835 412.286 396.461L417.187 412.086C417.585 397.679 417.574 382.295 422.012 368.464C424.529 360.633 429.089 353.193 433.525 346.291C435.841 352.208 437.965 358.227 439.812 364.309C443.081 375.073 442.027 384.007 439.413 394.838C437.9 401.126 436.418 407.903 433.525 413.731C430.258 420.311 444.961 404.683 447.412 400.572C449.862 396.461 460.482 375.899 459.665 366.854C458.848 357.81 465.385 366.032 467.011 372.612C468.639 379.193 471.912 390.707 462.928 407.977C453.943 425.247 423.721 458.149 423.721 458.149L445.778 443.345L431.889 483.643L457.213 454.037L444.959 500.916C444.959 500.916 464.371 468.797 465.382 464.729C466.087 461.89 473.487 512.969 475.499 527C477.511 512.969 484.911 461.89 485.615 464.729C486.627 468.797 506.039 500.916 506.039 500.916L493.785 454.037L519.109 483.643L505.222 443.345L527.279 458.149C527.279 458.149 497.054 425.251 488.068 407.981C479.081 390.711 482.351 379.197 483.984 372.617C485.618 366.036 492.154 357.814 491.33 366.859C490.507 375.904 501.134 396.465 503.584 400.576C506.035 404.687 520.738 420.315 517.471 413.735C514.578 407.907 513.102 401.131 511.583 394.842C508.971 384.013 507.91 375.079 511.183 364.314C513.031 358.223 515.155 352.212 517.471 346.296C521.907 353.198 526.468 360.626 528.984 368.468C533.422 382.299 533.411 397.683 533.808 412.09L538.709 396.465C543.609 380.84 544.426 332.316 544.426 332.316C544.426 332.316 549.327 338.072 556.68 346.298C561.928 352.171 565.457 360.085 569.08 367.004C571.571 371.762 573.979 376.576 576.347 381.388C578.62 386.017 580.521 391.723 583.477 395.836C583.477 394.805 583.655 393.793 583.667 392.767C583.715 389.045 583.721 385.31 583.858 381.592C584.428 366.147 585.1 350.888 581.036 335.843C578.888 327.894 576.066 319.869 572.198 312.58L574.649 315.047C576.98 317.394 580.597 318.962 583.417 320.583C603.174 332.001 622.011 340.898 645.26 341.949C647.913 342.069 652.678 342.937 655.019 341.373C654.801 340.911 654.384 340.742 653.89 340.542C638.377 334.294 624.289 324.879 610.951 314.853C605.176 310.502 600.342 305.018 596.217 299.08C595.418 297.929 592.226 290.713 590.988 290.379C590.988 290.379 582.001 287.911 606.508 294.49C620.585 298.268 636.343 296.963 650.691 295.9C663.161 294.975 675.506 293.261 687.897 291.655C672.754 291.059 619.67 274.348 613.042 263.237C613.443 263.887 624.373 261.333 625.023 261.225Z" fill="white"/>
    <path d="M183.933 594.422L188.545 637.019C188.734 638.712 188.828 640.216 188.828 641.439C188.828 645.576 187.604 646.987 181.108 647.175V648.774C184.686 648.679 190.617 648.585 196.736 648.585C202.855 648.585 209.162 648.679 213.305 648.774V647.175C205.962 646.893 205.114 644.542 204.267 637.019L200.031 598.653C199.937 597.713 199.842 596.302 199.842 595.362C199.842 589.908 201.255 587.369 208.88 587.369V585.77C204.455 585.865 200.407 585.865 196.83 585.865C191.087 585.865 186.474 585.77 183.556 585.676L170.376 623.948L156.726 585.676C153.619 585.77 149.006 585.865 144.205 585.865C139.404 585.865 134.414 585.865 130.743 585.77V587.369C137.992 587.369 139.686 589.908 139.686 595.362C139.686 596.396 139.592 597.525 139.498 598.653L134.508 637.301C133.567 644.26 131.778 647.081 125 647.269V648.774C128.483 648.679 131.966 648.585 135.92 648.585C139.874 648.585 144.111 648.679 149.006 648.774V647.175C140.533 646.893 138.368 645.858 138.368 640.593C138.368 639.464 138.462 637.866 138.651 636.361L143.263 594.14L163.88 648.962H164.539L183.933 594.422ZM260.156 645.388V644.448L259.497 644.354C257.614 644.072 257.143 643.037 257.143 640.31V622.914C257.143 612.946 257.331 608.245 257.52 605.142L257.143 604.953C252.342 606.458 245.564 607.963 239.539 608.433V609.561L240.48 609.843C243.116 610.596 243.399 612.1 243.399 613.699V642.285C242.363 642.473 240.668 642.473 240.009 642.473C233.984 642.473 232.572 638.9 232.572 630.155V622.914C232.572 612.946 232.761 608.245 232.949 605.142L232.572 604.953C227.771 606.458 220.899 607.963 214.874 608.433V609.561L215.815 609.843C218.451 610.596 218.733 612.1 218.733 613.699V637.395C218.733 644.354 222.499 649.714 228.901 649.714C233.514 649.714 239.539 646.329 243.399 643.131C243.304 645.764 243.116 647.833 242.834 649.526L243.21 649.714C247.447 648.303 255.26 646.611 260.156 645.388ZM285.189 647.363L284.625 647.269C281.989 646.799 281.989 646.329 281.989 638.994V595.268C281.989 587.557 282.271 581.163 282.459 579.188L281.989 579C277.846 580.599 269.374 583.232 264.667 584.266V584.736L267.114 588.215C268.244 589.814 268.244 591.036 268.244 592.259V638.994C268.244 646.329 268.244 646.799 265.608 647.269L265.043 647.363V648.774C267.114 648.679 271.162 648.585 275.116 648.585C279.164 648.585 283.118 648.679 285.189 648.774V647.363ZM305.184 649.714C312.432 649.714 318.457 644.73 321.752 639.182L321.376 638.712C318.646 640.31 316.198 640.687 313.75 640.687C309.891 640.687 306.502 640.122 306.502 636.267V611.16L317.987 611.348C319.116 610.407 320.811 607.116 320.811 605.518L306.502 605.988C306.502 603.167 306.878 598.089 307.066 596.49L306.502 596.208C301.983 600.628 294.169 606.458 288.991 609.561V609.937L292.851 614.733C292.757 619.341 292.757 628.462 292.757 640.122C292.757 645.858 298.029 649.714 305.184 649.714ZM343.093 590.754C343.093 586.335 339.609 583.138 335.561 583.138C331.513 583.138 328.03 586.335 328.03 590.754C328.03 595.174 331.513 598.371 335.561 598.371C339.609 598.371 343.093 595.174 343.093 590.754ZM345.164 647.363L344.599 647.269C341.963 646.799 341.963 646.329 341.963 638.994V618.777C341.963 611.066 342.151 606.458 342.34 604.483L341.869 604.295C337.915 606.176 329.819 609.279 325.112 610.69V611.16L327.089 614.545C328.218 616.332 328.218 617.366 328.218 618.588V638.994C328.218 646.329 328.218 646.799 325.582 647.269L325.018 647.363V648.774C327.089 648.679 331.137 648.585 335.091 648.585C339.139 648.585 343.093 648.679 345.164 648.774V647.363ZM349.61 629.026C349.61 641.439 358.177 649.714 370.039 649.714C377.759 649.714 385.667 644.26 388.303 636.173L387.832 635.891C385.196 639.182 381.713 640.498 378.324 640.498C369.004 640.498 363.073 633.446 363.073 622.162C363.073 614.075 367.121 607.68 372.393 607.68C377.57 607.68 375.405 617.272 382.277 617.272C384.819 617.272 387.361 615.109 387.361 612.382C387.361 607.022 380.206 604.577 374.464 604.577C361.849 604.577 349.61 614.639 349.61 629.026ZM416.055 604.577C403.535 604.577 391.955 613.981 391.955 627.428C391.955 640.687 403.535 649.714 416.055 649.714C428.67 649.714 440.25 640.31 440.25 626.863C440.25 613.605 428.67 604.577 416.055 604.577ZM416.055 647.645C410.313 647.645 407.3 638.054 407.3 626.299C407.3 613.981 410.313 606.646 416.055 606.646C421.892 606.646 424.905 616.238 424.905 627.992C424.905 640.31 421.892 647.645 416.055 647.645ZM463.325 590.754C463.325 586.335 459.842 583.138 455.794 583.138C451.746 583.138 448.263 586.335 448.263 590.754C448.263 595.174 451.746 598.371 455.794 598.371C459.842 598.371 463.325 595.174 463.325 590.754ZM465.397 647.363L464.832 647.269C462.196 646.799 462.196 646.329 462.196 638.994V618.777C462.196 611.066 462.384 606.458 462.572 604.483L462.102 604.295C458.148 606.176 450.051 609.279 445.344 610.69V611.16L447.321 614.545C448.451 616.332 448.451 617.366 448.451 618.588V638.994C448.451 646.329 448.451 646.799 445.815 647.269L445.25 647.363V648.774C447.321 648.679 451.369 648.585 455.323 648.585C459.371 648.585 463.325 648.679 465.397 648.774V647.363ZM515.784 647.363L515.219 647.269C512.583 646.799 512.583 646.329 512.583 638.994V616.896C512.583 609.749 507.97 604.577 501.945 604.577C497.05 604.577 491.119 608.903 487.165 612.006C487.259 609.749 487.353 606.176 487.542 604.483L487.071 604.295C483.117 606.176 475.021 609.279 470.314 610.69V611.16L472.291 614.545C473.421 616.332 473.421 617.366 473.421 618.588V638.994C473.421 646.329 473.421 646.799 470.785 647.269L470.22 647.363V648.774C472.291 648.679 476.339 648.585 480.293 648.585C484.341 648.585 488.295 648.679 490.366 648.774V647.363L489.801 647.269C487.165 646.799 487.165 646.329 487.165 638.994V613.229C488.577 612.664 490.084 612.57 491.025 612.57C496.768 612.57 498.839 618.024 498.839 626.393V638.994C498.839 646.329 498.839 646.799 496.203 647.269L495.638 647.363V648.774C497.709 648.679 501.757 648.585 505.711 648.585C509.759 648.585 513.713 648.679 515.784 648.774V647.363ZM579.836 641.345C567.033 641.345 557.054 630.437 557.054 613.793C557.054 597.807 565.998 588.309 577.2 588.309C582.849 588.309 586.991 590.66 590.004 594.14C592.64 597.055 594.993 601.568 596.688 606.176L597.629 605.612L595.464 589.532C589.345 586.523 583.884 584.83 576.636 584.83C557.713 584.83 540.297 597.713 540.297 618.494C540.297 638.054 556.207 649.714 573.341 649.714C582.096 649.714 590.568 646.423 596.594 640.498L600.548 629.308L599.512 628.838C595.181 637.677 588.497 641.345 579.836 641.345ZM604.693 639.276C604.693 645.388 608.835 649.338 614.672 649.338C619.661 649.338 622.956 645.2 625.122 642.473C626.816 646.611 630.111 649.432 635.665 649.432C640.937 649.432 645.08 644.542 645.55 640.31L645.268 640.122C644.515 640.687 643.573 641.251 642.161 641.251C639.713 641.251 638.584 640.028 638.584 637.019C638.584 631.283 639.054 620.751 639.054 614.169C639.054 606.928 630.77 604.577 625.404 604.577C615.802 604.577 605.446 615.391 605.446 621.692C605.446 622.444 605.728 622.726 606.105 622.726C607.517 622.726 613.166 621.598 614.484 621.221C614.013 619.529 613.636 617.178 613.636 615.109C613.636 612.476 614.766 611.16 617.496 611.16C623.05 611.16 625.31 614.733 625.31 617.836V625.453L612.695 630.813C607.705 632.976 604.693 634.386 604.693 639.276ZM625.216 627.052L625.122 641.439C624.557 641.627 624.086 641.721 623.427 641.721C620.32 641.721 618.155 639.746 618.155 635.703C618.155 632.882 619.473 631.377 621.262 630.061L625.216 627.052ZM672.413 670.401L668.365 670.119C665.824 669.931 665.729 669.461 665.729 662.126V648.209C668.648 649.244 670.813 649.714 673.826 649.714C685.593 649.714 697.926 640.687 697.926 624.136C697.926 612.476 691.053 604.577 680.98 604.577C674.296 604.577 668.836 609.561 665.729 612.194C665.729 610.219 665.918 606.27 666.106 604.483L665.635 604.295C661.681 606.176 653.585 609.373 648.878 610.69V611.16L650.855 614.545C651.985 616.332 651.985 617.366 651.985 618.588V662.22C651.985 669.555 651.985 670.025 649.349 670.495L648.784 670.589V672C651.42 671.906 654.809 671.812 659.328 671.812C663.847 671.812 669.401 671.906 672.413 672V670.401ZM665.729 634.292V613.04C667.142 612.664 668.836 612.57 670.248 612.57C677.968 612.57 683.051 619.529 683.051 629.496C683.051 640.31 679.098 646.893 673.072 646.893C668.46 646.893 665.729 643.602 665.729 634.292ZM720.981 590.754C720.981 586.335 717.498 583.138 713.45 583.138C709.402 583.138 705.918 586.335 705.918 590.754C705.918 595.174 709.402 598.371 713.45 598.371C717.498 598.371 720.981 595.174 720.981 590.754ZM723.052 647.363L722.487 647.269C719.851 646.799 719.851 646.329 719.851 638.994V618.777C719.851 611.066 720.04 606.458 720.228 604.483L719.757 604.295C715.803 606.176 707.707 609.279 703 610.69V611.16L704.977 614.545C706.107 616.332 706.107 617.366 706.107 618.588V638.994C706.107 646.329 706.107 646.799 703.471 647.269L702.906 647.363V648.774C704.977 648.679 709.025 648.585 712.979 648.585C717.027 648.585 720.981 648.679 723.052 648.774V647.363ZM743.032 649.714C750.281 649.714 756.306 644.73 759.601 639.182L759.224 638.712C756.494 640.31 754.047 640.687 751.599 640.687C747.739 640.687 744.35 640.122 744.35 636.267V611.16L755.835 611.348C756.965 610.407 758.66 607.116 758.66 605.518L744.35 605.988C744.35 603.167 744.727 598.089 744.915 596.49L744.35 596.208C739.831 600.628 732.018 606.458 726.84 609.561V609.937L730.7 614.733C730.605 619.341 730.605 628.462 730.605 640.122C730.605 645.858 735.877 649.714 743.032 649.714ZM762.949 639.276C762.949 645.388 767.091 649.338 772.928 649.338C777.918 649.338 781.213 645.2 783.378 642.473C785.073 646.611 788.367 649.432 793.922 649.432C799.194 649.432 803.336 644.542 803.807 640.31L803.524 640.122C802.771 640.687 801.83 641.251 800.418 641.251C797.97 641.251 796.84 640.028 796.84 637.019C796.84 631.283 797.311 620.751 797.311 614.169C797.311 606.928 789.026 604.577 783.66 604.577C774.058 604.577 763.702 615.391 763.702 621.692C763.702 622.444 763.985 622.726 764.361 622.726C765.774 622.726 771.422 621.598 772.74 621.221C772.269 619.529 771.893 617.178 771.893 615.109C771.893 612.476 773.022 611.16 775.753 611.16C781.307 611.16 783.566 614.733 783.566 617.836V625.453L770.951 630.813C765.962 632.976 762.949 634.386 762.949 639.276ZM783.472 627.052L783.378 641.439C782.813 641.627 782.342 641.721 781.683 641.721C778.577 641.721 776.412 639.746 776.412 635.703C776.412 632.882 777.729 631.377 779.518 630.061L783.472 627.052ZM827 647.363L826.435 647.269C823.799 646.799 823.799 646.329 823.799 638.994V595.268C823.799 587.557 824.082 581.163 824.27 579.188L823.799 579C819.657 580.599 811.184 583.232 806.477 584.266V584.736L808.925 588.215C810.055 589.814 810.055 591.036 810.055 592.259V638.994C810.055 646.329 810.054 646.799 807.418 647.269L806.854 647.363V648.774C808.925 648.679 812.973 648.585 816.927 648.585C820.975 648.585 824.929 648.679 827 648.774V647.363Z" fill="white"/>
  </svg>


