
  <svg version="1.0" xmlns="http://www.w3.org/2000/svg"
       width="317.000000pt" height="55.000000pt" viewBox="0 0 317.000000 55.000000"
       preserveAspectRatio="xMidYMid meet">

    <g transform="translate(0.000000,55.000000) scale(0.100000,-0.100000)"
       fill="#ffffff" stroke="none">
      <path d="M187 536 c-122 -45 -195 -157 -185 -281 6 -65 33 -120 83 -171 41
-40 114 -74 162 -74 22 0 23 4 23 64 l0 63 -45 17 c-56 22 -85 66 -85 131 0
42 5 52 39 86 34 34 44 39 86 39 73 0 115 -34 139 -112 4 -15 17 -18 71 -18
61 0 65 1 65 23 0 39 -29 111 -59 148 -65 79 -204 119 -294 85z"/>
      <path d="M830 431 c-101 -53 -109 -233 -12 -297 47 -32 99 -38 157 -19 47 17
49 17 65 -5 16 -21 16 -21 34 -1 16 18 16 21 1 44 -14 21 -14 32 -5 68 22 82
-9 170 -72 209 -43 26 -121 26 -168 1z m131 -41 c28 -16 49 -63 49 -115 0 -43
-1 -44 -20 -33 -16 10 -23 10 -37 -4 -16 -16 -16 -19 1 -37 22 -24 15 -37 -21
-44 -74 -14 -130 53 -120 142 9 77 85 124 148 91z"/>
      <path d="M1190 428 c-52 -36 -73 -71 -78 -132 -11 -134 106 -229 219 -178 49
21 73 44 88 85 8 21 8 27 -3 27 -8 0 -21 3 -29 6 -9 3 -22 -7 -35 -29 -25 -43
-65 -59 -112 -43 -45 14 -77 83 -66 141 16 83 108 124 160 72 13 -13 25 -29
28 -37 5 -16 58 -6 58 11 0 20 -41 69 -70 84 -44 23 -121 19 -160 -7z"/>
      <path d="M1890 428 c-53 -37 -73 -71 -78 -136 -7 -101 45 -171 139 -187 42 -7
112 18 141 51 25 28 41 74 25 74 -6 0 -21 3 -32 6 -15 4 -23 -2 -34 -27 -31
-71 -130 -69 -164 4 -21 43 -21 77 -3 121 33 80 127 90 165 19 12 -24 36 -29
59 -14 12 7 11 14 -2 39 -36 70 -148 96 -216 50z"/>
      <path d="M1460 275 l0 -165 30 0 30 0 0 70 0 70 63 0 c80 0 123 24 132 74 8
42 0 70 -28 96 -18 17 -35 20 -124 20 l-103 0 0 -165z m190 96 c24 -46 -3 -71
-76 -71 l-54 0 0 45 0 45 60 0 c48 0 61 -4 70 -19z"/>
      <path d="M2632 413 c2 -22 9 -29 31 -31 24 -3 27 0 27 27 0 28 -3 31 -31 31
-27 0 -30 -3 -27 -27z"/>
      <path d="M3110 275 l0 -165 30 0 30 0 0 165 0 165 -30 0 -30 0 0 -165z"/>
      <path d="M2760 375 c0 -31 -3 -35 -25 -35 -18 0 -25 -5 -25 -20 0 -15 7 -20
25 -20 25 0 25 -1 25 -85 0 -93 8 -105 69 -105 27 0 31 4 31 26 0 18 -4 25
-14 21 -24 -10 -36 16 -36 80 0 61 1 63 25 63 18 0 25 5 25 20 0 15 -7 20 -25
20 -22 0 -25 4 -25 35 0 31 -3 35 -25 35 -22 0 -25 -4 -25 -35z"/>
      <path d="M2213 338 c-41 -11 -74 -55 -52 -69 24 -15 46 -10 52 12 4 16 12 20
39 17 43 -4 52 -35 11 -43 -77 -15 -108 -30 -117 -58 -15 -42 18 -81 73 -85
23 -2 49 2 57 9 10 8 14 8 14 0 0 -6 14 -11 31 -11 l31 0 -4 95 c-2 79 -6 98
-23 113 -25 24 -70 32 -112 20z m77 -137 c0 -49 -81 -71 -88 -24 -3 18 4 24
30 32 50 14 58 13 58 -8z"/>
      <path d="M2475 340 c-11 -4 -37 -5 -57 -2 l-38 5 0 -167 0 -166 30 0 30 0 0
62 c0 48 3 59 12 50 21 -21 84 -14 117 14 37 30 48 80 32 135 -16 54 -77 88
-126 69z m59 -62 c22 -31 20 -84 -4 -108 -24 -24 -47 -25 -72 -3 -23 21 -25
95 -2 117 22 23 60 20 78 -6z"/>
      <path d="M2960 340 c-35 -7 -55 -21 -68 -46 -10 -19 -8 -23 11 -28 33 -9 35
-8 42 14 8 25 62 28 72 5 8 -22 1 -26 -54 -36 -26 -5 -56 -18 -67 -28 -25 -26
-24 -71 4 -93 25 -20 90 -24 107 -7 8 8 13 8 17 0 4 -6 18 -11 32 -11 24 0 24
1 24 93 0 60 -5 99 -13 111 -15 20 -71 34 -107 26z m60 -143 c0 -44 -53 -65
-80 -32 -16 20 1 42 38 48 15 2 30 5 35 6 4 0 7 -9 7 -22z"/>
      <path d="M2632 228 l3 -113 28 -3 27 -3 0 115 0 116 -30 0 -31 0 3 -112z"/>
      <path d="M274 238 c19 -118 136 -228 242 -228 23 0 24 3 24 64 l0 64 -35 12
c-42 14 -95 72 -95 105 0 24 -2 25 -71 25 l-72 0 7 -42z"/>
    </g>
  </svg>


