<?xml version="1.0" encoding="utf-8"?>
<svg version="1.1" id="layer" xmlns="http://www.w3.org/2000/svg" xmlns:xlink="http://www.w3.org/1999/xlink" x="0px" y="0px"
     viewBox="0 0 652 652" style="enable-background:new 0 0 652 652;" xml:space="preserve">
<style type="text/css">
	.st0{fill:white;}
	.st1{fill:#50B848;}
</style>
  <g id="Master">
	<g id="Sequoia-1b-Home" transform="translate(-100.000000, -64.000000)">
		<g id="Nav">
			<g id="NAV">
				<g id="Group" transform="translate(100.500000, 64.000000)">
					<g id="Imported-Layers" transform="translate(0.250000, 0.225500)">
						<path fill="white"  class="st0" d="M231.4,360.3l-7.7-13.3c3.6-6.9,3.6-14.9,3.6-25.5c0-13.3,0-23-7.7-31.1
							c-5.3-5.7-12.1-8.5-21-8.5c-8.9,0-15.8,3.2-21,8.5c-7.7,7.7-7.7,17.4-7.7,31.1c0,13.3-0.4,23,7.7,31.1
							c5.7,5.7,12.1,8.5,21,8.5c2.4,0,4.4-0.4,6.5-0.8H231.4L231.4,360.3z M188.5,343.3c-2.8-3.2-3.6-6.9-3.6-21.8
							c0-14.9,0.8-18.6,3.6-21.8c2-2.4,5.7-4,9.7-4s7.7,1.6,9.7,4c2.8,3.2,3.6,6.9,3.6,21.8c0,14.9-0.8,18.6-3.6,21.8
							c-2,2.4-5.7,4-9.7,4S190.6,345.7,188.5,343.3L188.5,343.3z"/>
                      <path  fill="white"  class="st0" d="M408.7,282.7h14.9v77.6h-14.9V282.7z"/>
                      <path  fill="white"  class="st0" d="M47.5,361.1c-11.7,0-20.6-2.4-28.3-10.1l9.7-9.7c4.8,4.8,11.7,6.5,18.6,6.5
							c8.9,0,13.7-3.2,13.7-9.7c0-2.8-0.8-4.8-2.4-6.5c-1.6-1.6-3.2-2-6.9-2.8l-9.3-1.2c-6.5-0.8-11.7-3.2-14.9-6.5
							c-3.6-3.6-5.7-8.9-5.7-15.4c0-13.7,10.1-23.4,27.1-23.4c10.5,0,18.6,2.4,25.1,8.9l-9.7,9.3c-4.8-4.8-10.9-5.3-15.8-5.3
							c-8.1,0-12.1,4.4-12.1,9.7c0,2,0.8,4,2.4,5.7c1.6,1.6,4,2.4,7.3,3.2l9.3,1.2c7.3,0.8,11.7,2.8,14.9,6.1c4,4,6.1,9.7,6.1,16.6
							C76.6,352.6,63.7,361.1,47.5,361.1"/>
                      <path  fill="white"  class="st0" d="M98.4,360.3v-77.6h51.3V296h-36v18.2h30.7V328h-30.7v19h36v13.3H98.4"/>
                      <path  fill="white"  class="st0" d="M278.6,361.1c-15.8,0-28.7-10.9-28.7-27.5v-50.9h15.4v50.5c0,8.9,5.3,14.1,13.3,14.1
							s13.3-5.3,13.3-14.1v-50.5h14.9v50.9C306.9,350.2,294.4,361.1,278.6,361.1"/>
                      <path  fill="white"  class="st0" d="M378.8,352.6c-5.3,5.7-12.1,8.5-21,8.5s-15.8-3.2-21-8.5c-7.7-7.7-7.7-17.4-7.7-31.1
							c0-13.3-0.4-23,7.7-31.1c5.3-5.7,12.1-8.5,21-8.5s15.4,3.2,21,8.5c7.7,7.7,7.7,17.4,7.7,31.1
							C386.5,334.8,386.5,344.5,378.8,352.6 M367.5,299.7c-2-2.4-5.7-4-9.7-4s-7.7,1.6-9.7,4c-2.8,3.2-3.6,6.9-3.6,21.8
							c0,14.9,0.8,18.6,3.6,21.8c2,2.4,5.7,4,9.7,4s7.7-1.6,9.7-4c2.8-3.2,3.6-6.9,3.6-21.8C371.2,306.6,370.4,302.9,367.5,299.7"/>
                      <path  fill="white"  class="st0" d="M495.2,360.3l-4.4-13.7h-27.5l-4.8,13.7h-15.8l28.3-77.6h11.7l28.3,77.6H495.2L495.2,360.3z
							 M477,305.3l-9.7,28.3h19.4L477,305.3L477,305.3z"/>
                      <path fill="#50B848" class="st1" d="M599.9,282.7h19.4v19.4h-19.4V282.7z"/>
                      <path fill="#50B848" class="st1" d="M551.4,343.7v-61h-9.7v70.7L551.4,343.7"/>
                      <path fill="#50B848" class="st1" d="M558.2,350.6l-9.7,9.7h70.7v-9.7H558.2"/>
                      <path fill="#50B848" class="st1" d="M570.8,324.3v-41.6h-9.7V334L570.8,324.3"/>
                      <path fill="#50B848" class="st1" d="M577.6,331.2l-9.7,9.7h51.3v-9.7H577.6"/>
                      <path fill="#50B848" class="st1" d="M590.2,304.9v-22.2h-9.7v31.9L590.2,304.9"/>
                      <path fill="#50B848" class="st1" d="M597,311.8l-9.7,9.7h31.9v-9.7H597"/>
					</g>
				</g>
			</g>
		</g>
	</g>
</g>
</svg>
