<svg xmlns="http://www.w3.org/2000/svg" viewBox="0 0 17.103 17.103">
  <g id="avalanche-avax-logo_2_" data-name="avalanche-avax-logo (2)" transform="translate(-0.5 -1)">
    <path id="Path_15762" data-name="Path 15762" d="M17.6,9.551A8.551,8.551,0,1,1,9.051,1,8.551,8.551,0,0,1,17.6,9.551Zm-10.975,3.4H4.969a1.332,1.332,0,0,1-.626-.067.422.422,0,0,1-.191-.33c-.006-.124.08-.275.252-.578L8.5,4.757c.174-.307.263-.46.374-.517a.423.423,0,0,1,.382,0c.111.057.2.21.374.517l.842,1.471,0,.008a2.758,2.758,0,0,1,.326.671,1.248,1.248,0,0,1,0,.584,2.769,2.769,0,0,1-.328.679l-2.152,3.8-.006.01a2.729,2.729,0,0,1-.419.627,1.253,1.253,0,0,1-.51.3A3,3,0,0,1,6.628,12.954Zm4.191,0H13.2a1.323,1.323,0,0,0,.632-.069.42.42,0,0,0,.191-.332c.006-.12-.078-.265-.243-.55l-.017-.03L12.569,9.936l-.014-.023c-.167-.283-.252-.426-.36-.481a.418.418,0,0,0-.38,0c-.109.057-.2.206-.372.506l-1.187,2.038,0,.007c-.174.3-.261.45-.254.573a.426.426,0,0,0,.191.332A1.344,1.344,0,0,0,10.819,12.954Z" fill="currentColor" fill-rule="evenodd"/>
  </g>
</svg>
