<svg viewBox="0 0 26 26" fill="currentColor" xmlns="http://www.w3.org/2000/svg">
  <g clip-path="url(#clip0_332_7)"><g>
    <path fill-rule="evenodd" clip-rule="evenodd" d="M23.234 16.9011H22.7C23.0471 16.9003 23.3909 16.968 23.7117 17.1002C24.0326 17.2325 24.3242 17.4268 24.5699 17.6719C24.8156 17.917 25.0105 18.2082 25.1435 18.5288C25.2765 18.8494 25.345 19.193 25.345 19.5401V20.0701C25.3453 20.2089 25.3181 20.3464 25.265 20.4746C25.212 20.6028 25.1341 20.7193 25.0359 20.8174C24.9377 20.9154 24.821 20.9931 24.6927 21.0459C24.5643 21.0987 24.4268 21.1256 24.288 21.1251H1.057C0.918239 21.1252 0.780814 21.098 0.652578 21.045C0.524343 20.992 0.407813 20.9142 0.309649 20.8162C0.211484 20.7181 0.13361 20.6016 0.0804787 20.4734C0.0273472 20.3453 -6.22166e-08 20.2079 0 20.0691V19.5391C0.0013249 18.8386 0.280643 18.1674 0.77659 17.6727C1.27254 17.1781 1.94455 16.9006 2.645 16.9011H2.113C2.39299 16.9006 2.66133 16.789 2.85912 16.5908C3.05691 16.3926 3.168 16.1241 3.168 15.8441V9.50109C3.168 6.98021 4.16942 4.56258 5.95195 2.78004C7.73448 0.997509 10.1521 -0.00390625 12.673 -0.00390625C15.1939 -0.00390625 17.6115 0.997509 19.3941 2.78004C21.1766 4.56258 22.178 6.98021 22.178 9.50109V15.8371C22.1767 15.9765 22.203 16.1148 22.2555 16.244C22.308 16.3731 22.3856 16.4906 22.4839 16.5896C22.5821 16.6885 22.6989 16.767 22.8277 16.8205C22.9565 16.874 23.0946 16.9014 23.234 16.9011ZM8.977 22.1801H16.37C16.3917 22.6791 16.3122 23.1773 16.1362 23.6447C15.9602 24.1121 15.6915 24.539 15.3461 24.8998C15.0007 25.2605 14.5858 25.5476 14.1265 25.7437C13.6672 25.9399 13.1729 26.041 12.6735 26.041C12.1741 26.041 11.6798 25.9399 11.2205 25.7437C10.7612 25.5476 10.3463 25.2605 10.0009 24.8998C9.65553 24.539 9.38675 24.1121 9.21078 23.6447C9.0348 23.1773 8.95528 22.6791 8.977 22.1801Z" fill="currentColor"/>
  </g>
  </g>
  <defs>
    <clipPath id="clip0_332_7">
      <rect width="25.347" height="25.875" fill="currentColor"/>
    </clipPath>
  </defs>
</svg>
