<svg viewBox="0 0 17 17" fill="currentColor" xmlns="http://www.w3.org/2000/svg">
  <g clip-path="url(#clip0_329_1148)">
    <path d="M16.428 5.05313V3.59713C16.4272 3.33758 16.3468 3.08454 16.1976 2.87211C16.0485 2.65969 15.8378 2.4981 15.594 2.40913L9.655 0.251128C8.72385 -0.0837094 7.70515 -0.0837094 6.774 0.251128L0.834 2.41213C0.590658 2.50092 0.380316 2.66205 0.23123 2.87388C0.0821432 3.08571 0.00145365 3.3381 0 3.59713V5.05313C0.00105611 5.38794 0.134598 5.70873 0.371444 5.94539C0.60829 6.18205 0.929183 6.31534 1.264 6.31613V12.1161C0.895718 12.2469 0.576737 12.4882 0.35054 12.8069C0.124342 13.1256 0.00193365 13.5063 0 13.8971V15.7971C0.00052742 15.9646 0.0672823 16.125 0.185691 16.2434C0.3041 16.3618 0.464545 16.4286 0.632 16.4291H15.8C15.9675 16.4286 16.1279 16.3618 16.2463 16.2434C16.3647 16.125 16.4315 15.9646 16.432 15.7971V13.8971C16.4303 13.5061 16.308 13.1252 16.0817 12.8063C15.8555 12.4874 15.5364 12.246 15.168 12.1151V6.31513C15.502 6.31329 15.8217 6.17967 16.0576 5.94334C16.2936 5.70701 16.4267 5.38708 16.428 5.05313ZM5.055 12.0031H3.791V6.31613H5.055M7.582 6.31613H8.846V12.0031H7.582M12.637 12.0031H11.373V6.31613H12.637V12.0031Z" />
  </g>
  <defs>
    <clipPath id="clip0_329_1148">
      <rect width="16.428" height="16.427" />
    </clipPath>
  </defs>
</svg>
