<svg viewBox="0 0 11 11" fill="currentColor" xmlns="http://www.w3.org/2000/svg">
<g clip-path="url(#clip0_329_628)">
<path d="M10.389 7.33203C10.227 7.3323 10.0718 7.39675 9.95725 7.51128C9.84272 7.62581 9.77826 7.78107 9.778 7.94303V9.41003C9.77774 9.50728 9.73899 9.60048 9.67022 9.66925C9.60145 9.73802 9.50825 9.77677 9.411 9.77703H1.589C1.49175 9.77677 1.39855 9.73802 1.32978 9.66925C1.26101 9.60048 1.22226 9.50728 1.222 9.41003V7.94303C1.222 7.78098 1.15763 7.62557 1.04304 7.51099C0.928458 7.3964 0.773047 7.33203 0.611 7.33203C0.448953 7.33203 0.293543 7.3964 0.178958 7.51099C0.064373 7.62557 0 7.78098 0 7.94303V9.41003C0.00052923 9.8313 0.168111 10.2352 0.465992 10.533C0.763873 10.8309 1.16773 10.9985 1.589 10.999H9.411C9.83227 10.9985 10.2361 10.8309 10.534 10.533C10.8319 10.2352 10.9995 9.8313 11 9.41003V7.94303C10.9997 7.78107 10.9353 7.62581 10.8208 7.51128C10.7062 7.39675 10.551 7.3323 10.389 7.33203Z" fill="currentColor"/>
<path d="M5.49961 0C5.33764 0.000264435 5.18239 0.0647224 5.06786 0.17925C4.95333 0.293777 4.88887 0.449034 4.88861 0.611V6.15L2.95761 4.542C2.83298 4.43928 2.67275 4.39008 2.51195 4.40517C2.35115 4.42025 2.20286 4.49839 2.0995 4.62249C1.99615 4.7466 1.94613 4.90658 1.9604 5.06745C1.97466 5.22833 2.05203 5.37701 2.17561 5.481L5.10461 7.925C5.1361 7.94706 5.16958 7.96614 5.20461 7.982C5.27953 8.03296 5.36646 8.06345 5.45679 8.07047C5.54712 8.07749 5.63772 8.06078 5.71961 8.022C5.74308 8.01009 5.76579 7.99673 5.78761 7.982C5.82263 7.96612 5.8561 7.94704 5.88761 7.925L8.82061 5.481C8.94513 5.3777 9.02351 5.22916 9.03851 5.06807C9.05352 4.90697 9.00391 4.74652 8.90061 4.622C8.79731 4.49748 8.64877 4.4191 8.48768 4.4041C8.32658 4.38909 8.16613 4.4387 8.04161 4.542L6.11061 6.15V0.611C6.11035 0.449034 6.04589 0.293777 5.93136 0.17925C5.81683 0.0647224 5.66158 0.000264435 5.49961 0Z" fill="currentColor"/>
</g>
<defs>
<clipPath id="clip0_329_628">
<rect width="11" height="11" fill="currentColor"/>
</clipPath>
</defs>
</svg>
