<svg viewBox="0 0 21 20" fill="currentColor" xmlns="http://www.w3.org/2000/svg">
  <path d="M8.99549 10.0512C8.93356 9.90312 8.91676 9.74002 8.94718 9.5824C8.9776 9.42478 9.05389 9.27965 9.16649 9.16522L14.8915 3.44022L15.7125 2.61922C15.7536 2.57866 15.7856 2.52984 15.8064 2.47598C15.8273 2.42212 15.8364 2.36445 15.8333 2.3068C15.8302 2.24914 15.8148 2.19279 15.7883 2.1415C15.7618 2.0902 15.7247 2.04511 15.6795 2.00922C13.9751 0.704027 11.8876 -0.002231 9.74085 5.29443e-06C7.5941 0.00224159 5.50809 0.712847 3.80641 2.02159C2.10472 3.33034 0.882491 5.16406 0.329305 7.23831C-0.22388 9.31256 -0.0770961 11.5114 0.746887 13.4937C1.57087 15.476 3.02599 17.131 4.88653 18.202C6.74707 19.2729 8.90903 19.7 11.037 19.4168C13.165 19.1337 15.1401 18.1562 16.6559 16.6361C18.1717 15.1159 19.1435 13.138 19.4205 11.0092C19.4275 10.9519 19.4221 10.8937 19.4048 10.8385C19.3875 10.7834 19.3586 10.7326 19.3201 10.6895C19.2815 10.6465 19.2343 10.6121 19.1814 10.5888C19.1285 10.5654 19.0713 10.5537 19.0135 10.5542H9.74349C9.5827 10.5553 9.42533 10.5078 9.2919 10.4181C9.15847 10.3284 9.05518 10.2005 8.99549 10.0512Z" />
  <path d="M20.9912 7.97559C20.7141 6.18694 20.0114 4.49103 18.9422 3.03059C18.8726 2.93456 18.783 2.85475 18.6796 2.79665C18.5762 2.73855 18.4615 2.70355 18.3433 2.69405C18.225 2.68454 18.1062 2.70077 17.9948 2.7416C17.8835 2.78243 17.7823 2.84691 17.6982 2.93059L17.1982 3.43059L12.0502 8.57059C12.0229 8.59983 12.0045 8.63635 11.9974 8.67576C11.9903 8.71517 11.9948 8.75579 12.0102 8.79275C12.0256 8.82971 12.0513 8.86143 12.0844 8.88411C12.1174 8.90678 12.1562 8.91945 12.1962 8.92059H20.1782C20.2965 8.92029 20.4133 8.89454 20.5207 8.84509C20.6282 8.79564 20.7237 8.72364 20.8008 8.63399C20.8779 8.54434 20.9349 8.43913 20.9677 8.32553C21.0006 8.21192 21.0086 8.09257 20.9912 7.97559Z" />
</svg>
