<svg xmlns="http://www.w3.org/2000/svg" width="15.911" height="14" viewBox="0 0 15.911 14">
  <g id="Polygon_Blockchain_Matic_Logo" transform="translate(0 0.1)">
    <path id="Path_15761" data-name="Path 15761" d="M12.048,4.179a1.059,1.059,0,0,0-1,0L8.724,5.55l-1.579.872L4.861,7.793a1.059,1.059,0,0,1-1,0L2.077,6.713a1.013,1.013,0,0,1-.5-.872V3.764a1.025,1.025,0,0,1,.5-.872L3.864,1.853a1.059,1.059,0,0,1,1,0l1.786,1.08a1.013,1.013,0,0,1,.5.872V5.176l1.579-.914V2.85a1.025,1.025,0,0,0-.5-.872L4.9.025a1.059,1.059,0,0,0-1,0L.5,2.019A.914.914,0,0,0,0,2.85V6.755a1.025,1.025,0,0,0,.5.872L3.864,9.58a1.059,1.059,0,0,0,1,0L7.145,8.25l1.579-.914,2.285-1.329a1.059,1.059,0,0,1,1,0l1.786,1.039a1.013,1.013,0,0,1,.5.872V10a1.025,1.025,0,0,1-.5.872l-1.745,1.039a1.059,1.059,0,0,1-1,0L9.264,10.868a1.013,1.013,0,0,1-.5-.872V8.666L7.187,9.58v1.371a1.025,1.025,0,0,0,.5.872l3.365,1.953a1.058,1.058,0,0,0,1,0l3.365-1.953a1.013,1.013,0,0,0,.5-.872V7a1.025,1.025,0,0,0-.5-.872Z" transform="translate(0 0)" fill="#fff"/>
  </g>
</svg>
