<svg xmlns="http://www.w3.org/2000/svg" viewBox="0 0 15.947 15.107">
  <path id="balance_24dp_FILL0_wght300_GRAD0_opsz24" d="M100-844.893v-1.259h7.344v-9.331a2.208,2.208,0,0,1-1-.563,2.138,2.138,0,0,1-.584-1.017h-2.778l2.469,5.964a2.094,2.094,0,0,1-.82,1.606,2.887,2.887,0,0,1-1.908.662,2.887,2.887,0,0,1-1.908-.662A2.094,2.094,0,0,1,100-851.1l2.469-5.964h-1.63v-1.259h4.924a2.252,2.252,0,0,1,.8-1.2,2.2,2.2,0,0,1,1.408-.48,2.2,2.2,0,0,1,1.408.48,2.252,2.252,0,0,1,.8,1.2h4.924v1.259h-1.63l2.469,5.964a2.094,2.094,0,0,1-.82,1.606,2.887,2.887,0,0,1-1.908.662,2.887,2.887,0,0,1-1.908-.662,2.094,2.094,0,0,1-.82-1.606l2.469-5.964h-2.778a2.137,2.137,0,0,1-.584,1.017,2.208,2.208,0,0,1-1,.563v9.331h7.344v1.259Zm11.589-6.246h3.26l-1.63-3.933Zm-10.491,0h3.26l-1.63-3.933Zm6.876-5.5a1.012,1.012,0,0,0,.743-.306,1.012,1.012,0,0,0,.306-.743,1.011,1.011,0,0,0-.306-.743,1.011,1.011,0,0,0-.743-.306,1.011,1.011,0,0,0-.743.306,1.011,1.011,0,0,0-.306.743,1.011,1.011,0,0,0,.306.743A1.012,1.012,0,0,0,107.973-856.643Z" transform="translate(-100 860)" fill="#e8eaed"/>
</svg>
