<svg xmlns="http://www.w3.org/2000/svg" version="1.0" viewBox="0 0 700 700" fill="currentColor">
  <path d="M322.7 1c-76 6.8-143.2 34.8-200.7 83.5-11.8 10.1-35 34-44.7 46.2C35.6 183 11 241.8 2.4 309.5c-2.2 17.3-2.5 60.3-.6 77 9.9 83.9 44.6 155.5 103.4 213.1 35.5 34.9 74.2 59.8 120.4 77.4 75.8 29 161.2 30.4 238 3.9 66.8-23 124.2-65 167.1-122.1 36-47.9 59.1-105.8 67-168.3 2.1-17.3 2.4-60.4.5-77-8.2-69.4-33.4-130.1-76-183.5-10.3-12.8-33.2-36.1-46.7-47.5-53-44.7-117-72.1-188-80.5-12.2-1.5-52.7-2.1-64.8-1zm54.1 104.1c52.2 5.6 103.8 29.8 142.3 66.7 102 97.7 102 258.7 0 356.4-39 37.4-90.4 61.3-144 66.9-16.8 1.7-51.4.7-67-2.1-90-15.9-163-78-192.1-163.5-6.1-17.9-12-45.3-12-55.6V370h365v-41H104v-3.4c0-4.6 3.5-25.2 6.1-35.6 23.5-94.3 102.3-167.1 198.1-182.9 6.8-1.1 14.1-2.2 16.3-2.4 9.3-.8 43.3-.6 52.3.4z"/>
</svg>
