<svg xmlns="http://www.w3.org/2000/svg" fill="currentColor" viewBox="0 0 1452 1708">
  <path d="m163.9 854 .9 330 280.4 165v193.2L.7 1281.5v-524L163.9 854Zm0-330v192.3L.6 619.7V427.4l163.3-96.6L328 427.4 163.9 524Zm398.4-96.6 163.3-96.6 164.1 96.6L725.6 524l-163.3-96.6Z"/>
  <path d="M281.9 1115.6V922.4l163.3 96.6v192.3l-163.3-95.7Zm280.4 302.6 163.3 96.6 164.1-96.6v192.3l-164.1 96.6-163.3-96.6v-192.3Zm561.6-990.8 163.3-96.6 164.1 96.6v192.3l-164.1 96.6V524l-163.3-96.6Zm163.3 756.6.9-330 163.3-96.6v524l-444.5 260.7v-193.2l280.3-164.9Z"/>
  <path d="m1170.1 1115.6-163.3 95.7V1019l163.3-96.6v193.2Z"/>
  <path d="m1170.1 592.4.9 193.2-281.2 165v330.8l-163.3 95.7-163.3-95.7V950.6L282 785.6V592.4l164-96.6 279.5 165.8 281.2-165.8 164.1 96.6h-.7ZM281.9 262.5 725.6.9l444.5 261.6-163.3 96.6-281.2-165.8-280.4 165.8-163.3-96.6Z"/>
</svg>