<svg viewBox="0 0 21 18" fill="currentColor" xmlns="http://www.w3.org/2000/svg">
  <g clip-path="url(#clip0_329_1139)">
    <path d="M6.55654 7.77004L10.5015 16.23L14.4465 7.77004C14.4606 7.74109 14.467 7.70901 14.4651 7.67689C14.4632 7.64477 14.453 7.61367 14.4357 7.58657C14.4183 7.55948 14.3943 7.5373 14.3659 7.52214C14.3375 7.50699 14.3057 7.49938 14.2735 7.50004H6.72254C6.69086 7.5003 6.65976 7.50862 6.63217 7.52419C6.60458 7.53977 6.5814 7.5621 6.56481 7.58909C6.54821 7.61608 6.53875 7.64685 6.5373 7.6785C6.53586 7.71015 6.54248 7.74165 6.55654 7.77004Z" />
    <path d="M14.0562 5.70033L10.6512 1.02033C10.6345 0.995996 10.6121 0.976093 10.586 0.962342C10.5598 0.948592 10.5307 0.941406 10.5012 0.941406C10.4717 0.941406 10.4426 0.948592 10.4165 0.962342C10.3903 0.976093 10.3679 0.995996 10.3512 1.02033L6.9462 5.70033C6.92588 5.72833 6.91363 5.76137 6.91079 5.79585C6.90796 5.83034 6.91464 5.86493 6.93011 5.89588C6.94558 5.92683 6.96925 5.95293 6.99854 5.97135C7.02783 5.98977 7.06161 5.99979 7.0962 6.00033H13.9062C13.9408 5.99979 13.9746 5.98977 14.0039 5.97135C14.0332 5.95293 14.0568 5.92683 14.0723 5.89588C14.0878 5.86493 14.0945 5.83034 14.0916 5.79585C14.0888 5.76137 14.0765 5.72833 14.0562 5.70033Z" />
    <path d="M9.01697 0.300005L4.98197 5.843C4.94842 5.89158 4.90361 5.93133 4.85137 5.95884C4.79913 5.98635 4.74101 6.00082 4.68197 6.001H0.211972C0.162642 6.00418 0.113885 5.98897 0.0751055 5.95832C0.0363264 5.92766 0.0102732 5.88373 0.00197181 5.835C0.0011864 5.76254 0.0251776 5.69198 0.0699719 5.635L4.00197 1.05C4.28418 0.720067 4.63464 0.455314 5.02914 0.27403C5.42365 0.092747 5.85281 -0.000747122 6.28697 4.49607e-06H8.86697C8.90157 0.000545216 8.93535 0.0105714 8.96463 0.02899C8.99392 0.0474086 9.01759 0.0735128 9.03306 0.104458C9.04854 0.135403 9.05522 0.170002 9.05238 0.204483C9.04954 0.238964 9.0373 0.272005 9.01697 0.300005Z" />
    <path d="M11.9862 0.3L16.0182 5.843C16.0518 5.89158 16.0966 5.93132 16.1488 5.95883C16.2011 5.98635 16.2592 6.00081 16.3182 6.001H20.7882C20.8374 6.00421 20.886 5.98914 20.9248 5.95869C20.9636 5.92824 20.9897 5.88455 20.9982 5.836C20.9993 5.76365 20.9757 5.6931 20.9312 5.636L16.9962 1.05C16.7148 0.72096 16.3655 0.45674 15.9722 0.275492C15.579 0.0942429 15.1512 0.000260236 14.7182 0H12.1382C12.1035 0.000178196 12.0694 0.00994116 12.0398 0.0282149C12.0103 0.0464887 11.9863 0.0725653 11.9706 0.103576C11.9549 0.134587 11.948 0.169331 11.9508 0.203986C11.9535 0.23864 11.9658 0.271863 11.9862 0.3Z" />
    <path d="M20.8138 7.50005C20.8474 7.49928 20.8805 7.5077 20.9096 7.52439C20.9387 7.54109 20.9627 7.56543 20.979 7.59479C20.9952 7.62414 21.0032 7.65738 21.0019 7.69091C21.0007 7.72445 20.9902 7.757 20.9718 7.78505C20.6938 8.19805 11.8518 17.933 11.8518 17.933C11.8317 17.9545 11.8073 17.9716 11.7803 17.9833C11.7533 17.9949 11.7242 18.001 11.6948 18.001C11.6586 18.0019 11.6227 17.9938 11.5904 17.9774C11.5581 17.961 11.5303 17.937 11.5095 17.9073C11.4887 17.8776 11.4756 17.8432 11.4713 17.8073C11.467 17.7713 11.4716 17.7348 11.4848 17.701L16.1348 7.71805C16.1632 7.65252 16.2104 7.59686 16.2703 7.55807C16.3303 7.51928 16.4004 7.49909 16.4718 7.50005H20.8138Z" />
    <path d="M0.189207 7.50005C0.155656 7.49928 0.122533 7.5077 0.0934228 7.52439C0.0643125 7.54109 0.0403236 7.56543 0.0240518 7.59479C0.00778011 7.62414 -0.000154572 7.65738 0.00110656 7.69091C0.00236768 7.72445 0.0127766 7.757 0.0312068 7.78505C0.309207 8.19805 9.15121 17.933 9.15121 17.933C9.17148 17.9546 9.19597 17.9718 9.22315 17.9835C9.25032 17.9952 9.27962 18.0011 9.30921 18.001C9.34543 18.0019 9.3813 17.9938 9.41363 17.9774C9.44596 17.961 9.47374 17.937 9.49452 17.9073C9.5153 17.8776 9.52842 17.8432 9.53273 17.8073C9.53704 17.7713 9.53239 17.7348 9.51921 17.701L4.86921 7.71805C4.8408 7.65252 4.79365 7.59686 4.73369 7.55807C4.67372 7.51928 4.60362 7.49909 4.53221 7.50005H0.189207Z" />
  </g>
  <defs>
  <clipPath id="clip0_329_1139">
  <rect width="21.003" height="18" />
  </clipPath>
  </defs>
</svg>
