<svg xmlns="http://www.w3.org/2000/svg" fill="none" viewBox="0 0 960 960">
  <path fill="currentColor" d="M813.21 177.88A794.45 794.45 0 0 0 615.16 117a543.53 543.53 0 0 0-25.37 51.53 738.13 738.13 0 0 0-219.8 0A545.82 545.82 0 0 0 344.6 117a799.99 799.99 0 0 0-198.2 61.04C21.07 363.34-12.91 544.03 4.08 722.15A798.58 798.58 0 0 0 246.98 844a586.12 586.12 0 0 0 52.03-83.82 516.75 516.75 0 0 1-81.93-39.08 928.95 928.95 0 0 0 20.09-15.1 570.99 570.99 0 0 0 485.66 0 284.49 284.49 0 0 0 20.09 15.1 518.77 518.77 0 0 1-82.08 39.15A580.85 580.85 0 0 0 712.86 844a794.95 794.95 0 0 0 243.06-121.77c19.94-206.57-34.05-385.6-142.7-544.35ZM320.53 612.62c-47.34 0-86.46-42.93-86.46-95.75 0-52.8 37.76-96.11 86.3-96.11 48.56 0 87.37 43.3 86.54 96.12-.83 52.8-38.13 95.74-86.38 95.74Zm318.94 0c-47.42 0-86.38-42.93-86.38-95.75 0-52.8 37.75-96.11 86.38-96.11 48.63 0 87.14 43.3 86.3 96.12-.82 52.8-38.05 95.74-86.3 95.74Z"/>
</svg>