<svg viewBox="0 0 17 13" fill="currentColor" xmlns="http://www.w3.org/2000/svg">
  <g clip-path="url(#clip0_329_171)">
    <path d="M14.0973 1.07109C16.0329 3.8249 16.9064 7.18629 16.5563 10.5341C16.5555 10.5416 16.5531 10.5489 16.5493 10.5554C16.5455 10.562 16.5404 10.5676 16.5343 10.5721C15.2775 11.5036 13.871 12.2138 12.3753 12.6721C12.3647 12.6752 12.3535 12.6749 12.3431 12.6713C12.3327 12.6677 12.3237 12.661 12.3173 12.6521C12.001 12.2131 11.7172 11.7515 11.4683 11.2711C11.4648 11.2645 11.4628 11.2572 11.4624 11.2497C11.4619 11.2423 11.463 11.2348 11.4657 11.2278C11.4683 11.2208 11.4724 11.2145 11.4777 11.2092C11.483 11.2039 11.4893 11.1998 11.4963 11.1971C11.9463 11.0285 12.3812 10.8221 12.7963 10.5801C12.8035 10.5752 12.8094 10.5687 12.8135 10.561C12.8176 10.5533 12.8197 10.5448 12.8197 10.5361C12.8197 10.5274 12.8176 10.5188 12.8135 10.5112C12.8094 10.5035 12.8035 10.4969 12.7963 10.4921C12.7083 10.4271 12.6213 10.3581 12.5383 10.2921C12.5308 10.2859 12.5218 10.282 12.5123 10.2808C12.5027 10.2795 12.493 10.281 12.4843 10.2851C11.1764 10.8987 9.74944 11.2168 8.30477 11.2168C6.8601 11.2168 5.43315 10.8987 4.12527 10.2851C4.1165 10.2811 4.10681 10.2797 4.09728 10.281C4.08775 10.2822 4.07874 10.286 4.07127 10.2921C3.98827 10.3611 3.90127 10.4291 3.81327 10.4921C3.80631 10.4973 3.80075 10.5042 3.79708 10.5121C3.79341 10.52 3.79175 10.5287 3.79225 10.5374C3.79274 10.5461 3.79538 10.5546 3.79991 10.562C3.80445 10.5695 3.81076 10.5757 3.81827 10.5801C4.23454 10.8202 4.66925 11.0269 5.11827 11.1981C5.1252 11.2007 5.13151 11.2047 5.13679 11.2099C5.14208 11.2151 5.14622 11.2213 5.14895 11.2282C5.15168 11.235 5.15294 11.2424 5.15265 11.2498C5.15236 11.2572 5.15053 11.2644 5.14727 11.2711C4.90228 11.7539 4.61799 12.2158 4.29727 12.6521C4.29065 12.6607 4.28156 12.6672 4.27121 12.6706C4.26086 12.674 4.24972 12.6741 4.23927 12.6711C2.74599 12.2114 1.34167 11.5013 0.0862687 10.5711C0.0801161 10.5664 0.0749866 10.5606 0.0712011 10.5539C0.0674156 10.5472 0.0650556 10.5398 0.0642687 10.5321C-0.2763 7.1849 0.597475 3.82679 2.52627 1.07009C2.53151 1.06167 2.53918 1.05505 2.54827 1.05109C3.62637 0.556185 4.76424 0.203563 5.93327 0.00208619C5.94383 0.000602384 5.9546 0.00227987 5.96421 0.00690704C5.97382 0.0115342 5.98184 0.0189038 5.98727 0.0280862C6.14565 0.308373 6.28853 0.597141 6.41527 0.893086C7.67473 0.702041 8.95581 0.702041 10.2153 0.893086C10.3414 0.597867 10.4822 0.30917 10.6373 0.0280862C10.6426 0.017409 10.6516 0.00895666 10.6626 0.00420468C10.6735 -0.000547289 10.6858 -0.00129708 10.6973 0.00208619C11.8663 0.204234 13.0041 0.55718 14.0823 1.05209C14.0918 1.05585 14.0996 1.06296 14.1043 1.07209L14.0973 1.07109ZM7.04827 6.97109C7.06139 6.7629 7.03318 6.55418 6.96527 6.35695C6.89737 6.15972 6.7911 5.97787 6.6526 5.8219C6.51409 5.66592 6.3461 5.53889 6.15828 5.44813C5.97046 5.35737 5.76654 5.30468 5.55827 5.29309C5.13795 5.31759 4.74451 5.50779 4.46425 5.82199C4.18399 6.13618 4.03978 6.54871 4.06327 6.96909C4.04244 7.3888 4.18756 7.79987 4.4673 8.11347C4.74703 8.42707 5.13891 8.61802 5.55827 8.64509C5.97841 8.62033 6.37159 8.43001 6.65164 8.11585C6.93169 7.80168 7.07576 7.3893 7.05227 6.96909L7.04827 6.97109ZM12.5743 6.97109C12.5874 6.7629 12.5592 6.55418 12.4913 6.35695C12.4234 6.15972 12.3171 5.97787 12.1786 5.8219C12.0401 5.66592 11.8721 5.53889 11.6843 5.44813C11.4965 5.35737 11.2925 5.30468 11.0843 5.29309C10.664 5.31759 10.2705 5.50779 9.99025 5.82199C9.70999 6.13618 9.56578 6.54871 9.58927 6.96909C9.56844 7.3888 9.71356 7.79987 9.9933 8.11347C10.273 8.42707 10.6649 8.61802 11.0843 8.64509C11.2926 8.6336 11.4966 8.58109 11.6847 8.49056C11.8727 8.40004 12.0409 8.27328 12.1798 8.11756C12.3187 7.96185 12.4255 7.78024 12.4941 7.58315C12.5626 7.38607 12.5916 7.17739 12.5793 6.96909L12.5743 6.97109Z" fill="currentColor"/>
  </g>
  <defs>
    <clipPath id="clip0_329_171">
      <rect width="16.632" height="12.673" fill="currentColor"/>
    </clipPath>
  </defs>
</svg>
