<svg xmlns="http://www.w3.org/2000/svg" fill="currentColor" viewBox="0 0 16 20">
  <path d="M7.7162 20.0001a.8025.8025 0 0 1-.3652-.0757.9181.9181 0 0 1-.3094-.2381 1.0923 1.0923 0 0 1-.2048-.3599 1.2199 1.2199 0 0 1-.0651-.4248V10.934L.1437 1.1873C.0638 1.0806.0144.9476.0023.8067a.7757.7757 0 0 1 .074-.4058C.1279.2753.2103.1702.3131.099.416.0276.5346-.0068.6541.0001h14.6933c.1195-.0069.2382.0275.341.0988.1028.0713.1852.1764.2368.302a.7767.7767 0 0 1 .0742.4058c-.0121.1409-.0616.2739-.1416.3806l-6.628 9.7467v7.9676a1.2201 1.2201 0 0 1-.065.4248 1.0922 1.0922 0 0 1-.2048.3599.918.918 0 0 1-.3094.2381.8025.8025 0 0 1-.3653.0757h-.569Zm.2831-9.571 6.0809-8.9995H1.9184l6.081 8.9995Z"/>
</svg>