<svg xmlns="http://www.w3.org/2000/svg" width="207.953" height="43" viewBox="0 0 207.953 43">
  <defs>
    <linearGradient id="gradient" x1="0%" y1="0%" x2="0%" y2="100%">
      <stop offset="0%" style="stop-color: var(--start-color, rgb(255, 255, 0))" />
      <stop offset="100%" style="stop-color: var(--end-color, rgb(255, 0, 0))" />
    </linearGradient>
  </defs>
  <g id="blockchain_4" transform="translate(13481.999 19898)" >
    <path  id="Path_15943" data-name="Path 15943" d="M14457.249-2701.726s3.777,2.136,5.611,3.181,1.021.591,1.721,1a28.78,28.78,0,0,0,11.589,3c8.32-.13,16.205-6.712,19.858-7.183s.725,25.124.725,25.124h-42.638v-17.458Z" transform="translate(-27799.258 -17194.635)" />
    <path id="Path_15944" data-name="Path 15944" d="M14456.356-2676.608s4.67-2.136,6.5-3.181,1.021-.591,1.721-1a28.78,28.78,0,0,1,11.589-3c8.32.13,16.205,6.712,19.858,7.183s.725-25.124.725-25.124h-42.638v17.458Z" transform="translate(-27799.258 -17180.031)" />
    <g id="Group_9598" data-name="Group 9598" transform="translate(-13481.999 -19898)">
      <ellipse id="E-01" cx="21.452" cy="21.5" rx="21.452" ry="21.5" />
      <ellipse id="E-01-2" data-name="E-01" cx="21.452" cy="21.5" rx="21.452" ry="21.5" transform="translate(55.048)" />
      <path id="Path_15753" data-name="Path 15753" d="M14457.249-2701.726s3.777,2.136,5.611,3.181,1.021.591,1.721,1a28.78,28.78,0,0,0,11.589,3c8.32-.13,16.205-6.712,19.858-7.183s.725,25.124.725,25.124h-42.638v-17.458Z" transform="translate(-14427.308 2703.572)" />
      <path id="Path_15754" data-name="Path 15754" d="M14456.356-2676.608s4.67-2.136,6.5-3.181,1.021-.591,1.721-1a28.78,28.78,0,0,1,11.589-3c8.32.13,16.205,6.712,19.858,7.183s.725-25.124.725-25.124h-42.638v17.458Z" transform="translate(-14427.308 2718.176)" />
    </g>
    <g id="Group_9599" data-name="Group 9599" transform="translate(-13426.951 -19898)">
      <ellipse id="E-01-3" data-name="E-01" cx="21.452" cy="21.5" rx="21.452" ry="21.5" />
      <ellipse id="E-01-4" data-name="E-01" cx="21.452" cy="21.5" rx="21.452" ry="21.5" transform="translate(55.048)" />
      <path id="Path_15753-2" data-name="Path 15753" d="M14457.249-2701.726s3.777,2.136,5.611,3.181,1.021.591,1.721,1a28.78,28.78,0,0,0,11.589,3c8.32-.13,16.205-6.712,19.858-7.183s.725,25.124.725,25.124h-42.638v-17.458Z" transform="translate(-14427.308 2703.572)" />
      <path id="Path_15754-2" data-name="Path 15754" d="M14456.356-2676.608s4.67-2.136,6.5-3.181,1.021-.591,1.721-1a28.78,28.78,0,0,1,11.589-3c8.32.13,16.205,6.712,19.858,7.183s.725-25.124.725-25.124h-42.638v17.458Z" transform="translate(-14427.308 2718.176)" />
    </g>
    <ellipse id="E-01-5" data-name="E-01" cx="21.452" cy="21.5" rx="21.452" ry="21.5" transform="translate(-13316.951 -19898)" />
  </g>
</svg>
