<svg xmlns="http://www.w3.org/2000/svg" width="207.95" height="43" viewBox="0 0 207.95 43">
    <path id="Union_21" data-name="Union 21" d="M177.575,41.058c-4.011-1.4-11.161-6.762-18.666-6.88a28.786,28.786,0,0,0-11.589,3c-.7.408.113-.046-1.721,1-.432.246-1.02.552-1.668.877a21.448,21.448,0,0,1-20.083,2.518.781.781,0,0,1-.08-.006c-3.654-.472-11.539-7.053-19.859-7.184a28.786,28.786,0,0,0-11.589,3c-.7.408.112-.046-1.721,1-.747.425-1.963,1.032-3.144,1.6A21.457,21.457,0,0,1,68.8,41.574a.773.773,0,0,1-.081-.006c-3.653-.472-11.538-7.053-19.858-7.184a28.786,28.786,0,0,0-11.588,3c-.7.408.112-.046-1.721,1-.746.425-1.963,1.031-3.142,1.6A21.486,21.486,0,1,1,21.452,0a21.329,21.329,0,0,1,13.03,4.419l1.071.609c1.833,1.046,1.021.591,1.721,1a28.785,28.785,0,0,0,11.588,3c6.427-.1,12.593-4.05,16.751-6.06A21.427,21.427,0,0,1,89.529,4.419l1.071.609c1.833,1.046,1.021.591,1.721,1a28.785,28.785,0,0,0,11.589,3c6.425-.1,12.59-4.048,16.748-6.059a21.453,21.453,0,0,1,19.3-1.255l.031-.076.8.454a21.412,21.412,0,0,1,2.539,1.438c.831.471,1.658.941,2.269,1.289,1.833,1.046,1.021.591,1.721,1a28.771,28.771,0,0,0,11.589,3c7.5-.117,14.653-5.482,18.664-6.88A21.49,21.49,0,1,1,186.5,43,21.333,21.333,0,0,1,177.575,41.058Z" fill="url(#gradient)" />
    <defs>
        <linearGradient id="gradient" x1="0%" y1="0%" x2="0%" y2="100%">
            <stop offset="0%" style="stop-color: var(--start-color, rgb(255, 255, 0))" />
            <stop offset="100%" style="stop-color: var(--end-color, rgb(255, 0, 0))" />
        </linearGradient>
    </defs>
</svg>
