<svg width="209" height="43" viewBox="0 0 209 43" fill="none" xmlns="http://www.w3.org/2000/svg">
  <path d="M197.44 39.9889C194.46 41.7601 191.094 42.7825 187.633 42.9685C184.171 43.1545 180.716 42.4986 177.563 41.0569C176.362 40.6377 174.879 39.863 173.19 38.9802C169.238 36.9153 164.154 34.2589 158.897 34.1769C154.866 34.3538 150.918 35.3759 147.308 37.1769C147.061 37.3207 147.002 37.3574 146.949 37.3905C146.852 37.4512 146.775 37.4994 145.588 38.1769C145.157 38.4229 144.568 38.7289 143.921 39.0529C141.039 41.0935 137.698 42.3909 134.194 42.8302C130.691 43.2694 127.133 42.8369 123.837 41.5709C123.829 41.5708 123.82 41.5705 123.812 41.57L123.806 41.5697C123.791 41.5688 123.776 41.5674 123.761 41.5656L123.756 41.5649C122.409 41.391 120.487 40.3869 118.181 39.1818C114.23 37.1177 109.151 34.4637 103.897 34.3809C99.8662 34.5578 95.9179 35.5799 92.3078 37.3809C92.0619 37.5242 92.0027 37.5612 91.9499 37.5942C91.8523 37.6551 91.7767 37.7023 90.5868 38.3809C89.8398 38.8069 88.6208 39.4139 87.4388 39.9809C84.1283 41.9614 80.3424 43.0065 76.4848 43.0049H75.2358L75.1358 42.9989H75.1038L74.8398 42.9809H74.8078L74.7078 42.9729H74.6718L74.5718 42.9649H74.5298L74.4408 42.9569H74.3958L74.3108 42.9489H74.2638L74.1788 42.9399H74.1338L74.0448 42.9299H74.0058L73.9058 42.9189H73.8718L73.7718 42.9059H73.7468C73.5708 42.8833 73.3954 42.8586 73.2208 42.8319H73.2018L73.0908 42.8149H73.0658L72.9608 42.7979H72.9348L72.8298 42.7799H72.8048L72.6988 42.7609H72.6748L72.5648 42.7409H72.5478L72.4278 42.7179H72.4198C72.1584 42.6679 71.8991 42.6129 71.6418 42.5529H71.6298L71.5138 42.5259H71.4988L71.3848 42.3949H71.3678L71.2568 42.3679H71.2398L71.1288 42.3399H71.1128L70.9968 42.3099H70.9868C70.7754 42.2539 70.5654 42.1949 70.3568 42.1329L70.3378 42.1269L70.2378 42.0959L70.2068 42.0859L70.1168 42.0579L70.0798 42.0469L69.9988 42.0049L69.8788 41.9659L69.8348 41.9519L69.7598 41.9269L69.7128 41.9119L69.6418 41.8879L69.5908 41.8709L69.4698 41.8299L69.4198 41.8119C69.2468 41.7509 69.0728 41.6879 68.9018 41.6239L68.7938 41.5829C68.7678 41.5829 68.7408 41.5829 68.7138 41.5769C67.3671 41.4033 65.4454 40.3993 63.1388 39.1941C59.1883 37.13 54.1087 34.476 48.8558 34.3939C44.8255 34.5705 40.8774 35.5926 37.2678 37.3939C37.0221 37.5372 36.9626 37.5742 36.9097 37.6071C36.8119 37.668 36.7363 37.7151 35.5468 38.3939C34.8008 38.8189 33.5868 39.4239 32.4078 39.9939C29.5639 41.6726 26.3713 42.6731 23.0781 42.9178C19.7848 43.1625 16.4795 42.6448 13.4187 41.4049C10.358 40.165 7.62425 38.2362 5.42983 35.7684C3.23541 33.3006 1.63936 30.3602 0.765646 27.1755C-0.108069 23.9909 -0.235939 20.6476 0.39197 17.4055C1.01988 14.1634 2.38666 11.1097 4.38618 8.4815C6.38569 5.8533 8.96411 3.72137 11.9212 2.25128C14.8783 0.781188 18.1344 0.012511 21.4368 0.00494478C26.1491 -0.00216376 30.731 1.55175 34.4668 4.42395L35.5378 5.03195C36.7352 5.71525 36.8039 5.75802 36.9027 5.81953C36.9551 5.85219 37.016 5.89013 37.2588 6.03195C40.8684 7.83329 44.8165 8.85541 48.8468 9.03195C54.1001 8.95025 59.1799 6.29602 63.1296 4.23228C64.0143 3.77003 64.8422 3.3374 65.6028 2.96995C66.1894 2.62328 66.7938 2.30428 67.4158 2.01295H67.4228L67.6508 1.90795H67.6618L67.8858 1.80795L67.9028 1.79995L68.1258 1.69995L68.1428 1.69295L68.3878 1.59095L68.6068 1.50295L68.6308 1.49295L68.7378 1.45095H68.7438L68.8498 1.40995L68.8768 1.39995L68.9848 1.35595L69.0938 1.31595L69.1218 1.30595L69.2218 1.27095L69.2378 1.26495L69.3378 1.22795L69.3738 1.21495L69.4628 1.18395L69.4818 1.17695L69.5868 1.14095L69.6198 1.12995L69.7108 1.09895L69.8368 1.05695L69.8708 1.04595L69.9588 1.01795L69.9848 1.00495L70.0848 0.971946L70.1258 0.964946L70.2128 0.937946L70.2388 0.929946L70.3438 0.897946L70.3808 0.886946L70.4638 0.861946L70.4918 0.854946L70.5918 0.824946L70.6328 0.812946L70.7068 0.791946L70.7468 0.780946L70.8468 0.753946L70.8898 0.741946L70.9638 0.721946L71.0018 0.711946L71.1018 0.684946L71.1408 0.674946L71.2198 0.654946L71.2558 0.645946L71.3558 0.619946L71.4048 0.610946L71.4848 0.591946L71.5208 0.582946L71.6268 0.557946L71.6638 0.548946L71.7438 0.530946L71.7848 0.522946L71.8848 0.499946L71.9208 0.491946L72.0038 0.473946L72.0388 0.466946L72.1468 0.444946L72.1848 0.436946L72.2708 0.419946L72.3048 0.412946L72.4138 0.391946L72.4468 0.384946L72.5328 0.368946L72.5658 0.362946L72.6768 0.342946L72.7088 0.336946L72.7968 0.321946L72.8328 0.314946L72.9428 0.295946L72.9748 0.290946L73.0618 0.276946L73.0978 0.270946L73.2088 0.253946H73.2398L73.3288 0.240946L73.3648 0.230946L73.4748 0.214946H73.5078L73.5948 0.198946L73.6328 0.193946L73.7448 0.178946H73.7708L73.8708 0.166946H73.9048L74.0148 0.145946H74.0398L74.1398 0.134946H74.1738L74.2848 0.116944H74.3088L74.4088 0.106944H74.4428L74.5578 0.095944H74.5818L74.6818 0.0879439H74.7178L74.8338 0.0789439H74.8538L74.9538 0.071944H74.9878L75.1068 0.063944H75.1208L75.2298 0.0569449H75.2608L75.3808 0.0509449H75.3938L75.5038 0.0459449H76.4848C81.1909 0.0276148 85.7711 1.56616 89.5118 4.42195L90.5858 5.03295C91.7832 5.71627 91.8519 5.75902 91.9507 5.82054C92.0031 5.85319 92.0641 5.89113 92.3068 6.03295C95.9168 7.83404 99.8652 8.85614 103.896 9.03295C109.149 8.95121 114.228 6.29737 118.178 4.23312C119.061 3.77187 119.887 3.34005 120.647 2.97295C123.541 1.26751 126.795 0.265539 130.147 0.0477305C133.5 -0.170078 136.856 0.40236 139.947 1.71895L139.978 1.64295L140.778 2.09395C141.659 2.51622 142.511 2.99835 143.327 3.53695C144.157 4.00695 144.982 4.47595 145.592 4.82295C146.787 5.5051 146.857 5.54887 146.955 5.61022C147.008 5.64295 147.068 5.68068 147.312 5.82295C150.922 7.62443 154.87 8.64655 158.901 8.82295C164.151 8.74105 169.231 6.08726 173.182 4.02314C174.876 3.13844 176.362 2.36207 177.566 1.94295C181.105 0.324071 185.018 -0.30096 188.885 0.134879C192.752 0.570717 196.428 2.05099 199.518 4.41695L200.592 5.02795C211.898 14.7605 210.713 33.6163 197.44 39.9889Z" fill="url(#gradient)"/>
  <path d="M197.44 39.9889C194.46 41.7601 191.094 42.7825 187.633 42.9685C184.171 43.1545 180.716 42.4986 177.563 41.0569C176.362 40.6377 174.879 39.863 173.19 38.9802C169.238 36.9153 164.154 34.2589 158.897 34.1769C154.866 34.3538 150.918 35.3759 147.308 37.1769C147.061 37.3207 147.002 37.3574 146.949 37.3905C146.852 37.4512 146.775 37.4994 145.588 38.1769C145.157 38.4229 144.568 38.7289 143.921 39.0529C141.039 41.0935 137.698 42.3909 134.194 42.8302C130.691 43.2694 127.133 42.8369 123.837 41.5709C123.829 41.5708 123.82 41.5705 123.812 41.57L123.806 41.5697C123.791 41.5688 123.776 41.5674 123.761 41.5656L123.756 41.5649C122.409 41.391 120.487 40.3869 118.181 39.1818C114.23 37.1177 109.151 34.4637 103.897 34.3809C99.8662 34.5578 95.9179 35.5799 92.3078 37.3809C92.0619 37.5242 92.0027 37.5612 91.9499 37.5942C91.8523 37.6551 91.7767 37.7023 90.5868 38.3809C89.8398 38.8069 88.6208 39.4139 87.4388 39.9809C84.1283 41.9614 80.3424 43.0065 76.4848 43.0049H75.2358L75.1358 42.9989H75.1038L74.8398 42.9809H74.8078L74.7078 42.9729H74.6718L74.5718 42.9649H74.5298L74.4408 42.9569H74.3958L74.3108 42.9489H74.2638L74.1788 42.9399H74.1338L74.0448 42.9299H74.0058L73.9058 42.9189H73.8718L73.7718 42.9059H73.7468C73.5708 42.8833 73.3954 42.8586 73.2208 42.8319H73.2018L73.0908 42.8149H73.0658L72.9608 42.7979H72.9348L72.8298 42.7799H72.8048L72.6988 42.7609H72.6748L72.5648 42.7409H72.5478L72.4278 42.7179H72.4198C72.1584 42.6679 71.8991 42.6129 71.6418 42.5529H71.6298L71.5138 42.5259H71.4988L71.3848 42.3949H71.3678L71.2568 42.3679H71.2398L71.1288 42.3399H71.1128L70.9968 42.3099H70.9868C70.7754 42.2539 70.5654 42.1949 70.3568 42.1329L70.3378 42.1269L70.2378 42.0959L70.2068 42.0859L70.1168 42.0579L70.0798 42.0469L69.9988 42.0049L69.8788 41.9659L69.8348 41.9519L69.7598 41.9269L69.7128 41.9119L69.6418 41.8879L69.5908 41.8709L69.4698 41.8299L69.4198 41.8119C69.2468 41.7509 69.0728 41.6879 68.9018 41.6239L68.7938 41.5829C68.7678 41.5829 68.7408 41.5829 68.7138 41.5769C67.3671 41.4033 65.4454 40.3993 63.1388 39.1941C59.1883 37.13 54.1087 34.476 48.8558 34.3939C44.8255 34.5705 40.8774 35.5926 37.2678 37.3939C37.0221 37.5372 36.9626 37.5742 36.9097 37.6071C36.8119 37.668 36.7363 37.7151 35.5468 38.3939C34.8008 38.8189 33.5868 39.4239 32.4078 39.9939C29.5639 41.6726 26.3713 42.6731 23.0781 42.9178C19.7848 43.1625 16.4795 42.6448 13.4187 41.4049C10.358 40.165 7.62425 38.2362 5.42983 35.7684C3.23541 33.3006 1.63936 30.3602 0.765646 27.1755C-0.108069 23.9909 -0.235939 20.6476 0.39197 17.4055C1.01988 14.1634 2.38666 11.1097 4.38618 8.4815C6.38569 5.8533 8.96411 3.72137 11.9212 2.25128C14.8783 0.781188 18.1344 0.012511 21.4368 0.00494478C26.1491 -0.00216376 30.731 1.55175 34.4668 4.42395L35.5378 5.03195C36.7352 5.71525 36.8039 5.75802 36.9027 5.81953C36.9551 5.85219 37.016 5.89013 37.2588 6.03195C40.8684 7.83329 44.8165 8.85541 48.8468 9.03195C54.1001 8.95025 59.1799 6.29602 63.1296 4.23228C64.0143 3.77003 64.8422 3.3374 65.6028 2.96995C66.1894 2.62328 66.7938 2.30428 67.4158 2.01295H67.4228L67.6508 1.90795H67.6618L67.8858 1.80795L67.9028 1.79995L68.1258 1.69995L68.1428 1.69295L68.3878 1.59095L68.6068 1.50295L68.6308 1.49295L68.7378 1.45095H68.7438L68.8498 1.40995L68.8768 1.39995L68.9848 1.35595L69.0938 1.31595L69.1218 1.30595L69.2218 1.27095L69.2378 1.26495L69.3378 1.22795L69.3738 1.21495L69.4628 1.18395L69.4818 1.17695L69.5868 1.14095L69.6198 1.12995L69.7108 1.09895L69.8368 1.05695L69.8708 1.04595L69.9588 1.01795L69.9848 1.00495L70.0848 0.971946L70.1258 0.964946L70.2128 0.937946L70.2388 0.929946L70.3438 0.897946L70.3808 0.886946L70.4638 0.861946L70.4918 0.854946L70.5918 0.824946L70.6328 0.812946L70.7068 0.791946L70.7468 0.780946L70.8468 0.753946L70.8898 0.741946L70.9638 0.721946L71.0018 0.711946L71.1018 0.684946L71.1408 0.674946L71.2198 0.654946L71.2558 0.645946L71.3558 0.619946L71.4048 0.610946L71.4848 0.591946L71.5208 0.582946L71.6268 0.557946L71.6638 0.548946L71.7438 0.530946L71.7848 0.522946L71.8848 0.499946L71.9208 0.491946L72.0038 0.473946L72.0388 0.466946L72.1468 0.444946L72.1848 0.436946L72.2708 0.419946L72.3048 0.412946L72.4138 0.391946L72.4468 0.384946L72.5328 0.368946L72.5658 0.362946L72.6768 0.342946L72.7088 0.336946L72.7968 0.321946L72.8328 0.314946L72.9428 0.295946L72.9748 0.290946L73.0618 0.276946L73.0978 0.270946L73.2088 0.253946H73.2398L73.3288 0.240946L73.3648 0.230946L73.4748 0.214946H73.5078L73.5948 0.198946L73.6328 0.193946L73.7448 0.178946H73.7708L73.8708 0.166946H73.9048L74.0148 0.145946H74.0398L74.1398 0.134946H74.1738L74.2848 0.116944H74.3088L74.4088 0.106944H74.4428L74.5578 0.095944H74.5818L74.6818 0.0879439H74.7178L74.8338 0.0789439H74.8538L74.9538 0.071944H74.9878L75.1068 0.063944H75.1208L75.2298 0.0569449H75.2608L75.3808 0.0509449H75.3938L75.5038 0.0459449H76.4848C81.1909 0.0276148 85.7711 1.56616 89.5118 4.42195L90.5858 5.03295C91.7832 5.71627 91.8519 5.75902 91.9507 5.82054C92.0031 5.85319 92.0641 5.89113 92.3068 6.03295C95.9168 7.83404 99.8652 8.85614 103.896 9.03295C109.149 8.95121 114.228 6.29737 118.178 4.23312C119.061 3.77187 119.887 3.34005 120.647 2.97295C123.541 1.26751 126.795 0.265539 130.147 0.0477305C133.5 -0.170078 136.856 0.40236 139.947 1.71895L139.978 1.64295L140.778 2.09395C141.659 2.51622 142.511 2.99835 143.327 3.53695C144.157 4.00695 144.982 4.47595 145.592 4.82295C146.787 5.5051 146.857 5.54887 146.955 5.61022C147.008 5.64295 147.068 5.68068 147.312 5.82295C150.922 7.62443 154.87 8.64655 158.901 8.82295C164.151 8.74105 169.231 6.08726 173.182 4.02314C174.876 3.13844 176.362 2.36207 177.566 1.94295C181.105 0.324071 185.018 -0.30096 188.885 0.134879C192.752 0.570717 196.428 2.05099 199.518 4.41695L200.592 5.02795C211.898 14.7605 210.713 33.6163 197.44 39.9889Z" fill="url(#gradient)"/>
    <defs>
        <linearGradient id="gradient" x1="0%" y1="0%" x2="0%" y2="100%">
            <stop offset="0%" style="stop-color: var(--start-color, rgb(255, 255, 0))" />
            <stop offset="100%" style="stop-color: var(--end-color, rgb(255, 0, 0))" />
        </linearGradient>
    </defs>
</svg>
