<svg viewBox="0 0 18 13" fill="currentColor" xmlns="http://www.w3.org/2000/svg">
<g clip-path="url(#clip0_329_568)">
<path d="M7.91558 10.5643C8.01744 10.5645 8.11695 10.5949 8.20153 10.6516C8.28611 10.7084 8.35197 10.7889 8.39076 10.8831C8.42956 10.9773 8.43956 11.0809 8.41949 11.1807C8.39943 11.2806 8.3502 11.3723 8.27803 11.4442C8.20587 11.516 8.11401 11.5649 8.01407 11.5846C7.91413 11.6043 7.81061 11.5939 7.71658 11.5547C7.62255 11.5155 7.54225 11.4494 7.48582 11.3646C7.4294 11.2798 7.39939 11.1801 7.39958 11.0783C7.39971 11.0107 7.41317 10.9437 7.43917 10.8813C7.46517 10.8188 7.50322 10.7621 7.55113 10.7144C7.59905 10.6667 7.65589 10.6289 7.71843 10.6031C7.78096 10.5773 7.84795 10.5642 7.91558 10.5643ZM15.9996 7.37829C15.8978 7.37809 15.7983 7.34772 15.7137 7.29101C15.6292 7.2343 15.5633 7.1538 15.5245 7.05968C15.4857 6.96556 15.4756 6.86204 15.4956 6.7622C15.5156 6.66237 15.5647 6.5707 15.6368 6.49878C15.7088 6.42685 15.8006 6.3779 15.9005 6.35811C16.0004 6.33832 16.1039 6.34858 16.1979 6.38759C16.2919 6.42659 16.3723 6.4926 16.4289 6.57727C16.4854 6.66194 16.5156 6.76147 16.5156 6.86329C16.5156 6.931 16.5022 6.99805 16.4763 7.0606C16.4503 7.12315 16.4123 7.17997 16.3644 7.2278C16.3165 7.27564 16.2596 7.31355 16.197 7.33937C16.1344 7.36519 16.0673 7.37842 15.9996 7.37829ZM15.9996 5.27029C15.7467 5.26959 15.4972 5.32926 15.272 5.44436C15.0468 5.55946 14.8524 5.72665 14.7048 5.93204C14.5572 6.13742 14.4608 6.37507 14.4235 6.62522C14.3863 6.87538 14.4092 7.13081 14.4906 7.37029L9.22758 10.1703C9.07026 9.94192 8.85596 9.75868 8.60593 9.63873C8.35591 9.51879 8.07886 9.46632 7.80229 9.48654C7.52572 9.50676 7.25925 9.59896 7.02933 9.75398C6.7994 9.90901 6.61402 10.1215 6.49158 10.3703L1.75958 7.88329C1.47542 7.67343 1.24962 7.3944 1.10365 7.0727C0.957684 6.75101 0.896386 6.39734 0.925584 6.04529C0.91695 5.89114 0.945196 5.73716 1.00798 5.59612C1.07076 5.45507 1.16627 5.33103 1.28658 5.23429C1.35757 5.19822 1.43667 5.1811 1.51621 5.18461C1.59576 5.18811 1.67305 5.21211 1.74058 5.25429L1.77158 5.27129C3.02458 5.93129 7.12458 8.09029 7.29758 8.17129C7.43116 8.24795 7.5839 8.28473 7.73773 8.27729C7.89156 8.26984 8.04003 8.21848 8.16558 8.12929L16.6406 3.72529C16.7153 3.70131 16.781 3.65536 16.8291 3.59346C16.8773 3.53156 16.9057 3.45657 16.9106 3.37829C16.905 3.30126 16.8776 3.22742 16.8316 3.16543C16.7855 3.10343 16.7227 3.05586 16.6506 3.02829C16.1686 2.79729 15.4276 2.45129 14.7046 2.11229C13.1596 1.38929 11.4046 0.569287 10.6406 0.166287C10.4434 0.0547254 10.2207 -0.00390625 9.99408 -0.00390625C9.76751 -0.00390625 9.54479 0.0547254 9.34758 0.166287L9.16258 0.258287C5.69958 1.97329 1.06958 4.26729 0.805584 4.42829C0.553842 4.60462 0.348877 4.83966 0.208434 5.11305C0.067992 5.38644 -0.00369399 5.68995 -0.000416421 5.99729C-0.0402612 6.53023 0.0626026 7.06417 0.297592 7.54417C0.532582 8.02416 0.891211 8.43289 1.33658 8.72829L6.33658 11.3063C6.39294 11.703 6.59685 12.0639 6.90761 12.317C7.21838 12.57 7.61313 12.6965 8.01307 12.6712C8.41301 12.646 8.78872 12.4708 9.06519 12.1808C9.34167 11.8907 9.49857 11.507 9.50458 11.1063L15.0116 8.12129C15.2115 8.27655 15.4455 8.38196 15.6942 8.42877C15.9429 8.47558 16.1992 8.46245 16.4419 8.39047C16.6845 8.31848 16.9065 8.18972 17.0895 8.01484C17.2725 7.83997 17.4111 7.62401 17.494 7.38486C17.5769 7.14572 17.6016 6.89027 17.5661 6.63967C17.5305 6.38908 17.4358 6.15056 17.2897 5.94387C17.1437 5.73717 16.9504 5.56826 16.7261 5.45113C16.5017 5.33399 16.2527 5.272 15.9996 5.27029Z" fill="currentColor"/>
</g>
<defs>
<clipPath id="clip0_329_568">
<rect width="17.588" height="12.672" fill="currentColor"/>
</clipPath>
</defs>
</svg>
