<svg xmlns="http://www.w3.org/2000/svg" viewBox="0 0 962 960">
  <path fill="currentColor" stroke="currentColor" stroke-width="2" d="M405.4 505.1c46.8 26.99 70.35 40.49 96 40.63 25.95 0 49.5-13.5 96.3-40.49l299.55-172.16a43.49 43.49 0 0 0 0-75.43L597.7 85.5c-46.95-27-70.5-40.5-96.15-40.5-25.8 0-49.2 13.5-96.15 40.5L147.85 233.8c-1.95 1.06-3 1.5-3.75 2.1A289.16 289.16 0 0 0 1 483.36v8.7a289.08 289.08 0 0 0 142.8 247.3l3.75 2.09 161.4 93.13c93.9 54.29 141 81.43 192.6 81.43 51.6 0 98.55-27 192.6-81.28l170.4-98.08c47.1-27.14 70.5-40.79 83.55-63.13C961 651 961 624 961 569.58V464.6a41.54 41.54 0 0 0-62.25-35.99l-349.2 200.66c-23.55 13.5-35.25 20.24-48 20.24-12.9 0-24.6-6.75-48-20.24L217.15 493.7c-12-6.75-17.85-10.2-22.5-10.8a24 24 0 0 0-25.5 14.7c-1.8 4.5-1.65 11.4-1.5 25.04 0 10.05 0 15 .9 19.5 2.1 10.5 7.5 19.8 15.45 26.84 3.6 3 7.95 5.55 16.5 10.5l252.9 145.91c23.4 13.5 35.25 20.4 48 20.4 13.05 0 24.75-6.75 48.3-20.4l309.75-178.46c7.95-4.64 12-6.9 15-5.24 3 1.8 3 6.44 3 15.6v47.68c0 13.5 0 20.4-3.15 25.94-3.3 5.55-9.15 9-21 15.75L597.85 793.93c-46.95 27-70.5 40.64-96.3 40.64-25.8 0-49.5-13.5-96.3-40.64L166.15 655.8l-1.5-.9a164.08 164.08 0 0 1-81.3-140.97V468.8a89.82 89.82 0 0 1 44.7-77.68 79.21 79.21 0 0 1 79.35 0l198 114.12v-.15Z"/>
</svg>