<svg xmlns="http://www.w3.org/2000/svg" viewBox="0 0 18.619 15.953">
  <path id="link_24dp_FILL0_wght300_GRAD0_opsz24" d="M107.8-654.555h-3.539a4.6,4.6,0,0,1-3.015-1.022A3.093,3.093,0,0,1,100-658.047a3.094,3.094,0,0,1,1.246-2.471,4.6,4.6,0,0,1,3.015-1.022H107.8v1.154h-3.539a3.08,3.08,0,0,0-2.018.685,2.071,2.071,0,0,0-.835,1.654,2.071,2.071,0,0,0,.835,1.654,3.08,3.08,0,0,0,2.018.685H107.8Zm-2.4-2.915v-1.154h7.042v1.154Zm4.64,2.915v-1.154h3.539a3.08,3.08,0,0,0,2.018-.685,2.071,2.071,0,0,0,.835-1.654,2.071,2.071,0,0,0-.835-1.654,3.08,3.08,0,0,0-2.018-.685h-3.539v-1.154h3.539a4.6,4.6,0,0,1,3.015,1.021,3.093,3.093,0,0,1,1.246,2.471,3.094,3.094,0,0,1-1.246,2.471,4.6,4.6,0,0,1-3.015,1.022Z" transform="matrix(0.819, 0.574, -0.574, 0.819, -457.353, 484.544)" fill="#e8eaed"/>
</svg>
