<svg xmlns="http://www.w3.org/2000/svg" viewBox="0 0 15.911 14">
  <path fill="currentColor" d="M12.048 4.279a1.059 1.059 0 0 0-1 0L8.724 5.65l-1.579.872-2.284 1.371a1.059 1.059 0 0 1-1 0l-1.784-1.08a1.013 1.013 0 0 1-.5-.872V3.864a1.025 1.025 0 0 1 .5-.872l1.787-1.039a1.059 1.059 0 0 1 1 0l1.786 1.08a1.013 1.013 0 0 1 .5.872v1.371l1.579-.914V2.95a1.025 1.025 0 0 0-.5-.872L4.9.125a1.059 1.059 0 0 0-1 0L.5 2.119a.914.914 0 0 0-.5.831v3.905a1.025 1.025 0 0 0 .5.872L3.864 9.68a1.059 1.059 0 0 0 1 0l2.281-1.33 1.579-.914 2.285-1.329a1.059 1.059 0 0 1 1 0l1.786 1.039a1.013 1.013 0 0 1 .5.872V10.1a1.025 1.025 0 0 1-.5.872l-1.745 1.039a1.059 1.059 0 0 1-1 0l-1.786-1.043a1.013 1.013 0 0 1-.5-.872v-1.33l-1.577.914v1.371a1.025 1.025 0 0 0 .5.872l3.365 1.953a1.058 1.058 0 0 0 1 0l3.365-1.953a1.013 1.013 0 0 0 .5-.872V7.1a1.025 1.025 0 0 0-.5-.872Z"/>
</svg>