<svg viewBox="0 0 23 23" fill="currentColor" xmlns="http://www.w3.org/2000/svg">
<g clip-path="url(#clip0_329_1075)">
<path d="M0 5.38672V20.8767C0.00105709 21.4121 0.214217 21.9253 0.592812 22.3039C0.971407 22.6825 1.48459 22.8957 2.02 22.8967H20.878C21.4134 22.8957 21.9266 22.6825 22.3052 22.3039C22.6838 21.9253 22.8969 21.4121 22.898 20.8767V5.38672H0ZM12.123 16.6867V19.5287C12.123 19.7073 12.052 19.8786 11.9257 20.005C11.7994 20.1313 11.6281 20.2022 11.4495 20.2022C11.2709 20.2022 11.0996 20.1313 10.9733 20.005C10.847 19.8786 10.776 19.7073 10.776 19.5287V16.6867C9.87835 16.5189 9.07575 16.0218 8.52545 15.2931C7.97516 14.5643 7.71685 13.6563 7.80114 12.747C7.88543 11.8376 8.30625 10.9926 8.98112 10.3774C9.656 9.76217 10.5363 9.42115 11.4495 9.42115C12.3627 9.42115 13.243 9.76217 13.9179 10.3774C14.5928 10.9926 15.0136 11.8376 15.0979 12.747C15.1821 13.6563 14.9238 14.5643 14.3735 15.2931C13.8233 16.0218 13.0206 16.5189 12.123 16.6867Z" fill="currentColor"/>
<path d="M22.9 2.02V4.04H0V2.02C0.00105709 1.48459 0.214217 0.971407 0.592812 0.592812C0.971407 0.214217 1.48459 0.00105709 2.02 0H20.878C21.4138 0.000528361 21.9275 0.213455 22.3065 0.592107C22.6855 0.970759 22.8989 1.48424 22.9 2.02Z" fill="currentColor"/>
<path d="M13.7668 13.0943C13.7668 13.5527 13.6308 14.0008 13.3761 14.3819C13.1214 14.763 12.7593 15.06 12.3358 15.2353C11.9122 15.4105 11.4462 15.4562 10.9967 15.3666C10.5471 15.277 10.1343 15.056 9.81039 14.7316C9.48647 14.4073 9.26603 13.9942 9.17697 13.5445C9.08791 13.0949 9.13422 12.6289 9.31005 12.2056C9.48588 11.7823 9.78332 11.4206 10.1647 11.1664C10.5462 10.9121 10.9944 10.7768 11.4528 10.7773C12.0668 10.7781 12.6554 11.0226 13.0892 11.457C13.5231 11.8915 13.7668 12.4804 13.7668 13.0943Z" fill="currentColor"/>
</g>
<defs>
<clipPath id="clip0_329_1075">
<rect width="22.899" height="22.899" fill="currentColor"/>
</clipPath>
</defs>
</svg>
