<svg viewBox="0 0 24 24" fill="currentColor" xmlns="http://www.w3.org/2000/svg">
  <g clip-path="url(#clip0_329_1072)">
  <g>
  <path d="M22.544 0.6C22.16 0.218354 21.6414 0.00287278 21.1 0H2.042C1.50067 0.000793544 0.981742 0.216187 0.598964 0.598964C0.216187 0.981742 0.000793544 1.50067 0 2.042V21.1C0.000793544 21.6413 0.216187 22.1603 0.598964 22.543C0.981742 22.9258 1.50067 23.1412 2.042 23.142H21.1C21.6415 23.1415 22.1607 22.9262 22.5437 22.5434C22.9267 22.1606 23.1422 21.6415 23.143 21.1V2.042C23.1399 1.50144 22.9248 0.98368 22.544 0.6ZM20.216 7.965L13.586 14.595C13.5245 14.6595 13.4506 14.7109 13.3687 14.746C13.2868 14.7811 13.1986 14.7992 13.1095 14.7992C13.0204 14.7992 12.9322 14.7811 12.8503 14.746C12.7684 14.7109 12.6945 14.6595 12.633 14.595L8.985 10.96L3.885 16.079C3.822 16.1438 3.74668 16.1954 3.66347 16.2308C3.58026 16.2661 3.49083 16.2845 3.40043 16.2848C3.31002 16.2851 3.22046 16.2674 3.137 16.2327C3.05354 16.1979 2.97786 16.1468 2.91441 16.0824C2.85095 16.018 2.80099 15.9416 2.76745 15.8577C2.73392 15.7737 2.71749 15.6839 2.71913 15.5935C2.72077 15.5031 2.74044 15.414 2.777 15.3313C2.81355 15.2486 2.86625 15.174 2.932 15.112L8.513 9.512C8.64323 9.3876 8.8164 9.31819 8.9965 9.31819C9.1766 9.31819 9.34977 9.3876 9.48 9.512L13.11 13.15L19.263 7.01C19.3902 6.88765 19.5603 6.82008 19.7368 6.82179C19.9133 6.82351 20.082 6.89437 20.2068 7.01917C20.3316 7.14397 20.4025 7.31273 20.4042 7.48921C20.4059 7.66569 20.3383 7.8358 20.216 7.963V7.965Z" fill="currentColor"/>
  </g>
  </g>
  <defs>
  <clipPath id="clip0_329_1072">
  <rect width="23.143" height="23.143" fill="currentColor"/>
  </clipPath>
  </defs>
</svg>
