<svg xmlns="http://www.w3.org/2000/svg" viewBox="0 0 14.268 14.268">
  <path id="priority_24dp_FILL0_wght300_GRAD0_opsz24" d="M144.616-805.732a4.451,4.451,0,0,1-3.27-1.346,4.451,4.451,0,0,1-1.346-3.27v-5.036a4.451,4.451,0,0,1,1.346-3.27,4.451,4.451,0,0,1,3.27-1.346h5.036a4.451,4.451,0,0,1,3.27,1.346,4.451,4.451,0,0,1,1.346,3.27v5.036a4.451,4.451,0,0,1-1.346,3.27,4.451,4.451,0,0,1-3.27,1.346Zm1.679-4.067,4.745-4.745-.884-.884-3.861,3.861-1.846-1.846-.884.884Zm-1.679,2.808h5.036a3.233,3.233,0,0,0,2.371-.986,3.233,3.233,0,0,0,.986-2.371v-5.036a3.233,3.233,0,0,0-.986-2.371,3.233,3.233,0,0,0-2.371-.986h-5.036a3.233,3.233,0,0,0-2.371.986,3.233,3.233,0,0,0-.986,2.371v5.036a3.233,3.233,0,0,0,.986,2.371A3.233,3.233,0,0,0,144.616-806.991ZM147.134-812.866Z" transform="translate(-140 820)" fill="#e8eaed"/>
</svg>
