<svg xmlns="http://www.w3.org/2000/svg" viewBox="0 0 11.221 12.982" fill="currentColor">
  <path d="M4.862 12.967a5.4 5.4 0 0 1-3.484-1.854 5.458 5.458 0 0 1-1.379-3.7 5.466 5.466 0 0 1 .45-2.186A5.68 5.68 0 0 1 1.711 3.39l.8.8a4.131 4.131 0 0 0-1.039 1.459 4.491 4.491 0 0 0-.35 1.763 4.386 4.386 0 0 0 1.051 2.9 4.357 4.357 0 0 0 2.689 1.536Zm1.5.014v-1.122a4.635 4.635 0 0 0 2.68-1.57 4.3 4.3 0 0 0 1.06-2.881 4.328 4.328 0 0 0-1.309-3.179A4.328 4.328 0 0 0 5.614 2.92h-.265l1.01 1.01-.788.788-2.359-2.359L5.571 0l.788.788-1.01 1.01h.265a5.414 5.414 0 0 1 3.979 1.631 5.414 5.414 0 0 1 1.631 3.979 5.409 5.409 0 0 1-1.382 3.686 5.591 5.591 0 0 1-3.484 1.888Z"/>
</svg>