<svg xmlns="http://www.w3.org/2000/svg" viewBox="0 0 15.457 15.461">
  <path id="rocket_launch_24dp_FILL0_wght300_GRAD0_opsz24" d="M113.973-836.566l1.846.781q.342-.684.73-1.323a15.052,15.052,0,0,1,.854-1.257l-1.231-.239a.22.22,0,0,0-.125,0,.276.276,0,0,0-.109.069Zm2.85,1.572,2.384,2.371a10.856,10.856,0,0,0,1.945-1.085,13.61,13.61,0,0,0,1.913-1.6,10.737,10.737,0,0,0,2.185-3.077,7.966,7.966,0,0,0,.764-3.426,7.987,7.987,0,0,0-3.428.764,10.726,10.726,0,0,0-3.08,2.185,13.48,13.48,0,0,0-1.6,1.917A10.99,10.99,0,0,0,116.824-834.994Zm4.042-1.679a1.411,1.411,0,0,1-.426-1.036,1.411,1.411,0,0,1,.426-1.036,1.423,1.423,0,0,1,1.047-.426,1.423,1.423,0,0,1,1.047.426,1.411,1.411,0,0,1,.426,1.036,1.411,1.411,0,0,1-.426,1.036,1.423,1.423,0,0,1-1.047.426A1.423,1.423,0,0,1,120.865-836.673Zm-.094,6.913,1.964-1.964a.277.277,0,0,0,.069-.109.221.221,0,0,0,0-.125l-.239-1.231a13.962,13.962,0,0,1-1.256.847q-.639.381-1.323.723Zm6.39-13.2a9.6,9.6,0,0,1-.574,4.6,11.952,11.952,0,0,1-2.775,4.1l-.073.073-.073.073.379,1.9a1.485,1.485,0,0,1-.034.738,1.494,1.494,0,0,1-.379.628l-3.291,3.283-1.577-3.706-3.289-3.289-3.706-1.585,3.27-3.283a1.529,1.529,0,0,1,.634-.383,1.484,1.484,0,0,1,.744-.038l1.916.387q.04-.04.068-.073t.069-.073a12,12,0,0,1,4.1-2.778A9.542,9.542,0,0,1,127.162-842.961Zm-13.942,10.969a2.043,2.043,0,0,1,1.5-.616,2.027,2.027,0,0,1,1.5.611,2.013,2.013,0,0,1,.607,1.5,2.057,2.057,0,0,1-.62,1.5,3.844,3.844,0,0,1-1.562.818,15.867,15.867,0,0,1-2.788.546,15.589,15.589,0,0,1,.55-2.787A3.879,3.879,0,0,1,113.219-831.992Zm.9.892a2.26,2.26,0,0,0-.436.778,5.01,5.01,0,0,0-.286,1.127,5.079,5.079,0,0,0,1.127-.283,2.235,2.235,0,0,0,.778-.433.872.872,0,0,0,.265-.6.781.781,0,0,0-.239-.6.789.789,0,0,0-.6-.241A.863.863,0,0,0,114.117-831.1Z" transform="translate(-111.77 843.026)" fill="#e8eaed"/>
</svg>
