<svg xmlns="http://www.w3.org/2000/svg" viewBox="0 0 656 657">
  <path fill="currentColor" d="M627.38 656.15 376.92 405.69c-20 17.03-43 30.2-69 39.54-26 9.33-52.13 14-78.38 14-64.07 0-118.29-22.18-162.67-66.53C22.5 348.35.31 294.16.31 230.13c0-64.03 22.18-118.27 66.53-162.71C111.19 22.99 165.38.77 229.41.77c64.03 0 118.27 22.19 162.71 66.56 44.43 44.38 66.65 98.6 66.65 162.67 0 27.8-4.92 54.69-14.77 80.69s-22.77 48.23-38.77 66.69l250.46 250.47-28.31 28.3ZM229.54 419.23c53.07 0 97.88-18.27 134.42-54.81 36.54-36.53 54.81-81.34 54.81-134.42 0-53.08-18.27-97.89-54.81-134.42-36.54-36.54-81.35-54.81-134.42-54.81-53.08 0-97.89 18.27-134.42 54.81C58.58 132.11 40.31 176.92 40.31 230c0 53.08 18.27 97.89 54.81 134.42 36.53 36.54 81.34 54.81 134.42 54.81Z"/>
</svg>