<svg width="156" height="43" viewBox="0 0 156 43" fill="none" xmlns="http://www.w3.org/2000/svg">
<path d="M148 38C146.5 39.1793 139.077 42.2155 134.194 42.8276C130.691 43.2669 127.133 42.8343 123.837 41.5684C123.829 41.5682 123.82 41.5679 123.812 41.5674L123.806 41.5671C123.791 41.5662 123.776 41.5648 123.761 41.563L123.756 41.5624C122.409 41.3884 120.487 40.3843 118.181 39.1793C114.23 37.1151 109.151 34.4611 103.897 34.3784C99.8662 34.5552 95.9179 35.5773 92.3078 37.3784C92.0619 37.5216 92.0027 37.5586 91.9499 37.5916C91.8523 37.6525 91.7767 37.6997 90.5868 38.3784C89.8398 38.8044 88.6208 39.4114 87.4388 39.9784C84.1283 41.9588 80.3424 43.0039 76.4848 43.0024H75.2358L75.1358 42.9964H75.1038L74.8398 42.9784H74.8078L74.7078 42.9704H74.6718L74.5718 42.9624H74.5298L74.4408 42.9544H74.3958L74.3108 42.9464H74.2638L74.1788 42.9374H74.1338L74.0448 42.9274H74.0058L73.9058 42.9164H73.8718L73.7718 42.9034H73.7468C73.5708 42.8807 73.3954 42.856 73.2208 42.8294H73.2018L73.0908 42.8124H73.0658L72.9608 42.7954H72.9348L72.8298 42.7774H72.8048L72.6988 42.7584H72.6748L72.5648 42.7384H72.5478L72.4278 42.7154H72.4198C72.1584 42.6654 71.8991 42.6104 71.6418 42.5504H71.6298L71.5138 42.5234H71.4988L71.3848 42.3924H71.3678L71.2568 42.3654H71.2398L71.1288 42.3374H71.1128L70.9968 42.3074H70.9868C70.7754 42.2514 70.5654 42.1924 70.3568 42.1304L70.3378 42.1244L70.2378 42.0934L70.2068 42.0834L70.1168 42.0554L70.0798 42.0444L69.9988 42.0024L69.8788 41.9634L69.8348 41.9494L69.7598 41.9244L69.7128 41.9094L69.6418 41.8854L69.5908 41.8684L69.4698 41.8274L69.4198 41.8094C69.2468 41.7484 69.0728 41.6854 68.9018 41.6214L68.7938 41.5804C68.7678 41.5804 68.7408 41.5804 68.7138 41.5744C67.3671 41.4007 65.4454 40.3967 63.1388 39.1915C59.1883 37.1274 54.1087 34.4734 48.8558 34.3914C44.8255 34.5679 40.8774 35.59 37.2678 37.3914C37.0221 37.5346 36.9626 37.5716 36.9097 37.6045C36.8119 37.6655 36.7363 37.7125 35.5468 38.3914C34.8008 38.8164 33.5868 39.4214 32.4078 39.9914C29.5639 41.67 26.3713 42.6705 23.0781 42.9152C19.7848 43.1599 16.4795 42.6422 13.4187 41.4023C10.358 40.1624 7.62425 38.2336 5.42983 35.7658C3.23541 33.298 1.63936 30.3576 0.765646 27.1729C-0.108069 23.9883 -0.235939 20.6451 0.39197 17.403C1.01988 14.1609 2.38666 11.1071 4.38618 8.47892C6.38569 5.85071 8.96411 3.71878 11.9212 2.24869C14.8783 0.778604 18.1344 0.00992645 21.4368 0.0023602C26.1491 -0.00474835 30.731 1.54917 34.4668 4.42136L35.5378 5.02936C36.7352 5.71266 36.8039 5.75543 36.9027 5.81695C36.9551 5.8496 37.016 5.88754 37.2588 6.02936C40.8684 7.83071 44.8165 8.85283 48.8468 9.02936C54.1001 8.94766 59.1799 6.29344 63.1296 4.2297C64.0143 3.76745 64.8422 3.33482 65.6028 2.96736C66.1894 2.62069 66.7938 2.30169 67.4158 2.01036H67.4228L67.6508 1.90536H67.6618L67.8858 1.80536L67.9028 1.79736L68.1258 1.69736L68.1428 1.69036L68.3878 1.58836L68.6068 1.50036L68.6308 1.49036L68.7378 1.44836H68.7438L68.8498 1.40736L68.8768 1.39736L68.9848 1.35336L69.0938 1.31336L69.1218 1.30336L69.2218 1.26836L69.2378 1.26236L69.3378 1.22536L69.3738 1.21236L69.4628 1.18136L69.4818 1.17436L69.5868 1.13836L69.6198 1.12736L69.7108 1.09636L69.8368 1.05436L69.8708 1.04336L69.9588 1.01536L69.9848 1.00236L70.0848 0.969361L70.1258 0.962361L70.2128 0.935361L70.2388 0.927361L70.3438 0.895361L70.3808 0.884361L70.4638 0.859361L70.4918 0.852361L70.5918 0.822361L70.6328 0.810361L70.7068 0.789361L70.7468 0.778361L70.8468 0.751361L70.8898 0.739361L70.9638 0.719361L71.0018 0.709361L71.1018 0.682361L71.1408 0.672361L71.2198 0.652361L71.2558 0.643361L71.3558 0.617361L71.4048 0.608361L71.4848 0.589361L71.5208 0.580361L71.6268 0.555361L71.6638 0.546361L71.7438 0.528361L71.7848 0.520361L71.8848 0.497361L71.9208 0.489361L72.0038 0.471361L72.0388 0.464361L72.1468 0.442361L72.1848 0.434361L72.2708 0.417361L72.3048 0.410361L72.4138 0.389361L72.4468 0.382361L72.5328 0.366361L72.5658 0.360361L72.6768 0.340361L72.7088 0.334361L72.7968 0.319361L72.8328 0.312361L72.9428 0.293361L72.9748 0.288361L73.0618 0.274361L73.0978 0.268361L73.2088 0.251361H73.2398L73.3288 0.238361L73.3648 0.228361L73.4748 0.212361H73.5078L73.5948 0.196361L73.6328 0.191361L73.7448 0.176361H73.7708L73.8708 0.164361H73.9048L74.0148 0.143361H74.0398L74.1398 0.132361H74.1738L74.2848 0.114359H74.3088L74.4088 0.104359H74.4428L74.5578 0.0933593H74.5818L74.6818 0.0853593H74.7178L74.8338 0.0763593H74.8538L74.9538 0.0693593H74.9878L75.1068 0.0613593H75.1208L75.2298 0.0543602H75.2608L75.3808 0.0483602H75.3938L75.5038 0.0433602H76.4848C81.1909 0.0250301 85.7711 1.56358 89.5118 4.41936L90.5858 5.03036C91.7832 5.71368 91.8519 5.75643 91.9507 5.81795C92.0031 5.85061 92.0641 5.88855 92.3068 6.03036C95.9168 7.83145 99.8652 8.85355 103.896 9.03036C109.149 8.94862 114.228 6.29478 118.178 4.23054C119.061 3.76928 119.887 3.33747 120.647 2.97036C123.541 1.26492 126.795 0.262954 130.147 0.0451458C133.5 -0.172663 136.856 0.399775 139.947 1.71636L139.978 1.64036L140.778 2.09136C141.659 2.51364 142.511 2.99576 143.327 3.53436C154.762 10.0098 160.797 27.939 148 38Z" fill="url(#gradient)" />
<path d="M148 38C146.5 39.1793 139.077 42.2155 134.194 42.8276C130.691 43.2669 127.133 42.8343 123.837 41.5684C123.829 41.5682 123.82 41.5679 123.812 41.5674L123.806 41.5671C123.791 41.5662 123.776 41.5648 123.761 41.563L123.756 41.5624C122.409 41.3884 120.487 40.3843 118.181 39.1793C114.23 37.1151 109.151 34.4611 103.897 34.3784C99.8662 34.5552 95.9179 35.5773 92.3078 37.3784C92.0619 37.5216 92.0027 37.5586 91.9499 37.5916C91.8523 37.6525 91.7767 37.6997 90.5868 38.3784C89.8398 38.8044 88.6208 39.4114 87.4388 39.9784C84.1283 41.9588 80.3424 43.0039 76.4848 43.0024H75.2358L75.1358 42.9964H75.1038L74.8398 42.9784H74.8078L74.7078 42.9704H74.6718L74.5718 42.9624H74.5298L74.4408 42.9544H74.3958L74.3108 42.9464H74.2638L74.1788 42.9374H74.1338L74.0448 42.9274H74.0058L73.9058 42.9164H73.8718L73.7718 42.9034H73.7468C73.5708 42.8807 73.3954 42.856 73.2208 42.8294H73.2018L73.0908 42.8124H73.0658L72.9608 42.7954H72.9348L72.8298 42.7774H72.8048L72.6988 42.7584H72.6748L72.5648 42.7384H72.5478L72.4278 42.7154H72.4198C72.1584 42.6654 71.8991 42.6104 71.6418 42.5504H71.6298L71.5138 42.5234H71.4988L71.3848 42.3924H71.3678L71.2568 42.3654H71.2398L71.1288 42.3374H71.1128L70.9968 42.3074H70.9868C70.7754 42.2514 70.5654 42.1924 70.3568 42.1304L70.3378 42.1244L70.2378 42.0934L70.2068 42.0834L70.1168 42.0554L70.0798 42.0444L69.9988 42.0024L69.8788 41.9634L69.8348 41.9494L69.7598 41.9244L69.7128 41.9094L69.6418 41.8854L69.5908 41.8684L69.4698 41.8274L69.4198 41.8094C69.2468 41.7484 69.0728 41.6854 68.9018 41.6214L68.7938 41.5804C68.7678 41.5804 68.7408 41.5804 68.7138 41.5744C67.3671 41.4007 65.4454 40.3967 63.1388 39.1915C59.1883 37.1274 54.1087 34.4734 48.8558 34.3914C44.8255 34.5679 40.8774 35.59 37.2678 37.3914C37.0221 37.5346 36.9626 37.5716 36.9097 37.6045C36.8119 37.6655 36.7363 37.7125 35.5468 38.3914C34.8008 38.8164 33.5868 39.4214 32.4078 39.9914C29.5639 41.67 26.3713 42.6705 23.0781 42.9152C19.7848 43.1599 16.4795 42.6422 13.4187 41.4023C10.358 40.1624 7.62425 38.2336 5.42983 35.7658C3.23541 33.298 1.63936 30.3576 0.765646 27.1729C-0.108069 23.9883 -0.235939 20.6451 0.39197 17.403C1.01988 14.1609 2.38666 11.1071 4.38618 8.47892C6.38569 5.85071 8.96411 3.71878 11.9212 2.24869C14.8783 0.778604 18.1344 0.00992645 21.4368 0.0023602C26.1491 -0.00474835 30.731 1.54917 34.4668 4.42136L35.5378 5.02936C36.7352 5.71266 36.8039 5.75543 36.9027 5.81695C36.9551 5.8496 37.016 5.88754 37.2588 6.02936C40.8684 7.83071 44.8165 8.85283 48.8468 9.02936C54.1001 8.94766 59.1799 6.29344 63.1296 4.2297C64.0143 3.76745 64.8422 3.33482 65.6028 2.96736C66.1894 2.62069 66.7938 2.30169 67.4158 2.01036H67.4228L67.6508 1.90536H67.6618L67.8858 1.80536L67.9028 1.79736L68.1258 1.69736L68.1428 1.69036L68.3878 1.58836L68.6068 1.50036L68.6308 1.49036L68.7378 1.44836H68.7438L68.8498 1.40736L68.8768 1.39736L68.9848 1.35336L69.0938 1.31336L69.1218 1.30336L69.2218 1.26836L69.2378 1.26236L69.3378 1.22536L69.3738 1.21236L69.4628 1.18136L69.4818 1.17436L69.5868 1.13836L69.6198 1.12736L69.7108 1.09636L69.8368 1.05436L69.8708 1.04336L69.9588 1.01536L69.9848 1.00236L70.0848 0.969361L70.1258 0.962361L70.2128 0.935361L70.2388 0.927361L70.3438 0.895361L70.3808 0.884361L70.4638 0.859361L70.4918 0.852361L70.5918 0.822361L70.6328 0.810361L70.7068 0.789361L70.7468 0.778361L70.8468 0.751361L70.8898 0.739361L70.9638 0.719361L71.0018 0.709361L71.1018 0.682361L71.1408 0.672361L71.2198 0.652361L71.2558 0.643361L71.3558 0.617361L71.4048 0.608361L71.4848 0.589361L71.5208 0.580361L71.6268 0.555361L71.6638 0.546361L71.7438 0.528361L71.7848 0.520361L71.8848 0.497361L71.9208 0.489361L72.0038 0.471361L72.0388 0.464361L72.1468 0.442361L72.1848 0.434361L72.2708 0.417361L72.3048 0.410361L72.4138 0.389361L72.4468 0.382361L72.5328 0.366361L72.5658 0.360361L72.6768 0.340361L72.7088 0.334361L72.7968 0.319361L72.8328 0.312361L72.9428 0.293361L72.9748 0.288361L73.0618 0.274361L73.0978 0.268361L73.2088 0.251361H73.2398L73.3288 0.238361L73.3648 0.228361L73.4748 0.212361H73.5078L73.5948 0.196361L73.6328 0.191361L73.7448 0.176361H73.7708L73.8708 0.164361H73.9048L74.0148 0.143361H74.0398L74.1398 0.132361H74.1738L74.2848 0.114359H74.3088L74.4088 0.104359H74.4428L74.5578 0.0933593H74.5818L74.6818 0.0853593H74.7178L74.8338 0.0763593H74.8538L74.9538 0.0693593H74.9878L75.1068 0.0613593H75.1208L75.2298 0.0543602H75.2608L75.3808 0.0483602H75.3938L75.5038 0.0433602H76.4848C81.1909 0.0250301 85.7711 1.56358 89.5118 4.41936L90.5858 5.03036C91.7832 5.71368 91.8519 5.75643 91.9507 5.81795C92.0031 5.85061 92.0641 5.88855 92.3068 6.03036C95.9168 7.83145 99.8652 8.85355 103.896 9.03036C109.149 8.94862 114.228 6.29478 118.178 4.23054C119.061 3.76928 119.887 3.33747 120.647 2.97036C123.541 1.26492 126.795 0.262954 130.147 0.0451458C133.5 -0.172663 136.856 0.399775 139.947 1.71636L139.978 1.64036L140.778 2.09136C141.659 2.51364 142.511 2.99576 143.327 3.53436C154.762 10.0098 160.797 27.939 148 38Z" fill="url(#gradient)"/>
    <defs>
        <linearGradient id="gradient" x1="0%" y1="0%" x2="0%" y2="100%">
            <stop offset="0%" style="stop-color: var(--start-color, rgb(255, 255, 0))" />
            <stop offset="100%" style="stop-color: var(--end-color, rgb(255, 0, 0))" />
        </linearGradient>
    </defs>
</svg>
