<svg xmlns="http://www.w3.org/2000/svg" width="153.001" height="43" viewBox="0 0 153.001 43">
  <g id="blockchain_3" transform="translate(13482 19959.994)">
    <g id="Group_9600" data-name="Group 9600" transform="translate(-13482 -19959.994)">
      <ellipse id="E-01" cx="21.452" cy="21.5" rx="21.452" ry="21.5" fill="#0d2b3a"/>
      <ellipse id="E-01-2" data-name="E-01" cx="21.452" cy="21.5" rx="21.452" ry="21.5" transform="translate(55.048)" fill="#0d2b3a"/>
      <path id="Path_15753" data-name="Path 15753" d="M14457.249-2701.726s3.777,2.136,5.611,3.181,1.021.591,1.721,1a28.78,28.78,0,0,0,11.589,3c8.32-.13,16.205-6.712,19.858-7.183s.725,25.124.725,25.124h-42.638v-17.458Z" transform="translate(-14427.308 2703.572)" fill="#0d2b3a"/>
      <path id="Path_15754" data-name="Path 15754" d="M14456.356-2676.608s4.67-2.136,6.5-3.181,1.021-.591,1.721-1a28.78,28.78,0,0,1,11.589-3c8.32.13,16.205,6.712,19.858,7.183s.725-25.124.725-25.124h-42.638v17.458Z" transform="translate(-14427.308 2718.176)" fill="#0d2b3a"/>
    </g>
    <g id="Group_9601" data-name="Group 9601" transform="translate(-13426.952 -19959.994)">
      <ellipse id="E-01-3" data-name="E-01" cx="21.452" cy="21.5" rx="21.452" ry="21.5" fill="#0d2b3a"/>
      <ellipse id="E-01-4" data-name="E-01" cx="21.452" cy="21.5" rx="21.452" ry="21.5" transform="translate(55.048)" fill="#0d2b3a"/>
      <path id="Path_15753-2" data-name="Path 15753" d="M14457.249-2701.726s3.777,2.136,5.611,3.181,1.021.591,1.721,1a28.78,28.78,0,0,0,11.589,3c8.32-.13,16.205-6.712,19.858-7.183s.725,25.124.725,25.124h-42.638v-17.458Z" transform="translate(-14427.308 2703.572)" fill="#0d2b3a"/>
      <path id="Path_15754-2" data-name="Path 15754" d="M14456.356-2676.608s4.67-2.136,6.5-3.181,1.021-.591,1.721-1a28.78,28.78,0,0,1,11.589-3c8.32.13,16.205,6.712,19.858,7.183s.725-25.124.725-25.124h-42.638v17.458Z" transform="translate(-14427.308 2718.176)" fill="#0d2b3a"/>
    </g>
  </g>
</svg>
