<svg xmlns="http://www.w3.org/2000/svg" width="152.997" height="43.002" viewBox="0 0 152.997 43.002">
    <path id="Union_23" data-name="Union 23" d="M123.848,41.574c-.025,0-.05,0-.08,0-3.649-.473-11.536-7.053-19.859-7.184a28.787,28.787,0,0,0-11.587,3c-.7.406.11-.045-1.722,1-.743.428-1.963,1.029-3.143,1.6a21.3,21.3,0,0,1-8.488,2.871l-.012,0-.265.029h0l-.246.023-.034,0c-.086.008-.171.016-.256.021a.021.021,0,0,0-.011,0c-.081.006-.162.012-.243.016l-.039,0-.254.014h-.012l-.237.012a.467.467,0,0,0-.052,0l-.247.008h-.023c-.074,0-.148,0-.224,0l-.067,0h-.508c-.035,0-.071,0-.106,0l-.159,0c-.041,0-.083,0-.125,0s-.09,0-.135,0l-.143-.006-.114-.006c-.054,0-.106,0-.16-.008l-.092-.006c-.061,0-.12-.006-.18-.01l-.065-.006c-.068,0-.137-.01-.2-.016l-.033,0a21.265,21.265,0,0,1-5.911-1.352,0,0,0,0,1,0,0c-.025,0-.056,0-.081,0-3.654-.473-11.541-7.053-19.859-7.184a28.78,28.78,0,0,0-11.591,3c-.7.406.11-.045-1.723,1-.742.422-1.957,1.029-3.137,1.6A21.445,21.445,0,0,1,0,21.5,21.44,21.44,0,0,1,34.485,4.422c.392.221.758.432,1.063.607,1.833,1.043,1.024.592,1.723,1a28.748,28.748,0,0,0,11.591,3c6.415-.1,12.569-4.035,16.73-6.049A21.324,21.324,0,0,1,70.239.93l.034-.012c.155-.047.31-.092.466-.135l.052-.016c.048-.012.095-.025.144-.039l.071-.018.223-.059.094-.023L71.444.6c.056-.014.111-.027.167-.039l.111-.027L71.855.5l.1-.021.2-.041.081-.018.158-.031.082-.016c.071-.014.143-.027.214-.039L72.75.326,72.919.3,73,.283l.219-.035L73.277.24c.058-.01.115-.018.173-.025L73.539.2l.219-.029a.292.292,0,0,0,.04,0L74,.143l.066-.006L74.3.109a.1.1,0,0,0,.023,0l.222-.02L74.6.082c.08-.008.16-.014.24-.02a.043.043,0,0,1,.016,0l.224-.016c.022,0,.046,0,.068,0,.08-.006.159-.01.239-.014a.051.051,0,0,0,.017,0l.225-.01.071,0c.079,0,.159-.006.239-.008h0c.08,0,.159,0,.239,0,.022,0,.043,0,.065,0L76.5,0l.254,0,.09,0c.057,0,.112,0,.169,0,.031,0,.063,0,.095,0l.166.006.092,0,.2.01.05,0c.176.01.351.02.525.033l.038,0L78.4.082l.046,0,.233.023a.08.08,0,0,1,.021,0,21.224,21.224,0,0,1,5.907,1.477h0l.238.1,0,0c.16.068.318.137.477.209l0,0,.209.1.075.035.136.064c.033.018.065.033.1.049s.071.035.106.051l.117.059.066.035a21.332,21.332,0,0,1,3.4,2.139c.388.219.75.428,1.059.6,1.832,1.043,1.02.592,1.722,1a28.755,28.755,0,0,0,11.587,3c6.431-.1,12.6-4.051,16.757-6.064A21.487,21.487,0,1,1,131.549,43,21.388,21.388,0,0,1,123.848,41.574Z" transform="translate(-0.002 0.002)" fill="url(#gradient)" />
    <defs>
        <linearGradient id="gradient" x1="0%" y1="0%" x2="0%" y2="100%">
            <stop offset="0%" style="stop-color: var(--start-color, rgb(255, 255, 0))" />
            <stop offset="100%" style="stop-color: var(--end-color, rgb(255, 0, 0))" />
        </linearGradient>
    </defs>
</svg>
