<svg xmlns="http://www.w3.org/2000/svg" xml:space="preserve" fill="currentColor" viewBox="0 0 226.78 226.78">
  <path d="M226.88 107.66c0-14.24-38.76-26.13-90.27-28.87v-22.7h64.31V8.86H25.06v47.23h64.31v22.8C38.8 81.84.97 93.6.97 107.67s37.83 25.83 88.4 28.76v81.5h47.24v-81.39c51.51-2.74 90.27-14.63 90.27-28.87zm-112.95 14.03c-55.3 0-100.11-8.55-100.11-19.12 0-8.94 32.14-16.45 75.55-18.54v27.45a454.35 454.35 0 0 0 47.24.1V83.95c44.36 1.96 77.43 9.55 77.43 18.62 0 10.57-44.83 19.12-100.11 19.12z"/>
</svg>