<svg xmlns="http://www.w3.org/2000/svg" viewBox="0 0 26.469 18.283">
  <g id="noun-users-943341" transform="translate(-7.888 -20.911)">
    <g id="Group_8782" data-name="Group 8782" transform="translate(7.888 20.911)">
      <circle id="Ellipse_162" data-name="Ellipse 162" cx="2.568" cy="2.568" r="2.568" transform="translate(19.385 2.904)" fill="#dbb479"/>
      <path id="Path_15811" data-name="Path 15811" d="M75.2,53.116a16.46,16.46,0,0,0-3.522-.379q-.69,0-1.378.058a.418.418,0,0,0-.373.449,2.278,2.278,0,0,1,0,.266q-.155,2.083-.31,4.245a4.425,4.425,0,0,1-.723,2.071,1.725,1.725,0,0,0,.429.136,16.68,16.68,0,0,0,2.822.162c2.91-.186,3.89-3.272,4.045-5.689A1.41,1.41,0,0,0,75.2,53.116Z" transform="translate(-49.72 -42.735)" fill="#dbb479"/>
      <circle id="Ellipse_163" data-name="Ellipse 163" cx="2.568" cy="2.568" r="2.568" transform="translate(1.947 2.904)" fill="#dbb479"/>
      <path id="Path_15812" data-name="Path 15812" d="M7.89,54.441a6.975,6.975,0,0,0,1.032,3.767,4.178,4.178,0,0,0,3.02,1.918,16.482,16.482,0,0,0,2.82-.164,1.734,1.734,0,0,0,.425-.135,4.421,4.421,0,0,1-.723-2.07q-.155-2.165-.31-4.241a2.3,2.3,0,0,1,0-.272.417.417,0,0,0-.373-.449q-.684-.057-1.373-.057a16.527,16.527,0,0,0-3.536.381A1.408,1.408,0,0,0,7.89,54.441Z" transform="translate(-7.888 -42.736)" fill="#dbb479"/>
      <circle id="Ellipse_164" data-name="Ellipse 164" cx="3.22" cy="3.22" r="3.22" transform="translate(10.014 0)" fill="#dbb479"/>
      <path id="Path_15813" data-name="Path 15813" d="M41.455,47.946a21.8,21.8,0,0,0-9.284,0,1.967,1.967,0,0,0-1.391,1.875q.154,2.07.309,4.238a3.52,3.52,0,0,0,2.63,3.107,21.644,21.644,0,0,0,6.2,0,3.521,3.521,0,0,0,2.626-3.107q.155-2.163.31-4.242A1.966,1.966,0,0,0,41.455,47.946Z" transform="translate(-23.585 -39.108)" fill="#dbb479"/>
    </g>
  </g>
</svg>
