<svg xmlns="http://www.w3.org/2000/svg" version="1.1" width="3000px" height="3000px" style="shape-rendering:geometricPrecision; text-rendering:geometricPrecision; image-rendering:optimizeQuality; fill-rule:evenodd; clip-rule:evenodd" xmlns:xlink="http://www.w3.org/1999/xlink">
<g><path style="opacity:1" fill="#000000" d="M -0.5,-0.5 C 999.5,-0.5 1999.5,-0.5 2999.5,-0.5C 2999.5,999.5 2999.5,1999.5 2999.5,2999.5C 1999.5,2999.5 999.5,2999.5 -0.5,2999.5C -0.5,1999.5 -0.5,999.5 -0.5,-0.5 Z"/></g>
<g><path style="opacity:1" fill="#7f7f7f" d="M 1576.5,437.5 C 1707.33,436.5 1838.33,436.167 1969.5,436.5C 1969.74,437.791 1969.4,438.791 1968.5,439.5C 1838.17,437.502 1707.5,436.835 1576.5,437.5 Z"/></g>
<g><path style="opacity:1" fill="#fefefe" d="M 1576.5,437.5 C 1707.5,436.835 1838.17,437.502 1968.5,439.5C 1813.05,1115.55 1657.38,1791.55 1501.5,2467.5C 1370.5,2468.16 1239.83,2467.5 1109.5,2465.5C 1264.85,1789.44 1420.52,1113.44 1576.5,437.5 Z"/></g>
<g><path style="opacity:1" fill="#404040" d="M 2025.5,739.5 C 2119,738.501 2212.67,738.167 2306.5,738.5C 2306.74,739.791 2306.4,740.791 2305.5,741.5C 2212.51,739.502 2119.17,738.836 2025.5,739.5 Z"/></g>
<g><path style="opacity:1" fill="#fefefe" d="M 1105.5,739.5 C 1198.83,739.5 1292.17,739.5 1385.5,739.5C 1275.22,1219.2 1164.72,1698.86 1054,2178.5C 1053.28,2182.15 1052.78,2185.81 1052.5,2189.5C 958.833,2189.5 865.167,2189.5 771.5,2189.5C 882.629,1706.11 993.962,1222.78 1105.5,739.5 Z"/></g>
<g><path style="opacity:1" fill="#fefefe" d="M 2025.5,739.5 C 2119.17,738.836 2212.51,739.502 2305.5,741.5C 2194.5,1224.16 2083.5,1706.83 1972.5,2189.5C 1878.83,2189.5 1785.17,2189.5 1691.5,2189.5C 1803.06,1706.16 1914.4,1222.83 2025.5,739.5 Z"/></g>
<g><path style="opacity:1" fill="#7f7f7f" d="M 1109.5,2465.5 C 1239.83,2467.5 1370.5,2468.16 1501.5,2467.5C 1370.67,2468.5 1239.67,2468.83 1108.5,2468.5C 1108.26,2467.21 1108.6,2466.21 1109.5,2465.5 Z"/></g>
</svg>
