<svg xmlns="http://www.w3.org/2000/svg" fill="currentColor" viewBox="0 0 646 562">
  <path d="M491.018 340.947c10.014-17.057 34.884-17.057 44.788 0L642.219 522.74c10.014 17.057-2.531 38.295-22.449 38.295H406.945c-19.918 0-32.353-21.238-22.449-38.295l106.412-181.793h.11Zm-64.274-121.051c9.684-16.947 9.684-37.855 0-54.912L339.479 12.7926c-9.794-17.0568-34.224-17.0568-44.018 0L3.4042 522.627c-9.794 17.057 2.421 38.406 22.0088 38.406h174.42c19.478 0 37.415-10.455 47.099-27.401l179.702-313.736h.11Z"/>
</svg>
