<svg xmlns="http://www.w3.org/2000/svg" xmlns:xlink="http://www.w3.org/1999/xlink"  zoomAndPan="magnify"
     viewBox="0 0 375 135.000003"  preserveAspectRatio="xMidYMid meet" version="1.0">
    <defs>
        <g/>
    </defs>
    <g fill="#ffffff" fill-opacity="1">
        <g transform="translate(24.152444, 94.576145)">
            <g>
                <path d="M 32.125 -40.40625 L 32.125 -44.578125 L 36.296875 -44.578125 L 36.296875 -40.40625 Z M 26.359375 -46.109375 L 26.359375 -50.28125 L 30.53125 -50.28125 L 30.53125 -46.109375 Z M 32.125 -34.703125 L 32.125 -38.953125 L 36.296875 -38.953125 L 36.296875 -34.703125 Z M 26.359375 -40.40625 L 26.359375 -44.578125 L 30.53125 -44.578125 L 30.53125 -40.40625 Z M 20.578125 -46.109375 L 20.578125 -50.28125 L 24.828125 -50.28125 L 24.828125 -46.109375 Z M 32.125 -29.078125 L 32.125 -33.25 L 36.296875 -33.25 L 36.296875 -29.078125 Z M 26.359375 -34.703125 L 26.359375 -38.953125 L 30.53125 -38.953125 L 30.53125 -34.703125 Z M 14.890625 -46.109375 L 14.890625 -50.28125 L 19.0625 -50.28125 L 19.0625 -46.109375 Z M 26.359375 -29.078125 L 26.359375 -33.25 L 30.53125 -33.25 L 30.53125 -29.078125 Z M 9.109375 -46.109375 L 9.109375 -50.28125 L 13.28125 -50.28125 L 13.28125 -46.109375 Z M 32.125 -17.671875 L 32.125 -21.84375 L 36.296875 -21.84375 L 36.296875 -17.671875 Z M 26.359375 -23.296875 L 26.359375 -27.546875 L 30.53125 -27.546875 L 30.53125 -23.296875 Z M 9.109375 -40.40625 L 9.109375 -44.578125 L 13.28125 -44.578125 L 13.28125 -40.40625 Z M 3.34375 -46.109375 L 3.34375 -50.28125 L 7.515625 -50.28125 L 7.515625 -46.109375 Z M 32.125 -11.96875 L 32.125 -16.140625 L 36.296875 -16.140625 L 36.296875 -11.96875 Z M 26.359375 -17.671875 L 26.359375 -21.84375 L 30.53125 -21.84375 L 30.53125 -17.671875 Z M 20.578125 -23.296875 L 20.578125 -27.546875 L 24.828125 -27.546875 L 24.828125 -23.296875 Z M 9.109375 -34.703125 L 9.109375 -38.953125 L 13.28125 -38.953125 L 13.28125 -34.703125 Z M 3.34375 -40.40625 L 3.34375 -44.578125 L 7.515625 -44.578125 L 7.515625 -40.40625 Z M 32.125 -6.265625 L 32.125 -10.4375 L 36.296875 -10.4375 L 36.296875 -6.265625 Z M 26.359375 -11.96875 L 26.359375 -16.140625 L 30.53125 -16.140625 L 30.53125 -11.96875 Z M 14.890625 -23.296875 L 14.890625 -27.546875 L 19.0625 -27.546875 L 19.0625 -23.296875 Z M 9.109375 -29.078125 L 9.109375 -33.25 L 13.28125 -33.25 L 13.28125 -29.078125 Z M 3.34375 -34.703125 L 3.34375 -38.953125 L 7.515625 -38.953125 L 7.515625 -34.703125 Z M 26.359375 -6.265625 L 26.359375 -10.4375 L 30.53125 -10.4375 L 30.53125 -6.265625 Z M 9.109375 -23.296875 L 9.109375 -27.546875 L 13.28125 -27.546875 L 13.28125 -23.296875 Z M 3.34375 -29.078125 L 3.34375 -33.25 L 7.515625 -33.25 L 7.515625 -29.078125 Z M 26.359375 -0.484375 L 26.359375 -4.734375 L 30.53125 -4.734375 L 30.53125 -0.484375 Z M 9.109375 -17.671875 L 9.109375 -21.84375 L 13.28125 -21.84375 L 13.28125 -17.671875 Z M 3.34375 -23.296875 L 3.34375 -27.546875 L 7.515625 -27.546875 L 7.515625 -23.296875 Z M 20.578125 -0.484375 L 20.578125 -4.734375 L 24.828125 -4.734375 L 24.828125 -0.484375 Z M 9.109375 -11.96875 L 9.109375 -16.140625 L 13.28125 -16.140625 L 13.28125 -11.96875 Z M 3.34375 -17.671875 L 3.34375 -21.84375 L 7.515625 -21.84375 L 7.515625 -17.671875 Z M 14.890625 -0.484375 L 14.890625 -4.734375 L 19.0625 -4.734375 L 19.0625 -0.484375 Z M 9.109375 -6.265625 L 9.109375 -10.4375 L 13.28125 -10.4375 L 13.28125 -6.265625 Z M 3.34375 -11.96875 L 3.34375 -16.140625 L 7.515625 -16.140625 L 7.515625 -11.96875 Z M 9.109375 -0.484375 L 9.109375 -4.734375 L 13.28125 -4.734375 L 13.28125 -0.484375 Z M 3.34375 -6.265625 L 3.34375 -10.4375 L 7.515625 -10.4375 L 7.515625 -6.265625 Z M 3.34375 -0.484375 L 3.34375 -4.734375 L 7.515625 -4.734375 L 7.515625 -0.484375 Z M 3.34375 -0.484375 "/>
            </g>
        </g>
    </g>
    <g fill="#ffffff" fill-opacity="1">
        <g transform="translate(66.441192, 94.576145)">
            <g>
                <path d="M 32.125 -40.40625 L 32.125 -44.578125 L 36.296875 -44.578125 L 36.296875 -40.40625 Z M 26.359375 -46.109375 L 26.359375 -50.28125 L 30.53125 -50.28125 L 30.53125 -46.109375 Z M 32.125 -34.703125 L 32.125 -38.953125 L 36.296875 -38.953125 L 36.296875 -34.703125 Z M 26.359375 -40.40625 L 26.359375 -44.578125 L 30.53125 -44.578125 L 30.53125 -40.40625 Z M 20.578125 -46.109375 L 20.578125 -50.28125 L 24.828125 -50.28125 L 24.828125 -46.109375 Z M 32.125 -29.078125 L 32.125 -33.25 L 36.296875 -33.25 L 36.296875 -29.078125 Z M 26.359375 -34.703125 L 26.359375 -38.953125 L 30.53125 -38.953125 L 30.53125 -34.703125 Z M 14.890625 -46.109375 L 14.890625 -50.28125 L 19.0625 -50.28125 L 19.0625 -46.109375 Z M 32.125 -23.296875 L 32.125 -27.546875 L 36.296875 -27.546875 L 36.296875 -23.296875 Z M 26.359375 -29.078125 L 26.359375 -33.25 L 30.53125 -33.25 L 30.53125 -29.078125 Z M 9.109375 -46.109375 L 9.109375 -50.28125 L 13.28125 -50.28125 L 13.28125 -46.109375 Z M 32.125 -17.671875 L 32.125 -21.84375 L 36.296875 -21.84375 L 36.296875 -17.671875 Z M 26.359375 -23.296875 L 26.359375 -27.546875 L 30.53125 -27.546875 L 30.53125 -23.296875 Z M 9.109375 -40.40625 L 9.109375 -44.578125 L 13.28125 -44.578125 L 13.28125 -40.40625 Z M 32.125 -11.96875 L 32.125 -16.140625 L 36.296875 -16.140625 L 36.296875 -11.96875 Z M 26.359375 -17.671875 L 26.359375 -21.84375 L 30.53125 -21.84375 L 30.53125 -17.671875 Z M 20.578125 -23.296875 L 20.578125 -27.546875 L 24.828125 -27.546875 L 24.828125 -23.296875 Z M 9.109375 -34.703125 L 9.109375 -38.953125 L 13.28125 -38.953125 L 13.28125 -34.703125 Z M 3.34375 -40.40625 L 3.34375 -44.578125 L 7.515625 -44.578125 L 7.515625 -40.40625 Z M 32.125 -6.265625 L 32.125 -10.4375 L 36.296875 -10.4375 L 36.296875 -6.265625 Z M 26.359375 -11.96875 L 26.359375 -16.140625 L 30.53125 -16.140625 L 30.53125 -11.96875 Z M 14.890625 -23.296875 L 14.890625 -27.546875 L 19.0625 -27.546875 L 19.0625 -23.296875 Z M 9.109375 -29.078125 L 9.109375 -33.25 L 13.28125 -33.25 L 13.28125 -29.078125 Z M 3.34375 -34.703125 L 3.34375 -38.953125 L 7.515625 -38.953125 L 7.515625 -34.703125 Z M 32.125 -0.484375 L 32.125 -4.734375 L 36.296875 -4.734375 L 36.296875 -0.484375 Z M 26.359375 -6.265625 L 26.359375 -10.4375 L 30.53125 -10.4375 L 30.53125 -6.265625 Z M 9.109375 -23.296875 L 9.109375 -27.546875 L 13.28125 -27.546875 L 13.28125 -23.296875 Z M 3.34375 -29.078125 L 3.34375 -33.25 L 7.515625 -33.25 L 7.515625 -29.078125 Z M 26.359375 -0.484375 L 26.359375 -4.734375 L 30.53125 -4.734375 L 30.53125 -0.484375 Z M 9.109375 -17.671875 L 9.109375 -21.84375 L 13.28125 -21.84375 L 13.28125 -17.671875 Z M 3.34375 -23.296875 L 3.34375 -27.546875 L 7.515625 -27.546875 L 7.515625 -23.296875 Z M 9.109375 -11.96875 L 9.109375 -16.140625 L 13.28125 -16.140625 L 13.28125 -11.96875 Z M 3.34375 -17.671875 L 3.34375 -21.84375 L 7.515625 -21.84375 L 7.515625 -17.671875 Z M 9.109375 -6.265625 L 9.109375 -10.4375 L 13.28125 -10.4375 L 13.28125 -6.265625 Z M 3.34375 -11.96875 L 3.34375 -16.140625 L 7.515625 -16.140625 L 7.515625 -11.96875 Z M 9.109375 -0.484375 L 9.109375 -4.734375 L 13.28125 -4.734375 L 13.28125 -0.484375 Z M 3.34375 -6.265625 L 3.34375 -10.4375 L 7.515625 -10.4375 L 7.515625 -6.265625 Z M 3.34375 -0.484375 L 3.34375 -4.734375 L 7.515625 -4.734375 L 7.515625 -0.484375 Z M 3.34375 -0.484375 "/>
            </g>
        </g>
    </g>
    <g fill="#ffffff" fill-opacity="1">
        <g transform="translate(108.729939, 94.576145)">
            <g>
                <path d="M 26.359375 -40.40625 L 26.359375 -44.578125 L 30.53125 -44.578125 L 30.53125 -40.40625 Z M 20.578125 -46.109375 L 20.578125 -50.28125 L 24.828125 -50.28125 L 24.828125 -46.109375 Z M 14.890625 -46.109375 L 14.890625 -50.28125 L 19.0625 -50.28125 L 19.0625 -46.109375 Z M 9.109375 -46.109375 L 9.109375 -50.28125 L 13.28125 -50.28125 L 13.28125 -46.109375 Z M 9.109375 -40.40625 L 9.109375 -44.578125 L 13.28125 -44.578125 L 13.28125 -40.40625 Z M 26.359375 -17.671875 L 26.359375 -21.84375 L 30.53125 -21.84375 L 30.53125 -17.671875 Z M 20.578125 -23.296875 L 20.578125 -27.546875 L 24.828125 -27.546875 L 24.828125 -23.296875 Z M 14.890625 -29.078125 L 14.890625 -33.25 L 19.0625 -33.25 L 19.0625 -29.078125 Z M 9.109375 -34.703125 L 9.109375 -38.953125 L 13.28125 -38.953125 L 13.28125 -34.703125 Z M 3.34375 -40.40625 L 3.34375 -44.578125 L 7.515625 -44.578125 L 7.515625 -40.40625 Z M 26.359375 -11.96875 L 26.359375 -16.140625 L 30.53125 -16.140625 L 30.53125 -11.96875 Z M 20.578125 -17.671875 L 20.578125 -21.84375 L 24.828125 -21.84375 L 24.828125 -17.671875 Z M 14.890625 -23.296875 L 14.890625 -27.546875 L 19.0625 -27.546875 L 19.0625 -23.296875 Z M 9.109375 -29.078125 L 9.109375 -33.25 L 13.28125 -33.25 L 13.28125 -29.078125 Z M 3.34375 -34.703125 L 3.34375 -38.953125 L 7.515625 -38.953125 L 7.515625 -34.703125 Z M 26.359375 -6.265625 L 26.359375 -10.4375 L 30.53125 -10.4375 L 30.53125 -6.265625 Z M 20.578125 -11.96875 L 20.578125 -16.140625 L 24.828125 -16.140625 L 24.828125 -11.96875 Z M 14.890625 -17.671875 L 14.890625 -21.84375 L 19.0625 -21.84375 L 19.0625 -17.671875 Z M 9.109375 -23.296875 L 9.109375 -27.546875 L 13.28125 -27.546875 L 13.28125 -23.296875 Z M 3.34375 -29.078125 L 3.34375 -33.25 L 7.515625 -33.25 L 7.515625 -29.078125 Z M 20.578125 -6.265625 L 20.578125 -10.4375 L 24.828125 -10.4375 L 24.828125 -6.265625 Z M 20.578125 -0.484375 L 20.578125 -4.734375 L 24.828125 -4.734375 L 24.828125 -0.484375 Z M 14.890625 -0.484375 L 14.890625 -4.734375 L 19.0625 -4.734375 L 19.0625 -0.484375 Z M 9.109375 -0.484375 L 9.109375 -4.734375 L 13.28125 -4.734375 L 13.28125 -0.484375 Z M 3.34375 -6.265625 L 3.34375 -10.4375 L 7.515625 -10.4375 L 7.515625 -6.265625 Z M 3.34375 -6.265625 "/>
            </g>
        </g>
    </g>
    <g fill="#ffffff" fill-opacity="1">
        <g transform="translate(145.245715, 94.576145)">
            <g>
                <path d="M 26.359375 -46.109375 L 26.359375 -50.28125 L 30.53125 -50.28125 L 30.53125 -46.109375 Z M 20.578125 -46.109375 L 20.578125 -50.28125 L 24.828125 -50.28125 L 24.828125 -46.109375 Z M 14.890625 -46.109375 L 14.890625 -50.28125 L 19.0625 -50.28125 L 19.0625 -46.109375 Z M 9.109375 -46.109375 L 9.109375 -50.28125 L 13.28125 -50.28125 L 13.28125 -46.109375 Z M 9.109375 -40.40625 L 9.109375 -44.578125 L 13.28125 -44.578125 L 13.28125 -40.40625 Z M 3.34375 -46.109375 L 3.34375 -50.28125 L 7.515625 -50.28125 L 7.515625 -46.109375 Z M 20.578125 -23.296875 L 20.578125 -27.546875 L 24.828125 -27.546875 L 24.828125 -23.296875 Z M 9.109375 -34.703125 L 9.109375 -38.953125 L 13.28125 -38.953125 L 13.28125 -34.703125 Z M 3.34375 -40.40625 L 3.34375 -44.578125 L 7.515625 -44.578125 L 7.515625 -40.40625 Z M 14.890625 -23.296875 L 14.890625 -27.546875 L 19.0625 -27.546875 L 19.0625 -23.296875 Z M 9.109375 -29.078125 L 9.109375 -33.25 L 13.28125 -33.25 L 13.28125 -29.078125 Z M 3.34375 -34.703125 L 3.34375 -38.953125 L 7.515625 -38.953125 L 7.515625 -34.703125 Z M 9.109375 -23.296875 L 9.109375 -27.546875 L 13.28125 -27.546875 L 13.28125 -23.296875 Z M 3.34375 -29.078125 L 3.34375 -33.25 L 7.515625 -33.25 L 7.515625 -29.078125 Z M 26.359375 -0.484375 L 26.359375 -4.734375 L 30.53125 -4.734375 L 30.53125 -0.484375 Z M 9.109375 -17.671875 L 9.109375 -21.84375 L 13.28125 -21.84375 L 13.28125 -17.671875 Z M 3.34375 -23.296875 L 3.34375 -27.546875 L 7.515625 -27.546875 L 7.515625 -23.296875 Z M 20.578125 -0.484375 L 20.578125 -4.734375 L 24.828125 -4.734375 L 24.828125 -0.484375 Z M 9.109375 -11.96875 L 9.109375 -16.140625 L 13.28125 -16.140625 L 13.28125 -11.96875 Z M 3.34375 -17.671875 L 3.34375 -21.84375 L 7.515625 -21.84375 L 7.515625 -17.671875 Z M 14.890625 -0.484375 L 14.890625 -4.734375 L 19.0625 -4.734375 L 19.0625 -0.484375 Z M 9.109375 -6.265625 L 9.109375 -10.4375 L 13.28125 -10.4375 L 13.28125 -6.265625 Z M 3.34375 -11.96875 L 3.34375 -16.140625 L 7.515625 -16.140625 L 7.515625 -11.96875 Z M 9.109375 -0.484375 L 9.109375 -4.734375 L 13.28125 -4.734375 L 13.28125 -0.484375 Z M 3.34375 -6.265625 L 3.34375 -10.4375 L 7.515625 -10.4375 L 7.515625 -6.265625 Z M 3.34375 -0.484375 L 3.34375 -4.734375 L 7.515625 -4.734375 L 7.515625 -0.484375 Z M 3.34375 -0.484375 "/>
            </g>
        </g>
    </g>
    <g fill="#ffffff" fill-opacity="1">
        <g transform="translate(181.76149, 94.576145)">
            <g>
                <path d="M 32.125 -40.40625 L 32.125 -44.578125 L 36.296875 -44.578125 L 36.296875 -40.40625 Z M 26.359375 -46.109375 L 26.359375 -50.28125 L 30.53125 -50.28125 L 30.53125 -46.109375 Z M 32.125 -34.703125 L 32.125 -38.953125 L 36.296875 -38.953125 L 36.296875 -34.703125 Z M 26.359375 -40.40625 L 26.359375 -44.578125 L 30.53125 -44.578125 L 30.53125 -40.40625 Z M 20.578125 -46.109375 L 20.578125 -50.28125 L 24.828125 -50.28125 L 24.828125 -46.109375 Z M 32.125 -29.078125 L 32.125 -33.25 L 36.296875 -33.25 L 36.296875 -29.078125 Z M 26.359375 -34.703125 L 26.359375 -38.953125 L 30.53125 -38.953125 L 30.53125 -34.703125 Z M 14.890625 -46.109375 L 14.890625 -50.28125 L 19.0625 -50.28125 L 19.0625 -46.109375 Z M 32.125 -23.296875 L 32.125 -27.546875 L 36.296875 -27.546875 L 36.296875 -23.296875 Z M 26.359375 -29.078125 L 26.359375 -33.25 L 30.53125 -33.25 L 30.53125 -29.078125 Z M 9.109375 -46.109375 L 9.109375 -50.28125 L 13.28125 -50.28125 L 13.28125 -46.109375 Z M 32.125 -17.671875 L 32.125 -21.84375 L 36.296875 -21.84375 L 36.296875 -17.671875 Z M 26.359375 -23.296875 L 26.359375 -27.546875 L 30.53125 -27.546875 L 30.53125 -23.296875 Z M 9.109375 -40.40625 L 9.109375 -44.578125 L 13.28125 -44.578125 L 13.28125 -40.40625 Z M 3.34375 -46.109375 L 3.34375 -50.28125 L 7.515625 -50.28125 L 7.515625 -46.109375 Z M 32.125 -11.96875 L 32.125 -16.140625 L 36.296875 -16.140625 L 36.296875 -11.96875 Z M 26.359375 -17.671875 L 26.359375 -21.84375 L 30.53125 -21.84375 L 30.53125 -17.671875 Z M 9.109375 -34.703125 L 9.109375 -38.953125 L 13.28125 -38.953125 L 13.28125 -34.703125 Z M 3.34375 -40.40625 L 3.34375 -44.578125 L 7.515625 -44.578125 L 7.515625 -40.40625 Z M 32.125 -6.265625 L 32.125 -10.4375 L 36.296875 -10.4375 L 36.296875 -6.265625 Z M 26.359375 -11.96875 L 26.359375 -16.140625 L 30.53125 -16.140625 L 30.53125 -11.96875 Z M 9.109375 -29.078125 L 9.109375 -33.25 L 13.28125 -33.25 L 13.28125 -29.078125 Z M 3.34375 -34.703125 L 3.34375 -38.953125 L 7.515625 -38.953125 L 7.515625 -34.703125 Z M 26.359375 -6.265625 L 26.359375 -10.4375 L 30.53125 -10.4375 L 30.53125 -6.265625 Z M 9.109375 -23.296875 L 9.109375 -27.546875 L 13.28125 -27.546875 L 13.28125 -23.296875 Z M 3.34375 -29.078125 L 3.34375 -33.25 L 7.515625 -33.25 L 7.515625 -29.078125 Z M 26.359375 -0.484375 L 26.359375 -4.734375 L 30.53125 -4.734375 L 30.53125 -0.484375 Z M 9.109375 -17.671875 L 9.109375 -21.84375 L 13.28125 -21.84375 L 13.28125 -17.671875 Z M 3.34375 -23.296875 L 3.34375 -27.546875 L 7.515625 -27.546875 L 7.515625 -23.296875 Z M 20.578125 -0.484375 L 20.578125 -4.734375 L 24.828125 -4.734375 L 24.828125 -0.484375 Z M 9.109375 -11.96875 L 9.109375 -16.140625 L 13.28125 -16.140625 L 13.28125 -11.96875 Z M 3.34375 -17.671875 L 3.34375 -21.84375 L 7.515625 -21.84375 L 7.515625 -17.671875 Z M 14.890625 -0.484375 L 14.890625 -4.734375 L 19.0625 -4.734375 L 19.0625 -0.484375 Z M 9.109375 -6.265625 L 9.109375 -10.4375 L 13.28125 -10.4375 L 13.28125 -6.265625 Z M 3.34375 -11.96875 L 3.34375 -16.140625 L 7.515625 -16.140625 L 7.515625 -11.96875 Z M 9.109375 -0.484375 L 9.109375 -4.734375 L 13.28125 -4.734375 L 13.28125 -0.484375 Z M 3.34375 -6.265625 L 3.34375 -10.4375 L 7.515625 -10.4375 L 7.515625 -6.265625 Z M 3.34375 -0.484375 L 3.34375 -4.734375 L 7.515625 -4.734375 L 7.515625 -0.484375 Z M 3.34375 -0.484375 "/>
            </g>
        </g>
    </g>
    <g fill="#ffffff" fill-opacity="1">
        <g transform="translate(224.050231, 94.576145)">
            <g>
                <path d="M 37.828125 10.84375 L 37.828125 6.671875 L 42 6.671875 L 42 10.84375 Z M 32.125 10.84375 L 32.125 6.671875 L 36.296875 6.671875 L 36.296875 10.84375 Z M 26.359375 10.84375 L 26.359375 6.671875 L 30.53125 6.671875 L 30.53125 10.84375 Z M 20.578125 10.84375 L 20.578125 6.671875 L 24.828125 6.671875 L 24.828125 10.84375 Z M 14.890625 10.84375 L 14.890625 6.671875 L 19.0625 6.671875 L 19.0625 10.84375 Z M 9.109375 10.84375 L 9.109375 6.671875 L 13.28125 6.671875 L 13.28125 10.84375 Z M 3.34375 10.84375 L 3.34375 6.671875 L 7.515625 6.671875 L 7.515625 10.84375 Z M 3.34375 10.84375 "/>
            </g>
        </g>
    </g>
    <g fill="#ffffff" fill-opacity="1">
        <g transform="translate(266.269407, 94.576145)">
            <g>
                <path d="M 32.125 -46.109375 L 32.125 -50.28125 L 36.296875 -50.28125 L 36.296875 -46.109375 Z M 32.125 -40.40625 L 32.125 -44.578125 L 36.296875 -44.578125 L 36.296875 -40.40625 Z M 26.359375 -46.109375 L 26.359375 -50.28125 L 30.53125 -50.28125 L 30.53125 -46.109375 Z M 32.125 -34.703125 L 32.125 -38.953125 L 36.296875 -38.953125 L 36.296875 -34.703125 Z M 26.359375 -40.40625 L 26.359375 -44.578125 L 30.53125 -44.578125 L 30.53125 -40.40625 Z M 32.125 -29.078125 L 32.125 -33.25 L 36.296875 -33.25 L 36.296875 -29.078125 Z M 26.359375 -34.703125 L 26.359375 -38.953125 L 30.53125 -38.953125 L 30.53125 -34.703125 Z M 32.125 -23.296875 L 32.125 -27.546875 L 36.296875 -27.546875 L 36.296875 -23.296875 Z M 26.359375 -29.078125 L 26.359375 -33.25 L 30.53125 -33.25 L 30.53125 -29.078125 Z M 9.109375 -46.109375 L 9.109375 -50.28125 L 13.28125 -50.28125 L 13.28125 -46.109375 Z M 32.125 -17.671875 L 32.125 -21.84375 L 36.296875 -21.84375 L 36.296875 -17.671875 Z M 26.359375 -23.296875 L 26.359375 -27.546875 L 30.53125 -27.546875 L 30.53125 -23.296875 Z M 9.109375 -40.40625 L 9.109375 -44.578125 L 13.28125 -44.578125 L 13.28125 -40.40625 Z M 3.34375 -46.109375 L 3.34375 -50.28125 L 7.515625 -50.28125 L 7.515625 -46.109375 Z M 32.125 -11.96875 L 32.125 -16.140625 L 36.296875 -16.140625 L 36.296875 -11.96875 Z M 26.359375 -17.671875 L 26.359375 -21.84375 L 30.53125 -21.84375 L 30.53125 -17.671875 Z M 9.109375 -34.703125 L 9.109375 -38.953125 L 13.28125 -38.953125 L 13.28125 -34.703125 Z M 3.34375 -40.40625 L 3.34375 -44.578125 L 7.515625 -44.578125 L 7.515625 -40.40625 Z M 26.359375 -11.96875 L 26.359375 -16.140625 L 30.53125 -16.140625 L 30.53125 -11.96875 Z M 9.109375 -29.078125 L 9.109375 -33.25 L 13.28125 -33.25 L 13.28125 -29.078125 Z M 3.34375 -34.703125 L 3.34375 -38.953125 L 7.515625 -38.953125 L 7.515625 -34.703125 Z M 26.359375 -6.265625 L 26.359375 -10.4375 L 30.53125 -10.4375 L 30.53125 -6.265625 Z M 9.109375 -23.296875 L 9.109375 -27.546875 L 13.28125 -27.546875 L 13.28125 -23.296875 Z M 3.34375 -29.078125 L 3.34375 -33.25 L 7.515625 -33.25 L 7.515625 -29.078125 Z M 9.109375 -17.671875 L 9.109375 -21.84375 L 13.28125 -21.84375 L 13.28125 -17.671875 Z M 3.34375 -23.296875 L 3.34375 -27.546875 L 7.515625 -27.546875 L 7.515625 -23.296875 Z M 20.578125 -0.484375 L 20.578125 -4.734375 L 24.828125 -4.734375 L 24.828125 -0.484375 Z M 9.109375 -11.96875 L 9.109375 -16.140625 L 13.28125 -16.140625 L 13.28125 -11.96875 Z M 3.34375 -17.671875 L 3.34375 -21.84375 L 7.515625 -21.84375 L 7.515625 -17.671875 Z M 14.890625 -0.484375 L 14.890625 -4.734375 L 19.0625 -4.734375 L 19.0625 -0.484375 Z M 9.109375 -6.265625 L 9.109375 -10.4375 L 13.28125 -10.4375 L 13.28125 -6.265625 Z M 3.34375 -11.96875 L 3.34375 -16.140625 L 7.515625 -16.140625 L 7.515625 -11.96875 Z M 9.109375 -0.484375 L 9.109375 -4.734375 L 13.28125 -4.734375 L 13.28125 -0.484375 Z M 3.34375 -6.265625 L 3.34375 -10.4375 L 7.515625 -10.4375 L 7.515625 -6.265625 Z M 3.34375 -0.484375 L 3.34375 -4.734375 L 7.515625 -4.734375 L 7.515625 -0.484375 Z M 3.34375 -0.484375 "/>
            </g>
        </g>
    </g>
    <g fill="#ffffff" fill-opacity="1">
        <g transform="translate(308.558162, 94.576145)">
            <g>
                <path d="M 32.125 -40.40625 L 32.125 -44.578125 L 36.296875 -44.578125 L 36.296875 -40.40625 Z M 26.359375 -46.109375 L 26.359375 -50.28125 L 30.53125 -50.28125 L 30.53125 -46.109375 Z M 20.578125 -46.109375 L 20.578125 -50.28125 L 24.828125 -50.28125 L 24.828125 -46.109375 Z M 14.890625 -46.109375 L 14.890625 -50.28125 L 19.0625 -50.28125 L 19.0625 -46.109375 Z M 9.109375 -46.109375 L 9.109375 -50.28125 L 13.28125 -50.28125 L 13.28125 -46.109375 Z M 9.109375 -40.40625 L 9.109375 -44.578125 L 13.28125 -44.578125 L 13.28125 -40.40625 Z M 9.109375 -34.703125 L 9.109375 -38.953125 L 13.28125 -38.953125 L 13.28125 -34.703125 Z M 3.34375 -40.40625 L 3.34375 -44.578125 L 7.515625 -44.578125 L 7.515625 -40.40625 Z M 32.125 -6.265625 L 32.125 -10.4375 L 36.296875 -10.4375 L 36.296875 -6.265625 Z M 9.109375 -29.078125 L 9.109375 -33.25 L 13.28125 -33.25 L 13.28125 -29.078125 Z M 3.34375 -34.703125 L 3.34375 -38.953125 L 7.515625 -38.953125 L 7.515625 -34.703125 Z M 9.109375 -23.296875 L 9.109375 -27.546875 L 13.28125 -27.546875 L 13.28125 -23.296875 Z M 3.34375 -29.078125 L 3.34375 -33.25 L 7.515625 -33.25 L 7.515625 -29.078125 Z M 26.359375 -0.484375 L 26.359375 -4.734375 L 30.53125 -4.734375 L 30.53125 -0.484375 Z M 9.109375 -17.671875 L 9.109375 -21.84375 L 13.28125 -21.84375 L 13.28125 -17.671875 Z M 3.34375 -23.296875 L 3.34375 -27.546875 L 7.515625 -27.546875 L 7.515625 -23.296875 Z M 20.578125 -0.484375 L 20.578125 -4.734375 L 24.828125 -4.734375 L 24.828125 -0.484375 Z M 9.109375 -11.96875 L 9.109375 -16.140625 L 13.28125 -16.140625 L 13.28125 -11.96875 Z M 3.34375 -17.671875 L 3.34375 -21.84375 L 7.515625 -21.84375 L 7.515625 -17.671875 Z M 14.890625 -0.484375 L 14.890625 -4.734375 L 19.0625 -4.734375 L 19.0625 -0.484375 Z M 9.109375 -6.265625 L 9.109375 -10.4375 L 13.28125 -10.4375 L 13.28125 -6.265625 Z M 3.34375 -11.96875 L 3.34375 -16.140625 L 7.515625 -16.140625 L 7.515625 -11.96875 Z M 9.109375 -0.484375 L 9.109375 -4.734375 L 13.28125 -4.734375 L 13.28125 -0.484375 Z M 3.34375 -6.265625 L 3.34375 -10.4375 L 7.515625 -10.4375 L 7.515625 -6.265625 Z M 3.34375 -6.265625 "/>
            </g>
        </g>
    </g>
</svg>
