<svg xmlns="http://www.w3.org/2000/svg" viewBox="0 0 24 24" id="delivery-box-question">
    <path fill="currentColor"  d="M17.5 24c-3.584 0-6.5-2.916-6.5-6.5s2.916-6.5 6.5-6.5 6.5 2.916 6.5 6.5-2.916 6.5-6.5 6.5zm0-12c-3.033 0-5.5 2.468-5.5 5.5s2.467 5.5 5.5 5.5 5.5-2.468 5.5-5.5-2.467-5.5-5.5-5.5z"></path>
    <path fill="currentColor"  d="M17.5 20a.5.5 0 0 1-.5-.5v-.263c0-.961.505-1.882 1.386-2.526A1.502 1.502 0 0 0 17.5 14c-.827 0-1.5.673-1.5 1.5a.5.5 0 0 1-1 0c0-1.379 1.122-2.5 2.5-2.5s2.5 1.121 2.5 2.5c0 .793-.382 1.548-1.023 2.018-.365.267-.977.845-.977 1.719v.263a.5.5 0 0 1-.5.5zm0 2a.47.47 0 0 1-.35-.15.454.454 0 0 1-.15-.35c0-.13.05-.26.15-.351a.49.49 0 0 1 .54-.109c.06.02.12.06.16.109.1.091.15.221.15.351 0 .14-.05.26-.15.35a.47.47 0 0 1-.35.15zm-7.493-11.5a.5.5 0 0 1-.224-.947l9.494-4.75A.5.5 0 0 1 20 5.25V9.5a.5.5 0 0 1-1 0V6.059l-8.77 4.388a.497.497 0 0 1-.223.053z"></path>
    <path fill="currentColor"  d="M9.5 20a.512.512 0 0 1-.242-.062l-9-5A.502.502 0 0 1 0 14.5V5.25a.5.5 0 0 1 .723-.447l9.494 4.75a.5.5 0 0 1-.447.895L1 6.059v8.147l8.743 4.856A.5.5 0 0 1 9.5 20z"></path>
    <path fill="currentColor"  d="M19.5 5.75a.497.497 0 0 1-.223-.053L9.994 1.059.724 5.697a.5.5 0 1 1-.447-.894L9.771.053a.502.502 0 0 1 .447 0l9.506 4.75a.5.5 0 0 1-.224.947z"></path>
    <path fill="currentColor"  d="M5.043 11.739a.5.5 0 0 1-.5-.5V7.521a.5.5 0 0 1 .276-.447l9.494-4.75a.5.5 0 0 1 .447.895L5.543 7.831v3.409a.499.499 0 0 1-.5.499z"></path>
</svg>
