<svg xmlns="http://www.w3.org/2000/svg" viewBox="0 0 66 66" id="capital">
    <path fill="currentColor" d="M19.098 40.883c0 7.666 6.236 13.902 13.902 13.902s13.902-6.236 13.902-13.902S40.666 26.981 33 26.981s-13.902 6.236-13.902 13.902zm25.865 0c0 6.596-5.367 11.963-11.963 11.963S21.037 47.48 21.037 40.883c0-6.596 5.366-11.962 11.963-11.962s11.963 5.366 11.963 11.962z"></path>
    <path fill="currentColor" d="M32.033 33.62v.736c-1.637.431-2.853 1.909-2.853 3.677a3.827 3.827 0 0 0 3.823 3.822 1.88 1.88 0 0 1 1.878 1.878 1.88 1.88 0 0 1-3.762 0 .97.97 0 0 0-1.939 0c0 1.768 1.216 3.246 2.853 3.678v.736a.97.97 0 0 0 1.94 0v-.737c1.633-.432 2.847-1.91 2.847-3.677a3.822 3.822 0 0 0-3.817-3.817 1.886 1.886 0 0 1-1.884-1.883 1.88 1.88 0 0 1 3.761 0 .97.97 0 0 0 1.94 0c0-1.768-1.214-3.245-2.847-3.677v-.736a.97.97 0 0 0-1.94 0z"></path>
    <path fill="currentColor" d="M46.795 21.266a.97.97 0 1 0-1.372 1.37c7.532 7.545 12.592 20.932 12.592 28.703C58.015 62.197 47.174 63.06 33 63.06c-14.647 0-25.015-.841-25.015-11.722 0-8.229 6.434-23.312 15.727-30.518.165.028.332.051.504.051h18.672c1.45 0 2.66-1 3.005-2.344.822.066 2.084.427 2.583 1.958a.97.97 0 0 0 1.844-.601c-.423-1.3-1.21-2.118-2.083-2.618.767-.653 1.389-1.604 1.565-2.962a.97.97 0 1 0-1.923-.25c-.208 1.605-1.384 2.183-2.18 2.397a3.113 3.113 0 0 0-2.194-1.74c1.892-3.189 3.167-6.875 3.167-9.609 0-1.493-.39-2.554-1.196-3.244-1.453-1.245-3.734-.894-6.622-.45-1.645.253-3.51.54-5.404.54-1.934 0-3.729-.296-5.312-.557-2.533-.418-4.532-.748-5.853.373-.794.674-1.18 1.766-1.18 3.338 0 2.132.694 4.914 1.904 7.634a.97.97 0 0 0 1.772-.789c-1.088-2.444-1.737-5.003-1.737-6.845 0-.954.167-1.58.496-1.86.635-.54 2.326-.26 4.282.063 1.657.273 3.535.583 5.628.583 2.043 0 3.985-.3 5.699-.563 2.205-.34 4.29-.66 5.064.005.345.296.52.892.52 1.772 0 2.36-1.301 6.25-3.48 9.546H24.216a3.116 3.116 0 0 0-3.112 3.112c0 .787.304 1.499.787 2.047-9.4 7.803-15.845 23.097-15.845 31.53C6.046 65 20.99 65 33 65s26.954 0 26.954-13.661c0-8.125-5.03-21.932-13.159-30.073zm-22.579-4.677h18.672c.647 0 1.173.526 1.173 1.172s-.526 1.172-1.172 1.172H24.216c-.646 0-1.172-.526-1.172-1.172s.526-1.172 1.172-1.172z"></path>
</svg>
