<svg xmlns="http://www.w3.org/2000/svg" xmlns:xlink="http://www.w3.org/1999/xlink" version="1.1" id="Glyph" x="0px" y="0px" viewBox="0 0 64 64" style="enable-background:new 0 0 64 64;" xml:space="preserve" >
<path fill="currentColor" d="M52.235,26.351l-3.286,3.286c-0.305-0.417-0.615-0.828-0.949-1.22V24v-3.414v-4.172L50.414,14H55c4.418,0,8-3.582,8-8h-6  c-3.881,0-7.114,2.764-7.844,6.43L46,15.586v3l-3.235-3.235C42.048,12.84,39.741,11,37,11h-5c0,3.314,2.686,6,6,6h3.586L46,21.414  V24v2.379C42.283,23.045,37.386,21,32,21c-4.465,0-8.597,1.404-12,3.78V19v-0.414v-7.172L22.414,9H27c4.418,0,8-3.582,8-8h-6  c-3.881,0-7.114,2.764-7.844,6.43L18,10.586v6l-3.156-3.156C14.114,9.764,10.881,7,7,7H1c0,4.418,3.582,8,8,8h4.586L18,19.414v6.965  c-1.81,1.623-3.348,3.54-4.508,5.699l-2.683-2.683c0.321-1.353,0.569-3.72-1.025-5.314c-2.343-2.343-7.778-2.121-7.778-2.121  s-0.222,5.435,2.121,7.778c1.565,1.565,3.874,1.354,5.238,1.042L12.586,34C11.569,36.467,11,39.166,11,42c0,11.598,9.402,21,21,21  s21-9.402,21-21c0-3.896-1.08-7.531-2.928-10.658L53.414,28H57c3.314,0,6-2.686,6-6h-5C55.259,22,52.952,23.84,52.235,26.351z   M28,55h-2v-4.586l-2.707-2.707C23.105,47.52,23,47.266,23,47v-4.184c-1.163-0.413-2-1.512-2-2.816c0-1.657,1.343-3,3-3s3,1.343,3,3  c0,1.304-0.837,2.403-2,2.816v3.77l2.707,2.707C27.895,49.48,28,49.734,28,50V55z M33,34.816V55h-2V34.816  c-1.163-0.413-2-1.512-2-2.816c0-1.657,1.343-3,3-3s3,1.343,3,3C35,33.304,34.163,34.403,33,34.816z M41,42.816V47  c0,0.266-0.105,0.52-0.293,0.707L38,50.414V55h-2v-5c0-0.266,0.105-0.52,0.293-0.707L39,46.586v-3.77c-1.163-0.413-2-1.512-2-2.816  c0-1.657,1.343-3,3-3s3,1.343,3,3C43,41.304,42.163,42.403,41,42.816z"/>
</svg>
