<svg viewBox="0 0 206 55" focusable="false" class="chakra-icon css-1up8enx" xmlns="http://www.w3.org/2000/svg">
    <g clip-path="url(#clip0_556_5635)">
        <path d="M44.6663 54.1761L43.8493 53.3578L43.8382 39.8583L43.8215 26.3644L40.8927 30.0941L37.9639 33.8239L36.808 33.9464C36.1744 34.0132 35.6075 34.0688 35.5575 34.0688H35.4575V26.1974V18.3203L34.3738 17.1513L33.29 15.9823V14.8411V13.6943L34.4182 13.6999H35.5408L37.2081 15.2586L38.8753 16.8229L38.9031 21.9666L38.9309 27.1103L41.7986 23.1189L44.6607 19.122L45.0775 19.1053L45.4888 19.083L45.9056 18.5375C46.1335 18.2313 46.3447 17.9863 46.3669 17.9808C46.3891 17.9808 46.9949 18.4874 47.7118 19.1053L49.0123 20.2353L49.0178 30.6118V40.9828L48.1564 41.8958L47.295 42.8031V48.0916V53.3801L46.4058 54.1873C45.9167 54.6326 45.511 55 45.4999 55C45.4944 55 45.1164 54.6326 44.6663 54.1761Z"
              fill="currentColor"></path>
        <path d="M168.548 54.2596L167.559 53.7475L167.548 49.6837L167.531 45.62L167.098 45.5921L166.67 45.5643L159.334 36.496L151.998 27.4276V26.7763C151.998 26.4201 152.015 25.8968 152.031 25.624L152.07 25.1174L153.36 23.581L154.655 22.0501L154.693 21.0704L154.732 20.0906L160.79 12.7591C164.125 8.72876 166.931 5.34415 167.026 5.24394L167.198 5.06024L167.681 5.07137L168.159 5.08807L168.948 4.14172L169.732 3.20093H169.788C169.821 3.20093 170.282 3.55164 170.816 3.98028L171.794 4.75963L171.761 6.207C171.744 7.00305 171.716 9.97016 171.699 12.8037C171.683 15.6372 171.655 18.3593 171.638 18.8603L171.605 19.7622L170.766 20.6807C170.305 21.1873 169.916 21.5992 169.893 21.5992C169.877 21.5992 169.499 21.3042 169.06 20.9423L168.254 20.2854L168.237 15.4312L168.226 10.5769H168.176C168.148 10.5769 165.319 14.1508 161.885 18.5152L155.638 26.459L155.644 26.5481V26.6427L157.995 29.5208L160.34 32.3988L161.629 32.4044H162.919L165.192 35.3826C166.442 37.0137 167.487 38.3553 167.509 38.3553H167.559V33.2338V28.1124H163.847H160.14L159.34 27.3107L158.539 26.5091L158.617 26.4034C158.662 26.3421 159.017 25.9023 159.412 25.4236L160.129 24.5496H164.086H168.037L168.443 23.9651C168.659 23.6422 168.865 23.3806 168.887 23.3806C168.915 23.3806 169.632 23.7814 170.482 24.2657L172.033 25.1508L172.066 26.6761C172.083 27.5112 172.116 29.2591 172.139 30.5618L172.177 32.9276L171.538 33.8462L170.899 34.7647L170.894 43.7384V52.7065L170.249 53.7419C169.893 54.3097 169.588 54.7773 169.565 54.7773C169.549 54.7773 169.087 54.5435 168.548 54.2596Z"
              fill="currentColor"></path>
        <path d="M126.572 44.9519L119.57 37.9712H118.458L117.347 37.9656L111.973 32.5825L106.598 27.1994L106.226 27.4889L105.854 27.7783H105.142H104.426V35.9504V44.1169L103.703 44.9798L102.981 45.8426V47.919V50.001L102.164 50.8583L101.347 51.7156L101.302 51.7045C101.28 51.6933 100.846 51.3148 100.341 50.8639L99.4237 50.0344L99.4293 48.331C99.4293 47.3902 99.4738 42.1741 99.5293 36.7409L99.6294 26.8598L98.8902 26.1139L98.1455 25.3624V17.7024V10.0425L98.8402 9.26316L99.5349 8.48937V5.00455V1.51974L99.5738 0.762652L99.6071 0H100.669H101.736L102.353 0.706984L102.975 1.41953L102.981 10.2429L102.986 19.0663L103.703 19.6731L104.426 20.2799V21.2763V22.2783L104.481 22.2561C104.509 22.2505 107.677 18.7323 111.517 14.4459C115.357 10.1594 118.825 6.29605 119.22 5.86184L119.937 5.06579H123.955H127.978L128.945 5.84514C129.473 6.27379 129.907 6.64676 129.907 6.6746C129.907 6.70243 129.596 7.13107 129.212 7.62095L128.517 8.51164L125.572 8.52277C123.955 8.52834 122.337 8.54504 121.982 8.56731L121.331 8.60071L119.742 10.3821L118.158 12.1635L118.153 13.3603L118.147 14.5572L114.04 19.0329C111.778 21.499 109.927 23.5253 109.927 23.5364C109.927 23.5587 113.662 27.3274 120.209 33.9185L123.071 36.7966H124.127H125.183L130.535 42.1574L135.881 47.5127V49.7282V51.9383H134.731H133.575L126.572 44.9519Z"
              fill="currentColor"></path>
        <path d="M107.721 44.913L105.426 42.6194V40.2368V37.8542H105.47C105.492 37.8542 107.093 39.4408 109.027 41.378L112.539 44.8963V46.0541V47.2065H111.278H110.011L107.721 44.913Z"
              fill="currentColor"></path>
        <path d="M134.386 44.4397L133.547 43.5713V33.0055V22.4453L134.269 21.9888L134.986 21.5324L134.953 14.7019L134.92 7.87143L135.72 7.28135C136.159 6.96404 136.553 6.68013 136.587 6.65786L136.659 6.6189L137.532 7.21454C138.015 7.54299 138.432 7.82689 138.454 7.84916C138.482 7.87143 140.283 11.8851 142.467 16.7616L146.424 25.6295L146.474 25.6462L146.524 25.6629L146.507 23.208L146.496 20.7586L146.996 20.2186L147.496 19.6786V16.3385V12.9985L148.43 12.0632L149.358 11.1336L149.414 11.1391C149.447 11.1391 149.842 11.5566 150.297 12.0632L151.125 12.9818L151.092 15.381C151.07 16.7059 151.003 21.4823 150.936 25.9969L150.82 34.208L149.953 35.0875C149.475 35.5663 149.069 35.9615 149.047 35.9615C149.03 35.9615 148.458 35.6275 147.774 35.2267L146.529 34.4863L142.472 25.3178L138.41 16.1437H138.371H138.326V27.6336V39.1234L137.659 39.6078L136.993 40.0865V42.1017V44.1169L136.137 44.7181C135.664 45.0465 135.264 45.3137 135.253 45.3137C135.236 45.3137 134.847 44.9185 134.386 44.4397Z"
              fill="currentColor"></path>
        <path d="M198.015 42.6695C198.015 42.6528 198.009 42.0961 198.009 41.4336V40.2201L199.082 39.2514C199.671 38.7226 200.165 38.2661 200.171 38.2383L200.193 38.1882H198.32H196.453L195.275 39.1624L194.096 40.1366H183.754H173.411L172.544 39.4017L171.677 38.6614V37.4255L171.672 36.1897L182.12 22.8405C187.866 15.4979 192.568 9.47462 192.568 9.45236V9.40782H190.673H188.783L187.816 8.6563L186.849 7.90479H183.326C181.386 7.90479 179.275 7.92149 178.63 7.94375L177.452 7.97715V9.05155V10.1204L176.835 10.6659L176.218 11.2059L176.257 13.2155L176.301 15.2307L175.64 16.383L174.984 17.5354H174.929C174.895 17.5354 174.445 17.2793 173.923 16.9675L172.967 16.3942L172.933 12.9761C172.911 11.0946 172.895 8.90124 172.895 8.09962V6.64112L173.422 5.54446L173.945 4.45337H187.789H201.627V5.58343V6.71349L193.563 16.9286L185.493 27.1381L184.265 27.1659L183.037 27.1938L180.158 30.9792L177.274 34.7646L191.59 34.7813L205.906 34.7924V36.0672V37.3476L203.15 40.0197L200.388 42.6973H199.204C198.548 42.6973 198.015 42.6862 198.015 42.6695Z"
              fill="currentColor"></path>
        <path d="M14.1439 36.5181L13.1547 35.6274H8.06397H2.97883L2.71763 35.8501L2.45087 36.0728H1.22821H0V33.9351V31.803L10.0369 20.9366L20.0682 10.0758H20.5239C20.774 10.0758 21.302 10.0591 21.691 10.0368L22.4079 10.0034L25.5702 6.62996L28.7324 3.25648V2.56063V1.85921L29.6549 1.08543C30.1607 0.656785 30.5942 0.30051 30.6164 0.289376C30.6386 0.28381 30.9888 0.612251 31.3889 1.02419L32.1225 1.77015V3.58492C32.1225 8.2332 32.1225 13.4048 32.1225 14.9913L32.1169 16.7281L31.2277 17.5353C30.7387 17.9807 30.3052 18.3481 30.2718 18.3592L30.2051 18.3703L29.4827 17.552L28.7602 16.7337L28.7324 12.6421L28.7046 8.55051L17.4673 20.4245C11.2818 26.9544 6.22443 32.3208 6.22443 32.3486V32.3987H18.3954H30.5664V28.3182V24.2433L31.3333 23.4807L32.0947 22.7236L33.0006 23.4751L33.9009 24.2322V29.0642V33.8962L34.8457 34.72L35.796 35.5439L35.7793 35.6107C35.7682 35.6441 35.4181 36.0616 34.9957 36.5404L34.2288 37.4088H24.6865H15.1387L14.1439 36.5181Z"
              fill="currentColor"></path>
        <path d="M51.09 36.2232L50.2452 35.5997V30.1665C50.2397 27.1771 50.2563 19.7343 50.2786 13.6219L50.3119 2.51061L51.0177 1.40838L51.7235 0.306152L51.7735 0.311719C51.8013 0.311719 52.2515 0.662428 52.7795 1.09107L53.7353 1.86486V11.1391L53.7409 20.419L54.4078 21.1594L55.0747 21.8998V26.4534V31.0071H59.7819H64.4836L64.4002 30.9124C64.3558 30.8568 62.544 28.6857 60.3821 26.0804L56.453 21.3487L56.1584 21.332L55.8694 21.3153L55.0191 20.4301L54.1744 19.5395L54.1966 19.4894C54.2077 19.4615 54.5912 19.0997 55.0469 18.6822L55.8805 17.9251H56.9754H58.0758L58.2092 18.0809C58.287 18.1645 61.0324 21.4767 64.3224 25.4403L70.2968 32.6493L70.3023 33.9463V35.2378H69.1797L68.0515 35.2323L67.7459 34.876L67.4402 34.5197L60.6878 34.5141H53.9354L53.0018 35.6832L52.0736 36.8522L52.0014 36.8466C51.9681 36.8466 51.5568 36.5627 51.09 36.2232Z"
              fill="currentColor"></path>
        <path d="M91.7329 28.9085L85.0305 22.1281V20.9201V19.7065L87.8649 16.8452C89.4265 15.2754 90.6992 13.9727 90.6992 13.9505V13.9171H87.5592H84.4192V21.3766V28.8305L83.6356 29.6656L82.852 30.5061L81.9572 29.6711L81.0569 28.8417L81.1236 26.0416C81.1569 24.4996 81.1903 22.8741 81.1903 22.4231L81.1958 21.5993H81.1347C81.1013 21.5993 80.7568 21.3376 80.3678 21.0203L79.6564 20.4358L79.623 18.1367C79.6008 16.873 79.5841 15.4034 79.5841 14.8801V13.9171H79.0562H78.5282L77.8558 12.9039L77.1777 11.8908L77.2278 11.8184C77.2555 11.7794 77.978 11.1949 78.8339 10.5213L80.39 9.29663H84.5026H88.6207L89.0319 9.85331L89.4432 10.41H93.0723H96.7013V11.7349L96.6958 13.0542L93.1167 16.7005C91.1438 18.7045 89.5321 20.3634 89.5321 20.3801C89.5321 20.3968 91.5606 22.4844 94.0337 25.0173L98.5353 29.621V32.6494V35.6833H98.4853C98.4575 35.6833 95.4175 32.6327 91.7329 28.9085Z"
              fill="currentColor"></path>
        <path d="M64.8564 23.9817C59.9213 18.1923 55.8754 13.4271 55.8643 13.3881L55.8477 13.3269L57.4371 12.1189L59.021 10.9109H63.2336H67.4518L67.7963 11.3562L68.1409 11.8016H70.7196H73.3038L73.3094 10.3987V8.99034L74.2208 8.25552C74.721 7.84914 75.1489 7.51514 75.1767 7.51514C75.1989 7.5207 75.5268 7.93265 75.9048 8.43366L76.5828 9.35218V11.3395V13.3269L76.8106 13.5941C76.9385 13.7444 77.0329 13.8724 77.0218 13.8836C77.0107 13.8891 76.6217 14.2176 76.1549 14.6017L75.3101 15.3087L68.7522 15.3198L62.1999 15.3365L68.7633 23.1746L75.3268 31.007H80.0562H84.7857L85.7749 31.8476L86.7586 32.6938L86.7141 32.7327C86.6919 32.755 86.2473 33.167 85.7305 33.6457L84.7968 34.5141H79.3115H73.8318L64.8564 23.9817Z"
              fill="currentColor"></path>
        <path d="M129.38 32.9499L128.685 32.2874H128.101C127.779 32.2874 126.406 32.3264 125.045 32.3709C123.683 32.4155 122.294 32.4544 121.949 32.46L121.327 32.4767L120.799 31.9701L120.271 31.4635L121.527 30.1498L122.777 28.836H125.606H128.435V23.9651V19.0941H125.328H122.221L122.188 19.6675C122.171 19.9792 122.144 22 122.127 24.1543L122.088 28.0734L120.838 29.4038L119.587 30.7287L119.387 30.5506C119.27 30.4559 118.887 30.0997 118.531 29.7657L117.876 29.1533V24.9225V20.6973L118.259 20.2798L118.637 19.8623L118.67 19.1331L118.709 18.3983L118.27 17.9585L117.831 17.5187L118.587 16.6113L119.348 15.6984H123.967H128.585L129.324 14.9079C129.73 14.4681 130.08 14.1118 130.102 14.1118C130.124 14.1118 130.558 14.4737 131.069 14.9134L131.992 15.7151V23.7981V31.8755L131.069 32.7383C130.558 33.2115 130.13 33.6012 130.108 33.6068C130.091 33.6123 129.763 33.3173 129.38 32.9499Z"
              fill="currentColor"></path>
        <path d="M71.9147 22.0667C70.7699 22.0333 69.6806 21.9943 69.4972 21.9943L69.1637 21.9888L68.369 21.0869C67.9355 20.5859 67.5743 20.1573 67.5687 20.1239L67.5576 20.0682L68.5024 19.3891L69.4416 18.7043H72.8873H76.3329L77.0388 19.7787C77.4278 20.3633 77.7612 20.8865 77.7779 20.9366L77.8112 21.0257L76.8554 21.5935L75.905 22.1558L74.9491 22.1446C74.4267 22.1446 73.0596 22.1057 71.9147 22.0667Z"
              fill="currentColor"></path>
    </g>
    <defs>
        <clipPath id="clip0_556_5635">
            <rect width="205.906" height="55" fill="currentColor"></rect>
        </clipPath>
    </defs>
</svg>
