<svg viewBox="0 0 226 226" fill="none" xmlns="http://www.w3.org/2000/svg">
	<path d="M112.665 0C50.441 0 0 50.441 0 112.665C0 174.889 50.441 225.33 112.665 225.33C174.889 225.33 225.33 174.889 225.33 112.665C225.33 50.441 174.889 0 112.665 0ZM112.665 211.202C58.245 211.202 14.129 167.086 14.129 112.665C14.129 58.244 58.245 14.129 112.665 14.129C167.085 14.129 211.201 58.244 211.201 112.665C211.201 167.086 167.085 211.202 112.665 211.202Z" fill="white"/>
	<path d="M165.2 209.9L160 188.7H136L136.6 161.4H137.7L140.4 168.9C140.4 168.9 143.3 166.4 144.1 165.4C144.8 164.5 146.3 161.4 146.3 161.4V97.5L130.5 57.5V136.3L125.2 129.6V45.4L116.7 30.1V75.5L112.9 79.3L109.1 75.5V30L100.6 45.3V129.6L95.3 136.3V57.5L79.5 97.5V161.4C79.5 161.4 81 164.5 81.7 165.4C82.5 166.4 85.4 168.9 85.4 168.9L88.1 161.4H89.2L89.8 188.7H65.8L62.6 201.9L60 213.2H166L165.2 209.9ZM109.7 115.3L106.1 120.1V87.7L109.7 92.5V115.3ZM120 120.1L116.4 115.3V92.5L120 87.7V120.1Z" fill="white"/>
</svg>
