<svg viewBox="0 0 280 280" fill="none" xmlns="http://www.w3.org/2000/svg">
  <path d="M139.665 27C77.441 27 27 77.441 27 139.665C27 201.889 77.441 252.33 139.665 252.33C201.889 252.33 252.33 201.889 252.33 139.665C252.33 77.441 201.889 27 139.665 27ZM139.665 238.202C85.245 238.202 41.129 194.086 41.129 139.665C41.129 85.244 85.245 41.129 139.665 41.129C194.085 41.129 238.201 85.244 238.201 139.665C238.201 194.086 194.085 238.202 139.665 238.202Z" fill="white"/>
  <path d="M192.2 236.9L187 215.7H163L163.6 188.4H164.7L167.4 195.9C167.4 195.9 170.3 193.4 171.1 192.4C171.8 191.5 173.3 188.4 173.3 188.4V124.5L157.5 84.5V163.3L152.2 156.6V72.4L143.7 57.1V102.5L139.9 106.3L136.1 102.5V57L127.6 72.3V156.6L122.3 163.3V84.5L106.5 124.5V188.4C106.5 188.4 108 191.5 108.7 192.4C109.5 193.4 112.4 195.9 112.4 195.9L115.1 188.4H116.2L116.8 215.7H92.8L89.6 228.9L87 240.2H193L192.2 236.9ZM136.7 142.3L133.1 147.1V114.7L136.7 119.5V142.3ZM147 147.1L143.4 142.3V119.5L147 114.7V147.1Z" fill="white"/>
</svg>
