<?xml version="1.0" encoding="UTF-8"?>
<svg version="1.1" xmlns="http://www.w3.org/2000/svg" viewBox="0 0 250 250">
    <path d="M0 0 C0.65677734 0.16628906 1.31355469 0.33257812 1.99023438 0.50390625 C34.55672475 8.98312747 60.86400857 30.8891641 78.09375 59.421875 C94.30239632 87.36488577 98.83654707 122.51183789 90.64160156 153.70068359 C85.58676816 171.81576006 77.34391003 187.06771026 66 202 C65.28328125 202.95648438 64.5665625 203.91296875 63.828125 204.8984375 C63.22484375 205.59195313 62.6215625 206.28546875 62 207 C61.34 207 60.68 207 60 207 C59.79890625 207.54269531 59.5978125 208.08539063 59.390625 208.64453125 C57.42687697 211.97076738 54.66834599 214.22528097 51.75 216.6875 C51.12665771 217.21496826 50.50331543 217.74243652 49.86108398 218.28588867 C22.25379503 241.19657388 -10.58598757 249.13379867 -46 247 C-73.13357226 244.3104009 -96.86457527 231.83879669 -117 214 C-117.52464844 213.53867676 -118.04929688 213.07735352 -118.58984375 212.60205078 C-139.37297992 194.01713094 -152.52176656 165.3756393 -156 138 C-157.00575104 119.31849274 -157.1256992 100.86763351 -151 83 C-150.77006348 82.31502441 -150.54012695 81.63004883 -150.30322266 80.92431641 C-145.51849481 67.06452088 -138.74093792 53.99071863 -129 43 C-128.25492188 42.14664063 -127.50984375 41.29328125 -126.7421875 40.4140625 C-124.52585729 37.91223891 -122.27199288 35.45125103 -120 33 C-119.47277344 32.40703125 -118.94554687 31.8140625 -118.40234375 31.203125 C-89.40540198 0.05551491 -40.21535195 -10.34585818 0 0 Z M-100.38452148 49.86254883 C-118.63338359 67.70121309 -129.33373153 90.82724315 -131.16796875 116.3359375 C-131.44571975 145.33314237 -121.84640915 171.89663461 -101.5625 192.875 C-88.58679209 205.25349959 -72.56120274 214.89174287 -55 219 C-54.29504395 219.17442627 -53.59008789 219.34885254 -52.86376953 219.52856445 C-45.81368803 221.13318867 -38.96201239 221.3479001 -31.75 221.3125 C-30.55141357 221.30686035 -29.35282715 221.3012207 -28.11791992 221.29541016 C-19.66728012 221.17934099 -12.08214888 220.62769372 -4 218 C-3.0728418 217.70996094 -3.0728418 217.70996094 -2.12695312 217.4140625 C24.08689111 209.06274929 45.08816012 191.35200768 58 167 C69.91549014 141.71364194 71.62362602 114.04395414 62.52734375 87.5703125 C52.87887657 61.44026916 33.20936893 41.73751843 8.18798828 29.96630859 C-28.2549385 13.87156365 -71.71380789 22.90086496 -100.38452148 49.86254883 Z " fill="#FFFFFF" transform="translate(156,3)"/>
    <path d="M0 0 C1.53431325 7.32895261 2.20444888 14.53646081 2.5 22 C2.6358416 34.3451869 2.6358416 34.3451869 6 46 C6.56847656 45.59007812 7.13695313 45.18015625 7.72265625 44.7578125 C14.84406769 39.78827998 20.59382044 37.25672597 29.375 38.39453125 C36.69121572 40.08205125 41.88479596 43.62941132 47 49 C48.17184445 50.1862281 49.3437217 51.3724238 50.515625 52.55859375 C51.76152619 53.8504934 53.00629841 55.14348268 54.25 56.4375 C54.88679688 57.08009766 55.52359375 57.72269531 56.1796875 58.38476562 C59.74387981 62.11958417 61.83284706 64.59260224 62 70 C59.06724221 72.93275779 57.32833202 73.94617508 53.1875 74.625 C45.82358652 74.24985724 40.87816827 67.87816827 36 63 C29.52862153 57.65580835 24.819957 54.70060693 16.1875 54.875 C15.02605469 54.89304688 13.86460938 54.91109375 12.66796875 54.9296875 C11.78753906 54.95289063 10.90710938 54.97609375 10 55 C17.40432673 71.65973514 30.02481071 80.49761153 45.97167969 88.01660156 C47.94044919 88.97112775 49.8653976 89.98141032 51.7890625 91.0234375 C61.09121323 96.03190272 67.75389515 98.2973009 78.125 95.5625 C79.75542888 95.05891878 81.38268535 94.54422945 83 94 C85.26450112 98.71771067 86.18087422 101.67928347 86 107 C85.17757812 107.02578125 84.35515625 107.0515625 83.5078125 107.078125 C72.31527807 107.6467988 64.58195689 110.71193327 55.2265625 116.73046875 C48.33693842 120.65876318 39.08032566 119.73782308 31.625 117.9375 C21.76776271 114.90340817 12.61582684 110.07391734 4.76953125 103.3828125 C2.93980128 101.79383536 2.93980128 101.79383536 0 101 C-0.00257812 101.60585937 -0.00515625 102.21171875 -0.0078125 102.8359375 C-0.32990554 109.81462 -1.88063402 115.97333884 -7 121 C-10.64299944 122.36981502 -13.33370422 122.2559904 -17 121 C-24.60463434 115.68830313 -26.8143024 102.56762352 -28.62890625 94.046875 C-29.10463456 90.14089523 -29.14547272 86.30576271 -29.125 82.375 C-29.13080078 81.24964844 -29.13080078 81.24964844 -29.13671875 80.1015625 C-29.13032837 76.49738771 -28.88008258 73.52033031 -28 70 C-31.96 68.68 -35.92 67.36 -40 66 C-40.12375 68.083125 -40.2475 70.16625 -40.375 72.3125 C-40.75 78.625 -40.75 78.625 -43 82 C-46.12719121 82.65452839 -48.09099105 82.56042713 -50.84375 80.86328125 C-55.243788 77.31155566 -58.42167519 73.75188219 -59.3125 67.97265625 C-59.70906222 60.92128432 -57.84912429 54.22385254 -53.12890625 48.8828125 C-47.48630008 43.74153429 -43.04299868 41.71553821 -35.3125 41.8125 C-33.60513672 41.82216797 -33.60513672 41.82216797 -31.86328125 41.83203125 C-29 42 -29 42 -27 43 C-26.76216797 41.04320313 -26.76216797 41.04320313 -26.51953125 39.046875 C-23.24531318 13.8100237 -23.24531318 13.8100237 -13.125 4.62890625 C-4.93871866 -1.64623955 -4.93871866 -1.64623955 0 0 Z " fill="#FFFFFF" transform="translate(112,59)"/>
</svg>
