<svg xmlns="http://www.w3.org/2000/svg" data-name="Layer 1" viewBox="0 0 64 64" id="mystery-box">
    <path fill="currentColor" d="M2.65,42.94,6,44.19V52a1,1,0,0,0,.66.94l25,9a1,1,0,0,0,.68,0l25-9A1,1,0,0,0,58,52V44.19l3.35-1.25a1,1,0,0,0,.57-.55,1,1,0,0,0,0-.8l-4-9a1,1,0,0,0-.6-.54l-5.63-1.8A21,21,0,1,0,11,23a20.82,20.82,0,0,0,1.32,7.25l-5.63,1.8a1,1,0,0,0-.6.54l-4,9a1,1,0,0,0,0,.8A1,1,0,0,0,2.65,42.94ZM31,59.58,8,51.3V44.94l18.65,7a1,1,0,0,0,1.24-.49L31,45.24ZM56,51.3,33,59.58V45.24l3.11,6.21A1,1,0,0,0,37,52c.12,0,19-7.06,19-7.06Zm3.66-9.86L37.49,49.75,33.42,41.6l23-7.37ZM53.72,33l-4,1.28a21.93,21.93,0,0,0,1.2-2.18ZM32,4A19,19,0,0,1,49.46,30.49a18.49,18.49,0,0,1-3,4.84L32,40,17.57,35.33a18.38,18.38,0,0,1-3-4.85A18.83,18.83,0,0,1,13,23,19,19,0,0,1,32,4ZM13.09,32.1a21.93,21.93,0,0,0,1.2,2.18l-4-1.28ZM7.55,34.23l23,7.37-4.07,8.15L4.34,41.44Z"></path>
    <path fill="currentColor"  d="M26,13H38v9H32a1,1,0,0,0-1,1v7h2V24h6a1,1,0,0,0,1-1V12a1,1,0,0,0-1-1H25a1,1,0,0,0-1,1v5h2Z"></path>
    <rect width="2" height="4" x="31" y="32"></rect>
</svg>
