<?xml version="1.0" encoding="UTF-8" standalone="no"?>
<svg
   xmlns:dc="http://purl.org/dc/elements/1.1/"
   xmlns:cc="http://creativecommons.org/ns#"
   xmlns:rdf="http://www.w3.org/1999/02/22-rdf-syntax-ns#"
   xmlns:svg="http://www.w3.org/2000/svg"
   xmlns="http://www.w3.org/2000/svg"
   viewBox="0 0 3466.6667 3466.6667"

   xml:space="preserve"
   id="svg2"
   version="1.1"><metadata
     id="metadata8"><rdf:RDF><cc:Work
         rdf:about=""><dc:format>image/svg+xml</dc:format><dc:type
           rdf:resource="http://purl.org/dc/dcmitype/StillImage" /></cc:Work></rdf:RDF></metadata><defs
     id="defs6" /><g
     transform="matrix(1.3333333,0,0,-1.3333333,0,3466.6667)"
     id="g10"><g
       transform="scale(0.1)"
       id="g12"><g
         transform="scale(1.54307)"
         id="g14"><path
           id="path16"
           style="fill-opacity:1;fill-rule:nonzero;stroke:none"
                    fill="currentColor"

           d="m 15435.4,12702.7 c -3,2 -6.6,2.5 -9.8,4.4 -2,1.3 -2.8,2.9 -5.3,4.1 l -6882.82,3552.3 c -70.57,36.5 -154.59,36.5 -225.41,0 L 1429.24,12711.2 c -1.81,-1 -1.57,-2.2 -3.02,-3 -4.07,-2.3 -8.27,-3 -12.11,-5.4 -73.22,-44.8 -117.99,-124.4 -117.99,-210.1 V 4800.91 c 0,-87.86 46.57,-168.75 122.43,-212.69 L 8301.39,592.038 h 0.11 c 0.24,-0.241 0.37,-0.481 0.61,-0.481 37.92,-22.087 80.3,-32.884 122.66,-32.884 42.01,0 84.26,10.797 121.96,32.643 0.24,0.241 0.48,0 0.72,0.241 0.23,0 0.35,0.24 0.47,0.24 0.12,0.241 0.12,0.241 0.24,0.241 L 15431,4588.22 c 75.9,43.94 122.4,125.07 122.4,212.69 v 7691.79 c 0,85.7 -44.6,165.3 -118,210 z M 8424.77,15768.5 14771.8,12492.7 8424.77,9216.71 2077.98,12492.6 Z M 1787.76,12089 8178.95,8790.26 V 1231.3 l -6391.19,3711 z M 15061.8,4942.3 8670.59,1231.54 v 7558.83 l 1641.01,846.92 4750.2,2451.81 V 4942.3" /></g><g
         transform="scale(1.15921)"
         id="g18"><path
           id="path20"
           style="fill-opacity:1;fill-rule:nonzero;stroke:none"
                    fill="currentColor"

           d="m 15673.8,6638.35 c -350.8,-145.41 -626,-534.93 -626,-885.79 0,-350.86 275.2,-511.9 626,-366.52 351.2,145.71 626.2,534.28 626.2,885.46 0,350.86 -275,512.56 -626.2,366.85" /></g><g
         transform="scale(1.27164)"
         id="g22"><path
           id="path24"
           style="fill-opacity:1;fill-rule:nonzero;stroke:none"
                    fill="currentColor"

           d="m 12498.2,8850.74 c -0.9,-45.14 36.1,-65.83 80.8,-47.48 l 763,316.63 c 45.1,18.65 81.2,69.62 83.8,115.36 34.7,574.43 387.1,1050.95 955.3,1286.35 216.4,89.9 922.7,323.9 922.7,-429.1 0,-434.58 -247.9,-729.08 -658.6,-1217.3 -419.5,-494.02 -865.5,-1079.24 -846.5,-1759.4 l 4.2,-603.27 c 0.3,-44.58 37,-65.54 81.4,-46.9 l 767.6,371.99 c 44.5,18.63 80.9,70.19 80.9,114.76 v 461.99 c 0,489.37 186.8,711.05 685.9,1304.12 392.5,468.41 881.3,1051.57 881.3,1835.11 0,1098.8 -941.5,1200.6 -1874.3,814.2 -352.9,-146.2 -1014.8,-490 -1475.4,-1148 -291.3,-415.66 -443.2,-875.9 -452.1,-1369.06" /></g><path
         id="path26"
         style="fill-opacity:1;fill-rule:nonzero;stroke:none"
         fill="currentColor"

         d="m 7546.31,7720.02 c -413.77,171.13 -737.87,-18.89 -737.87,-432.27 0,-413.77 324.1,-871.97 737.87,-1043.47 413.57,-170.76 737.69,18.88 737.69,432.28 -0.19,413.75 -324.12,871.96 -737.69,1043.46" /><path
         id="path28"
         style="fill-opacity:1;fill-rule:nonzero;stroke:none"
         fill="currentColor"

         d="m 7724.1,14443.3 c -456.72,189.1 -1311.66,453.2 -1907.11,96.5 -376.15,-225.5 -572.48,-657.7 -584.14,-1285.3 -1.11,-57.4 46.49,-124.1 104.63,-148 l 986.25,-408 c 57.6,-23.7 104.65,3.3 108.16,59.6 45,704.7 500.26,944.2 1234.81,639.9 279.67,-115.7 1192.38,-569.5 1192.38,-1543 0,-561.2 -320.43,-676 -851.42,-867.1 -542.11,-190.8 -1118.11,-469 -1093.66,-1368.72 l 5.18,-713.44 c 0.74,-57.79 47.79,-124.08 105.57,-148.16 l 991.62,-501.92 c 57.79,-23.34 104.45,4.07 104.45,62.23 v 687.5 c 0,632.31 241.52,718.99 886.6,950.86 507.31,185.25 1139.08,415.65 1139.08,1429.05 0,1419.1 -1216.68,2558.9 -2422.4,3058" /><g
         transform="scale(1.11933)"
         id="g30"><path
           id="path32"
           style="fill-opacity:1;fill-rule:nonzero;stroke:none"
                 fill="currentColor"
           d="m 13560.6,15329.1 c 296.6,-183.1 768,-153.1 1074.2,67.8 305.2,221.1 312.9,537.4 16.2,720.1 -296.9,183 -768.4,153 -1074.5,-67.8 -305.8,-221.1 -312.4,-537.5 -15.9,-720.1" /></g><g
         transform="scale(1.38447)"
         id="g34"><path
           id="path36"
           style="fill-opacity:1;fill-rule:nonzero;stroke:none"
           fill="currentColor"
           d="m 6941.36,13611.8 c 32.77,-21.1 88.7,-17.3 123.22,7.9 l 589.01,425.9 c 34.25,24.9 35.06,61.9 3.61,84.1 -392.5,277.9 -368.41,627.3 70.37,944.6 166.82,120.7 756.24,487.9 1320.38,140.1 325.49,-200.5 277.72,-427.8 198.8,-803.9 -83.22,-382.2 -127.9,-815.5 402.67,-1122.9 l 415.48,-251.5 c 33.9,-20.6 89,-16.8 123.5,8 l 634.9,402.4 c 34.4,25.2 35.1,62.1 1.5,82.7 l -388,238.9 c -366.9,226 -330.9,397 -234.9,853.7 73.7,360.5 165.9,809.1 -421.38,1171.2 -823,507 -1918.37,208.7 -2638.76,-312 -272.77,-197 -731.36,-598.2 -737.11,-1071.1 -3.61,-299 176.86,-567.1 536.71,-798.1" /></g></g></g></svg>
