<svg viewBox="0 0 30 24" fill="none" xmlns="http://www.w3.org/2000/svg">
    <g clip-path="url(#clip0_3200_139)">
        <path d="M29.3889 9.01338V14.9866C29.3849 16.8599 28.8585 18.695 27.8688 20.2855C26.8905 21.8641 25.4817 23.1305 23.8081 23.9358L23.6797 24V22.7226L23.7261 22.694C25.1054 21.9476 26.2533 20.8367 27.0445 19.4826C27.8451 18.1194 28.2675 16.5675 28.2684 14.9866V9.01338C28.2688 7.43013 27.8463 5.87551 27.0445 4.51026C26.2506 3.15826 25.1034 2.04805 23.7261 1.29884L23.6797 1.27386V0L23.8081 0.0606601C25.4798 0.865706 26.8872 2.13075 27.8652 3.7074C28.8557 5.30037 29.3833 7.13759 29.3889 9.01338V9.01338Z"
              fill="currentColor"></path>
        <path d="M5.58073 0.0606601L5.70919 0V1.27743L5.6628 1.30241C4.28464 2.05045 3.13715 3.16093 2.34434 4.51383C1.5432 5.87803 1.12069 7.43134 1.12043 9.01338V14.9866C1.12196 16.5662 1.54443 18.1169 2.34434 19.479C3.13556 20.8332 4.28345 21.944 5.6628 22.6905L5.70919 22.719V23.9929L5.58073 23.9322C3.90796 23.1272 2.50026 21.8606 1.52364 20.2819C0.535047 18.692 0.00755589 16.8588 0 14.9866L0 9.01338C0.00557222 7.13759 0.53314 5.30037 1.52364 3.7074C2.50079 2.12998 3.90843 0.864709 5.58073 0.0606601V0.0606601Z"
              fill="currentColor"></path>
        <path d="M18.7541 6.53631H20.0209V20.0421H18.7541V17.4837L15.3072 14.547V20.0421H14.0441V13.4694L10.5971 10.5327V20.0421H9.33398V6.53631H10.5971V8.8521L14.0441 11.7745V5.35165H9.34112V4.07422H20.0102V5.36949H15.3072V12.8628L18.7541 15.803V6.53631Z"
              fill="currentColor"></path>
    </g>
    <defs>
        <clipPath id="clip0_3200_139">
            <rect width="29.388" height="24" fill="white"></rect>
        </clipPath>
    </defs>
</svg>
