<svg xmlns="http://www.w3.org/2000/svg" viewBox="0 0 64 64" id="txt-file">
    <g data-name="Layer 28">
        <path fill="currentColor"
              d="M21.83 27.56H18.76V25.91h8.15v1.65H23.8V36.7h-2zM34.25 36.7L33.1 34.55c-.47-.83-.77-1.41-1.09-2h0c-.26.62-.55 1.2-1 2L29.93 36.7H27.67l3.2-5.46-3.08-5.33h2.27l1.17 2.22c.35.67.6 1.2.88 1.81h0c.29-.67.52-1.15.85-1.81l1.16-2.22h2.25l-3.15 5.26 3.28 5.53zM40.17 27.56H37.1V25.91h8.14v1.65h-3.1V36.7h-2z"></path>
        <path fill="none" stroke="currentColor" stroke-linecap="round" stroke-linejoin="round" stroke-width="2"
              d="M8,4H41.13A14.87,14.87,0,0,1,56,18.87V60a0,0,0,0,1,0,0H8a0,0,0,0,1,0,0V4A0,0,0,0,1,8,4Z"></path>
    </g>
</svg>
