<svg xmlns="http://www.w3.org/2000/svg"  fill="none" viewBox="0 0 24 24" id="txt">
    <path fill="currentColor" fill-rule="evenodd"
          d="M4.5 3C4.5 2.17157 5.17157 1.5 6 1.5H15C15.2761 1.5 15.5 1.72386 15.5 2C15.5 2.27614 15.2761 2.5 15 2.5H6C5.72386 2.5 5.5 2.72386 5.5 3V12C5.5 12.2761 5.27614 12.5 5 12.5C4.72386 12.5 4.5 12.2761 4.5 12V3ZM21 7.5C21.2761 7.5 21.5 7.72386 21.5 8V21C21.5 21.8284 20.8284 22.5 20 22.5H7C6.72386 22.5 6.5 22.2761 6.5 22C6.5 21.7239 6.72386 21.5 7 21.5H20C20.2761 21.5 20.5 21.2761 20.5 21V8C20.5 7.72386 20.7239 7.5 21 7.5Z"
          clip-rule="evenodd"></path>
    <path fill="currentColor" fill-rule="evenodd"
          d="M14.8087 1.53807C14.9955 1.46068 15.2106 1.50346 15.3536 1.64646L21.3536 7.64646C21.4966 7.78946 21.5393 8.00452 21.4619 8.19136 21.3845 8.37819 21.2022 8.50001 21 8.50001H16C15.1716 8.50001 14.5 7.82844 14.5 7.00001V2.00001C14.5 1.79778 14.6218 1.61547 14.8087 1.53807zM15.5 3.20712V7.00001C15.5 7.27616 15.7239 7.50001 16 7.50001H19.7929L15.5 3.20712zM13.5 15C13.5 14.7239 13.7239 14.5 14 14.5H17C17.2761 14.5 17.5 14.7239 17.5 15 17.5 15.2761 17.2761 15.5 17 15.5H16V19C16 19.2761 15.7761 19.5 15.5 19.5 15.2239 19.5 15 19.2761 15 19V15.5H14C13.7239 15.5 13.5 15.2761 13.5 15zM8.2 14.6C8.42091 14.4343 8.73431 14.4791 8.9 14.7L11.9 18.7C12.0657 18.9209 12.0209 19.2343 11.8 19.4 11.5791 19.5657 11.2657 19.5209 11.1 19.3L8.1 15.3C7.93431 15.0791 7.97909 14.7657 8.2 14.6zM2.5 15C2.5 14.7239 2.72386 14.5 3 14.5H6C6.27614 14.5 6.5 14.7239 6.5 15 6.5 15.2761 6.27614 15.5 6 15.5H5V19C5 19.2761 4.77614 19.5 4.5 19.5 4.22386 19.5 4 19.2761 4 19V15.5H3C2.72386 15.5 2.5 15.2761 2.5 15z"
          clip-rule="evenodd"></path>
    <path fill="currentColor" fill-rule="evenodd"
          d="M11.8 14.6C11.5791 14.4343 11.2657 14.4791 11.1 14.7L8.1 18.7C7.93432 18.9209 7.97909 19.2343 8.2 19.4C8.42092 19.5657 8.73432 19.5209 8.9 19.3L11.9 15.3C12.0657 15.0791 12.0209 14.7657 11.8 14.6Z"
          clip-rule="evenodd"></path>
</svg>
