<svg xmlns="http://www.w3.org/2000/svg"  >
    <path fill="currentColor" d="M56.1 15.7s0-.1 0 0c-.1-.1-.1-.2-.2-.3L40.4.5c-.1-.1-.1-.1-.2-.1H15.1c-2.2 0-4 1.8-4 4V21H8.3c-2.5 0-4.5 2-4.5 4.5v11.4c0 2.5 2 4.5 4.5 4.5h2.8v14.4c0 2.2 1.8 4 4 4h37.1c2.2 0 4-1.8 4-4V15.9c-.1-.1-.1-.2-.1-.2zM40.6 2.8l12.9 12.4H43.1c-1.4 0-2.5-1.1-2.5-2.5V2.8zM5.4 36.9V25.5c0-1.6 1.3-3 3-3h27.1c1.6 0 3 1.3 3 3v11.4c0 1.6-1.3 3-3 3H8.3c-1.6-.1-2.9-1.4-2.9-3zm49.2 18.9c0 1.4-1.1 2.5-2.5 2.5h-37c-1.4 0-2.5-1.1-2.5-2.5V41.3h22.9c2.5 0 4.5-2 4.5-4.5V25.5c0-2.5-2-4.5-4.5-4.5H12.6V4.2c0-1.4 1.1-2.5 2.5-2.5h24v10.9c0 2.2 1.8 4 4 4h11.6v39.2z"></path>
    <path fill="currentColor" d="M12.8 29.1h1.7v5.5c0 .3.1.5.2.7.1.2.3.2.6.2.2 0 .4-.1.5-.2.1-.2.2-.4.2-.7v-5.5h1.7c.3 0 .5-.1.6-.2.1-.1.2-.3.2-.5s-.1-.3-.2-.5c-.1-.1-.3-.2-.6-.2h-4.9c-.3 0-.4.1-.6.2-.1.1-.2.3-.2.5s.1.3.2.5c.1.1.3.2.6.2zM18.7 34.8c0 .2.1.4.2.5.1.1.3.2.5.2.1 0 .2 0 .3-.1.1 0 .2-.1.2-.2l.2-.2c0-.1.1-.2.2-.4l1.4-2.2 1.3 2.1c.2.3.3.4.3.5.1.1.1.2.2.2.1.1.2.1.4.1.1 0 .3 0 .4-.1.1-.1.2-.1.2-.2.1-.1.1-.2.1-.3 0-.1 0-.3-.1-.4-.1-.1-.2-.3-.3-.5l-1.6-2.5 1.5-2.2c.3-.4.4-.7.4-.9 0-.2-.1-.3-.2-.4-.1-.1-.3-.2-.5-.2-.1 0-.2 0-.3.1-.1 0-.2.1-.2.2-.1.1-.1.2-.2.3-.1.1-.2.2-.3.4l-1.2 1.8-1.1-1.8c-.2-.3-.4-.6-.5-.7-.1-.1-.3-.2-.5-.2s-.3.1-.5.2c-.1.1-.2.2-.2.4 0 .1 0 .3.1.4.1.2.2.3.3.5l1.4 2.2-1.7 2.5c-.1.4-.2.7-.2.9zM25.8 29.1h1.7v5.5c0 .3.1.5.2.7.1.2.3.2.6.2.2 0 .4-.1.5-.2.1-.2.2-.4.2-.7v-5.5h1.7c.3 0 .5-.1.6-.2.1-.1.2-.3.2-.5s-.1-.3-.2-.5c-.1-.1-.3-.2-.6-.2h-4.9c-.2 0-.4.1-.6.2-.1.1-.2.3-.2.5s.1.3.2.5c.1.1.3.2.6.2z"></path>
</svg>
