<svg xmlns="http://www.w3.org/2000/svg" data-name="Layer 1" viewBox="0 0 100 100" id="timeline">
    <path fill="currentColor" d="M91.25 78.17h-4.62a6.13 6.13 0 0 0-11.89 0h-18.8a6.16 6.16 0 0 0-3.6-4.17l11.08-11.08h17.16a6.51 6.51 0 0 0 6.5-6.5v-32a6.51 6.51 0 0 0-6.5-6.5H20.2a6.51 6.51 0 0 0-6.5 6.5v32a6.51 6.51 0 0 0 6.5 6.5h17.16l10.88 10.87a6.15 6.15 0 0 0-4.18 4.38h-18.8a6.13 6.13 0 0 0-11.89 0H8.75a1.5 1.5 0 0 0 0 3h4.62a6.13 6.13 0 0 0 11.89 0h18.8a6.13 6.13 0 0 0 11.89 0h18.8a6.13 6.13 0 0 0 11.89 0h4.62a1.5 1.5 0 0 0 0-3zM19.31 82.8a3.14 3.14 0 1 1 3.14-3.14 3.14 3.14 0 0 1-3.14 3.14zM39 60.36a1.5 1.5 0 0 0-1-.44H20.2a3.5 3.5 0 0 1-3.5-3.5v-32a3.5 3.5 0 0 1 3.5-3.5h60.38a3.5 3.5 0 0 1 3.5 3.5v32a3.5 3.5 0 0 1-3.5 3.5H62.8a1.5 1.5 0 0 0-1.06.44L50.39 71.71zM50 82.8a3.14 3.14 0 1 1 3.14-3.14A3.14 3.14 0 0 1 50 82.8zm30.69 0a3.14 3.14 0 1 1 3.14-3.14 3.14 3.14 0 0 1-3.14 3.14z"></path>
    <path fill="currentColor" d="M51.6 41.67h23.58a1.5 1.5 0 000-3H51.6a1.5 1.5 0 000 3zM51.6 31.67h23.58a1.5 1.5 0 000-3H51.6a1.5 1.5 0 000 3zM51.6 51.67h18.58a1.5 1.5 0 000-3H51.6a1.5 1.5 0 000 3zM43.33 28.67h-20a1.5 1.5 0 00-1.5 1.5v20a1.5 1.5 0 001.5 1.5h20a1.5 1.5 0 001.5-1.5v-20a1.5 1.5 0 00-1.5-1.5zm-1.5 20h-17v-17h17z"></path>
</svg>
